<?xml version="1.0" encoding="iso-8859-1"?>
<!-- Generator: Adobe Illustrator 19.0.0, SVG Export Plug-In . SVG Version: 6.00 Build 0)  -->
<svg xmlns="http://www.w3.org/2000/svg" xmlns:xlink="http://www.w3.org/1999/xlink" version="1.1" id="Layer_1" x="0px" y="0px" viewBox="0 0 512 512" style="enable-background:new 0 0 512 512;" xml:space="preserve">
<g>
	<g>
		<path d="M95.642,121.941c-0.419-0.387-0.878-0.731-1.367-1.025c-0.434-0.339-0.925-0.599-1.45-0.767    c-0.51-0.259-1.059-0.433-1.625-0.517c-1.094-0.25-2.231-0.25-3.325,0c-0.534,0.096-1.05,0.27-1.533,0.517    c-0.546,0.184-1.065,0.442-1.542,0.767c-0.445,0.316-0.871,0.658-1.275,1.025c-1.561,1.634-2.445,3.799-2.475,6.059    c-0.031,1.119,0.203,2.23,0.683,3.242c0.434,1.034,1.04,1.986,1.792,2.817c0.829,0.754,1.782,1.36,2.817,1.792    c3.175,1.362,6.859,0.652,9.3-1.792c0.752-0.831,1.358-1.783,1.792-2.817c0.437-1.026,0.669-2.127,0.683-3.242    C98.083,125.741,97.199,123.578,95.642,121.941z"/>
	</g>
</g>
<g>
	<g>
		<path d="M129.775,121.941c-0.419-0.387-0.878-0.731-1.367-1.025c-0.434-0.339-0.925-0.599-1.45-0.767    c-0.51-0.259-1.059-0.433-1.625-0.517c-1.094-0.25-2.231-0.25-3.325,0c-0.534,0.096-1.05,0.27-1.533,0.517    c-0.546,0.184-1.065,0.442-1.542,0.767c-0.445,0.316-0.871,0.658-1.275,1.025c-1.561,1.634-2.445,3.799-2.475,6.059    c-0.031,1.119,0.203,2.23,0.683,3.242c0.434,1.034,1.04,1.986,1.792,2.817c0.816,0.772,1.772,1.38,2.817,1.792    c3.175,1.362,6.859,0.652,9.3-1.792c0.752-0.831,1.358-1.783,1.792-2.817c0.437-1.026,0.669-2.127,0.683-3.242    C132.216,125.741,131.333,123.578,129.775,121.941z"/>
	</g>
</g>
<g>
	<g>
		<path d="M163.908,121.941c-0.419-0.387-0.877-0.731-1.367-1.025c-0.434-0.339-0.925-0.599-1.45-0.767    c-0.51-0.259-1.059-0.433-1.625-0.517c-1.066-0.25-2.176-0.25-3.242,0c-0.563,0.083-1.109,0.258-1.617,0.517    c-0.546,0.184-1.065,0.442-1.542,0.767c-0.445,0.316-0.871,0.658-1.276,1.025c-1.561,1.634-2.445,3.799-2.475,6.059    c-0.031,1.119,0.203,2.23,0.683,3.242c0.433,1.034,1.039,1.986,1.791,2.817c3.365,3.3,8.752,3.3,12.117,0    c0.752-0.831,1.358-1.783,1.792-2.817c0.438-1.026,0.67-2.127,0.683-3.242C166.35,125.741,165.466,123.578,163.908,121.941z"/>
	</g>
</g>
<g>
	<g>
		<path d="M95.642,156.075c-0.419-0.387-0.878-0.731-1.367-1.025c-0.434-0.339-0.925-0.599-1.45-0.767    c-0.51-0.259-1.059-0.433-1.625-0.517c-2.783-0.558-5.661,0.308-7.675,2.308c-1.561,1.634-2.445,3.799-2.475,6.059    c-0.023,2.27,0.869,4.454,2.475,6.059c0.829,0.754,1.782,1.36,2.817,1.792c1.013,0.476,2.123,0.71,3.242,0.683    c4.667,0.045,8.488-3.702,8.533-8.369c0.001-0.055,0.001-0.109,0-0.164C98.083,159.874,97.199,157.711,95.642,156.075z"/>
	</g>
</g>
<g>
	<g>
		<path d="M129.775,156.075c-0.419-0.387-0.878-0.731-1.367-1.025c-0.434-0.339-0.925-0.599-1.45-0.767    c-0.51-0.259-1.059-0.433-1.625-0.517c-2.783-0.558-5.661,0.308-7.675,2.308c-0.772,0.816-1.38,1.772-1.792,2.817    c-0.437,1.026-0.669,2.127-0.683,3.242c-0.023,2.27,0.869,4.454,2.475,6.059c0.829,0.754,1.782,1.36,2.817,1.792    c2.065,0.911,4.418,0.911,6.483,0c1.034-0.434,1.986-1.04,2.817-1.792c1.603-1.607,2.494-3.789,2.475-6.059    C132.216,159.874,131.333,157.711,129.775,156.075z"/>
	</g>
</g>
<g>
	<g>
		<path d="M163.908,156.075c-2.455-2.417-6.122-3.124-9.3-1.792c-1.045,0.412-2.001,1.02-2.817,1.792    c-0.754,0.829-1.36,1.782-1.792,2.817c-0.438,1.026-0.67,2.127-0.683,3.242c-0.023,2.27,0.869,4.454,2.475,6.059    c0.83,0.754,1.782,1.36,2.817,1.791c1.013,0.476,2.123,0.71,3.242,0.683c4.667,0.045,8.488-3.702,8.533-8.369    c0-0.055,0-0.109,0-0.164C166.35,159.874,165.466,157.711,163.908,156.075z"/>
	</g>
</g>
<g>
	<g>
		<path d="M95.642,190.208c-0.831-0.752-1.783-1.358-2.817-1.791c-3.181-1.299-6.829-0.596-9.3,1.792    c-0.754,0.829-1.36,1.782-1.792,2.817c-0.911,2.065-0.911,4.418,0,6.483c0.434,1.034,1.04,1.986,1.792,2.817    c0.816,0.772,1.772,1.38,2.817,1.792c1.026,0.437,2.127,0.669,3.242,0.683c2.262-0.019,4.43-0.905,6.059-2.475    c0.752-0.831,1.358-1.783,1.792-2.817c0.437-1.026,0.669-2.127,0.683-3.242C98.083,194.008,97.199,191.844,95.642,190.208z"/>
	</g>
</g>
<g>
	<g>
		<path d="M131.566,193.025c-0.411-1.045-1.02-2.001-1.791-2.817c-2.038-1.965-4.9-2.825-7.683-2.308    c-0.563,0.083-1.109,0.258-1.617,0.517c-0.546,0.184-1.065,0.442-1.542,0.767c-0.445,0.316-0.871,0.658-1.276,1.025    c-0.754,0.829-1.36,1.782-1.792,2.817c-0.48,1.012-0.714,2.123-0.683,3.242c-0.018,1.109,0.183,2.211,0.592,3.242    c0.5,1.018,1.133,1.966,1.883,2.817c0.829,0.754,1.782,1.36,2.817,1.792c2.065,0.911,4.418,0.911,6.483,0    c1.034-0.434,1.986-1.04,2.817-1.792C132.218,199.884,132.928,196.2,131.566,193.025z"/>
	</g>
</g>
<g>
	<g>
		<path d="M165.7,193.025c-0.412-1.045-1.02-2.001-1.792-2.817c-0.419-0.387-0.877-0.731-1.367-1.025    c-0.434-0.339-0.925-0.599-1.45-0.767c-0.51-0.259-1.059-0.433-1.625-0.517c-1.633-0.343-3.334-0.162-4.858,0.517    c-2.143,0.777-3.831,2.465-4.608,4.608c-0.438,1.025-0.67,2.127-0.684,3.242c-0.023,2.27,0.869,4.454,2.475,6.059    c0.83,0.754,1.782,1.36,2.817,1.791c1.026,0.438,2.127,0.67,3.242,0.683c2.262-0.019,4.43-0.905,6.059-2.475    C166.352,199.884,167.062,196.2,165.7,193.025z"/>
	</g>
</g>
<g>
	<g>
		<path d="M97.433,227.158c-0.431-1.035-1.037-1.987-1.791-2.817c-0.407-0.367-0.836-0.709-1.283-1.025    c-0.474-0.324-0.99-0.582-1.533-0.767c-0.51-0.259-1.059-0.433-1.625-0.517c-2.783-0.544-5.655,0.32-7.676,2.308    c-0.754,0.829-1.36,1.782-1.792,2.817c-1.764,4.4,0.373,9.396,4.772,11.16c0.98,0.393,2.023,0.601,3.078,0.616    c4.699-0.033,8.501-3.834,8.533-8.533C98.103,229.285,97.87,228.184,97.433,227.158z"/>
	</g>
</g>
<g>
	<g>
		<path d="M131.567,227.158c-0.432-1.035-1.038-1.988-1.792-2.817c-3.421-3.158-8.695-3.158-12.117,0    c-0.754,0.829-1.36,1.782-1.792,2.817c-0.911,2.065-0.911,4.418,0,6.483c0.415,1.018,1.023,1.947,1.792,2.733    c1.574,1.661,3.77,2.588,6.058,2.559c1.115-0.014,2.216-0.246,3.242-0.683c1.053-0.433,2.011-1.07,2.817-1.875    C132.217,233.967,132.929,230.306,131.567,227.158z"/>
	</g>
</g>
<g>
	<g>
		<path d="M165.7,227.158c-0.432-1.035-1.038-1.987-1.792-2.817c-2.459-2.41-6.121-3.116-9.3-1.792    c-2.143,0.777-3.831,2.465-4.608,4.608c-0.438,1.026-0.67,2.127-0.683,3.242c-0.038,2.248,0.858,4.412,2.475,5.975    c0.805,0.806,1.762,1.444,2.817,1.875c2.065,0.911,4.418,0.911,6.483,0c1.053-0.433,2.011-1.07,2.817-1.875    c1.614-1.565,2.509-3.727,2.475-5.975C166.369,229.285,166.137,228.184,165.7,227.158z"/>
	</g>
</g>
<g>
	<g>
		<path d="M97.433,363.692c-0.431-1.035-1.037-1.987-1.791-2.817c-3.421-3.158-8.695-3.158-12.117,0    c-0.772,0.816-1.38,1.772-1.792,2.817c-0.438,1.026-0.67,2.127-0.683,3.242c0,4.713,3.82,8.533,8.533,8.533    s8.533-3.82,8.533-8.533C98.102,365.819,97.87,364.717,97.433,363.692z"/>
	</g>
</g>
<g>
	<g>
		<path d="M131.566,363.692c-0.431-1.035-1.037-1.987-1.791-2.817c-0.831-0.752-1.783-1.358-2.817-1.792    c-3.177-1.342-6.849-0.634-9.3,1.792c-0.772,0.816-1.38,1.772-1.792,2.817c-0.48,1.012-0.715,2.123-0.683,3.242    c0,4.713,3.82,8.533,8.533,8.533s8.533-3.82,8.533-8.533C132.236,365.819,132.004,364.717,131.566,363.692z"/>
	</g>
</g>
<g>
	<g>
		<path d="M89.633,392.484c-2.292-0.013-4.494,0.896-6.108,2.524c-3.3,3.365-3.3,8.752,0,12.117    c3.319,3.346,8.722,3.368,12.068,0.05c1.628-1.614,2.537-3.815,2.524-6.108C98.144,396.354,94.345,392.511,89.633,392.484z"/>
	</g>
</g>
<g>
	<g>
		<path d="M123.766,392.484c-2.293-0.013-4.494,0.896-6.108,2.524c-1.561,1.634-2.445,3.799-2.475,6.059    c-0.045,4.667,3.702,8.488,8.369,8.533c0.055,0,0.109,0,0.164,0c1.115-0.014,2.216-0.246,3.242-0.683    c1.034-0.434,1.986-1.04,2.817-1.792c1.603-1.607,2.494-3.789,2.475-6.058C132.277,396.354,128.479,392.511,123.766,392.484z"/>
	</g>
</g>
<g>
	<g>
		<path d="M157.899,392.484c-2.293-0.013-4.494,0.896-6.108,2.524c-1.561,1.634-2.445,3.799-2.475,6.059    c-0.023,2.27,0.869,4.454,2.475,6.059c0.829,0.754,1.782,1.36,2.817,1.792c4.289,1.837,9.256-0.151,11.093-4.44    c0.461-1.077,0.694-2.239,0.682-3.411C166.41,396.354,162.612,392.511,157.899,392.484z"/>
	</g>
</g>
<g>
	<g>
		<path d="M95.642,429.141c-2.456-2.417-6.122-3.124-9.3-1.791c-1.045,0.412-2.001,1.02-2.817,1.792    c-0.367,0.404-0.709,0.83-1.025,1.275c-0.325,0.477-0.583,0.995-0.767,1.542c-0.246,0.483-0.42,1-0.517,1.533    c-0.138,0.558-0.194,1.134-0.167,1.708c-0.007,2.267,0.882,4.445,2.475,6.059c2.441,2.444,6.125,3.154,9.3,1.792    c1.034-0.434,1.986-1.04,2.817-1.792c1.603-1.607,2.495-3.789,2.475-6.059C98.1,432.938,97.214,430.768,95.642,429.141z"/>
	</g>
</g>
<g>
	<g>
		<path d="M132.075,433.492c-0.09-0.534-0.261-1.051-0.508-1.533c-0.188-0.545-0.445-1.063-0.767-1.542l-1.025-1.275    c-3.421-3.158-8.695-3.158-12.117,0c-1.576,1.625-2.463,3.795-2.475,6.059c-0.045,4.667,3.702,8.488,8.369,8.533    c0.055,0.001,0.109,0.001,0.164,0c1.115-0.014,2.216-0.246,3.242-0.683c1.034-0.434,1.986-1.04,2.817-1.792    c1.589-1.616,2.478-3.792,2.475-6.058C132.237,434.627,132.178,434.056,132.075,433.492z"/>
	</g>
</g>
<g>
	<g>
		<path d="M163.908,429.141c-3.422-3.159-8.696-3.159-12.117,0c-0.367,0.404-0.709,0.83-1.025,1.275    c-0.325,0.477-0.582,0.995-0.767,1.542c-0.246,0.483-0.42,1-0.517,1.533c-0.097,0.565-0.152,1.136-0.166,1.709    c-0.007,2.267,0.882,4.445,2.475,6.059c3.319,3.346,8.722,3.368,12.068,0.05c1.628-1.614,2.537-3.816,2.524-6.108    C166.367,432.938,165.481,430.768,163.908,429.141z"/>
	</g>
</g>
<g>
	<g>
		<path d="M97.433,466.092c-0.411-1.045-1.02-2.001-1.791-2.817c-0.831-0.752-1.783-1.358-2.817-1.792    c-3.178-1.334-6.845-0.627-9.3,1.792c-0.772,0.816-1.38,1.772-1.792,2.817c-0.48,1.012-0.715,2.123-0.683,3.242    c-0.018,1.109,0.183,2.21,0.592,3.242c0.5,1.018,1.133,1.966,1.883,2.817c3.365,3.3,8.752,3.3,12.117,0    c0.752-0.831,1.358-1.783,1.792-2.817C98.344,470.51,98.344,468.157,97.433,466.092z"/>
	</g>
</g>
<g>
	<g>
		<path d="M131.567,466.092c-0.412-1.045-1.02-2.001-1.792-2.817c-2.038-1.965-4.9-2.825-7.683-2.308    c-0.563,0.083-1.109,0.258-1.617,0.517c-0.526,0.166-1.017,0.426-1.45,0.767c-0.491,0.292-0.949,0.636-1.367,1.025    c-0.772,0.816-1.38,1.772-1.792,2.817c-0.437,1.026-0.669,2.127-0.683,3.242c0.019,4.732,3.87,8.553,8.602,8.534    c2.244-0.009,4.395-0.898,5.99-2.475c0.752-0.831,1.358-1.783,1.792-2.817C132.478,470.51,132.478,468.157,131.567,466.092z"/>
	</g>
</g>
<g>
	<g>
		<path d="M165.7,466.092c-0.431-1.035-1.037-1.988-1.791-2.817c-3.421-3.158-8.695-3.158-12.117,0    c-0.754,0.829-1.36,1.782-1.792,2.817c-0.911,2.065-0.911,4.418,0,6.483c0.434,1.034,1.04,1.986,1.792,2.817    c0.829,0.754,1.782,1.36,2.817,1.792c2.065,0.911,4.418,0.911,6.483,0c2.143-0.777,3.831-2.465,4.608-4.608    C166.611,470.51,166.611,468.157,165.7,466.092z"/>
	</g>
</g>
<g>
	<g>
		<path d="M97.433,261.292c-0.411-1.045-1.02-2.001-1.791-2.817c-3.319-3.346-8.722-3.368-12.068-0.05    c-1.628,1.614-2.537,3.816-2.524,6.108c-0.031,1.119,0.203,2.23,0.683,3.242c1.697,4.297,6.556,6.404,10.852,4.707    c0.08-0.032,0.16-0.065,0.239-0.099c1.053-0.433,2.011-1.07,2.817-1.875c1.614-1.565,2.509-3.727,2.475-5.975    C98.103,263.419,97.87,262.317,97.433,261.292z"/>
	</g>
</g>
<g>
	<g>
		<path d="M123.766,255.951c-2.293-0.013-4.494,0.896-6.108,2.524c-0.772,0.816-1.38,1.772-1.792,2.817    c-0.437,1.026-0.669,2.127-0.683,3.242c-0.038,2.248,0.858,4.412,2.475,5.975c2.404,2.506,6.113,3.254,9.3,1.875    c1.054-0.433,2.011-1.07,2.817-1.875c0.768-0.787,1.377-1.715,1.792-2.733c0.476-1.013,0.71-2.123,0.683-3.242    C132.277,259.821,128.479,255.978,123.766,255.951z"/>
	</g>
</g>
<g>
	<g>
		<path d="M95.642,292.608c-0.407-0.367-0.836-0.709-1.284-1.025c-0.474-0.324-0.99-0.582-1.533-0.767    c-0.51-0.259-1.059-0.433-1.625-0.517c-2.783-0.558-5.661,0.308-7.675,2.308c-1.561,1.634-2.445,3.799-2.475,6.059    c-0.023,2.27,0.869,4.454,2.475,6.059c0.816,0.772,1.772,1.38,2.817,1.792c2.065,0.911,4.418,0.911,6.483,0    c1.034-0.434,1.986-1.04,2.817-1.792c1.603-1.607,2.494-3.789,2.475-6.059C98.083,296.408,97.199,294.244,95.642,292.608z"/>
	</g>
</g>
<g>
	<g>
		<path d="M129.775,292.608c-2.456-2.417-6.123-3.124-9.3-1.791c-1.045,0.412-2.001,1.02-2.817,1.792    c-1.561,1.634-2.445,3.798-2.475,6.058c-0.031,1.119,0.203,2.23,0.683,3.242c0.434,1.034,1.04,1.986,1.792,2.817    c0.816,0.772,1.772,1.38,2.817,1.792c1.013,0.476,2.122,0.71,3.241,0.683c2.269,0.019,4.452-0.872,6.059-2.475    c0.752-0.831,1.358-1.783,1.792-2.817c0.437-1.026,0.669-2.127,0.683-3.242C132.216,296.408,131.333,294.244,129.775,292.608z"/>
	</g>
</g>
<g>
	<g>
		<path d="M97.433,329.558c-0.411-1.045-1.019-2.001-1.791-2.817c-2.038-2.024-4.954-2.891-7.767-2.308    c-0.534,0.096-1.05,0.271-1.533,0.517c-0.546,0.184-1.065,0.442-1.542,0.767l-1.276,1.025c-0.772,0.816-1.38,1.772-1.792,2.817    c-0.911,2.065-0.911,4.418,0,6.483c0.434,1.034,1.04,1.986,1.792,2.817c3.29,3.358,8.679,3.413,12.037,0.123    C98.067,336.526,98.81,332.784,97.433,329.558z"/>
	</g>
</g>
<g>
	<g>
		<path d="M131.566,329.558c-0.411-1.045-1.02-2.001-1.791-2.817c-2.451-2.425-6.123-3.133-9.3-1.792    c-1.055,0.392-2.015,1.002-2.817,1.792c-0.772,0.816-1.38,1.772-1.792,2.817c-0.48,1.012-0.715,2.123-0.683,3.242    c0,4.713,3.82,8.533,8.533,8.533s8.533-3.821,8.533-8.533C132.236,331.685,132.004,330.584,131.566,329.558z"/>
	</g>
</g>
<g>
	<g>
		<path d="M336.366,124.759c-0.432-1.035-1.038-1.987-1.792-2.817c-3.421-3.158-8.695-3.158-12.117,0    c-0.754,0.829-1.36,1.782-1.792,2.817c-0.437,1.025-0.669,2.126-0.682,3.241c-0.018,1.109,0.183,2.211,0.592,3.242    c0.5,1.018,1.133,1.966,1.883,2.817c0.816,0.772,1.772,1.38,2.817,1.792c2.065,0.911,4.418,0.911,6.483,0    c2.143-0.777,3.831-2.465,4.608-4.608C337.277,129.178,337.277,126.824,336.366,124.759z"/>
	</g>
</g>
<g>
	<g>
		<path d="M302.232,124.759c-0.432-1.035-1.038-1.987-1.792-2.817c-3.421-3.158-8.695-3.158-12.117,0    c-0.754,0.829-1.36,1.782-1.792,2.817c-0.911,2.065-0.911,4.418,0,6.483c0.434,1.033,1.04,1.986,1.793,2.816    c0.816,0.772,1.772,1.38,2.817,1.792c2.065,0.911,4.418,0.911,6.483,0c2.143-0.777,3.831-2.465,4.608-4.608    C303.143,129.178,303.143,126.824,302.232,124.759z"/>
	</g>
</g>
<g>
	<g>
		<path d="M97.433,90.625c-0.411-1.045-1.02-2.001-1.791-2.817c-0.831-0.752-1.783-1.358-2.817-1.792    c-1.556-0.684-3.286-0.865-4.95-0.517c-0.534,0.096-1.05,0.271-1.533,0.517c-0.546,0.184-1.065,0.442-1.542,0.767    c-0.445,0.316-0.871,0.659-1.276,1.025c-1.561,1.634-2.445,3.799-2.475,6.059c0,4.713,3.82,8.533,8.533,8.533    s8.533-3.82,8.533-8.533C98.103,92.752,97.87,91.651,97.433,90.625z"/>
	</g>
</g>
<g>
	<g>
		<path d="M131.567,90.625c-0.412-1.045-1.02-2.001-1.792-2.817c-3.319-3.346-8.722-3.368-12.068-0.05    c-1.628,1.614-2.537,3.816-2.524,6.108c-0.045,4.667,3.702,8.488,8.369,8.533c0.055,0,0.109,0,0.164,0    c1.115-0.014,2.216-0.246,3.242-0.683c1.034-0.434,1.986-1.04,2.817-1.792C132.219,97.483,132.928,93.799,131.567,90.625z"/>
	</g>
</g>
<g>
	<g>
		<path d="M334.575,87.808c-2.471-2.388-6.119-3.09-9.3-1.792c-2.143,0.777-3.831,2.465-4.608,4.608    c-0.438,1.026-0.67,2.127-0.684,3.243c-0.023,2.27,0.869,4.454,2.475,6.059c0.83,0.754,1.782,1.36,2.817,1.791    c4.289,1.837,9.256-0.151,11.093-4.441c0.461-1.077,0.693-2.238,0.682-3.409C337.016,91.608,336.133,89.444,334.575,87.808z"/>
	</g>
</g>
<g>
	<g>
		<path d="M95.642,53.675c-2.05-2.002-4.956-2.866-7.767-2.308c-0.534,0.096-1.05,0.271-1.533,0.517    c-0.546,0.184-1.065,0.442-1.542,0.767c-0.445,0.316-0.871,0.658-1.275,1.025c-1.561,1.634-2.445,3.799-2.475,6.059    c0,4.713,3.82,8.533,8.533,8.533s8.533-3.82,8.533-8.533C98.083,57.474,97.199,55.311,95.642,53.675z"/>
	</g>
</g>
<g>
	<g>
		<path d="M334.575,53.675c-0.419-0.387-0.877-0.731-1.367-1.025c-0.434-0.339-0.925-0.599-1.45-0.767    c-0.51-0.259-1.059-0.433-1.625-0.517c-4.577-0.935-9.045,2.018-9.98,6.595c-0.119,0.583-0.176,1.177-0.171,1.772    c-0.045,4.667,3.702,8.488,8.369,8.533c0.055,0.001,0.11,0.001,0.164,0c4.667,0.045,8.488-3.702,8.533-8.369    c0.001-0.055,0.001-0.11,0-0.164C337.016,57.474,336.133,55.311,334.575,53.675z"/>
	</g>
</g>
<g>
	<g>
		<path d="M300.442,87.808c-0.419-0.387-0.877-0.731-1.367-1.025c-0.434-0.339-0.925-0.599-1.45-0.767    c-0.51-0.259-1.059-0.433-1.625-0.517c-1.066-0.25-2.176-0.25-3.242,0c-0.563,0.083-1.109,0.258-1.617,0.517    c-0.546,0.184-1.065,0.442-1.542,0.767c-0.445,0.316-0.871,0.658-1.276,1.025c-1.561,1.634-2.445,3.799-2.475,6.059    c-0.023,2.27,0.869,4.454,2.475,6.059c0.829,0.754,1.782,1.36,2.817,1.791c2.065,0.911,4.418,0.911,6.483,0    c1.034-0.434,1.986-1.04,2.817-1.792c1.603-1.607,2.494-3.789,2.475-6.058C302.883,91.608,301.999,89.444,300.442,87.808z"/>
	</g>
</g>
<g>
	<g>
		<path d="M268.099,124.759c-0.432-1.035-1.038-1.987-1.792-2.817c-0.407-0.367-0.836-0.709-1.283-1.025    c-0.474-0.324-0.99-0.582-1.533-0.767c-0.51-0.259-1.059-0.433-1.625-0.517c-2.783-0.557-5.66,0.308-7.674,2.307    c-0.772,0.816-1.38,1.772-1.792,2.817c-0.911,2.065-0.911,4.418,0,6.483c0.434,1.034,1.039,1.986,1.792,2.817    c2.441,2.444,6.125,3.154,9.3,1.792c2.143-0.777,3.831-2.465,4.608-4.608C269.01,129.178,269.01,126.824,268.099,124.759z"/>
	</g>
</g>
<g>
	<g>
		<path d="M336.367,158.891c-0.432-1.035-1.038-1.987-1.792-2.817c-3.4-3.211-8.716-3.211-12.117,0    c-1.561,1.634-2.445,3.799-2.475,6.059c-0.045,4.667,3.702,8.488,8.369,8.533c0.055,0.001,0.11,0.001,0.164,0    c1.119,0.027,2.229-0.207,3.242-0.683c1.034-0.434,1.986-1.04,2.817-1.792C337.019,165.75,337.728,162.066,336.367,158.891z"/>
	</g>
</g>
<g>
	<g>
		<path d="M302.233,158.891c-0.432-1.035-1.038-1.987-1.792-2.817c-0.817-0.77-1.773-1.378-2.817-1.792    c-2.076-0.858-4.408-0.858-6.483,0c-1.055,0.391-2.015,1.002-2.817,1.792c-1.561,1.634-2.445,3.799-2.475,6.059    c0.008,2.264,0.895,4.436,2.475,6.059c1.605,1.605,3.789,2.497,6.059,2.475c1.119,0.027,2.229-0.207,3.242-0.683    c1.034-0.434,1.986-1.04,2.817-1.792C302.885,165.75,303.595,162.066,302.233,158.891z"/>
	</g>
</g>
<g>
	<g>
		<path d="M268.099,158.892c-0.432-1.035-1.038-1.987-1.792-2.817c-0.817-0.77-1.773-1.378-2.817-1.792    c-2.076-0.858-4.407-0.858-6.483,0c-2.143,0.777-3.831,2.465-4.608,4.608c-0.48,1.012-0.714,2.123-0.683,3.242    c-0.007,2.267,0.882,4.445,2.475,6.059c0.816,0.772,1.772,1.38,2.817,1.791c2.065,0.911,4.418,0.911,6.483,0    c2.143-0.777,3.831-2.465,4.608-4.608C269.01,163.31,269.01,160.957,268.099,158.892z"/>
	</g>
</g>
<g>
	<g>
		<path d="M334.575,190.208c-0.817-0.77-1.773-1.378-2.817-1.792c-2.076-0.858-4.407-0.858-6.483,0    c-1.055,0.392-2.015,1.002-2.817,1.792c-1.561,1.634-2.446,3.799-2.475,6.059c-0.018,1.109,0.183,2.211,0.592,3.242    c0.5,1.018,1.133,1.966,1.883,2.817c0.816,0.772,1.772,1.38,2.817,1.792c2.065,0.911,4.418,0.911,6.483,0    c2.143-0.777,3.831-2.465,4.608-4.608c0.438-1.026,0.67-2.127,0.684-3.243C337.016,194.008,336.133,191.844,334.575,190.208z"/>
	</g>
</g>
<g>
	<g>
		<path d="M302.233,193.025c-0.432-1.035-1.038-1.987-1.792-2.817c-0.419-0.387-0.877-0.731-1.367-1.025    c-0.434-0.339-0.925-0.599-1.45-0.767c-4.165-1.861-9.05,0.007-10.911,4.172c-0.064,0.144-0.124,0.289-0.18,0.436    c-0.437,1.026-0.669,2.127-0.683,3.242c-0.023,2.27,0.869,4.454,2.475,6.059c0.829,0.754,1.782,1.36,2.817,1.791    c2.065,0.911,4.418,0.911,6.483,0c2.143-0.777,3.831-2.465,4.608-4.608C303.144,197.444,303.144,195.09,302.233,193.025z"/>
	</g>
</g>
<g>
	<g>
		<path d="M268.1,193.025c-0.412-1.045-1.02-2.001-1.792-2.817c-0.407-0.367-0.836-0.709-1.283-1.025    c-0.474-0.324-0.99-0.582-1.533-0.767c-0.484-0.245-1-0.419-1.533-0.517c-2.812-0.571-5.724,0.294-7.767,2.308    c-0.772,0.816-1.38,1.772-1.792,2.817c-0.437,1.026-0.669,2.127-0.683,3.242c-0.023,2.27,0.869,4.454,2.475,6.059    c1.627,1.573,3.796,2.459,6.059,2.475c1.115-0.014,2.216-0.246,3.242-0.683c1.034-0.434,1.986-1.04,2.817-1.792    C268.752,199.883,269.462,196.199,268.1,193.025z"/>
	</g>
</g>
<g>
	<g>
		<path d="M336.366,227.158c-0.432-1.035-1.038-1.987-1.792-2.817c-0.419-0.387-0.877-0.731-1.367-1.025    c-0.434-0.339-0.925-0.599-1.45-0.767c-2.059-0.942-4.425-0.942-6.483,0c-1.045,0.412-2.001,1.02-2.817,1.792    c-0.754,0.829-1.36,1.782-1.792,2.817c-0.911,2.065-0.911,4.418,0,6.483c0.415,1.018,1.024,1.946,1.792,2.733    c0.79,0.824,1.751,1.464,2.817,1.875c1.026,0.438,2.127,0.67,3.242,0.683c4.699-0.033,8.501-3.834,8.533-8.533    C337.036,229.285,336.804,228.184,336.366,227.158z"/>
	</g>
</g>
<g>
	<g>
		<path d="M302.234,227.158c-0.432-1.035-1.038-1.987-1.792-2.817c-0.419-0.387-0.877-0.731-1.367-1.025    c-0.434-0.339-0.925-0.599-1.45-0.767c-0.484-0.245-1-0.419-1.533-0.517c-1.097-0.25-2.236-0.25-3.333,0    c-0.563,0.083-1.109,0.258-1.617,0.517c-0.546,0.184-1.065,0.442-1.542,0.767c-0.445,0.316-0.871,0.658-1.276,1.025    c-0.754,0.829-1.36,1.782-1.792,2.817c-0.437,1.026-0.669,2.127-0.683,3.242c-0.038,2.248,0.858,4.412,2.475,5.975    c0.805,0.806,1.762,1.444,2.817,1.875c1.025,0.437,2.127,0.67,3.242,0.683c2.287,0.027,4.483-0.9,6.059-2.558    C302.884,233.967,303.596,230.306,302.234,227.158z"/>
	</g>
</g>
<g>
	<g>
		<path d="M268.1,227.158c-0.432-1.035-1.038-1.987-1.792-2.817c-2.451-2.425-6.123-3.133-9.3-1.792    c-1.045,0.412-2.001,1.02-2.817,1.792c-0.754,0.829-1.36,1.782-1.792,2.817c-0.48,1.011-0.714,2.122-0.683,3.242    c-0.018,1.109,0.183,2.21,0.592,3.242c0.481,1.004,1.116,1.927,1.883,2.733c0.79,0.824,1.751,1.464,2.817,1.875    c2.065,0.911,4.418,0.911,6.483,0c1.054-0.433,2.011-1.07,2.817-1.875C268.751,233.967,269.462,230.306,268.1,227.158z"/>
	</g>
</g>
<g>
	<g>
		<path d="M459.917,343.273c-12.381-43.136-45.789-77.051-88.734-90.079V25.6c-0.015-14.132-11.468-25.585-25.6-25.6H72.516    c-14.132,0.015-25.585,11.468-25.6,25.6v460.8c0.015,14.132,11.468,25.585,25.6,25.6h273.067c3.133-0.042,6.23-0.677,9.127-1.871    c4.914-0.792,9.778-1.873,14.565-3.237C439.487,486.74,480.069,413.485,459.917,343.273z M285.346,17.067    c-4.698,42.137-42.665,72.488-84.802,67.791c-35.664-3.976-63.815-32.127-67.791-67.791H285.346z M72.516,494.933    c-4.711-0.003-8.53-3.822-8.533-8.533V25.6c0.003-4.711,3.822-8.53,8.533-8.533h43.099c4.686,51.602,50.317,89.635,101.92,84.949    c45.11-4.097,80.852-39.839,84.949-84.949h43.099c4.712,0.003,8.53,3.822,8.533,8.533v223.749    c-35.96-6.205-72.867,3.064-101.629,25.522c-5.086-5.403-11.135-9.81-17.838-12.994v-116.81    c-0.066-14.111-11.489-25.534-25.6-25.6c-14.132,0.015-25.585,11.468-25.6,25.6v116.78    c-29.728,14.015-42.466,49.475-28.451,79.204c5.893,12.5,15.952,22.559,28.451,28.451v82.765    c-0.049,14.09,11.333,25.551,25.423,25.6c9.38,0.033,18.021-5.085,22.501-13.325c10.286,12.26,22.706,22.556,36.66,30.392H72.516z     M205.9,417.233c2.843,9.569,6.763,18.784,11.683,27.47v7.563c0,4.713-3.82,8.533-8.533,8.533s-8.533-3.821-8.533-8.533v-72.533    v-5.002l0.253,0.022c-0.062,1.666-0.253,3.299-0.253,4.98C200.522,392.425,202.335,405.052,205.9,417.233z M202.485,357.832    c-2.624-0.4-5.203-1.05-7.703-1.941c-22.204-7.817-33.867-32.153-26.05-54.357c7.817-22.204,32.153-33.867,54.357-26.05    c6.227,2.192,11.86,5.801,16.455,10.542C219.988,305.499,207.028,330.612,202.485,357.832z M200.516,256.681V145.067    c0.003-4.711,3.822-8.53,8.533-8.533c2.302-0.005,4.504,0.942,6.083,2.617c1.586,1.558,2.471,3.694,2.45,5.917v111.61    C211.93,255.773,206.169,255.774,200.516,256.681z M443.3,412.308c-3.36,11.421-8.48,22.248-15.175,32.092    c-35.653,52.467-107.089,66.098-159.556,30.444s-66.098-107.089-30.444-159.556c35.653-52.467,107.089-66.098,159.556-30.444    C438.972,312.903,457.41,364.421,443.3,412.308z"/>
	</g>
</g>
<g>
	<g>
		<path d="M409.741,399.842l-56.608-89.758c-6.697-11.145-21.16-14.751-32.304-8.054c-3.303,1.985-6.069,4.75-8.054,8.054    l-56.6,89.758c-5.2,8.263-5.493,18.7-0.767,27.242c4.099,7.776,12.151,12.659,20.942,12.7h113.208    c8.795-0.041,16.851-4.927,20.95-12.708C415.231,418.535,414.937,408.103,409.741,399.842z M395.558,418.833    c-1.122,2.309-3.433,3.805-6,3.883H276.35c-2.564-0.073-4.874-1.567-5.992-3.875c-1.726-3.099-1.63-6.892,0.25-9.9l56.6-89.758    c1.865-3.173,5.95-4.234,9.123-2.368c0.978,0.575,1.793,1.39,2.368,2.368l56.608,89.758    C397.18,411.949,397.275,415.735,395.558,418.833z"/>
	</g>
</g>
<g>
	<g>
		<path d="M332.968,345.917c-0.003,0-0.007,0-0.01,0c-4.71-0.003-8.531,3.813-8.533,8.523c0,0.003,0,0.007,0,0.01v22.533    c0,4.713,3.82,8.533,8.533,8.533s8.533-3.82,8.533-8.533V354.45C341.494,349.74,337.678,345.919,332.968,345.917z"/>
	</g>
</g>
<g>
	<g>
		<path d="M339.008,394.242L339.008,394.242c-0.402-0.398-0.828-0.771-1.275-1.117c-0.498-0.285-1.013-0.541-1.542-0.767    c-0.498-0.208-1.01-0.378-1.533-0.508c-2.827-0.573-5.751,0.328-7.767,2.392c-0.77,0.782-1.379,1.708-1.792,2.725    c-1.362,3.175-0.652,6.859,1.792,9.3c0.825,0.783,1.778,1.42,2.817,1.883c2.089,0.789,4.394,0.789,6.483,0    c1.04-0.462,1.993-1.099,2.817-1.883C342.266,402.92,342.266,397.588,339.008,394.242z"/>
	</g>
</g>
<g>
</g>
<g>
</g>
<g>
</g>
<g>
</g>
<g>
</g>
<g>
</g>
<g>
</g>
<g>
</g>
<g>
</g>
<g>
</g>
<g>
</g>
<g>
</g>
<g>
</g>
<g>
</g>
<g>
</g>
</svg>
