<?xml version="1.0" encoding="iso-8859-1"?>
<!-- Generator: Adobe Illustrator 19.0.0, SVG Export Plug-In . SVG Version: 6.00 Build 0)  -->
<svg xmlns="http://www.w3.org/2000/svg" xmlns:xlink="http://www.w3.org/1999/xlink" version="1.1" id="Layer_1" x="0px" y="0px" viewBox="0 0 512 512" style="enable-background:new 0 0 512 512;" xml:space="preserve">
<g>
	<g>
		<path d="M95.642,121.941c-0.407-0.367-0.836-0.709-1.284-1.025c-0.474-0.324-0.99-0.582-1.533-0.767    c-0.51-0.259-1.059-0.433-1.625-0.517c-2.783-0.558-5.661,0.308-7.675,2.308c-0.772,0.816-1.38,1.772-1.792,2.817    c-0.911,2.065-0.911,4.418,0,6.483c0.434,1.034,1.04,1.986,1.792,2.817c2.441,2.444,6.125,3.154,9.3,1.792    c2.143-0.777,3.831-2.465,4.608-4.608c0.477-1.013,0.711-2.123,0.684-3.242C98.083,125.741,97.199,123.578,95.642,121.941z"/>
	</g>
</g>
<g>
	<g>
		<path d="M131.566,124.759c-0.411-1.045-1.02-2.001-1.791-2.817c-3.421-3.158-8.695-3.158-12.117,0    c-0.754,0.829-1.36,1.782-1.792,2.817c-0.911,2.065-0.911,4.418,0,6.483c0.434,1.034,1.04,1.986,1.792,2.817    c0.816,0.772,1.772,1.38,2.817,1.792c2.065,0.911,4.418,0.911,6.483,0c2.143-0.777,3.831-2.465,4.608-4.608    C132.477,129.177,132.477,126.824,131.566,124.759z"/>
	</g>
</g>
<g>
	<g>
		<path d="M165.699,124.759c-0.432-1.035-1.038-1.987-1.792-2.817c-3.421-3.158-8.695-3.158-12.117,0    c-0.754,0.829-1.36,1.782-1.792,2.817c-0.437,1.025-0.669,2.126-0.682,3.241c-0.018,1.109,0.183,2.211,0.592,3.242    c0.5,1.018,1.133,1.966,1.883,2.817c0.816,0.772,1.772,1.38,2.817,1.792c2.065,0.911,4.418,0.911,6.483,0    c2.143-0.777,3.831-2.465,4.608-4.608C166.61,129.178,166.61,126.824,165.699,124.759z"/>
	</g>
</g>
<g>
	<g>
		<path d="M97.433,158.891c-0.432-1.035-1.038-1.987-1.792-2.817c-3.421-3.158-8.695-3.158-12.117,0    c-0.754,0.829-1.36,1.782-1.792,2.817c-0.48,1.012-0.715,2.123-0.683,3.242c-0.045,4.667,3.702,8.488,8.369,8.533    c0.055,0.001,0.11,0.001,0.164,0c1.119,0.027,2.229-0.207,3.242-0.683c1.034-0.434,1.986-1.04,2.817-1.792    C98.085,165.75,98.795,162.066,97.433,158.891z"/>
	</g>
</g>
<g>
	<g>
		<path d="M131.567,158.891c-0.412-1.045-1.02-2.001-1.792-2.817c-0.407-0.367-0.836-0.709-1.283-1.025    c-0.474-0.324-0.99-0.582-1.533-0.767c-1.528-0.68-3.23-0.86-4.867-0.517c-0.563,0.083-1.109,0.258-1.617,0.517    c-0.546,0.184-1.065,0.442-1.542,0.767c-0.445,0.316-0.871,0.658-1.276,1.025c-1.561,1.634-2.445,3.799-2.475,6.059    c-0.045,4.667,3.702,8.488,8.369,8.533c0.055,0.001,0.109,0.001,0.164,0c1.119,0.027,2.229-0.207,3.242-0.683    c1.034-0.434,1.986-1.04,2.817-1.792C132.219,165.75,132.928,162.066,131.567,158.891z"/>
	</g>
</g>
<g>
	<g>
		<path d="M165.7,158.892c-0.432-1.035-1.038-1.987-1.792-2.817c-0.419-0.387-0.877-0.731-1.367-1.025    c-0.434-0.339-0.925-0.599-1.45-0.767c-0.51-0.259-1.059-0.433-1.625-0.517c-2.783-0.558-5.661,0.308-7.676,2.308    c-1.561,1.634-2.445,3.799-2.475,6.059c-0.023,2.27,0.869,4.454,2.475,6.059c0.83,0.754,1.782,1.36,2.817,1.791    c1.013,0.476,2.123,0.71,3.242,0.683c2.269,0.019,4.452-0.872,6.059-2.475c0.752-0.831,1.358-1.783,1.792-2.817    C166.611,163.31,166.611,160.957,165.7,158.892z"/>
	</g>
</g>
<g>
	<g>
		<path d="M97.432,193.026c-0.431-1.035-1.037-1.988-1.791-2.818c-0.419-0.387-0.877-0.731-1.367-1.025    c-0.434-0.339-0.925-0.599-1.45-0.767c-4.165-1.861-9.05,0.007-10.911,4.172c-0.064,0.144-0.124,0.289-0.18,0.436    c-0.438,1.026-0.67,2.127-0.684,3.242c-0.023,2.27,0.869,4.454,2.475,6.059c0.829,0.754,1.782,1.36,2.817,1.792    c2.065,0.911,4.418,0.911,6.483,0c2.143-0.777,3.831-2.465,4.608-4.608C98.343,197.444,98.343,195.091,97.432,193.026z"/>
	</g>
</g>
<g>
	<g>
		<path d="M129.775,190.208c-0.817-0.77-1.773-1.378-2.817-1.791c-2.076-0.858-4.407-0.858-6.483,0    c-1.055,0.391-2.015,1.002-2.817,1.792c-1.561,1.634-2.445,3.798-2.475,6.058c-0.018,1.109,0.183,2.211,0.592,3.242    c0.5,1.018,1.133,1.966,1.883,2.817c0.816,0.772,1.772,1.38,2.817,1.792c2.065,0.911,4.418,0.911,6.483,0    c2.143-0.777,3.831-2.465,4.608-4.608c0.438-1.026,0.67-2.127,0.684-3.243C132.216,194.008,131.333,191.844,129.775,190.208z"/>
	</g>
</g>
<g>
	<g>
		<path d="M165.7,193.025c-0.412-1.045-1.02-2.001-1.792-2.817c-3.421-3.158-8.695-3.158-12.117,0    c-0.754,0.829-1.36,1.782-1.792,2.817c-0.911,2.065-0.911,4.418,0,6.483c0.434,1.034,1.039,1.986,1.792,2.817    c0.829,0.754,1.782,1.36,2.817,1.792c2.065,0.911,4.418,0.911,6.483,0c1.034-0.434,1.986-1.04,2.817-1.792    C166.352,199.884,167.062,196.2,165.7,193.025z"/>
	</g>
</g>
<g>
	<g>
		<path d="M97.433,227.158c-0.431-1.035-1.037-1.987-1.791-2.817c-2.05-2.003-4.956-2.866-7.767-2.308    c-0.534,0.096-1.05,0.271-1.533,0.517c-0.546,0.184-1.065,0.442-1.542,0.767c-0.445,0.316-0.871,0.658-1.276,1.025    c-0.754,0.829-1.36,1.782-1.792,2.817c-0.437,1.026-0.669,2.127-0.683,3.242c-0.038,2.248,0.858,4.412,2.475,5.975    c3.255,3.346,8.607,3.419,11.952,0.164c0.056-0.054,0.11-0.109,0.164-0.164C98.083,233.967,98.795,230.306,97.433,227.158z"/>
	</g>
</g>
<g>
	<g>
		<path d="M131.566,227.158c-0.431-1.035-1.037-1.987-1.791-2.817c-0.419-0.387-0.877-0.731-1.367-1.025    c-0.434-0.339-0.925-0.599-1.45-0.767c-0.51-0.259-1.059-0.433-1.625-0.517c-2.783-0.544-5.655,0.32-7.676,2.308    c-0.754,0.829-1.36,1.782-1.792,2.817c-0.911,2.065-0.911,4.418,0,6.483c0.415,1.018,1.023,1.947,1.792,2.733    c0.79,0.824,1.751,1.464,2.817,1.875c1.026,0.438,2.127,0.67,3.242,0.684c4.699-0.033,8.501-3.834,8.533-8.533    C132.236,229.285,132.004,228.184,131.566,227.158z"/>
	</g>
</g>
<g>
	<g>
		<path d="M163.825,224.341c-3.389-3.158-8.644-3.158-12.033,0c-0.754,0.829-1.36,1.782-1.792,2.817    c-0.48,1.012-0.714,2.123-0.683,3.242c-0.018,1.109,0.183,2.21,0.592,3.242c0.481,1.004,1.116,1.927,1.883,2.733    c0.79,0.824,1.752,1.464,2.817,1.875c1.026,0.438,2.127,0.67,3.242,0.683c2.266,0.042,4.442-0.889,5.975-2.558    c0.82-0.761,1.461-1.694,1.875-2.733C167.007,230.447,166.268,226.78,163.825,224.341z"/>
	</g>
</g>
<g>
	<g>
		<path d="M97.433,363.692c-0.431-1.035-1.037-1.988-1.791-2.817c-0.831-0.752-1.783-1.358-2.817-1.792    c-3.177-1.342-6.849-0.634-9.3,1.792c-0.772,0.816-1.38,1.772-1.792,2.817c-0.48,1.012-0.715,2.123-0.683,3.242    c-0.007,2.267,0.882,4.445,2.475,6.059c3.29,3.358,8.679,3.413,12.037,0.123C98.067,370.66,98.81,366.918,97.433,363.692z"/>
	</g>
</g>
<g>
	<g>
		<path d="M131.566,363.692c-0.411-1.045-1.02-2.001-1.791-2.817c-0.817-0.77-1.773-1.378-2.817-1.792    c-2.076-0.858-4.407-0.858-6.483,0c-0.546,0.184-1.065,0.442-1.542,0.767c-0.445,0.316-0.871,0.659-1.276,1.025    c-0.754,0.829-1.36,1.782-1.792,2.817c-0.48,1.012-0.714,2.123-0.683,3.242c0,4.713,3.82,8.533,8.533,8.533    s8.533-3.82,8.533-8.533C132.236,365.819,132.004,364.717,131.566,363.692z"/>
	</g>
</g>
<g>
	<g>
		<path d="M89.633,392.484c-2.292-0.013-4.494,0.896-6.108,2.524c-1.561,1.634-2.445,3.799-2.475,6.059    c0,4.713,3.82,8.533,8.533,8.533s8.533-3.82,8.533-8.533C98.144,396.354,94.345,392.511,89.633,392.484z"/>
	</g>
</g>
<g>
	<g>
		<path d="M123.766,392.484c-2.293-0.013-4.494,0.896-6.108,2.524c-1.561,1.634-2.445,3.799-2.475,6.059    c-0.045,4.667,3.702,8.488,8.369,8.533c0.055,0,0.109,0,0.164,0c1.115-0.014,2.216-0.246,3.242-0.683    c1.034-0.434,1.986-1.04,2.817-1.792c1.589-1.616,2.478-3.792,2.475-6.058C132.277,396.354,128.479,392.511,123.766,392.484z"/>
	</g>
</g>
<g>
	<g>
		<path d="M157.899,392.484c-2.293-0.013-4.494,0.896-6.108,2.524c-1.561,1.634-2.445,3.799-2.475,6.059    c0,4.713,3.82,8.533,8.533,8.533s8.533-3.82,8.533-8.533C166.41,396.354,162.612,392.511,157.899,392.484z"/>
	</g>
</g>
<g>
	<g>
		<path d="M95.642,429.141c-3.422-3.159-8.696-3.159-12.117,0c-1.576,1.625-2.462,3.795-2.475,6.059    c-0.007,2.267,0.882,4.445,2.475,6.059c0.829,0.754,1.782,1.36,2.817,1.792c4.289,1.837,9.256-0.151,11.093-4.44    c0.461-1.077,0.694-2.239,0.682-3.411C98.1,432.938,97.214,430.768,95.642,429.141z"/>
	</g>
</g>
<g>
	<g>
		<path d="M129.775,429.141c-3.422-3.159-8.696-3.159-12.117,0c-1.561,1.634-2.445,3.799-2.475,6.059    c-0.023,2.27,0.869,4.454,2.475,6.059c0.816,0.772,1.772,1.38,2.817,1.792c4.289,1.837,9.256-0.151,11.093-4.44    c0.461-1.077,0.694-2.239,0.682-3.411C132.233,432.938,131.347,430.768,129.775,429.141z"/>
	</g>
</g>
<g>
	<g>
		<path d="M163.908,429.141c-3.422-3.159-8.696-3.159-12.117,0c-1.576,1.625-2.462,3.795-2.475,6.059    c-0.007,2.267,0.882,4.445,2.475,6.059c0.829,0.754,1.782,1.36,2.817,1.792c4.289,1.837,9.256-0.151,11.093-4.44    c0.461-1.077,0.694-2.239,0.682-3.411C166.367,432.938,165.481,430.768,163.908,429.141z"/>
	</g>
</g>
<g>
	<g>
		<path d="M97.434,466.091c-0.412-1.045-1.02-2.001-1.792-2.816c-0.419-0.388-0.877-0.731-1.367-1.025    c-0.434-0.339-0.925-0.599-1.45-0.767c-0.51-0.259-1.059-0.433-1.625-0.517c-1.633-0.343-3.334-0.162-4.858,0.517    c-2.143,0.777-3.831,2.465-4.608,4.608c-0.911,2.065-0.911,4.418,0,6.483c0.434,1.034,1.04,1.986,1.792,2.817    c3.29,3.358,8.679,3.413,12.037,0.123C98.069,473.059,98.812,469.317,97.434,466.091z"/>
	</g>
</g>
<g>
	<g>
		<path d="M131.566,466.092c-0.431-1.035-1.037-1.988-1.791-2.817c-3.421-3.158-8.695-3.158-12.117,0    c-0.772,0.816-1.38,1.772-1.792,2.817c-0.911,2.065-0.911,4.418,0,6.483c0.434,1.034,1.04,1.986,1.792,2.817    c2.441,2.444,6.125,3.154,9.3,1.792c2.143-0.777,3.831-2.465,4.608-4.608C132.477,470.51,132.477,468.157,131.566,466.092z"/>
	</g>
</g>
<g>
	<g>
		<path d="M165.7,466.092c-0.411-1.045-1.02-2.001-1.791-2.817c-3.421-3.158-8.695-3.158-12.117,0    c-0.772,0.816-1.38,1.772-1.792,2.817c-0.911,2.065-0.911,4.418,0,6.483c0.434,1.034,1.04,1.986,1.792,2.817    c0.816,0.772,1.772,1.38,2.817,1.792c2.065,0.911,4.418,0.911,6.483,0c2.143-0.777,3.831-2.465,4.608-4.608    C166.611,470.51,166.611,468.157,165.7,466.092z"/>
	</g>
</g>
<g>
	<g>
		<path d="M89.633,255.951c-2.292-0.013-4.494,0.896-6.108,2.524c-1.561,1.634-2.445,3.799-2.475,6.059    c-0.038,2.248,0.858,4.412,2.475,5.975c0.79,0.824,1.751,1.464,2.817,1.875c2.065,0.911,4.418,0.911,6.483,0    c1.054-0.433,2.011-1.07,2.817-1.875c1.614-1.565,2.509-3.727,2.475-5.975C98.144,259.821,94.345,255.978,89.633,255.951z"/>
	</g>
</g>
<g>
	<g>
		<path d="M131.566,261.292c-0.411-1.045-1.02-2.001-1.791-2.817c-0.831-0.752-1.783-1.358-2.817-1.792    c-3.185-1.257-6.81-0.558-9.3,1.792c-1.561,1.634-2.446,3.799-2.475,6.059c-0.038,2.248,0.858,4.412,2.475,5.975    c0.79,0.824,1.751,1.464,2.817,1.875c1.026,0.437,2.127,0.67,3.242,0.683c4.699-0.033,8.501-3.834,8.533-8.533    C132.236,263.419,132.004,262.317,131.566,261.292z"/>
	</g>
</g>
<g>
	<g>
		<path d="M95.642,292.608c-0.831-0.752-1.783-1.358-2.817-1.791c-2.067-0.9-4.416-0.9-6.483,0c-1.045,0.412-2.001,1.02-2.817,1.792    c-1.561,1.634-2.445,3.798-2.475,6.058c-0.031,1.119,0.203,2.23,0.683,3.242c0.434,1.034,1.04,1.986,1.792,2.817    c1.605,1.605,3.788,2.497,6.058,2.475c1.119,0.027,2.229-0.207,3.242-0.683c2.143-0.777,3.831-2.465,4.608-4.608    c0.477-1.013,0.711-2.123,0.684-3.242C98.083,296.408,97.199,294.244,95.642,292.608z"/>
	</g>
</g>
<g>
	<g>
		<path d="M129.775,292.608c-2.456-2.417-6.123-3.124-9.3-1.791c-1.045,0.412-2.001,1.02-2.817,1.792    c-1.561,1.634-2.445,3.798-2.475,6.058c-0.045,4.667,3.702,8.488,8.369,8.533c0.055,0.001,0.109,0.001,0.164,0    c1.119,0.027,2.229-0.207,3.242-0.683c1.034-0.434,1.986-1.04,2.817-1.792c1.603-1.607,2.494-3.789,2.475-6.058    C132.216,296.408,131.333,294.244,129.775,292.608z"/>
	</g>
</g>
<g>
	<g>
		<path d="M97.433,329.558c-0.411-1.045-1.02-2.001-1.791-2.817c-3.319-3.346-8.722-3.368-12.068-0.05    c-1.628,1.614-2.537,3.816-2.524,6.108c0,4.713,3.82,8.533,8.533,8.533s8.533-3.821,8.533-8.533    C98.102,331.685,97.87,330.584,97.433,329.558z"/>
	</g>
</g>
<g>
	<g>
		<path d="M131.566,329.559c-0.411-1.045-1.019-2.002-1.791-2.818c-0.425-0.341-0.858-0.683-1.283-1.025    c-0.474-0.324-0.99-0.582-1.533-0.767c-0.484-0.245-1-0.419-1.533-0.517c-2.812-0.571-5.724,0.294-7.767,2.308    c-1.561,1.634-2.445,3.799-2.475,6.059c-0.023,2.27,0.869,4.454,2.475,6.059c0.829,0.754,1.782,1.36,2.817,1.792    c4.287,1.839,9.253-0.146,11.092-4.433C132.478,334.091,132.478,331.685,131.566,329.559z"/>
	</g>
</g>
<g>
	<g>
		<path d="M336.366,124.759c-0.432-1.035-1.038-1.987-1.792-2.817c-3.421-3.158-8.695-3.158-12.117,0    c-0.754,0.829-1.36,1.782-1.792,2.817c-0.437,1.025-0.669,2.126-0.682,3.241c-0.031,1.119,0.203,2.23,0.683,3.242    c0.433,1.034,1.039,1.986,1.791,2.817c0.829,0.754,1.782,1.36,2.817,1.792c2.065,0.911,4.418,0.911,6.483,0    c2.143-0.777,3.831-2.465,4.608-4.608C337.277,129.178,337.277,126.824,336.366,124.759z"/>
	</g>
</g>
<g>
	<g>
		<path d="M302.234,124.759c-0.432-1.035-1.038-1.987-1.792-2.817c-3.421-3.158-8.695-3.158-12.117,0    c-0.754,0.829-1.36,1.782-1.792,2.817c-0.437,1.025-0.67,2.127-0.683,3.241c-0.031,1.119,0.203,2.23,0.683,3.242    c0.433,1.034,1.039,1.986,1.791,2.817c0.829,0.754,1.782,1.36,2.817,1.792c3.175,1.362,6.859,0.652,9.301-1.792    c0.752-0.831,1.358-1.783,1.792-2.817C303.145,129.177,303.145,126.824,302.234,124.759z"/>
	</g>
</g>
<g>
	<g>
		<path d="M97.433,90.625c-0.391-1.055-1.002-2.015-1.791-2.817c-0.407-0.367-0.836-0.709-1.283-1.025    c-0.474-0.324-0.99-0.582-1.533-0.767c-0.51-0.259-1.059-0.433-1.625-0.517c-2.783-0.558-5.662,0.308-7.676,2.308    c-1.561,1.634-2.445,3.799-2.475,6.059c-0.023,2.27,0.869,4.454,2.475,6.059c0.816,0.772,1.772,1.38,2.817,1.792    c2.065,0.911,4.418,0.911,6.483,0c1.034-0.434,1.986-1.04,2.817-1.792C98.085,97.484,98.795,93.8,97.433,90.625z"/>
	</g>
</g>
<g>
	<g>
		<path d="M129.775,87.808c-0.419-0.387-0.878-0.731-1.367-1.025c-0.434-0.339-0.925-0.599-1.45-0.767    c-0.484-0.245-1-0.419-1.533-0.517c-1.664-0.348-3.394-0.167-4.95,0.517c-2.143,0.777-3.831,2.465-4.608,4.608    c-0.438,1.026-0.67,2.127-0.684,3.242c-0.018,1.109,0.183,2.21,0.592,3.242c0.47,1.035,1.106,1.987,1.883,2.817    c2.441,2.444,6.125,3.154,9.3,1.792c1.034-0.434,1.986-1.04,2.817-1.792c1.603-1.607,2.495-3.789,2.475-6.059    C132.216,91.608,131.333,89.444,129.775,87.808z"/>
	</g>
</g>
<g>
	<g>
		<path d="M336.366,90.625c-0.412-1.045-1.02-2.001-1.792-2.817c-0.831-0.752-1.783-1.358-2.817-1.792    c-2.076-0.858-4.407-0.858-6.483,0c-1.045,0.412-2.001,1.02-2.817,1.792c-0.79,0.802-1.401,1.762-1.792,2.817    c-0.911,2.065-0.911,4.418,0,6.483c0.434,1.034,1.04,1.986,1.792,2.817c3.29,3.358,8.679,3.413,12.037,0.123    C337.001,97.593,337.744,93.852,336.366,90.625z"/>
	</g>
</g>
<g>
	<g>
		<path d="M97.434,56.492c-0.412-1.045-1.02-2.002-1.792-2.817c-3.421-3.158-8.695-3.158-12.117,0    c-0.772,0.816-1.38,1.772-1.792,2.817c-0.438,1.026-0.67,2.127-0.683,3.242c-0.045,4.667,3.702,8.488,8.369,8.533    c0.055,0.001,0.11,0.001,0.164,0c1.115-0.014,2.216-0.246,3.242-0.683c1.034-0.433,1.986-1.039,2.817-1.791    C98.086,63.351,98.795,59.667,97.434,56.492z"/>
	</g>
</g>
<g>
	<g>
		<path d="M334.575,53.675c-2.05-2.003-4.956-2.866-7.767-2.308c-0.534,0.096-1.05,0.271-1.533,0.517    c-0.546,0.184-1.065,0.442-1.542,0.767c-0.445,0.316-0.871,0.658-1.276,1.025c-1.561,1.634-2.445,3.799-2.475,6.059    c-0.045,4.667,3.702,8.488,8.369,8.533c0.055,0.001,0.11,0.001,0.164,0c4.667,0.045,8.488-3.702,8.533-8.369    c0.001-0.055,0.001-0.11,0-0.164C337.016,57.474,336.133,55.311,334.575,53.675z"/>
	</g>
</g>
<g>
	<g>
		<path d="M300.442,87.808c-0.419-0.387-0.877-0.731-1.367-1.025c-0.434-0.339-0.925-0.599-1.45-0.767    c-0.51-0.259-1.059-0.433-1.625-0.517c-1.633-0.343-3.334-0.162-4.858,0.517c-2.143,0.777-3.831,2.465-4.608,4.608    c-0.438,1.026-0.67,2.127-0.684,3.242c-0.045,4.667,3.702,8.488,8.369,8.533c0.055,0,0.11,0,0.164,0    c4.667,0.045,8.488-3.702,8.533-8.369c0-0.055,0-0.109,0-0.164C302.883,91.608,301.999,89.444,300.442,87.808z"/>
	</g>
</g>
<g>
	<g>
		<path d="M268.1,124.759c-0.432-1.035-1.038-1.987-1.792-2.817c-3.421-3.158-8.695-3.158-12.117,0    c-0.754,0.829-1.36,1.782-1.792,2.817c-0.437,1.025-0.67,2.127-0.683,3.241c-0.031,1.119,0.203,2.23,0.683,3.242    c0.433,1.034,1.039,1.986,1.791,2.817c0.829,0.754,1.782,1.36,2.817,1.792c3.175,1.362,6.859,0.652,9.301-1.792    c0.752-0.831,1.358-1.783,1.792-2.817C269.011,129.177,269.011,126.824,268.1,124.759z"/>
	</g>
</g>
<g>
	<g>
		<path d="M336.366,158.892c-0.432-1.035-1.038-1.987-1.792-2.817c-0.817-0.77-1.773-1.378-2.817-1.792    c-2.076-0.858-4.407-0.858-6.483,0c-1.045,0.412-2.001,1.02-2.817,1.792c-0.754,0.829-1.36,1.782-1.792,2.817    c-0.437,1.026-0.669,2.127-0.683,3.242c-0.081,3.475,2.041,6.622,5.292,7.85c2.065,0.911,4.418,0.911,6.483,0    c1.034-0.434,1.986-1.04,2.817-1.792c1.576-1.624,2.463-3.795,2.475-6.058C337.036,161.018,336.804,159.917,336.366,158.892z"/>
	</g>
</g>
<g>
	<g>
		<path d="M300.442,156.075c-0.817-0.77-1.773-1.378-2.817-1.792c-2.076-0.858-4.407-0.858-6.483,0    c-1.045,0.412-2.001,1.02-2.817,1.792c-0.754,0.829-1.36,1.782-1.792,2.817c-0.438,1.026-0.67,2.127-0.683,3.242    c-0.023,2.27,0.869,4.454,2.475,6.059c0.816,0.772,1.772,1.38,2.817,1.791c1.013,0.476,2.123,0.71,3.242,0.683    c2.269,0.019,4.452-0.872,6.059-2.475c1.576-1.624,2.463-3.795,2.475-6.059C302.883,159.874,301.999,157.711,300.442,156.075z"/>
	</g>
</g>
<g>
	<g>
		<path d="M260.299,153.551c-2.293-0.013-4.494,0.896-6.108,2.524c-0.754,0.829-1.36,1.782-1.792,2.817    c-0.437,1.026-0.669,2.127-0.683,3.242c-0.023,2.27,0.869,4.454,2.475,6.059c0.83,0.754,1.782,1.36,2.817,1.791    c1.013,0.476,2.123,0.71,3.242,0.683c4.667,0.045,8.488-3.702,8.533-8.369c0.001-0.055,0.001-0.109,0-0.164    C268.81,157.421,265.012,153.578,260.299,153.551z"/>
	</g>
</g>
<g>
	<g>
		<path d="M336.366,193.025c-0.412-1.045-1.02-2.001-1.792-2.817c-0.419-0.387-0.877-0.731-1.367-1.025    c-0.434-0.339-0.925-0.599-1.45-0.767c-0.51-0.259-1.059-0.433-1.625-0.517c-3.99-0.875-8.018,1.306-9.467,5.125    c-0.437,1.026-0.669,2.127-0.683,3.242c-0.023,2.27,0.869,4.454,2.475,6.059c0.83,0.754,1.782,1.36,2.817,1.791    c1.026,0.438,2.127,0.67,3.242,0.683c4.667,0.045,8.488-3.702,8.533-8.369c0.001-0.055,0.001-0.109,0-0.164    C337.036,195.152,336.804,194.051,336.366,193.025z"/>
	</g>
</g>
<g>
	<g>
		<path d="M302.233,193.025c-0.412-1.045-1.02-2.001-1.792-2.817c-0.831-0.752-1.783-1.358-2.817-1.792    c-4.165-1.861-9.05,0.007-10.911,4.172c-0.064,0.144-0.124,0.289-0.18,0.436c-0.438,1.026-0.67,2.128-0.683,3.243    c-0.023,2.27,0.869,4.454,2.475,6.059c1.627,1.573,3.796,2.459,6.059,2.475c1.115-0.014,2.216-0.246,3.242-0.683    c1.034-0.434,1.986-1.04,2.817-1.792C302.885,199.883,303.595,196.199,302.233,193.025z"/>
	</g>
</g>
<g>
	<g>
		<path d="M268.1,193.025c-0.412-1.045-1.02-2.001-1.792-2.817c-0.831-0.752-1.783-1.358-2.817-1.792    c-3.181-1.299-6.829-0.596-9.3,1.792c-0.754,0.829-1.36,1.782-1.792,2.817c-0.911,2.065-0.911,4.418,0,6.483    c0.433,1.033,1.039,1.986,1.791,2.817c0.816,0.772,1.772,1.38,2.817,1.792c1.026,0.437,2.127,0.669,3.242,0.683    c2.262-0.019,4.43-0.905,6.059-2.475c0.752-0.831,1.358-1.783,1.792-2.817C269.011,197.444,269.011,195.09,268.1,193.025z"/>
	</g>
</g>
<g>
	<g>
		<path d="M336.367,227.158c-0.432-1.035-1.038-1.987-1.792-2.817c-2.05-2.002-4.956-2.866-7.767-2.308    c-0.534,0.096-1.05,0.271-1.533,0.517c-0.546,0.184-1.065,0.442-1.542,0.767c-0.445,0.316-0.871,0.658-1.276,1.025    c-0.754,0.829-1.36,1.782-1.792,2.817c-0.437,1.026-0.669,2.127-0.683,3.242c-0.038,2.248,0.858,4.412,2.475,5.975    c1.574,1.661,3.771,2.588,6.059,2.558c2.287,0.027,4.483-0.9,6.059-2.558C337.017,233.967,337.729,230.306,336.367,227.158z"/>
	</g>
</g>
<g>
	<g>
		<path d="M302.234,227.158c-0.432-1.035-1.038-1.987-1.792-2.817c-3.421-3.158-8.695-3.158-12.117,0    c-0.754,0.829-1.36,1.782-1.792,2.817c-0.911,2.065-0.911,4.418,0,6.483c0.415,1.018,1.023,1.947,1.791,2.733    c1.574,1.661,3.771,2.588,6.059,2.558c1.115-0.014,2.216-0.246,3.242-0.683c1.053-0.433,2.011-1.07,2.817-1.875    c0.768-0.787,1.377-1.715,1.792-2.733C303.145,231.577,303.145,229.223,302.234,227.158z"/>
	</g>
</g>
<g>
	<g>
		<path d="M268.1,227.158c-0.432-1.035-1.038-1.987-1.792-2.817c-2.05-2.002-4.956-2.866-7.767-2.308    c-0.534,0.096-1.05,0.271-1.533,0.517c-0.546,0.184-1.065,0.442-1.542,0.767c-0.445,0.316-0.871,0.658-1.275,1.025    c-0.754,0.829-1.36,1.782-1.792,2.817c-0.437,1.026-0.669,2.127-0.683,3.242c-0.038,2.248,0.858,4.412,2.475,5.975    c0.805,0.806,1.762,1.444,2.817,1.875c2.065,0.911,4.418,0.911,6.483,0c1.053-0.433,2.011-1.07,2.817-1.875    c1.614-1.565,2.509-3.727,2.475-5.975C268.769,229.285,268.537,228.184,268.1,227.158z"/>
	</g>
</g>
<g>
	<g>
		<path d="M459.917,343.273c-12.381-43.136-45.789-77.051-88.734-90.079V25.6c-0.015-14.132-11.468-25.585-25.6-25.6H72.516    c-14.132,0.015-25.585,11.468-25.6,25.6v460.8c0.015,14.132,11.468,25.585,25.6,25.6h273.067c3.133-0.042,6.23-0.677,9.127-1.871    c4.914-0.792,9.778-1.873,14.565-3.237C439.487,486.74,480.069,413.485,459.917,343.273z M285.346,17.067    c-4.698,42.137-42.665,72.488-84.802,67.791c-35.664-3.976-63.815-32.127-67.791-67.791H285.346z M72.516,494.933    c-4.711-0.003-8.53-3.822-8.533-8.533V25.6c0.003-4.711,3.822-8.53,8.533-8.533h43.099c4.686,51.602,50.317,89.635,101.92,84.949    c45.11-4.097,80.852-39.839,84.949-84.949h43.099c4.712,0.003,8.53,3.822,8.533,8.533v223.749    c-35.96-6.205-72.867,3.064-101.629,25.522c-5.086-5.403-11.135-9.81-17.838-12.994v-116.81    c-0.066-14.111-11.489-25.534-25.6-25.6c-14.132,0.015-25.585,11.468-25.6,25.6v116.78    c-29.728,14.015-42.466,49.475-28.451,79.204c5.893,12.5,15.952,22.559,28.451,28.451v82.765    c-0.049,14.09,11.333,25.551,25.423,25.6c9.38,0.033,18.021-5.085,22.501-13.325c10.286,12.26,22.706,22.556,36.66,30.392H72.516z     M205.9,417.233c2.843,9.569,6.763,18.784,11.683,27.47v7.563c0,4.713-3.82,8.533-8.533,8.533s-8.533-3.821-8.533-8.533v-72.533    v-5.002l0.253,0.022c-0.062,1.666-0.253,3.299-0.253,4.98C200.522,392.425,202.335,405.052,205.9,417.233z M202.485,357.832    c-2.624-0.4-5.203-1.05-7.703-1.941c-22.204-7.817-33.867-32.153-26.05-54.357c7.817-22.204,32.153-33.867,54.357-26.05    c6.227,2.192,11.86,5.801,16.455,10.542C219.988,305.499,207.028,330.612,202.485,357.832z M200.516,256.681V145.067    c0.003-4.711,3.822-8.53,8.533-8.533c2.302-0.005,4.504,0.942,6.083,2.617c1.586,1.558,2.471,3.694,2.45,5.917v111.61    C211.93,255.773,206.169,255.774,200.516,256.681z M443.3,412.308c-3.36,11.421-8.48,22.248-15.175,32.092    c-35.653,52.467-107.089,66.098-159.556,30.444s-66.098-107.089-30.444-159.556c35.653-52.467,107.089-66.098,159.556-30.444    C438.972,312.903,457.41,364.421,443.3,412.308z"/>
	</g>
</g>
<g>
	<g>
		<path d="M390.983,330.158c-3.612-3.268-8.423-4.88-13.275-4.45c-15.578,1.403-30.351-7.156-36.883-21.367    c-1.58-4.441-6.46-6.761-10.902-5.182c-2.419,0.86-4.322,2.763-5.182,5.182c-5.863,13.25-19.07,21.722-33.558,21.525    c-1.125,0-2.233-0.058-3.292-0.15c-4.865-0.474-9.703,1.141-13.308,4.442c-3.684,3.347-5.789,8.089-5.8,13.067v54.642    c0.052,17.939,7.799,34.992,21.275,46.833c11.846,10.404,27.083,16.126,42.85,16.091c2.744-0.007,5.485-0.179,8.208-0.517    c32.082-4.371,55.922-31.897,55.667-64.275v-52.775C396.772,338.248,394.667,333.505,390.983,330.158z M379.716,396    c0.265,23.775-17.17,44.046-40.717,47.342c-13.607,1.737-27.307-2.424-37.65-11.433c-9.806-8.602-15.45-20.998-15.5-34.042    l0.442-55.158c17.602,1.392,34.83-5.593,46.492-18.85c10.47,12.055,25.633,19.008,41.6,19.075    c1.783-0.076,3.569,0.021,5.333,0.292V396z"/>
	</g>
</g>
<g>
</g>
<g>
</g>
<g>
</g>
<g>
</g>
<g>
</g>
<g>
</g>
<g>
</g>
<g>
</g>
<g>
</g>
<g>
</g>
<g>
</g>
<g>
</g>
<g>
</g>
<g>
</g>
<g>
</g>
</svg>
