<?xml version="1.0" encoding="iso-8859-1"?>
<!-- Generator: Adobe Illustrator 19.0.0, SVG Export Plug-In . SVG Version: 6.00 Build 0)  -->
<svg xmlns="http://www.w3.org/2000/svg" xmlns:xlink="http://www.w3.org/1999/xlink" version="1.1" id="Layer_1" x="0px" y="0px" viewBox="0 0 512 512" style="enable-background:new 0 0 512 512;" xml:space="preserve">
<g>
	<g>
		<path d="M97.433,124.759c-0.413-1.044-1.021-2-1.792-2.817c-3.421-3.158-8.695-3.158-12.117,0    c-0.755,0.829-1.363,1.782-1.796,2.817c-0.906,2.066-0.906,4.417,0,6.483c0.78,2.141,2.467,3.828,4.608,4.608    c3.176,1.362,6.861,0.653,9.304-1.791c0.751-0.832,1.357-1.784,1.792-2.817C98.345,129.177,98.345,126.824,97.433,124.759z"/>
	</g>
</g>
<g>
	<g>
		<path d="M131.567,124.757c-0.433-1.033-1.039-1.986-1.792-2.816c-3.421-3.158-8.695-3.158-12.117,0    c-0.755,0.829-1.363,1.782-1.796,2.817c-0.906,2.066-0.906,4.417,0,6.483c0.78,2.141,2.467,3.828,4.608,4.608    c2.067,0.911,4.421,0.911,6.487,0c1.034-0.433,1.987-1.039,2.817-1.792c0.751-0.832,1.357-1.784,1.792-2.817    C132.478,129.176,132.478,126.822,131.567,124.757z"/>
	</g>
</g>
<g>
	<g>
		<path d="M165.7,124.759c-0.433-1.034-1.039-1.986-1.792-2.817c-3.421-3.158-8.695-3.158-12.117,0    c-0.755,0.829-1.363,1.782-1.796,2.817c-0.906,2.066-0.906,4.417,0,6.483c0.435,1.034,1.042,1.986,1.796,2.817    c0.829,0.753,1.78,1.359,2.813,1.792c2.067,0.911,4.421,0.911,6.487,0c1.034-0.433,1.987-1.039,2.817-1.792    c0.751-0.832,1.357-1.784,1.792-2.817C166.611,129.177,166.611,126.824,165.7,124.759z"/>
	</g>
</g>
<g>
	<g>
		<path d="M97.433,158.891c-0.413-1.044-1.021-2-1.792-2.817c-0.816-0.771-1.772-1.379-2.817-1.792c-2.077-0.858-4.41-0.858-6.487,0    c-1.044,0.412-1.998,1.02-2.813,1.792c-1.56,1.635-2.444,3.799-2.475,6.059c-0.045,4.667,3.702,8.488,8.369,8.533    c0.055,0.001,0.11,0.001,0.164,0c1.119,0.027,2.229-0.207,3.242-0.683c1.034-0.433,1.987-1.039,2.817-1.792    C98.085,165.75,98.795,162.066,97.433,158.891z"/>
	</g>
</g>
<g>
	<g>
		<path d="M131.567,158.891c-0.433-1.034-1.039-1.986-1.792-2.817c-0.83-0.753-1.783-1.359-2.817-1.792    c-2.077-0.858-4.41-0.858-6.487,0c-1.054,0.392-2.012,1.002-2.813,1.792c-1.56,1.635-2.444,3.799-2.475,6.059    c0.008,2.264,0.895,4.436,2.475,6.059c1.606,1.604,3.789,2.496,6.059,2.475c1.119,0.027,2.229-0.207,3.242-0.683    c1.034-0.433,1.987-1.039,2.817-1.792C132.218,165.75,132.928,162.066,131.567,158.891z"/>
	</g>
</g>
<g>
	<g>
		<path d="M165.7,158.891c-0.413-1.044-1.021-2-1.792-2.817c-0.83-0.753-1.783-1.359-2.817-1.792c-2.077-0.858-4.41-0.858-6.487,0    c-1.054,0.392-2.012,1.002-2.813,1.792c-1.559,1.635-2.443,3.799-2.475,6.059c0.008,2.264,0.895,4.436,2.475,6.059    c0.829,0.753,1.78,1.359,2.813,1.791c2.067,0.911,4.421,0.911,6.487,0c1.034-0.433,1.987-1.039,2.817-1.792    C166.352,165.75,167.062,162.066,165.7,158.891z"/>
	</g>
</g>
<g>
	<g>
		<path d="M97.433,193.025c-0.413-1.044-1.021-2-1.792-2.817c-2.476-2.38-6.121-3.082-9.304-1.792    c-1.033,0.433-1.984,1.039-2.813,1.792c-0.773,0.815-1.383,1.772-1.796,2.817c-1.357,3.176-0.646,6.858,1.795,9.301    c0.829,0.753,1.78,1.359,2.813,1.792c1.027,0.438,2.13,0.67,3.246,0.683c2.262-0.018,4.431-0.904,6.059-2.475    C98.085,199.884,98.795,196.2,97.433,193.025z"/>
	</g>
</g>
<g>
	<g>
		<path d="M131.567,193.025c-0.433-1.034-1.039-1.987-1.792-2.817c-2.453-2.425-6.126-3.133-9.304-1.792    c-2.141,0.78-3.828,2.467-4.608,4.608c-1.357,3.176-0.647,6.858,1.795,9.301c0.829,0.753,1.78,1.359,2.813,1.792    c1.027,0.438,2.13,0.67,3.246,0.683c2.262-0.018,4.431-0.904,6.059-2.475c0.751-0.832,1.357-1.784,1.792-2.817    C132.478,197.444,132.478,195.09,131.567,193.025z"/>
	</g>
</g>
<g>
	<g>
		<path d="M163.908,190.208c-0.816-0.771-1.772-1.379-2.817-1.792c-2.077-0.858-4.41-0.858-6.487,0    c-1.054,0.392-2.012,1.002-2.813,1.792c-1.56,1.635-2.444,3.799-2.475,6.059c-0.029,1.119,0.204,2.229,0.679,3.242    c0.435,1.034,1.042,1.986,1.795,2.817c1.628,1.571,3.797,2.457,6.059,2.475c1.115-0.014,2.216-0.246,3.242-0.683    c1.034-0.433,1.987-1.039,2.817-1.792c0.751-0.832,1.357-1.784,1.792-2.817c0.437-1.025,0.669-2.127,0.683-3.241    C166.349,194.008,165.466,191.844,163.908,190.208z"/>
	</g>
</g>
<g>
	<g>
		<path d="M97.433,227.158c-0.433-1.034-1.039-1.987-1.792-2.817c-3.421-3.158-8.695-3.158-12.117,0    c-0.755,0.829-1.363,1.782-1.796,2.817c-0.436,1.026-0.667,2.127-0.68,3.242c-0.029,1.119,0.204,2.229,0.679,3.242    c1.338,3.165,4.419,5.24,7.854,5.292c2.288,0.028,4.484-0.899,6.059-2.558c0.767-0.788,1.376-1.716,1.792-2.733    C98.345,231.577,98.345,229.223,97.433,227.158z"/>
	</g>
</g>
<g>
	<g>
		<path d="M131.566,227.158c-0.433-1.034-1.039-1.986-1.791-2.817c-0.83-0.753-1.783-1.359-2.817-1.792    c-3.179-1.325-6.841-0.619-9.3,1.792c-0.755,0.829-1.363,1.782-1.796,2.817c-0.436,1.026-0.667,2.127-0.68,3.242    c-0.038,2.248,0.858,4.412,2.475,5.975c1.575,1.659,3.771,2.587,6.059,2.558c2.273-0.045,4.441-0.961,6.059-2.558    c1.615-1.564,2.511-3.727,2.475-5.975C132.236,229.285,132.004,228.184,131.566,227.158z"/>
	</g>
</g>
<g>
	<g>
		<path d="M165.7,227.158c-0.433-1.034-1.039-1.986-1.792-2.817c-3.421-3.158-8.695-3.158-12.117,0    c-0.755,0.829-1.363,1.782-1.796,2.817c-0.436,1.026-0.667,2.127-0.68,3.242c-0.029,1.119,0.204,2.229,0.679,3.242    c0.416,1.019,1.026,1.947,1.795,2.733c1.616,1.599,3.786,2.515,6.059,2.558c2.288,0.028,4.484-0.899,6.059-2.558    c0.767-0.788,1.376-1.716,1.792-2.733C166.611,231.577,166.611,229.223,165.7,227.158z"/>
	</g>
</g>
<g>
	<g>
		<path d="M97.433,363.691c-0.413-1.044-1.021-2-1.792-2.817c-3.421-3.158-8.695-3.158-12.117,0    c-0.755,0.829-1.363,1.782-1.796,2.817c-1.849,4.337,0.167,9.351,4.504,11.2c4.337,1.849,9.351-0.167,11.2-4.504    C98.345,368.249,98.345,365.83,97.433,363.691z"/>
	</g>
</g>
<g>
	<g>
		<path d="M131.567,363.691c-0.413-1.044-1.021-2-1.792-2.817c-3.421-3.158-8.695-3.158-12.117,0    c-0.773,0.815-1.383,1.772-1.796,2.817c-1.849,4.337,0.167,9.351,4.504,11.2s9.351-0.167,11.2-4.504    C132.478,368.249,132.478,365.83,131.567,363.691z"/>
	</g>
</g>
<g>
	<g>
		<path d="M95.641,395.008c-0.83-0.753-1.783-1.359-2.817-1.791c-2.077-0.858-4.41-0.858-6.487,0    c-1.033,0.433-1.984,1.039-2.813,1.792c-1.559,1.635-2.443,3.799-2.475,6.058c0.019,4.732,3.87,8.553,8.602,8.534    c2.244-0.009,4.395-0.898,5.99-2.475c1.591-1.615,2.48-3.792,2.475-6.059C98.083,398.808,97.199,396.644,95.641,395.008z"/>
	</g>
</g>
<g>
	<g>
		<path d="M123.766,392.484c-2.293-0.013-4.494,0.896-6.108,2.524c-1.559,1.635-2.443,3.799-2.475,6.059    c0,4.713,3.82,8.533,8.533,8.533c4.713,0,8.533-3.82,8.533-8.533C132.277,396.354,128.479,392.511,123.766,392.484z"/>
	</g>
</g>
<g>
	<g>
		<path d="M157.899,392.484c-2.293-0.013-4.494,0.896-6.108,2.524c-1.559,1.635-2.443,3.799-2.475,6.059    c0,4.713,3.82,8.533,8.533,8.533s8.533-3.82,8.533-8.533C166.41,396.354,162.612,392.511,157.899,392.484z"/>
	</g>
</g>
<g>
	<g>
		<path d="M97.945,433.492c-0.095-0.533-0.268-1.05-0.513-1.533c-0.187-0.546-0.447-1.064-0.771-1.542    c-0.338-0.425-0.679-0.85-1.021-1.275c-3.421-3.158-8.695-3.158-12.117,0c-1.574,1.626-2.461,3.796-2.475,6.059    c-0.023,2.27,0.869,4.454,2.475,6.059c0.829,0.753,1.78,1.359,2.813,1.792c2.067,0.911,4.421,0.911,6.487,0    c1.034-0.433,1.987-1.039,2.817-1.792c1.604-1.606,2.496-3.789,2.475-6.059C98.101,434.627,98.044,434.056,97.945,433.492z"/>
	</g>
</g>
<g>
	<g>
		<path d="M129.775,429.141c-2.457-2.418-6.125-3.124-9.305-1.791c-1.044,0.412-1.998,1.02-2.813,1.792    c-1.559,1.635-2.443,3.799-2.475,6.058c0,4.713,3.82,8.533,8.533,8.533c4.713,0,8.533-3.82,8.533-8.533    C132.216,432.941,131.332,430.778,129.775,429.141z"/>
	</g>
</g>
<g>
	<g>
		<path d="M166.212,433.492c-0.095-0.533-0.268-1.05-0.513-1.533c-0.187-0.546-0.447-1.064-0.771-1.542    c-0.338-0.425-0.679-0.85-1.021-1.275c-3.421-3.158-8.695-3.158-12.117,0c-1.574,1.626-2.461,3.796-2.475,6.059    c-0.023,2.27,0.869,4.454,2.475,6.059c0.829,0.753,1.78,1.359,2.813,1.792c4.29,1.839,9.258-0.148,11.096-4.438    c0.462-1.078,0.695-2.24,0.683-3.413C166.367,434.627,166.31,434.056,166.212,433.492z"/>
	</g>
</g>
<g>
	<g>
		<path d="M97.433,466.092c-0.433-1.034-1.039-1.987-1.792-2.817c-0.83-0.753-1.783-1.359-2.817-1.792    c-3.177-1.341-6.849-0.634-9.3,1.792c-0.755,0.829-1.363,1.782-1.796,2.817c-0.436,1.026-0.667,2.127-0.68,3.242    c-0.029,1.119,0.204,2.229,0.679,3.242c0.78,2.141,2.467,3.828,4.608,4.608c3.176,1.362,6.862,0.653,9.305-1.791    c0.751-0.832,1.357-1.784,1.792-2.817C98.345,470.51,98.345,468.157,97.433,466.092z"/>
	</g>
</g>
<g>
	<g>
		<path d="M131.566,466.092c-0.413-1.044-1.021-2-1.791-2.817c-3.421-3.158-8.695-3.158-12.117,0    c-0.773,0.815-1.383,1.772-1.796,2.817c-0.906,2.066-0.906,4.417,0,6.483c0.435,1.034,1.042,1.987,1.795,2.817    c3.365,3.3,8.752,3.3,12.117,0c0.751-0.832,1.357-1.784,1.792-2.817C132.477,470.51,132.477,468.157,131.566,466.092z"/>
	</g>
</g>
<g>
	<g>
		<path d="M165.7,466.092c-0.433-1.034-1.039-1.986-1.791-2.817c-2.453-2.425-6.126-3.133-9.304-1.792    c-1.033,0.433-1.984,1.039-2.813,1.792c-0.773,0.815-1.383,1.772-1.796,2.817c-0.906,2.066-0.906,4.417,0,6.483    c0.435,1.034,1.042,1.987,1.795,2.817c2.441,2.444,6.125,3.154,9.3,1.792c1.034-0.433,1.987-1.039,2.817-1.792    c0.751-0.832,1.357-1.784,1.792-2.817c0.478-1.012,0.712-2.123,0.683-3.242C166.369,468.219,166.137,467.117,165.7,466.092z"/>
	</g>
</g>
<g>
	<g>
		<path d="M97.433,261.292c-0.413-1.044-1.021-2-1.791-2.817c-3.399-3.214-8.717-3.214-12.117,0    c-1.56,1.635-2.444,3.799-2.475,6.059c-0.029,1.119,0.204,2.229,0.679,3.242c1.338,3.165,4.419,5.24,7.854,5.292    c4.699-0.033,8.501-3.834,8.533-8.533C98.102,263.419,97.87,262.317,97.433,261.292z"/>
	</g>
</g>
<g>
	<g>
		<path d="M129.775,258.475c-0.803-0.789-1.762-1.399-2.817-1.791c-3.177-1.341-6.849-0.634-9.3,1.792    c-0.773,0.815-1.383,1.772-1.796,2.817c-0.436,1.026-0.667,2.127-0.679,3.241c-0.038,2.248,0.858,4.412,2.475,5.975    c1.575,1.659,3.771,2.587,6.059,2.558c3.448-0.007,6.55-2.098,7.85-5.292c0.478-1.012,0.712-2.123,0.683-3.242    C132.216,262.274,131.332,260.111,129.775,258.475z"/>
	</g>
</g>
<g>
	<g>
		<path d="M95.641,292.608c-0.83-0.753-1.783-1.359-2.817-1.791c-3.177-1.341-6.849-0.634-9.3,1.792    c-1.559,1.635-2.443,3.799-2.475,6.058c-0.023,2.27,0.869,4.454,2.475,6.059c0.829,0.753,1.78,1.359,2.813,1.792    c1.014,0.477,2.126,0.71,3.246,0.683c4.667,0.045,8.488-3.702,8.533-8.369c0.001-0.055,0.001-0.11,0-0.164    C98.083,296.408,97.199,294.244,95.641,292.608z"/>
	</g>
</g>
<g>
	<g>
		<path d="M129.775,292.608c-2.453-2.425-6.126-3.133-9.305-1.791c-1.044,0.412-1.998,1.02-2.813,1.792    c-1.559,1.635-2.443,3.799-2.475,6.058c-0.029,1.119,0.204,2.229,0.679,3.242c0.78,2.141,2.467,3.828,4.608,4.608    c1.014,0.477,2.126,0.711,3.246,0.684c2.27,0.021,4.453-0.871,6.059-2.475c0.751-0.832,1.357-1.784,1.792-2.817    c0.478-1.012,0.712-2.123,0.683-3.242C132.216,296.408,131.332,294.244,129.775,292.608z"/>
	</g>
</g>
<g>
	<g>
		<path d="M89.633,324.217c-2.292-0.013-4.494,0.896-6.108,2.524c-0.773,0.815-1.383,1.772-1.796,2.817    c-1.789,4.363,0.298,9.35,4.661,11.139c3.173,1.301,6.817,0.577,9.252-1.838c0.751-0.832,1.357-1.784,1.792-2.817    c0.478-1.012,0.712-2.123,0.683-3.242C98.144,328.087,94.345,324.245,89.633,324.217z"/>
	</g>
</g>
<g>
	<g>
		<path d="M123.766,324.217c-2.293-0.013-4.494,0.896-6.108,2.524c-0.773,0.815-1.383,1.772-1.796,2.817    c-1.789,4.363,0.298,9.35,4.661,11.139c3.173,1.301,6.817,0.577,9.252-1.838c0.751-0.832,1.357-1.784,1.792-2.817    c0.478-1.012,0.712-2.123,0.683-3.242C132.277,328.087,128.479,324.245,123.766,324.217z"/>
	</g>
</g>
<g>
	<g>
		<path d="M334.575,121.941c-2.05-2.002-4.956-2.866-7.767-2.308c-0.535,0.096-1.053,0.27-1.538,0.517    c-0.543,0.185-1.059,0.443-1.533,0.767c-0.447,0.315-0.875,0.657-1.28,1.025c-0.773,0.815-1.383,1.772-1.796,2.817    c-0.906,2.066-0.906,4.417,0,6.483c0.435,1.034,1.042,1.987,1.796,2.817c2.441,2.444,6.125,3.154,9.3,1.792    c1.034-0.433,1.987-1.039,2.817-1.792c0.751-0.832,1.357-1.784,1.792-2.817c0.438-1.026,0.67-2.127,0.683-3.242    C337.016,125.741,336.132,123.578,334.575,121.941z"/>
	</g>
</g>
<g>
	<g>
		<path d="M294.433,119.417c-2.293-0.013-4.494,0.896-6.108,2.524c-0.755,0.829-1.363,1.782-1.796,2.817    c-0.906,2.066-0.906,4.417,0,6.483c0.435,1.034,1.042,1.987,1.796,2.817c0.828,0.753,1.78,1.359,2.813,1.792    c2.067,0.911,4.421,0.911,6.487,0c1.034-0.433,1.987-1.039,2.817-1.792c0.751-0.832,1.357-1.784,1.792-2.817    c0.438-1.026,0.67-2.127,0.683-3.242C302.944,123.287,299.145,119.445,294.433,119.417z"/>
	</g>
</g>
<g>
	<g>
		<path d="M95.641,87.808c-2.473-2.388-6.122-3.09-9.304-1.791c-1.054,0.392-2.012,1.002-2.813,1.792    c-1.559,1.635-2.443,3.799-2.475,6.058c-0.023,2.27,0.869,4.454,2.475,6.059c0.829,0.753,1.78,1.359,2.813,1.792    c4.29,1.839,9.258-0.148,11.096-4.438c0.462-1.078,0.695-2.24,0.683-3.412C98.083,91.608,97.199,89.444,95.641,87.808z"/>
	</g>
</g>
<g>
	<g>
		<path d="M129.775,87.808c-0.83-0.753-1.783-1.359-2.817-1.791c-2.077-0.858-4.41-0.858-6.487,0    c-2.141,0.78-3.828,2.467-4.608,4.608c-1.357,3.176-0.646,6.858,1.795,9.301c0.829,0.753,1.78,1.359,2.813,1.792    c4.29,1.839,9.258-0.148,11.097-4.438c0.462-1.078,0.695-2.24,0.683-3.412C132.216,91.608,131.332,89.444,129.775,87.808z"/>
	</g>
</g>
<g>
	<g>
		<path d="M336.366,90.625c-0.777-2.143-2.465-3.831-4.608-4.608c-2.077-0.858-4.41-0.858-6.487,0    c-1.033,0.433-1.984,1.039-2.813,1.792c-1.56,1.635-2.444,3.799-2.476,6.058c-0.045,4.667,3.702,8.488,8.369,8.533    c0.055,0,0.11,0,0.164,0c1.115-0.014,2.216-0.246,3.242-0.683c1.034-0.433,1.987-1.039,2.817-1.792    c0.751-0.832,1.357-1.784,1.792-2.817C337.278,95.043,337.278,92.69,336.366,90.625z"/>
	</g>
</g>
<g>
	<g>
		<path d="M95.641,53.675c-0.816-0.771-1.773-1.379-2.817-1.791c-2.06-0.942-4.427-0.942-6.487,0    c-1.033,0.433-1.984,1.039-2.813,1.792c-0.773,0.815-1.383,1.772-1.796,2.817c-0.906,2.066-0.906,4.417,0,6.483    c0.435,1.034,1.042,1.986,1.795,2.817c0.829,0.753,1.78,1.359,2.813,1.792c4.29,1.839,9.258-0.148,11.096-4.438    c0.462-1.078,0.695-2.24,0.683-3.413C98.083,57.474,97.199,55.311,95.641,53.675z"/>
	</g>
</g>
<g>
	<g>
		<path d="M336.367,56.492c-1.665-4.336-6.529-6.501-10.865-4.836c-1.151,0.442-2.19,1.131-3.045,2.019    c-1.559,1.635-2.443,3.799-2.475,6.059c-0.007,2.267,0.882,4.445,2.475,6.059c0.829,0.753,1.78,1.359,2.813,1.791    c2.067,0.911,4.421,0.911,6.487,0c1.034-0.432,1.987-1.038,2.817-1.791c0.751-0.832,1.357-1.784,1.792-2.817    C337.278,60.91,337.278,58.557,336.367,56.492z"/>
	</g>
</g>
<g>
	<g>
		<path d="M300.441,87.808c-0.83-0.753-1.783-1.359-2.817-1.792c-2.077-0.858-4.41-0.858-6.487,0    c-1.033,0.433-1.984,1.039-2.813,1.792c-0.773,0.815-1.383,1.772-1.796,2.817c-0.906,2.066-0.906,4.417,0,6.483    c0.435,1.034,1.042,1.986,1.795,2.817c3.319,3.346,8.722,3.368,12.068,0.05c1.628-1.614,2.537-3.816,2.524-6.108    C302.883,91.608,301.999,89.444,300.441,87.808z"/>
	</g>
</g>
<g>
	<g>
		<path d="M260.299,119.417c-2.293-0.013-4.494,0.896-6.108,2.524c-0.755,0.829-1.363,1.782-1.796,2.817    c-0.906,2.066-0.906,4.417,0,6.483c0.435,1.034,1.042,1.987,1.796,2.817c0.829,0.753,1.78,1.359,2.812,1.792    c2.067,0.911,4.421,0.911,6.487,0c1.034-0.433,1.987-1.039,2.817-1.792c0.751-0.832,1.357-1.784,1.792-2.817    c0.438-1.026,0.67-2.127,0.683-3.242C268.81,123.287,265.012,119.445,260.299,119.417z"/>
	</g>
</g>
<g>
	<g>
		<path d="M334.575,156.075c-0.802-0.789-1.762-1.399-2.817-1.792c-2.077-0.858-4.41-0.858-6.487,0    c-2.141,0.78-3.828,2.467-4.608,4.608c-1.357,3.176-0.647,6.858,1.795,9.301c0.829,0.753,1.78,1.359,2.813,1.791    c1.014,0.477,2.125,0.711,3.246,0.683c2.27,0.021,4.453-0.871,6.059-2.475c1.591-1.615,2.48-3.792,2.475-6.059    C337.016,159.874,336.132,157.711,334.575,156.075z"/>
	</g>
</g>
<g>
	<g>
		<path d="M300.441,156.075c-2.453-2.425-6.126-3.133-9.304-1.792c-2.141,0.78-3.828,2.467-4.608,4.608    c-1.357,3.176-0.647,6.858,1.795,9.301c0.829,0.753,1.78,1.359,2.813,1.791c2.067,0.911,4.421,0.911,6.487,0    c1.034-0.433,1.987-1.039,2.817-1.792c1.604-1.606,2.496-3.788,2.475-6.058C302.883,159.874,301.999,157.711,300.441,156.075z"/>
	</g>
</g>
<g>
	<g>
		<path d="M266.308,156.075c-2.453-2.425-6.126-3.133-9.304-1.792c-2.141,0.78-3.828,2.467-4.608,4.608    c-1.357,3.176-0.647,6.858,1.795,9.301c0.829,0.753,1.78,1.359,2.813,1.791c1.014,0.477,2.125,0.711,3.246,0.683    c4.667,0.045,8.488-3.702,8.533-8.369c0.001-0.055,0.001-0.109,0-0.164C268.749,159.874,267.866,157.711,266.308,156.075z"/>
	</g>
</g>
<g>
	<g>
		<path d="M336.367,193.025c-0.413-1.044-1.021-2-1.792-2.817c-2.036-1.965-4.897-2.825-7.679-2.308    c-0.566,0.083-1.115,0.257-1.625,0.517c-0.543,0.185-1.059,0.443-1.533,0.767c-0.447,0.315-0.875,0.657-1.28,1.024    c-0.773,0.815-1.383,1.772-1.796,2.817c-1.357,3.176-0.646,6.858,1.796,9.301c0.829,0.753,1.78,1.359,2.813,1.791    c1.027,0.438,2.13,0.67,3.246,0.683c2.262-0.018,4.431-0.904,6.059-2.475C337.019,199.884,337.729,196.2,336.367,193.025z"/>
	</g>
</g>
<g>
	<g>
		<path d="M300.441,190.208c-0.816-0.771-1.772-1.379-2.817-1.792c-3.177-1.341-6.849-0.634-9.3,1.792    c-0.755,0.829-1.363,1.782-1.796,2.817c-0.906,2.066-0.906,4.417,0,6.483c0.435,1.034,1.042,1.986,1.795,2.817    c1.628,1.571,3.797,2.457,6.059,2.475c1.115-0.014,2.216-0.246,3.242-0.683c1.034-0.433,1.987-1.039,2.817-1.792    c1.604-1.606,2.496-3.788,2.475-6.058C302.883,194.008,301.999,191.844,300.441,190.208z"/>
	</g>
</g>
<g>
	<g>
		<path d="M266.308,190.208c-0.802-0.789-1.762-1.399-2.817-1.792c-2.077-0.858-4.41-0.858-6.487,0    c-1.044,0.412-1.998,1.02-2.812,1.792c-1.56,1.635-2.444,3.799-2.475,6.059c-0.023,2.27,0.869,4.454,2.475,6.059    c0.829,0.753,1.78,1.359,2.813,1.791c2.067,0.911,4.421,0.911,6.487,0c1.044-0.413,2-1.021,2.817-1.792    c0.751-0.832,1.357-1.784,1.792-2.817c0.478-1.012,0.712-2.122,0.683-3.241C268.749,194.008,267.866,191.844,266.308,190.208z"/>
	</g>
</g>
<g>
	<g>
		<path d="M336.366,227.158c-0.433-1.034-1.039-1.986-1.792-2.817c-3.421-3.158-8.695-3.158-12.117,0    c-0.755,0.829-1.363,1.782-1.796,2.817c-0.436,1.026-0.667,2.127-0.679,3.242c-0.038,2.248,0.858,4.412,2.475,5.975    c1.575,1.659,3.771,2.587,6.059,2.558c2.288,0.028,4.484-0.899,6.059-2.558c0.767-0.788,1.376-1.716,1.792-2.733    c0.478-1.012,0.712-2.123,0.683-3.242C337.036,229.285,336.804,228.184,336.366,227.158z"/>
	</g>
</g>
<g>
	<g>
		<path d="M302.233,227.158c-0.433-1.034-1.039-1.986-1.792-2.817c-2.457-2.418-6.125-3.125-9.304-1.792    c-2.141,0.78-3.828,2.467-4.608,4.608c-0.436,1.026-0.667,2.128-0.679,3.242c-0.038,2.248,0.858,4.412,2.475,5.975    c0.804,0.805,1.76,1.443,2.813,1.875c1.027,0.438,2.13,0.67,3.246,0.683c4.699-0.033,8.501-3.834,8.533-8.533    C302.902,229.285,302.67,228.184,302.233,227.158z"/>
	</g>
</g>
<g>
	<g>
		<path d="M268.099,227.158c-0.777-2.143-2.465-3.831-4.608-4.608c-3.177-1.341-6.849-0.634-9.3,1.792    c-0.755,0.829-1.363,1.782-1.796,2.817c-0.436,1.026-0.667,2.127-0.68,3.241c-0.038,2.248,0.858,4.412,2.475,5.975    c1.575,1.659,3.771,2.587,6.059,2.558c3.448-0.007,6.55-2.098,7.85-5.292c0.478-1.012,0.712-2.122,0.683-3.242    C268.769,229.285,268.537,228.184,268.099,227.158z"/>
	</g>
</g>
<g>
	<g>
		<path d="M380.083,371.616c-3.722-6.973-8.603-13.262-14.433-18.6c-9.739-9.696-15.196-22.883-15.158-36.625l0.042-1.883    c0.157-4.526,0.906-9.011,2.229-13.342c1.38-4.505-1.153-9.276-5.659-10.657c-2.21-0.677-4.601-0.428-6.625,0.69    c-10.481,5.798-19.277,14.217-25.529,24.433c-5.722,9.357-9.113,19.951-9.888,30.892c-1.656-0.115-3.305,0.309-4.7,1.208    c-26.666,15.991-35.319,50.572-19.328,77.238c15.991,26.666,50.572,35.319,77.238,19.328    c16.974-10.179,27.356-28.523,27.344-48.315C385.639,387.547,383.747,379.215,380.083,371.616z M366.324,409.05    c-7.222,20.425-29.633,31.128-50.058,23.906c-15.669-5.54-26.146-20.354-26.15-36.973c-0.039-9.496,3.396-18.678,9.658-25.817    c3.902,9.21,10.672,16.914,19.304,21.967c4.067,2.383,9.296,1.017,11.679-3.05c1.644-2.806,1.55-6.303-0.241-9.017    c-11.034-16.763-11.425-38.383-1.004-55.533c1.196-1.951,2.518-3.821,3.958-5.6c0.596,17.395,7.797,33.909,20.137,46.183    c4.436,3.998,8.185,8.697,11.1,13.908C369.194,388.426,369.775,399.221,366.324,409.05z"/>
	</g>
</g>
<g>
	<g>
		<path d="M459.917,343.273c-12.381-43.136-45.79-77.051-88.734-90.079V25.6c-0.015-14.132-11.468-25.585-25.6-25.6H72.516    c-14.132,0.015-25.585,11.468-25.6,25.6v460.8c0.015,14.132,11.468,25.585,25.6,25.6h273.067c3.126-0.04,6.216-0.674,9.105-1.868    c4.922-0.792,9.793-1.874,14.587-3.241C439.487,486.74,480.069,413.485,459.917,343.273z M285.346,17.067    c-4.698,42.137-42.665,72.488-84.802,67.791c-35.664-3.976-63.815-32.127-67.791-67.791H285.346z M72.516,494.933    c-4.711-0.005-8.529-3.822-8.533-8.533V25.6c0.005-4.711,3.822-8.529,8.533-8.533h43.099    c4.686,51.602,50.317,89.635,101.92,84.949c45.11-4.097,80.852-39.839,84.949-84.949h43.099c4.711,0.005,8.529,3.822,8.533,8.533    v223.749c-35.961-6.205-72.87,3.065-101.632,25.524c-5.085-5.403-11.133-9.81-17.835-12.993V145.067    c-0.07-14.109-11.491-25.53-25.6-25.6c-14.132,0.015-25.585,11.468-25.6,25.6v116.779c-29.728,14.014-42.466,49.474-28.452,79.202    c5.893,12.5,15.952,22.559,28.452,28.452v82.767c-0.049,14.09,11.334,25.551,25.424,25.6c9.378,0.032,18.018-5.084,22.499-13.322    c10.287,12.259,22.707,22.554,36.661,30.39H72.516z M217.583,444.699v7.568c0,4.713-3.82,8.533-8.533,8.533    s-8.533-3.821-8.533-8.533v-72.533v-5.002l0.253,0.022c-0.062,1.666-0.253,3.299-0.253,4.98    C200.46,402.504,206.342,424.896,217.583,444.699z M202.485,357.832c-2.622-0.4-5.2-1.05-7.698-1.941    c-22.204-7.814-33.87-32.148-26.056-54.352s32.148-33.87,54.352-26.056c6.23,2.192,11.865,5.802,16.461,10.545    C219.988,305.5,207.027,330.612,202.485,357.832z M200.516,256.681V145.067c0.005-4.711,3.822-8.529,8.533-8.533    c2.298-0.005,4.496,0.938,6.075,2.608c1.591,1.559,2.479,3.698,2.458,5.925v111.61    C211.93,255.773,206.169,255.774,200.516,256.681z M443.299,412.308c-3.36,11.421-8.48,22.248-15.175,32.092    c-35.653,52.467-107.089,66.098-159.556,30.444s-66.098-107.089-30.444-159.556c35.653-52.467,107.089-66.098,159.556-30.444    C438.972,312.903,457.41,364.421,443.299,412.308z"/>
	</g>
</g>
<g>
</g>
<g>
</g>
<g>
</g>
<g>
</g>
<g>
</g>
<g>
</g>
<g>
</g>
<g>
</g>
<g>
</g>
<g>
</g>
<g>
</g>
<g>
</g>
<g>
</g>
<g>
</g>
<g>
</g>
</svg>
