<?xml version="1.0" encoding="iso-8859-1"?>
<!-- Generator: Adobe Illustrator 19.0.0, SVG Export Plug-In . SVG Version: 6.00 Build 0)  -->
<svg xmlns="http://www.w3.org/2000/svg" xmlns:xlink="http://www.w3.org/1999/xlink" version="1.1" id="Layer_1" x="0px" y="0px" viewBox="0 0 512 512" style="enable-background:new 0 0 512 512;" xml:space="preserve">
<g>
	<g>
		<path d="M392.533,0H119.467c-14.132,0.015-25.585,11.468-25.6,25.6v460.8c0.015,14.132,11.468,25.585,25.6,25.6h273.067    c14.132-0.015,25.585-11.468,25.6-25.6V25.6C418.118,11.468,406.665,0.015,392.533,0z M332.297,17.067    c-4.698,42.137-42.665,72.488-84.802,67.791c-35.664-3.976-63.815-32.127-67.791-67.791H332.297z M401.067,486.4    c-0.005,4.711-3.823,8.529-8.533,8.533H119.467c-4.711-0.005-8.529-3.822-8.533-8.533V25.6c0.005-4.711,3.822-8.529,8.533-8.533    h43.099c4.686,51.602,50.317,89.635,101.92,84.949c45.11-4.097,80.852-39.839,84.949-84.949h43.099    c4.711,0.005,8.529,3.822,8.533,8.533V486.4z"/>
	</g>
</g>
<g>
	<g>
		<path d="M310.017,290.263c-5.897-12.476-15.941-22.52-28.417-28.417V145.067c-0.07-14.109-11.491-25.53-25.6-25.6    c-14.132,0.015-25.585,11.468-25.6,25.6v116.779c-29.761,14.067-42.484,49.597-28.417,79.358    c5.897,12.476,15.941,22.52,28.417,28.417v82.646c0,14.138,11.461,25.6,25.6,25.6s25.6-11.462,25.6-25.6v-82.646    C311.361,355.554,324.084,320.024,310.017,290.263z M247.467,145.067c0.005-4.711,3.822-8.529,8.533-8.533    c2.298-0.005,4.496,0.938,6.075,2.608c1.591,1.559,2.479,3.698,2.458,5.925v111.615c-5.653-0.908-11.414-0.908-17.067,0V145.067z     M264.533,452.267c0,4.713-3.82,8.533-8.533,8.533s-8.533-3.821-8.533-8.533v-77.481c5.653,0.908,11.414,0.908,17.067,0V452.267z     M256,358.4c-23.564,0-42.667-19.103-42.667-42.667s19.102-42.667,42.667-42.667s42.667,19.103,42.667,42.667    C298.639,339.286,279.553,358.372,256,358.4z"/>
	</g>
</g>
<g>
	<g>
		<path d="M136.583,119.417c-2.293-0.013-4.494,0.896-6.108,2.524c-0.755,0.829-1.363,1.782-1.796,2.817    c-0.906,2.066-0.906,4.417,0,6.483c0.78,2.141,2.467,3.828,4.608,4.608c2.067,0.911,4.421,0.911,6.487,0    c1.034-0.433,1.987-1.039,2.817-1.792c0.751-0.832,1.357-1.784,1.792-2.817c0.437-1.025,0.67-2.126,0.684-3.241    C145.094,123.287,141.296,119.445,136.583,119.417z"/>
	</g>
</g>
<g>
	<g>
		<path d="M170.716,119.417c-2.293-0.013-4.494,0.896-6.108,2.524c-0.755,0.829-1.363,1.782-1.796,2.817    c-0.906,2.066-0.906,4.417,0,6.483c0.78,2.141,2.467,3.828,4.608,4.608c2.067,0.911,4.421,0.911,6.487,0    c1.034-0.433,1.987-1.039,2.817-1.792c0.751-0.832,1.357-1.784,1.792-2.817c0.437-1.025,0.67-2.126,0.684-3.241    C179.227,123.287,175.429,119.445,170.716,119.417z"/>
	</g>
</g>
<g>
	<g>
		<path d="M210.859,121.941c-2.05-2.002-4.956-2.866-7.767-2.308c-0.535,0.096-1.053,0.27-1.538,0.517    c-0.543,0.185-1.059,0.443-1.533,0.767c-0.447,0.315-0.875,0.657-1.28,1.025c-0.773,0.815-1.383,1.772-1.796,2.817    c-0.906,2.066-0.906,4.417,0,6.483c0.435,1.034,1.042,1.987,1.796,2.817c2.441,2.444,6.125,3.154,9.3,1.792    c1.034-0.433,1.987-1.039,2.817-1.792c0.751-0.832,1.357-1.784,1.792-2.817c0.438-1.026,0.67-2.127,0.683-3.242    C213.3,125.741,212.416,123.578,210.859,121.941z"/>
	</g>
</g>
<g>
	<g>
		<path d="M142.592,156.075c-0.802-0.789-1.762-1.399-2.817-1.791c-2.077-0.858-4.41-0.858-6.487,0    c-1.033,0.433-1.984,1.039-2.813,1.792c-0.773,0.815-1.383,1.772-1.796,2.817c-1.356,3.176-0.646,6.857,1.795,9.3    c0.829,0.753,1.78,1.359,2.813,1.792c2.067,0.911,4.421,0.911,6.487,0c1.034-0.433,1.987-1.039,2.817-1.792    c1.578-1.623,2.465-3.795,2.475-6.059C145.033,159.874,144.15,157.711,142.592,156.075z"/>
	</g>
</g>
<g>
	<g>
		<path d="M176.725,156.075c-0.803-0.789-1.762-1.399-2.817-1.791c-2.077-0.858-4.41-0.858-6.487,0    c-2.141,0.78-3.828,2.467-4.608,4.608c-1.357,3.176-0.646,6.858,1.795,9.301c0.829,0.753,1.78,1.359,2.813,1.792    c1.014,0.477,2.126,0.71,3.246,0.683c2.27,0.021,4.453-0.871,6.059-2.475c1.578-1.623,2.465-3.795,2.475-6.059    C179.167,159.874,178.283,157.711,176.725,156.075z"/>
	</g>
</g>
<g>
	<g>
		<path d="M210.859,156.075c-0.816-0.771-1.772-1.379-2.817-1.792c-2.077-0.858-4.41-0.858-6.487,0    c-2.141,0.78-3.828,2.467-4.608,4.608c-1.357,3.176-0.647,6.858,1.795,9.301c0.829,0.753,1.78,1.359,2.813,1.791    c1.014,0.477,2.125,0.711,3.246,0.683c4.667,0.045,8.488-3.702,8.533-8.369c0-0.055,0-0.109,0-0.164    C213.3,159.874,212.416,157.711,210.859,156.075z"/>
	</g>
</g>
<g>
	<g>
		<path d="M142.592,190.208c-0.816-0.771-1.773-1.379-2.817-1.791c-3.177-1.341-6.849-0.634-9.3,1.792    c-0.755,0.829-1.363,1.782-1.796,2.817c-0.906,2.066-0.906,4.417,0,6.483c0.435,1.034,1.042,1.986,1.795,2.817    c1.628,1.571,3.797,2.457,6.059,2.475c1.115-0.014,2.216-0.246,3.242-0.683c1.034-0.433,1.987-1.039,2.817-1.792    c1.604-1.606,2.496-3.788,2.475-6.058C145.033,194.008,144.15,191.844,142.592,190.208z"/>
	</g>
</g>
<g>
	<g>
		<path d="M178.517,193.025c-0.413-1.044-1.021-2-1.792-2.817c-2.036-1.965-4.897-2.825-7.679-2.308    c-0.566,0.083-1.115,0.257-1.625,0.517c-0.543,0.185-1.059,0.443-1.533,0.767c-0.447,0.315-0.875,0.657-1.28,1.025    c-0.773,0.815-1.383,1.772-1.796,2.817c-1.357,3.176-0.646,6.858,1.796,9.301c0.829,0.753,1.78,1.359,2.813,1.792    c1.027,0.438,2.13,0.67,3.246,0.683c2.262-0.018,4.431-0.904,6.059-2.475C179.169,199.884,179.879,196.2,178.517,193.025z"/>
	</g>
</g>
<g>
	<g>
		<path d="M212.651,193.025c-0.433-1.034-1.039-1.986-1.792-2.817c-2.453-2.425-6.126-3.133-9.304-1.792    c-1.033,0.433-1.984,1.039-2.813,1.792c-0.773,0.815-1.383,1.772-1.796,2.817c-1.356,3.176-0.646,6.857,1.795,9.3    c0.829,0.753,1.78,1.359,2.813,1.791c1.027,0.438,2.13,0.67,3.246,0.683c2.262-0.018,4.431-0.904,6.059-2.475    c0.751-0.832,1.357-1.784,1.792-2.817C213.562,197.444,213.562,195.09,212.651,193.025z"/>
	</g>
</g>
<g>
	<g>
		<path d="M144.383,227.158c-0.433-1.034-1.039-1.986-1.791-2.817c-3.421-3.158-8.695-3.158-12.117,0    c-0.755,0.829-1.363,1.782-1.796,2.817c-0.436,1.026-0.667,2.127-0.68,3.242c-0.038,2.248,0.858,4.412,2.475,5.975    c1.616,1.599,3.786,2.515,6.059,2.558c4.699-0.033,8.501-3.834,8.533-8.533C145.053,229.285,144.821,228.184,144.383,227.158z"/>
	</g>
</g>
<g>
	<g>
		<path d="M178.517,227.158c-0.433-1.034-1.039-1.986-1.791-2.817c-3.421-3.158-8.695-3.158-12.117,0    c-0.755,0.829-1.363,1.782-1.796,2.817c-0.906,2.066-0.906,4.417,0,6.483c0.416,1.019,1.026,1.947,1.796,2.733    c1.575,1.659,3.77,2.587,6.058,2.559c3.448-0.007,6.55-2.098,7.85-5.292C179.428,231.577,179.428,229.223,178.517,227.158z"/>
	</g>
</g>
<g>
	<g>
		<path d="M212.65,227.158c-0.433-1.034-1.039-1.986-1.792-2.817c-2.457-2.418-6.125-3.125-9.304-1.792    c-2.141,0.78-3.828,2.467-4.608,4.608c-0.436,1.026-0.667,2.128-0.679,3.242c-0.038,2.248,0.858,4.412,2.475,5.975    c0.804,0.805,1.76,1.443,2.813,1.875c1.027,0.438,2.13,0.67,3.246,0.683c4.699-0.033,8.501-3.834,8.533-8.533    C213.32,229.285,213.087,228.184,212.65,227.158z"/>
	</g>
</g>
<g>
	<g>
		<path d="M144.384,363.691c-0.413-1.044-1.021-2-1.792-2.817c-3.421-3.158-8.695-3.158-12.117,0    c-0.773,0.815-1.383,1.772-1.796,2.817c-1.849,4.337,0.167,9.351,4.504,11.2c4.337,1.849,9.351-0.167,11.2-4.504    C145.296,368.249,145.296,365.83,144.384,363.691z"/>
	</g>
</g>
<g>
	<g>
		<path d="M178.517,363.691c-0.413-1.044-1.021-2-1.792-2.816c-3.421-3.158-8.695-3.158-12.117,0    c-0.773,0.815-1.383,1.772-1.796,2.817c-1.837,4.289,0.15,9.256,4.439,11.093c2.125,0.91,4.531,0.91,6.656-0.001    c1.034-0.433,1.987-1.039,2.817-1.792C179.169,370.55,179.879,366.866,178.517,363.691z"/>
	</g>
</g>
<g>
	<g>
		<path d="M142.592,395.008c-0.83-0.753-1.783-1.359-2.817-1.791c-2.077-0.858-4.41-0.858-6.487,0    c-1.033,0.433-1.984,1.039-2.813,1.792c-1.559,1.635-2.443,3.799-2.475,6.058c-0.007,2.267,0.882,4.445,2.475,6.059    c3.365,3.3,8.752,3.3,12.117,0c1.591-1.615,2.481-3.792,2.475-6.059C145.033,398.808,144.15,396.644,142.592,395.008z"/>
	</g>
</g>
<g>
	<g>
		<path d="M170.716,392.484c-2.293-0.013-4.494,0.896-6.108,2.524c-1.559,1.635-2.443,3.799-2.475,6.059    c0,4.713,3.82,8.533,8.533,8.533s8.533-3.82,8.533-8.533C179.227,396.354,175.429,392.511,170.716,392.484z"/>
	</g>
</g>
<g>
	<g>
		<path d="M204.85,392.484c-2.293-0.013-4.494,0.896-6.108,2.524c-1.559,1.635-2.443,3.799-2.475,6.059    c-0.023,2.27,0.869,4.454,2.475,6.059c0.829,0.753,1.78,1.359,2.813,1.792c4.29,1.839,9.258-0.148,11.096-4.438    c0.462-1.078,0.695-2.24,0.683-3.412C213.361,396.354,209.563,392.511,204.85,392.484z"/>
	</g>
</g>
<g>
	<g>
		<path d="M144.896,433.492c-0.095-0.533-0.268-1.05-0.513-1.533c-0.187-0.546-0.447-1.064-0.771-1.542    c-0.338-0.425-0.679-0.85-1.021-1.275c-0.83-0.753-1.783-1.359-2.817-1.792c-3.182-1.29-6.825-0.588-9.3,1.792    c-1.574,1.626-2.461,3.796-2.475,6.059c0.019,4.732,3.87,8.553,8.602,8.534c2.244-0.009,4.395-0.898,5.99-2.475    c1.591-1.615,2.48-3.792,2.475-6.059C145.051,434.627,144.994,434.056,144.896,433.492z"/>
	</g>
</g>
<g>
	<g>
		<path d="M176.725,429.141c-3.422-3.159-8.696-3.159-12.117,0l-1.025,1.275c-0.324,0.477-0.583,0.996-0.771,1.542    c-0.245,0.483-0.417,1-0.508,1.533c-0.1,0.564-0.157,1.136-0.17,1.709c-0.007,2.267,0.882,4.445,2.475,6.059    c3.319,3.346,8.722,3.368,12.068,0.05c1.628-1.614,2.537-3.816,2.524-6.108C179.184,432.938,178.298,430.768,176.725,429.141z"/>
	</g>
</g>
<g>
	<g>
		<path d="M213.163,433.492c-0.095-0.533-0.268-1.05-0.513-1.533c-0.187-0.546-0.447-1.064-0.771-1.542    c-0.313-0.446-0.654-0.872-1.021-1.275c-0.816-0.771-1.772-1.379-2.817-1.792c-3.177-1.341-6.849-0.634-9.3,1.792    c-1.574,1.626-2.461,3.796-2.475,6.059c0.019,4.732,3.87,8.553,8.602,8.534c2.244-0.009,4.395-0.898,5.99-2.475    c1.591-1.615,2.48-3.792,2.475-6.059C213.318,434.627,213.261,434.056,213.163,433.492z"/>
	</g>
</g>
<g>
	<g>
		<path d="M144.383,466.092c-0.413-1.044-1.021-2-1.791-2.817c-2.453-2.425-6.126-3.133-9.304-1.792    c-2.141,0.78-3.828,2.467-4.608,4.608c-0.906,2.066-0.906,4.417,0,6.483c0.435,1.034,1.042,1.987,1.795,2.818    c3.365,3.3,8.752,3.3,12.117,0c0.751-0.832,1.357-1.784,1.792-2.817C145.294,470.51,145.294,468.157,144.383,466.092z"/>
	</g>
</g>
<g>
	<g>
		<path d="M178.517,466.092c-0.433-1.034-1.039-1.987-1.791-2.817c-3.421-3.158-8.695-3.158-12.117,0    c-0.755,0.829-1.363,1.782-1.796,2.817c-0.906,2.066-0.906,4.417,0,6.483c0.435,1.034,1.042,1.987,1.795,2.817    c2.441,2.444,6.125,3.154,9.3,1.792c1.034-0.433,1.987-1.039,2.817-1.792c0.751-0.832,1.357-1.784,1.792-2.817    C179.428,470.51,179.428,468.157,178.517,466.092z"/>
	</g>
</g>
<g>
	<g>
		<path d="M212.65,466.092c-0.413-1.044-1.021-2-1.791-2.817c-0.816-0.771-1.772-1.379-2.817-1.792    c-3.177-1.341-6.849-0.634-9.3,1.792c-0.773,0.815-1.383,1.772-1.796,2.817c-0.906,2.066-0.906,4.417,0,6.483    c0.435,1.034,1.042,1.987,1.795,2.817c3.365,3.3,8.752,3.3,12.117,0c0.751-0.832,1.357-1.784,1.792-2.817    C213.561,470.51,213.561,468.157,212.65,466.092z"/>
	</g>
</g>
<g>
	<g>
		<path d="M136.583,255.951c-2.292-0.013-4.494,0.896-6.108,2.524c-1.559,1.635-2.443,3.799-2.475,6.059    c-0.038,2.248,0.858,4.412,2.475,5.975c1.575,1.659,3.771,2.587,6.059,2.558c2.273-0.045,4.441-0.961,6.059-2.558    c1.615-1.564,2.511-3.727,2.475-5.975C145.094,259.821,141.296,255.978,136.583,255.951z"/>
	</g>
</g>
<g>
	<g>
		<path d="M178.517,261.292c-0.413-1.044-1.021-2-1.791-2.817c-2.453-2.425-6.126-3.133-9.304-1.792    c-1.044,0.412-1.998,1.02-2.813,1.792c-1.56,1.635-2.444,3.799-2.475,6.059c-0.029,1.119,0.204,2.229,0.679,3.242    c1.338,3.165,4.419,5.24,7.854,5.292c4.699-0.033,8.501-3.834,8.533-8.533C179.186,263.419,178.954,262.317,178.517,261.292z"/>
	</g>
</g>
<g>
	<g>
		<path d="M142.592,292.608c-2.453-2.425-6.126-3.133-9.304-1.791c-1.033,0.433-1.984,1.039-2.813,1.792    c-1.559,1.635-2.443,3.799-2.475,6.058c-0.045,4.667,3.702,8.488,8.369,8.533c0.055,0.001,0.11,0.001,0.164,0    c1.119,0.027,2.229-0.207,3.242-0.683c1.034-0.433,1.987-1.039,2.817-1.792c0.751-0.832,1.357-1.784,1.792-2.817    c0.478-1.012,0.712-2.122,0.683-3.241C145.033,296.408,144.15,294.244,142.592,292.608z"/>
	</g>
</g>
<g>
	<g>
		<path d="M170.716,290.084c-2.293-0.013-4.494,0.896-6.108,2.524c-1.559,1.635-2.443,3.799-2.475,6.059    c0,4.713,3.82,8.533,8.533,8.533s8.533-3.82,8.533-8.533C179.227,293.954,175.429,290.111,170.716,290.084z"/>
	</g>
</g>
<g>
	<g>
		<path d="M144.384,329.558c-0.413-1.044-1.021-2-1.792-2.817c-3.421-3.158-8.695-3.158-12.117,0    c-0.773,0.815-1.383,1.772-1.796,2.817c-1.849,4.337,0.167,9.351,4.504,11.2c4.337,1.849,9.351-0.167,11.2-4.504    C145.296,334.115,145.296,331.697,144.384,329.558z"/>
	</g>
</g>
<g>
	<g>
		<path d="M178.517,329.558c-0.413-1.044-1.021-2-1.792-2.817c-0.83-0.753-1.783-1.359-2.817-1.792    c-3.177-1.341-6.849-0.634-9.3,1.792c-0.773,0.815-1.383,1.772-1.796,2.817c-1.849,4.337,0.167,9.351,4.504,11.2    s9.351-0.167,11.2-4.504C179.429,334.115,179.429,331.697,178.517,329.558z"/>
	</g>
</g>
<g>
	<g>
		<path d="M381.525,121.941c-0.407-0.366-0.834-0.708-1.279-1.025c-0.475-0.325-0.992-0.582-1.538-0.767    c-0.485-0.246-1.003-0.42-1.538-0.517c-1.664-0.348-3.394-0.167-4.95,0.517c-1.054,0.392-2.012,1.002-2.813,1.792    c-1.559,1.635-2.443,3.799-2.475,6.058c-0.029,1.119,0.204,2.229,0.679,3.242c0.78,2.141,2.467,3.828,4.608,4.608    c3.176,1.362,6.862,0.653,9.305-1.791c0.751-0.832,1.357-1.784,1.792-2.817c0.478-1.012,0.712-2.123,0.683-3.242    C383.967,125.741,383.083,123.578,381.525,121.941z"/>
	</g>
</g>
<g>
	<g>
		<path d="M347.392,121.941c-0.407-0.366-0.834-0.708-1.28-1.025c-0.475-0.325-0.992-0.582-1.537-0.767    c-0.485-0.246-1.003-0.42-1.538-0.517c-2.81-0.571-5.721,0.294-7.763,2.308c-1.559,1.635-2.443,3.799-2.475,6.059    c0.012,1.115,0.243,2.216,0.679,3.242c0.435,1.034,1.042,1.986,1.796,2.817c3.365,3.3,8.752,3.3,12.117,0    c0.751-0.832,1.357-1.784,1.792-2.817c0.438-1.026,0.67-2.127,0.683-3.242C349.833,125.741,348.95,123.578,347.392,121.941z"/>
	</g>
</g>
<g>
	<g>
		<path d="M142.592,87.808c-0.83-0.753-1.783-1.359-2.817-1.791c-2.077-0.858-4.41-0.858-6.487,0    c-2.141,0.78-3.828,2.467-4.608,4.608c-0.906,2.066-0.906,4.417,0,6.483c0.435,1.034,1.042,1.986,1.795,2.817    c3.319,3.346,8.722,3.368,12.068,0.05c1.628-1.614,2.537-3.816,2.524-6.108C145.033,91.608,144.15,89.444,142.592,87.808z"/>
	</g>
</g>
<g>
	<g>
		<path d="M178.517,90.625c-0.413-1.044-1.021-2-1.791-2.817c-0.816-0.771-1.772-1.379-2.817-1.792c-2.077-0.858-4.41-0.858-6.487,0    c-1.033,0.433-1.984,1.039-2.813,1.792c-0.773,0.815-1.383,1.772-1.796,2.817c-0.906,2.066-0.906,4.417,0,6.483    c0.435,1.034,1.042,1.986,1.795,2.817c2.441,2.444,6.125,3.154,9.3,1.792c1.034-0.433,1.987-1.039,2.817-1.792    c0.751-0.832,1.357-1.784,1.792-2.817C179.428,95.044,179.428,92.69,178.517,90.625z"/>
	</g>
</g>
<g>
	<g>
		<path d="M381.525,87.808c-0.803-0.789-1.762-1.399-2.817-1.791c-2.077-0.858-4.41-0.858-6.487,0    c-1.054,0.392-2.012,1.002-2.813,1.792c-1.559,1.635-2.443,3.799-2.475,6.058c-0.023,2.27,0.869,4.454,2.475,6.059    c0.829,0.753,1.78,1.359,2.813,1.792c4.29,1.839,9.258-0.148,11.096-4.438c0.462-1.078,0.695-2.24,0.683-3.412    C383.967,91.608,383.083,89.444,381.525,87.808z"/>
	</g>
</g>
<g>
	<g>
		<path d="M142.592,53.675c-0.407-0.366-0.834-0.708-1.279-1.025c-0.475-0.324-0.992-0.582-1.538-0.767    c-0.485-0.246-1.003-0.42-1.537-0.517c-1.664-0.348-3.394-0.167-4.95,0.517c-1.033,0.433-1.984,1.039-2.813,1.792    c-0.773,0.815-1.383,1.772-1.796,2.817c-0.906,2.066-0.906,4.417,0,6.483c0.435,1.034,1.042,1.986,1.796,2.817    c3.319,3.346,8.722,3.368,12.068,0.05c1.628-1.614,2.537-3.816,2.524-6.108C145.033,57.474,144.15,55.311,142.592,53.675z"/>
	</g>
</g>
<g>
	<g>
		<path d="M381.525,53.675c-2.453-2.425-6.126-3.133-9.305-1.791c-2.141,0.78-3.828,2.467-4.608,4.608    c-0.906,2.066-0.906,4.417,0,6.483c0.435,1.034,1.042,1.986,1.795,2.817c0.829,0.753,1.78,1.359,2.813,1.792    c2.067,0.911,4.421,0.911,6.487,0c1.034-0.433,1.987-1.039,2.817-1.792c0.78-0.809,1.39-1.767,1.792-2.817    c0.437-1.026,0.669-2.127,0.683-3.242C383.967,57.474,383.083,55.311,381.525,53.675z"/>
	</g>
</g>
<g>
	<g>
		<path d="M349.184,90.625c-0.413-1.044-1.021-2-1.792-2.817c-0.816-0.771-1.772-1.379-2.817-1.792    c-1.556-0.684-3.286-0.865-4.95-0.517c-0.535,0.096-1.053,0.27-1.538,0.517c-0.543,0.185-1.059,0.443-1.533,0.767    c-0.447,0.315-0.875,0.657-1.28,1.025c-1.559,1.635-2.443,3.799-2.475,6.059c-0.045,4.667,3.702,8.488,8.369,8.533    c0.055,0,0.11,0,0.164,0c1.115-0.014,2.216-0.246,3.242-0.683c1.034-0.433,1.987-1.039,2.817-1.792    c0.751-0.832,1.357-1.784,1.792-2.817C350.095,95.043,350.095,92.69,349.184,90.625z"/>
	</g>
</g>
<g>
	<g>
		<path d="M313.259,121.941c-2.016-2-4.895-2.866-7.68-2.308c-0.566,0.083-1.115,0.257-1.625,0.517    c-0.543,0.185-1.059,0.443-1.533,0.767c-0.447,0.315-0.875,0.657-1.279,1.025c-1.559,1.635-2.443,3.799-2.475,6.059    c0.012,1.115,0.243,2.216,0.679,3.242c0.78,2.141,2.467,3.828,4.608,4.608c3.176,1.362,6.862,0.653,9.305-1.791    c0.751-0.832,1.357-1.784,1.792-2.817c0.437-1.026,0.669-2.127,0.683-3.242C315.7,125.741,314.816,123.578,313.259,121.941z"/>
	</g>
</g>
<g>
	<g>
		<path d="M381.525,156.075c-0.407-0.366-0.834-0.708-1.279-1.025c-0.475-0.325-0.992-0.582-1.538-0.767    c-0.485-0.246-1.003-0.42-1.538-0.517c-4.017-0.907-8.09,1.277-9.558,5.125c-1.357,3.176-0.646,6.858,1.796,9.3    c0.829,0.753,1.78,1.359,2.813,1.792c1.014,0.477,2.126,0.71,3.246,0.683c4.667,0.045,8.488-3.702,8.533-8.369    c0.001-0.055,0.001-0.109,0-0.164C383.967,159.874,383.083,157.711,381.525,156.075z"/>
	</g>
</g>
<g>
	<g>
		<path d="M347.392,156.075c-2.477-2.38-6.121-3.082-9.305-1.791c-1.044,0.412-1.998,1.02-2.813,1.792    c-1.559,1.635-2.443,3.799-2.475,6.058c-0.023,2.27,0.869,4.454,2.475,6.059c0.828,0.753,1.78,1.359,2.813,1.792    c1.014,0.477,2.126,0.71,3.246,0.683c4.667,0.045,8.488-3.702,8.533-8.369c0-0.055,0-0.109,0-0.164    C349.833,159.874,348.95,157.711,347.392,156.075z"/>
	</g>
</g>
<g>
	<g>
		<path d="M315.05,158.892c-0.413-1.044-1.021-2-1.791-2.817c-0.83-0.753-1.783-1.359-2.817-1.792    c-3.177-1.341-6.849-0.634-9.3,1.792c-1.56,1.635-2.444,3.799-2.475,6.059c-0.023,2.27,0.869,4.454,2.475,6.059    c0.829,0.753,1.78,1.359,2.813,1.792c2.067,0.911,4.421,0.911,6.487,0c1.034-0.433,1.987-1.039,2.817-1.792    C315.702,165.751,316.412,162.067,315.05,158.892z"/>
	</g>
</g>
<g>
	<g>
		<path d="M381.525,190.208c-0.816-0.771-1.773-1.379-2.817-1.791c-2.077-0.858-4.41-0.858-6.487,0    c-1.054,0.392-2.012,1.002-2.813,1.792c-1.559,1.635-2.443,3.799-2.475,6.058c-0.029,1.119,0.204,2.229,0.679,3.242    c0.435,1.034,1.042,1.986,1.795,2.817c0.814,0.772,1.769,1.38,2.813,1.792c2.067,0.911,4.421,0.911,6.487,0    c1.034-0.433,1.987-1.039,2.817-1.792c1.604-1.606,2.496-3.789,2.475-6.059C383.967,194.008,383.083,191.844,381.525,190.208z"/>
	</g>
</g>
<g>
	<g>
		<path d="M349.184,193.025c-0.433-1.034-1.039-1.987-1.792-2.817c-3.399-3.214-8.717-3.214-12.117,0    c-1.56,1.635-2.444,3.799-2.475,6.059c-0.023,2.27,0.869,4.454,2.475,6.059c0.828,0.753,1.78,1.359,2.813,1.792    c1.027,0.438,2.13,0.67,3.246,0.683c2.262-0.018,4.431-0.904,6.059-2.475c0.751-0.832,1.357-1.784,1.792-2.817    C350.095,197.444,350.095,195.09,349.184,193.025z"/>
	</g>
</g>
<g>
	<g>
		<path d="M315.05,193.025c-0.433-1.034-1.039-1.986-1.791-2.817c-0.406-0.366-0.834-0.708-1.279-1.025    c-0.475-0.325-0.992-0.582-1.538-0.767c-0.485-0.246-1.003-0.42-1.538-0.517c-1.664-0.348-3.394-0.167-4.95,0.517    c-1.033,0.433-1.984,1.039-2.813,1.792c-0.773,0.815-1.383,1.772-1.796,2.817c-1.357,3.176-0.646,6.857,1.795,9.3    c0.829,0.753,1.78,1.359,2.813,1.792c1.027,0.438,2.13,0.67,3.246,0.683c2.262-0.018,4.431-0.904,6.059-2.475    c0.749-0.85,1.379-1.798,1.875-2.817c0.413-1.03,0.617-2.132,0.6-3.242C315.762,195.148,315.528,194.037,315.05,193.025z"/>
	</g>
</g>
<g>
	<g>
		<path d="M383.317,227.158c-0.433-1.034-1.039-1.986-1.791-2.817c-0.406-0.366-0.834-0.708-1.279-1.025    c-0.475-0.325-0.992-0.582-1.538-0.767c-0.485-0.246-1.003-0.42-1.538-0.517c-2.81-0.558-5.715,0.305-7.763,2.308    c-0.755,0.829-1.363,1.782-1.796,2.817c-0.436,1.026-0.667,2.127-0.679,3.242c-0.038,2.248,0.858,4.412,2.475,5.975    c1.616,1.599,3.786,2.515,6.059,2.558c4.699-0.033,8.501-3.834,8.533-8.533C383.986,229.285,383.754,228.184,383.317,227.158z"/>
	</g>
</g>
<g>
	<g>
		<path d="M349.183,227.158c-0.433-1.034-1.039-1.986-1.791-2.817c-3.421-3.158-8.695-3.158-12.117,0    c-0.755,0.829-1.363,1.782-1.796,2.817c-0.436,1.026-0.667,2.127-0.68,3.242c-0.038,2.248,0.858,4.412,2.475,5.975    c1.575,1.659,3.771,2.587,6.059,2.558c3.448-0.007,6.55-2.098,7.85-5.292c0.478-1.012,0.712-2.122,0.683-3.242    C349.853,229.285,349.621,228.184,349.183,227.158z"/>
	</g>
</g>
<g>
	<g>
		<path d="M315.051,227.158c-0.433-1.034-1.039-1.987-1.792-2.817c-3.421-3.158-8.695-3.158-12.117,0    c-0.755,0.829-1.363,1.782-1.796,2.817c-1.764,4.399,0.373,9.396,4.772,11.16c0.981,0.393,2.025,0.602,3.082,0.616    c2.288,0.028,4.484-0.899,6.059-2.558c0.767-0.788,1.376-1.716,1.792-2.733C315.962,231.577,315.962,229.223,315.051,227.158z"/>
	</g>
</g>
<g>
	<g>
		<path d="M383.316,363.692c-0.413-1.044-1.021-2-1.791-2.817c-3.421-3.158-8.695-3.158-12.117,0    c-0.755,0.829-1.363,1.782-1.796,2.817c-0.475,1.013-0.708,2.123-0.68,3.242c-0.007,2.267,0.882,4.445,2.475,6.059    c3.29,3.358,8.679,3.413,12.037,0.123C383.951,370.66,384.694,366.918,383.316,363.692z"/>
	</g>
</g>
<g>
	<g>
		<path d="M349.184,363.691c-0.433-1.034-1.039-1.986-1.792-2.816c-0.83-0.753-1.783-1.359-2.817-1.792    c-2.06-0.942-4.427-0.942-6.487,0c-2.141,0.78-3.828,2.467-4.608,4.608c-1.849,4.337,0.167,9.351,4.504,11.2    c4.337,1.849,9.351-0.167,11.2-4.504C350.096,368.248,350.096,365.83,349.184,363.691z"/>
	</g>
</g>
<g>
	<g>
		<path d="M381.525,395.008c-0.83-0.753-1.783-1.359-2.817-1.791c-3.181-1.299-6.829-0.596-9.3,1.792    c-1.559,1.635-2.443,3.799-2.475,6.058c0,4.713,3.82,8.533,8.533,8.533s8.533-3.82,8.533-8.533    C383.967,398.808,383.083,396.644,381.525,395.008z"/>
	</g>
</g>
<g>
	<g>
		<path d="M341.383,392.484c-2.293-0.013-4.494,0.896-6.108,2.524c-1.559,1.635-2.443,3.799-2.475,6.059    c-0.007,2.267,0.882,4.445,2.475,6.059c3.365,3.3,8.752,3.3,12.117,0c1.591-1.615,2.481-3.792,2.475-6.059    C349.894,396.354,346.096,392.511,341.383,392.484z"/>
	</g>
</g>
<g>
	<g>
		<path d="M307.25,392.484c-2.293-0.013-4.494,0.896-6.108,2.524c-1.559,1.635-2.443,3.799-2.475,6.059    c-0.045,4.667,3.702,8.488,8.369,8.533c0.055,0,0.11,0,0.164,0c1.115-0.014,2.216-0.246,3.242-0.683    c1.034-0.433,1.987-1.039,2.817-1.792c1.604-1.606,2.496-3.788,2.475-6.058C315.761,396.354,311.963,392.511,307.25,392.484z"/>
	</g>
</g>
<g>
	<g>
		<path d="M381.525,429.141c-3.422-3.159-8.696-3.159-12.117,0l-1.025,1.275c-0.324,0.477-0.583,0.996-0.771,1.542    c-0.245,0.483-0.417,1-0.508,1.533c-0.1,0.564-0.157,1.136-0.171,1.709c-0.023,2.27,0.869,4.454,2.475,6.059    c0.829,0.753,1.78,1.359,2.813,1.792c2.067,0.911,4.421,0.911,6.487,0c1.034-0.433,1.987-1.039,2.817-1.792    c1.604-1.606,2.496-3.789,2.475-6.059C383.984,432.938,383.098,430.768,381.525,429.141z"/>
	</g>
</g>
<g>
	<g>
		<path d="M349.696,433.492c-0.095-0.533-0.268-1.05-0.513-1.533c-0.187-0.546-0.447-1.064-0.771-1.542    c-0.313-0.446-0.654-0.872-1.021-1.275c-0.816-0.771-1.772-1.379-2.817-1.792c-3.182-1.29-6.825-0.588-9.3,1.792    c-1.574,1.626-2.461,3.796-2.475,6.059c0.019,4.732,3.87,8.553,8.602,8.534c2.244-0.009,4.395-0.898,5.99-2.475    c1.591-1.615,2.48-3.792,2.475-6.059C349.851,434.627,349.794,434.056,349.696,433.492z"/>
	</g>
</g>
<g>
	<g>
		<path d="M313.259,429.141c-3.422-3.159-8.696-3.159-12.117,0l-1.025,1.275c-0.324,0.477-0.583,0.996-0.771,1.542    c-0.245,0.483-0.417,1-0.508,1.533c-0.1,0.564-0.157,1.136-0.171,1.709c-0.045,4.667,3.702,8.488,8.369,8.533    c0.055,0.001,0.11,0.001,0.164,0c1.115-0.014,2.216-0.246,3.242-0.683c1.034-0.433,1.987-1.039,2.817-1.792    c1.604-1.606,2.496-3.788,2.475-6.058C315.717,432.938,314.831,430.768,313.259,429.141z"/>
	</g>
</g>
<g>
	<g>
		<path d="M383.317,466.092c-0.433-1.034-1.039-1.987-1.792-2.817c-3.421-3.158-8.695-3.158-12.117,0    c-0.755,0.829-1.363,1.782-1.796,2.817c-0.436,1.026-0.667,2.127-0.68,3.242c-0.029,1.119,0.204,2.229,0.679,3.242    c0.78,2.141,2.467,3.828,4.608,4.608c3.176,1.362,6.862,0.653,9.305-1.791c0.751-0.832,1.357-1.784,1.792-2.817    C384.228,470.51,384.228,468.157,383.317,466.092z"/>
	</g>
</g>
<g>
	<g>
		<path d="M349.183,466.092c-0.413-1.044-1.021-2-1.791-2.817c-2.453-2.425-6.126-3.133-9.304-1.792    c-2.141,0.78-3.828,2.467-4.608,4.608c-0.906,2.066-0.906,4.417,0,6.483c0.435,1.034,1.042,1.987,1.795,2.818    c3.365,3.3,8.752,3.3,12.117,0c0.751-0.832,1.357-1.784,1.792-2.817C350.094,470.51,350.094,468.157,349.183,466.092z"/>
	</g>
</g>
<g>
	<g>
		<path d="M315.05,466.092c-0.413-1.044-1.021-2-1.791-2.817c-0.816-0.771-1.772-1.379-2.817-1.792    c-3.177-1.341-6.849-0.634-9.3,1.792c-0.773,0.815-1.383,1.772-1.796,2.817c-0.906,2.066-0.906,4.417,0,6.483    c0.435,1.034,1.042,1.987,1.795,2.817c3.365,3.3,8.752,3.3,12.117,0c0.751-0.832,1.357-1.784,1.792-2.817    C315.961,470.51,315.961,468.157,315.05,466.092z"/>
	</g>
</g>
<g>
	<g>
		<path d="M381.525,258.475c-2.473-2.388-6.122-3.09-9.305-1.791c-1.033,0.433-1.984,1.039-2.813,1.792    c-1.559,1.635-2.443,3.799-2.475,6.058c-0.038,2.248,0.858,4.412,2.475,5.975c1.616,1.599,3.786,2.515,6.059,2.558    c2.288,0.028,4.484-0.899,6.059-2.558c1.546-1.61,2.43-3.743,2.475-5.975C383.967,262.274,383.083,260.111,381.525,258.475z"/>
	</g>
</g>
<g>
	<g>
		<path d="M349.183,261.292c-0.413-1.044-1.021-2-1.791-2.817c-2.473-2.388-6.122-3.09-9.304-1.792    c-1.054,0.392-2.012,1.002-2.813,1.792c-1.56,1.635-2.444,3.799-2.475,6.059c-0.038,2.248,0.858,4.412,2.475,5.975    c3.319,3.346,8.722,3.368,12.068,0.05c1.607-1.594,2.515-3.761,2.524-6.025C349.853,263.419,349.621,262.317,349.183,261.292z"/>
	</g>
</g>
<g>
	<g>
		<path d="M375.516,290.084c-2.292-0.013-4.494,0.896-6.108,2.524c-1.559,1.635-2.443,3.799-2.475,6.059    c-0.045,4.667,3.702,8.488,8.369,8.533c0.055,0.001,0.11,0.001,0.164,0c1.119,0.027,2.229-0.207,3.242-0.683    c1.034-0.433,1.987-1.039,2.817-1.792c1.604-1.606,2.496-3.788,2.475-6.058C384.027,293.954,380.229,290.111,375.516,290.084z"/>
	</g>
</g>
<g>
	<g>
		<path d="M341.383,290.084c-2.293-0.013-4.494,0.896-6.108,2.524c-1.559,1.635-2.443,3.799-2.475,6.059    c-0.045,4.667,3.702,8.488,8.369,8.533c0.055,0.001,0.11,0.001,0.164,0c1.119,0.027,2.229-0.207,3.242-0.683    c1.034-0.433,1.987-1.039,2.817-1.792c1.604-1.606,2.496-3.788,2.475-6.058C349.894,293.954,346.096,290.111,341.383,290.084z"/>
	</g>
</g>
<g>
	<g>
		<path d="M375.516,324.217c-2.292-0.013-4.494,0.896-6.108,2.524c-0.773,0.815-1.383,1.772-1.796,2.817    c-1.789,4.363,0.298,9.35,4.661,11.139c3.173,1.301,6.817,0.577,9.252-1.838c0.751-0.832,1.357-1.784,1.792-2.817    c0.478-1.012,0.712-2.123,0.683-3.242C384.027,328.087,380.229,324.245,375.516,324.217z"/>
	</g>
</g>
<g>
	<g>
		<path d="M341.383,324.217c-2.293-0.013-4.494,0.896-6.108,2.524c-0.773,0.815-1.383,1.772-1.796,2.817    c-1.819,4.343,0.228,9.337,4.57,11.156c4.343,1.819,9.337-0.228,11.156-4.57c0.443-1.059,0.668-2.196,0.661-3.344    C349.894,328.087,346.096,324.245,341.383,324.217z"/>
	</g>
</g>
<g>
</g>
<g>
</g>
<g>
</g>
<g>
</g>
<g>
</g>
<g>
</g>
<g>
</g>
<g>
</g>
<g>
</g>
<g>
</g>
<g>
</g>
<g>
</g>
<g>
</g>
<g>
</g>
<g>
</g>
</svg>
