<?xml version="1.0" encoding="iso-8859-1"?>
<!-- Generator: Adobe Illustrator 19.0.0, SVG Export Plug-In . SVG Version: 6.00 Build 0)  -->
<svg xmlns="http://www.w3.org/2000/svg" xmlns:xlink="http://www.w3.org/1999/xlink" version="1.1" id="Layer_1" x="0px" y="0px" viewBox="0 0 512 512" style="enable-background:new 0 0 512 512;" xml:space="preserve">
<g>
	<g>
		<path d="M349.867,0H162.133c-23.553,0.028-42.639,19.114-42.667,42.667v426.667c0.028,23.553,19.114,42.639,42.667,42.667h187.733    c23.553-0.028,42.639-19.114,42.667-42.667V42.667C392.506,19.114,373.419,0.028,349.867,0z M375.467,469.333    c-0.015,14.132-11.468,25.585-25.6,25.6H162.133c-14.132-0.015-25.585-11.468-25.6-25.6V409.6h238.933V469.333z M375.467,392.533    H136.533v-307.2h238.933V392.533z M375.467,68.267H136.533v-25.6c0.015-14.132,11.468-25.585,25.6-25.6h187.733    c14.132,0.015,25.585,11.468,25.6,25.6V68.267z"/>
	</g>
</g>
<g>
	<g>
		<path d="M256,426.667c-14.138,0-25.6,11.462-25.6,25.6c0,14.138,11.461,25.6,25.6,25.6s25.6-11.462,25.6-25.6    C281.585,438.135,270.132,426.682,256,426.667z M256,460.8c-4.713,0-8.533-3.821-8.533-8.533c0-4.713,3.82-8.533,8.533-8.533    s8.533,3.821,8.533,8.533C264.529,456.978,260.711,460.795,256,460.8z"/>
	</g>
</g>
<g>
	<g>
		<path d="M229.717,39.425c-0.433-1.034-1.039-1.987-1.792-2.817c-2.05-2.002-4.956-2.866-7.767-2.308    c-0.535,0.096-1.053,0.271-1.538,0.517c-0.543,0.185-1.059,0.443-1.533,0.767c-0.447,0.315-0.875,0.657-1.28,1.025    c-0.755,0.829-1.363,1.782-1.796,2.817c-1.357,3.176-0.646,6.858,1.796,9.301c0.829,0.753,1.78,1.359,2.813,1.791    c2.067,0.911,4.421,0.911,6.487,0c1.034-0.432,1.987-1.038,2.817-1.791C230.369,46.284,231.079,42.6,229.717,39.425z"/>
	</g>
</g>
<g>
	<g>
		<path d="M290.133,34.133H256c-4.713,0-8.533,3.82-8.533,8.533S251.287,51.2,256,51.2h34.133c4.713,0,8.533-3.82,8.533-8.533    S294.846,34.133,290.133,34.133z"/>
	</g>
</g>
<g>
	<g>
		<path d="M344.012,280.334l-28.533-28.751c-7.935-7.639-20.49-7.635-28.421,0.009l-16.508,16.475    c-8.781-6.182-16.997-13.132-24.55-20.767c-6.777-6.814-13.011-14.148-18.646-21.933c-0.061-0.091-0.051-0.213,0.026-0.292    l16.767-16.9c7.788-7.881,7.788-20.56,0-28.442l-28.533-28.75c-3.75-3.799-8.87-5.931-14.208-5.917H201.4    c-5.335-0.011-10.451,2.121-14.2,5.917l-9.058,9.125c-14.51,14.564-19.682,36.006-13.408,55.583    c4.509,13.736,10.891,26.784,18.967,38.775c7.24,10.935,15.552,21.121,24.812,30.408c10.053,10.191,21.198,19.242,33.233,26.992    c13.287,8.735,27.893,15.274,43.258,19.367c4.125,1.032,8.361,1.553,12.612,1.55c14.523-0.055,28.428-5.884,38.65-16.2    l7.754-7.808C351.796,300.888,351.792,288.217,344.012,280.334z M331.904,296.75l-7.746,7.8    c-9.087,9.283-22.372,13.128-35.012,10.133c-13.568-3.645-26.461-9.447-38.188-17.183c-10.986-7.077-21.158-15.344-30.333-24.65    c-8.466-8.483-16.064-17.79-22.679-27.783c-7.213-10.685-12.919-22.314-16.954-34.559c-4.331-13.517-0.758-28.321,9.263-38.375    l9.054-9.125c0.55-0.565,1.307-0.881,2.096-0.875c0.788,0.001,1.544,0.316,2.1,0.875l28.533,28.742    c1.205,1.223,1.203,3.188-0.004,4.408l-16.767,16.892c-5.977,5.992-6.724,15.435-1.763,22.292    c6.162,8.512,12.979,16.531,20.388,23.983c8.266,8.349,17.253,15.951,26.858,22.717c6.845,4.825,16.174,4,22.067-1.95    l16.354-16.475c0.809-1.161,2.406-1.447,3.568-0.638c0.246,0.171,0.46,0.384,0.632,0.63l28.533,28.742    C333.104,293.571,333.104,295.529,331.904,296.75L331.904,296.75z"/>
	</g>
</g>
<g>
	<g>
		<path d="M289.451,201.559c-1.671-4.337-6.541-6.497-10.878-4.826c-2.218,0.855-3.972,2.608-4.827,4.826    c-0.906,2.066-0.906,4.417,0,6.483c0.435,1.034,1.042,1.986,1.795,2.817c0.829,0.753,1.78,1.359,2.813,1.792    c3.176,1.362,6.862,0.652,9.305-1.792c0.751-0.832,1.357-1.784,1.792-2.817C290.362,205.977,290.362,203.624,289.451,201.559z"/>
	</g>
</g>
<g>
	<g>
		<path d="M323.584,201.559c-0.777-2.143-2.465-3.831-4.608-4.608c-0.485-0.246-1.003-0.42-1.538-0.517    c-2.81-0.559-5.715,0.305-7.764,2.307c-0.773,0.815-1.383,1.772-1.796,2.817c-0.906,2.066-0.906,4.417,0,6.483    c0.435,1.034,1.042,1.987,1.796,2.817c0.829,0.753,1.78,1.359,2.813,1.792c3.176,1.362,6.862,0.652,9.305-1.792    c0.751-0.832,1.357-1.784,1.792-2.817C324.495,205.977,324.495,203.624,323.584,201.559z"/>
	</g>
</g>
<g>
	<g>
		<path d="M355.925,198.741c-3.421-3.158-8.695-3.158-12.117,0c-0.773,0.815-1.383,1.772-1.796,2.817    c-0.906,2.066-0.906,4.417,0,6.483c0.435,1.034,1.042,1.986,1.795,2.817c3.365,3.3,8.752,3.3,12.117,0    c0.751-0.832,1.357-1.784,1.792-2.817c0.478-1.012,0.713-2.123,0.683-3.242C358.367,202.541,357.483,200.378,355.925,198.741z"/>
	</g>
</g>
<g>
</g>
<g>
</g>
<g>
</g>
<g>
</g>
<g>
</g>
<g>
</g>
<g>
</g>
<g>
</g>
<g>
</g>
<g>
</g>
<g>
</g>
<g>
</g>
<g>
</g>
<g>
</g>
<g>
</g>
</svg>
