<?xml version="1.0" encoding="iso-8859-1"?>
<!-- Generator: Adobe Illustrator 19.0.0, SVG Export Plug-In . SVG Version: 6.00 Build 0)  -->
<svg xmlns="http://www.w3.org/2000/svg" xmlns:xlink="http://www.w3.org/1999/xlink" version="1.1" id="Layer_1" x="0px" y="0px" viewBox="0 0 512 512" style="enable-background:new 0 0 512 512;" xml:space="preserve">
<g>
	<g>
		<path d="M455.663,343.364c-13.238-46.176-50.481-81.539-97.28-92.37V17.067C358.371,7.646,350.737,0.012,341.316,0H68.25    c-9.421,0.012-17.054,7.646-17.067,17.067v477.867c0.012,9.421,7.646,17.054,17.067,17.067h260.267    c12.344,0.03,24.63-1.69,36.492-5.108C435.199,486.769,475.786,413.555,455.663,343.364z M68.25,17.067h273.067v231.048    c-4.215-0.406-8.479-0.648-12.8-0.648c-33.568,0.011-65.865,12.844-90.285,35.876c-27.024-18.333-63.77-11.499-82.396,15.324    H68.25V17.067z M181.976,321.132c-6.414,12.562-1.43,27.945,11.132,34.359c1.647,0.841,3.38,1.5,5.169,1.967    c-0.963,5.679-1.554,11.416-1.769,17.172c-23.112-4.548-38.161-26.97-33.613-50.081c4.548-23.112,26.97-38.161,50.081-33.613    c4.677,0.92,9.166,2.618,13.282,5.022c-3.607,4.462-6.922,9.152-9.923,14.042C203.773,303.586,188.39,308.57,181.976,321.132z     M208.231,325.044c-2.375,5.113-4.418,10.374-6.115,15.75c-3.477-1.117-5.844-4.341-5.867-7.994    c0.003-4.711,3.822-8.53,8.533-8.533C205.975,324.276,207.151,324.541,208.231,325.044z M68.25,494.933v-179.2h79.317    c-9.463,31.519,8.417,64.741,39.935,74.204c3.068,0.921,6.205,1.593,9.381,2.01c0.77,8.561,2.361,17.028,4.75,25.285    c9.781,33.014,32.079,60.898,62.134,77.7H68.25z M439.033,412.3L439.033,412.3c-11.165,37.816-40.871,67.309-78.767,78.2    c-47.877,13.731-99.156-4.873-127.092-46.108c-6.679-9.81-11.795-20.596-15.167-31.975    c-18.022-61.025,16.839-125.105,77.863-143.127c61.025-18.022,125.105,16.839,143.127,77.864    C445.277,368.413,445.289,391.033,439.033,412.3z"/>
	</g>
</g>
<g>
	<g>
		<path d="M405.475,395.258l-56.608-89.767c-6.697-11.145-21.16-14.75-32.304-8.054c-3.303,1.985-6.069,4.751-8.054,8.054    l-56.6,89.767c-5.2,8.263-5.493,18.7-0.767,27.242c4.099,7.776,12.151,12.659,20.942,12.7h113.208    c8.795-0.041,16.851-4.927,20.95-12.708C410.964,413.952,410.67,403.519,405.475,395.258z M391.291,414.25    c-1.122,2.309-3.434,3.805-6,3.883H272.083c-2.564-0.073-4.874-1.567-5.992-3.875c-1.726-3.099-1.63-6.892,0.25-9.9l56.6-89.767    c1.865-3.173,5.95-4.234,9.123-2.368c0.978,0.575,1.793,1.39,2.368,2.368l56.608,89.767    C392.913,407.366,393.009,411.152,391.291,414.25z"/>
	</g>
</g>
<g>
	<g>
		<path d="M328.701,341.333c-0.003,0-0.007,0-0.01,0c-4.71-0.003-8.531,3.813-8.533,8.523c0,0.003,0,0.007,0,0.01v22.525    c0,4.713,3.82,8.533,8.533,8.533s8.533-3.821,8.533-8.533v-22.525C337.228,345.157,333.411,341.336,328.701,341.333z"/>
	</g>
</g>
<g>
	<g>
		<path d="M337.05,393.983c-0.092-0.564-0.266-1.112-0.517-1.625c-0.168-0.525-0.427-1.016-0.767-1.45    c-0.341-0.425-0.683-0.933-1.025-1.275c-3.405-3.2-8.712-3.2-12.117,0c-0.341,0.341-0.683,0.85-1.025,1.275    c-0.336,0.436-0.595,0.927-0.767,1.45c-0.248,0.514-0.42,1.061-0.508,1.625c-0.144,0.526-0.204,1.072-0.175,1.617    c-0.037,1.149,0.198,2.291,0.683,3.333c0.413,1.017,1.022,1.943,1.792,2.725c0.804,0.81,1.761,1.45,2.817,1.883    c4.359,1.791,9.344-0.291,11.135-4.651c0.429-1.044,0.646-2.163,0.64-3.291C337.202,395.058,337.147,394.517,337.05,393.983z"/>
	</g>
</g>
<g>
	<g>
		<path d="M298.65,34.133H110.916c-14.132,0.015-25.585,11.468-25.6,25.6v8.533c0.015,14.132,11.468,25.585,25.6,25.6H298.65    c14.132-0.015,25.585-11.468,25.6-25.6v-8.533C324.234,45.601,312.782,34.149,298.65,34.133z M307.183,68.267    c-0.003,4.711-3.822,8.53-8.533,8.533H110.916c-4.712-0.003-8.53-3.822-8.533-8.533v-8.533c0.003-4.711,3.822-8.53,8.533-8.533    H298.65c4.711,0.003,8.53,3.822,8.533,8.533V68.267z"/>
	</g>
</g>
<g>
	<g>
		<path d="M298.65,110.933H110.916c-14.132,0.015-25.585,11.468-25.6,25.6v8.533c0.015,14.132,11.468,25.585,25.6,25.6H298.65    c14.132-0.015,25.585-11.468,25.6-25.6v-8.533C324.234,122.401,312.782,110.949,298.65,110.933z M307.183,145.067    c-0.003,4.712-3.822,8.53-8.533,8.533H110.916c-4.712-0.003-8.53-3.822-8.533-8.533v-8.533c0.003-4.711,3.822-8.53,8.533-8.533    H298.65c4.711,0.003,8.53,3.822,8.533,8.533V145.067z"/>
	</g>
</g>
<g>
	<g>
		<path d="M298.65,187.733H110.916c-14.132,0.015-25.585,11.468-25.6,25.6v8.533c0.015,14.132,11.468,25.585,25.6,25.6H298.65    c14.132-0.015,25.585-11.468,25.6-25.6v-8.533C324.234,199.201,312.782,187.749,298.65,187.733z M307.183,221.867    c-0.003,4.711-3.822,8.53-8.533,8.533H110.916c-4.712-0.003-8.53-3.822-8.533-8.533v-8.533c0.003-4.712,3.822-8.53,8.533-8.533    H298.65c4.711,0.003,8.53,3.822,8.533,8.533V221.867z"/>
	</g>
</g>
<g>
	<g>
		<path d="M102.393,409.6c-0.003,0-0.007,0-0.01,0c-4.71-0.003-8.531,3.813-8.533,8.523c0,0.003,0,0.007,0,0.01v51.2    c0,4.713,3.821,8.533,8.533,8.533c4.713,0,8.533-3.82,8.533-8.533v-51.2C110.919,413.423,107.103,409.603,102.393,409.6z"/>
	</g>
</g>
<g>
	<g>
		<path d="M136.526,409.6c-0.003,0-0.007,0-0.01,0c-4.71-0.003-8.531,3.813-8.533,8.523c0,0.003,0,0.007,0,0.01v51.2    c0,4.713,3.821,8.533,8.533,8.533s8.533-3.82,8.533-8.533v-51.2C145.052,413.423,141.236,409.603,136.526,409.6z"/>
	</g>
</g>
<g>
	<g>
		<path d="M170.66,409.6c-0.003,0-0.007,0-0.01,0c-4.71-0.003-8.531,3.813-8.533,8.523c0,0.003,0,0.007,0,0.01v51.2    c0,4.713,3.82,8.533,8.533,8.533s8.533-3.82,8.533-8.533v-51.2C179.186,413.423,175.37,409.603,170.66,409.6z"/>
	</g>
</g>
<g>
	<g>
		<path d="M125.508,343.808c-2.451-2.425-6.123-3.133-9.3-1.792c-1.035,0.432-1.987,1.038-2.817,1.792    c-0.772,0.816-1.38,1.772-1.792,2.817c-0.911,2.065-0.911,4.418,0,6.483c0.434,1.034,1.04,1.986,1.792,2.817    c3.365,3.3,8.752,3.3,12.117,0c0.752-0.831,1.358-1.783,1.792-2.817c0.437-1.025,0.669-2.127,0.683-3.241    C127.95,347.608,127.066,345.444,125.508,343.808z"/>
	</g>
</g>
<g>
</g>
<g>
</g>
<g>
</g>
<g>
</g>
<g>
</g>
<g>
</g>
<g>
</g>
<g>
</g>
<g>
</g>
<g>
</g>
<g>
</g>
<g>
</g>
<g>
</g>
<g>
</g>
<g>
</g>
</svg>
