<?xml version="1.0" encoding="iso-8859-1"?>
<!-- Generator: Adobe Illustrator 19.0.0, SVG Export Plug-In . SVG Version: 6.00 Build 0)  -->
<svg xmlns="http://www.w3.org/2000/svg" xmlns:xlink="http://www.w3.org/1999/xlink" version="1.1" id="Layer_1" x="0px" y="0px" viewBox="0 0 512 512" style="enable-background:new 0 0 512 512;" xml:space="preserve">
<g>
	<g>
		<path d="M455.663,343.364c-13.238-46.176-50.481-81.539-97.28-92.37V17.067C358.371,7.646,350.737,0.012,341.316,0H68.25    c-9.421,0.012-17.054,7.646-17.067,17.067v477.867c0.012,9.421,7.646,17.054,17.067,17.067h260.267    c12.344,0.03,24.63-1.69,36.492-5.108C435.199,486.769,475.786,413.555,455.663,343.364z M68.25,17.067h273.067v231.048    c-4.215-0.406-8.479-0.648-12.8-0.648c-33.568,0.011-65.865,12.844-90.285,35.876c-27.024-18.333-63.77-11.499-82.396,15.324    H68.25V17.067z M181.976,321.132c-6.414,12.562-1.43,27.945,11.132,34.359c1.647,0.841,3.38,1.5,5.169,1.967    c-0.963,5.679-1.554,11.416-1.769,17.172c-23.112-4.548-38.161-26.97-33.613-50.081c4.548-23.112,26.97-38.161,50.081-33.613    c4.677,0.92,9.166,2.618,13.282,5.022c-3.607,4.462-6.922,9.152-9.923,14.042C203.773,303.586,188.39,308.57,181.976,321.132z     M208.231,325.044c-2.375,5.113-4.418,10.374-6.115,15.75c-3.477-1.117-5.844-4.341-5.867-7.994    c0.003-4.711,3.822-8.53,8.533-8.533C205.975,324.276,207.151,324.541,208.231,325.044z M68.25,494.933v-179.2h79.317    c-9.463,31.519,8.417,64.741,39.935,74.204c3.068,0.921,6.205,1.593,9.381,2.01c0.77,8.561,2.361,17.028,4.75,25.285    c9.781,33.014,32.079,60.898,62.134,77.7H68.25z M439.033,412.3L439.033,412.3c-11.165,37.816-40.871,67.309-78.767,78.2    c-47.877,13.731-99.156-4.873-127.092-46.108c-6.679-9.81-11.795-20.596-15.167-31.975    c-18.022-61.025,16.839-125.105,77.863-143.127c61.025-18.022,125.105,16.839,143.127,77.864    C445.277,368.413,445.289,391.033,439.033,412.3z"/>
	</g>
</g>
<g>
	<g>
		<path d="M386.716,330.158c-3.614-3.264-8.424-4.876-13.275-4.45c-15.578,1.406-30.353-7.154-36.883-21.367    c-1.58-4.441-6.46-6.761-10.902-5.182c-2.419,0.86-4.322,2.763-5.182,5.182c-5.863,13.25-19.07,21.722-33.558,21.525    c-1.125,0-2.233-0.058-3.292-0.15c-4.864-0.464-9.698,1.149-13.308,4.442c-3.684,3.347-5.789,8.089-5.8,13.067v54.642    c0.052,17.939,7.799,34.992,21.275,46.833c11.846,10.404,27.083,16.126,42.85,16.091c2.744-0.007,5.485-0.179,8.208-0.517    c32.082-4.371,55.922-31.897,55.667-64.275v-52.775C392.506,338.248,390.401,333.505,386.716,330.158z M375.45,396    c0.265,23.775-17.17,44.046-40.717,47.342c-13.607,1.745-27.311-2.417-37.65-11.433c-9.806-8.602-15.45-20.998-15.5-34.042    l0.442-55.158c17.601,1.387,34.826-5.598,46.492-18.85c10.47,12.055,25.633,19.008,41.6,19.075    c1.783-0.076,3.569,0.021,5.333,0.292V396z"/>
	</g>
</g>
<g>
	<g>
		<path d="M298.65,34.133H110.916c-14.132,0.015-25.585,11.468-25.6,25.6v8.533c0.015,14.132,11.468,25.585,25.6,25.6H298.65    c14.132-0.015,25.585-11.468,25.6-25.6v-8.533C324.234,45.601,312.782,34.149,298.65,34.133z M307.183,68.267    c-0.003,4.711-3.822,8.53-8.533,8.533H110.916c-4.712-0.003-8.53-3.822-8.533-8.533v-8.533c0.003-4.711,3.822-8.53,8.533-8.533    H298.65c4.711,0.003,8.53,3.822,8.533,8.533V68.267z"/>
	</g>
</g>
<g>
	<g>
		<path d="M298.65,110.933H110.916c-14.132,0.015-25.585,11.468-25.6,25.6v8.533c0.015,14.132,11.468,25.585,25.6,25.6H298.65    c14.132-0.015,25.585-11.468,25.6-25.6v-8.533C324.234,122.401,312.782,110.949,298.65,110.933z M307.183,145.067    c-0.003,4.712-3.822,8.53-8.533,8.533H110.916c-4.712-0.003-8.53-3.822-8.533-8.533v-8.533c0.003-4.711,3.822-8.53,8.533-8.533    H298.65c4.711,0.003,8.53,3.822,8.533,8.533V145.067z"/>
	</g>
</g>
<g>
	<g>
		<path d="M298.65,187.733H110.916c-14.132,0.015-25.585,11.468-25.6,25.6v8.533c0.015,14.132,11.468,25.585,25.6,25.6H298.65    c14.132-0.015,25.585-11.468,25.6-25.6v-8.533C324.234,199.201,312.782,187.749,298.65,187.733z M307.183,221.867    c-0.003,4.711-3.822,8.53-8.533,8.533H110.916c-4.712-0.003-8.53-3.822-8.533-8.533v-8.533c0.003-4.712,3.822-8.53,8.533-8.533    H298.65c4.711,0.003,8.53,3.822,8.533,8.533V221.867z"/>
	</g>
</g>
<g>
	<g>
		<path d="M102.393,409.6c-0.003,0-0.007,0-0.01,0c-4.71-0.003-8.531,3.813-8.533,8.523c0,0.003,0,0.007,0,0.01v51.2    c0,4.713,3.821,8.533,8.533,8.533c4.713,0,8.533-3.82,8.533-8.533v-51.2C110.919,413.423,107.103,409.603,102.393,409.6z"/>
	</g>
</g>
<g>
	<g>
		<path d="M136.526,409.6c-0.003,0-0.007,0-0.01,0c-4.71-0.003-8.531,3.813-8.533,8.523c0,0.003,0,0.007,0,0.01v51.2    c0,4.713,3.821,8.533,8.533,8.533s8.533-3.82,8.533-8.533v-51.2C145.052,413.423,141.236,409.603,136.526,409.6z"/>
	</g>
</g>
<g>
	<g>
		<path d="M170.66,409.6c-0.003,0-0.007,0-0.01,0c-4.71-0.003-8.531,3.813-8.533,8.523c0,0.003,0,0.007,0,0.01v51.2    c0,4.713,3.82,8.533,8.533,8.533s8.533-3.82,8.533-8.533v-51.2C179.186,413.423,175.37,409.603,170.66,409.6z"/>
	</g>
</g>
<g>
	<g>
		<path d="M127.299,346.625L127.299,346.625c-0.411-1.045-1.019-2.001-1.791-2.817c-0.419-0.388-0.877-0.731-1.367-1.025    c-0.434-0.339-0.925-0.599-1.45-0.767c-0.51-0.259-1.059-0.433-1.625-0.517c-1.094-0.25-2.231-0.25-3.325,0    c-0.534,0.096-1.05,0.271-1.533,0.517c-0.546,0.184-1.065,0.442-1.542,0.767c-0.445,0.316-0.871,0.658-1.275,1.025    c-0.772,0.816-1.38,1.772-1.792,2.817c-0.911,2.065-0.911,4.418,0,6.483c0.434,1.034,1.04,1.986,1.792,2.817    c0.816,0.772,1.772,1.38,2.817,1.792c2.065,0.911,4.418,0.911,6.483,0c2.143-0.777,3.831-2.465,4.608-4.608    C128.21,351.044,128.21,348.69,127.299,346.625z"/>
	</g>
</g>
<g>
</g>
<g>
</g>
<g>
</g>
<g>
</g>
<g>
</g>
<g>
</g>
<g>
</g>
<g>
</g>
<g>
</g>
<g>
</g>
<g>
</g>
<g>
</g>
<g>
</g>
<g>
</g>
<g>
</g>
</svg>
