<?xml version="1.0" encoding="iso-8859-1"?>
<!-- Generator: Adobe Illustrator 19.0.0, SVG Export Plug-In . SVG Version: 6.00 Build 0)  -->
<svg xmlns="http://www.w3.org/2000/svg" xmlns:xlink="http://www.w3.org/1999/xlink" version="1.1" id="Layer_1" x="0px" y="0px" viewBox="0 0 512 512" style="enable-background:new 0 0 512 512;" xml:space="preserve">
<g>
	<g>
		<path d="M375.817,371.617c-3.723-6.973-8.603-13.263-14.434-18.6c-9.739-9.696-15.196-22.883-15.158-36.625l0.033-1.883    c0.163-4.526,0.917-9.011,2.242-13.342c1.384-4.502-1.144-9.274-5.647-10.658c-2.214-0.681-4.61-0.431-6.636,0.691    c-20.416,11.253-33.748,32.074-35.425,55.325c-1.651-0.09-3.29,0.332-4.692,1.208c-26.666,15.99-35.321,50.569-19.331,77.235    s50.569,35.321,77.235,19.331c16.975-10.179,27.358-28.523,27.346-48.316C381.373,387.547,379.481,379.216,375.817,371.617z     M362.058,409.05c-7.222,20.425-29.633,31.128-50.058,23.906c-15.669-5.54-26.146-20.354-26.15-36.973    c-0.039-9.496,3.396-18.678,9.658-25.817c3.904,9.212,10.676,16.918,19.308,21.975c4.068,2.383,9.297,1.017,11.679-3.051    c1.645-2.809,1.55-6.309-0.246-9.024c-11.038-16.761-11.431-38.382-1.008-55.533c1.199-1.949,2.521-3.819,3.958-5.6    c0.602,17.394,7.803,33.907,20.142,46.183c4.435,3.998,8.185,8.696,11.1,13.908C364.928,388.426,365.509,399.221,362.058,409.05z"/>
	</g>
</g>
<g>
	<g>
		<path d="M455.663,343.364c-13.238-46.176-50.481-81.539-97.28-92.37V17.067C358.371,7.646,350.737,0.012,341.316,0H68.25    c-9.421,0.012-17.054,7.646-17.067,17.067v477.867c0.012,9.421,7.646,17.054,17.067,17.067h260.267    c12.344,0.032,24.631-1.688,36.492-5.108C435.199,486.769,475.786,413.555,455.663,343.364z M68.25,17.067h273.067v231.048    c-4.215-0.406-8.48-0.648-12.8-0.648c-33.568,0.01-65.865,12.844-90.285,35.876c-27.024-18.333-63.77-11.499-82.396,15.324H68.25    V17.067z M181.976,321.133c-6.414,12.562-1.429,27.945,11.133,34.359c1.646,0.84,3.379,1.5,5.167,1.966    c-0.963,5.679-1.553,11.416-1.768,17.172c-23.112-4.547-38.161-26.969-33.614-50.081c4.547-23.112,26.969-38.161,50.081-33.614    c4.677,0.92,9.167,2.618,13.283,5.023c-3.607,4.461-6.922,9.152-9.923,14.042C203.773,303.586,188.39,308.571,181.976,321.133z     M208.231,325.044c-2.375,5.113-4.418,10.374-6.115,15.75c-3.477-1.117-5.843-4.342-5.866-7.994    c0.003-4.711,3.822-8.53,8.533-8.533C205.975,324.276,207.15,324.541,208.231,325.044z M68.25,494.933v-179.2h79.316    c-9.462,31.52,8.419,64.743,39.939,74.205c3.067,0.921,6.203,1.593,9.378,2.009c0.77,8.561,2.361,17.029,4.75,25.285    c9.781,33.014,32.079,60.898,62.134,77.7H68.25z M439.033,412.308c-3.36,11.421-8.48,22.248-15.175,32.092    c-35.653,52.467-107.089,66.098-159.556,30.444s-66.098-107.089-30.444-159.556c35.653-52.467,107.089-66.098,159.556-30.444    C434.705,312.903,453.144,364.421,439.033,412.308z"/>
	</g>
</g>
<g>
	<g>
		<path d="M298.65,34.133H110.916c-14.132,0.015-25.585,11.468-25.6,25.6v8.533c0.015,14.132,11.468,25.585,25.6,25.6H298.65    c14.132-0.015,25.585-11.468,25.6-25.6v-8.533C324.234,45.601,312.782,34.149,298.65,34.133z M307.183,68.267    c-0.003,4.711-3.822,8.53-8.533,8.533H110.916c-4.712-0.003-8.53-3.822-8.533-8.533v-8.533c0.003-4.711,3.822-8.53,8.533-8.533    H298.65c4.711,0.003,8.53,3.822,8.533,8.533V68.267z"/>
	</g>
</g>
<g>
	<g>
		<path d="M298.65,110.933H110.916c-14.132,0.015-25.585,11.468-25.6,25.6v8.533c0.015,14.132,11.468,25.585,25.6,25.6H298.65    c14.132-0.015,25.585-11.468,25.6-25.6v-8.533C324.234,122.401,312.782,110.949,298.65,110.933z M307.183,145.067    c-0.003,4.712-3.822,8.53-8.533,8.533H110.916c-4.712-0.003-8.53-3.822-8.533-8.533v-8.533c0.003-4.711,3.822-8.53,8.533-8.533    H298.65c4.711,0.003,8.53,3.822,8.533,8.533V145.067z"/>
	</g>
</g>
<g>
	<g>
		<path d="M298.65,187.733H110.916c-14.132,0.015-25.585,11.468-25.6,25.6v8.533c0.015,14.132,11.468,25.585,25.6,25.6H298.65    c14.132-0.015,25.585-11.468,25.6-25.6v-8.533C324.234,199.201,312.782,187.749,298.65,187.733z M307.183,221.867    c-0.003,4.711-3.822,8.53-8.533,8.533H110.916c-4.712-0.003-8.53-3.822-8.533-8.533v-8.533c0.003-4.712,3.822-8.53,8.533-8.533    H298.65c4.711,0.003,8.53,3.822,8.533,8.533V221.867z"/>
	</g>
</g>
<g>
	<g>
		<path d="M102.393,409.6c-0.003,0-0.007,0-0.01,0c-4.71-0.003-8.531,3.813-8.533,8.523c0,0.003,0,0.007,0,0.01v51.2    c0,4.713,3.821,8.533,8.533,8.533c4.713,0,8.533-3.82,8.533-8.533v-51.2C110.919,413.423,107.103,409.603,102.393,409.6z"/>
	</g>
</g>
<g>
	<g>
		<path d="M136.526,409.6c-0.003,0-0.007,0-0.01,0c-4.71-0.003-8.531,3.813-8.533,8.523c0,0.003,0,0.007,0,0.01v51.2    c0,4.713,3.821,8.533,8.533,8.533s8.533-3.82,8.533-8.533v-51.2C145.053,413.423,141.236,409.603,136.526,409.6z"/>
	</g>
</g>
<g>
	<g>
		<path d="M170.66,409.6c-0.003,0-0.007,0-0.01,0c-4.71-0.003-8.531,3.813-8.533,8.523c0,0.003,0,0.007,0,0.01v51.2    c0,4.713,3.82,8.533,8.533,8.533s8.533-3.82,8.533-8.533v-51.2C179.186,413.423,175.37,409.603,170.66,409.6z"/>
	</g>
</g>
<g>
	<g>
		<path d="M127.299,346.625L127.299,346.625c-0.411-1.045-1.019-2.001-1.791-2.817c-0.419-0.388-0.877-0.731-1.367-1.025    c-0.434-0.339-0.925-0.599-1.45-0.767c-0.51-0.259-1.059-0.433-1.625-0.517c-1.094-0.25-2.231-0.25-3.325,0    c-0.534,0.096-1.05,0.271-1.533,0.517c-0.546,0.184-1.065,0.442-1.542,0.767c-0.445,0.316-0.871,0.658-1.275,1.025    c-0.772,0.816-1.38,1.772-1.792,2.817c-0.911,2.065-0.911,4.418,0,6.483c0.434,1.034,1.04,1.986,1.792,2.817    c0.816,0.772,1.772,1.38,2.817,1.792c2.065,0.911,4.418,0.911,6.483,0c2.143-0.777,3.831-2.465,4.608-4.608    C128.21,351.044,128.21,348.69,127.299,346.625z"/>
	</g>
</g>
<g>
</g>
<g>
</g>
<g>
</g>
<g>
</g>
<g>
</g>
<g>
</g>
<g>
</g>
<g>
</g>
<g>
</g>
<g>
</g>
<g>
</g>
<g>
</g>
<g>
</g>
<g>
</g>
<g>
</g>
</svg>
