<?xml version="1.0" encoding="iso-8859-1"?>
<!-- Generator: Adobe Illustrator 19.0.0, SVG Export Plug-In . SVG Version: 6.00 Build 0)  -->
<svg xmlns="http://www.w3.org/2000/svg" xmlns:xlink="http://www.w3.org/1999/xlink" version="1.1" id="Layer_1" x="0px" y="0px" viewBox="0 0 511.961 511.961" style="enable-background:new 0 0 511.961 511.961;" xml:space="preserve">
<g>
	<g>
		<path d="M343.051,426.628h-8.533v-17.067c-0.015-14.132-11.468-25.585-25.6-25.6h-8.536l-0.022-64.708l117.075-116.992    c9.967-9.983,9.967-26.151,0-36.133L310.549,59.242c4.63-12.671,3.005-26.784-4.383-38.071l6.644-6.644    c3.311-3.353,3.277-8.755-0.075-12.066c-3.323-3.282-8.668-3.282-11.991,0l-6.646,6.646c-16.92-11.153-39.346-8.889-53.696,5.42    L215.629,39.3c-37.495-13.915-79.659-4.737-107.978,23.503l-18.1,18.1c-3.332,3.33-3.333,8.732-0.003,12.064    c0.001,0.001,0.002,0.002,0.003,0.003l18.519,18.519c-21.055,27.167-18.651,65.747,5.614,90.09    c24.297,24.371,62.958,26.782,90.094,5.618l18.522,18.523c3.33,3.332,8.731,3.333,12.064,0.003    c0.001-0.001,0.002-0.002,0.003-0.003l18.1-18.108c28.344-28.274,37.547-70.506,23.535-108.009l1.234-1.234l85.805,85.852    L256.718,290.462c-4.835,4.801-7.548,11.336-7.533,18.15v75.35h-8.533c-14.132,0.015-25.585,11.468-25.6,25.6v17.067h-8.533    c-42.396,0.046-76.754,34.404-76.8,76.8c-0.003,4.71,3.813,8.531,8.523,8.533c0.003,0,0.007,0,0.01,0h273.067    c4.71,0.003,8.531-3.813,8.533-8.523c0-0.003,0-0.007,0-0.01C419.805,461.032,385.448,426.674,343.051,426.628z M161.96,204.528    L161.96,204.528c-28.225,0.013-51.116-22.858-51.129-51.083c-0.005-10.647,3.316-21.03,9.498-29.698l71.264,71.265    C182.955,201.209,172.59,204.537,161.96,204.528z M240.725,195.221c-0.108,0.108-0.216,0.216-0.324,0.324l-12.067,12.075    L107.651,86.936l12.067-12.067c33.234-33.415,87.264-33.562,120.679-0.328C273.812,107.775,273.959,161.805,240.725,195.221z     M268.212,83.261c-8.713-15.015-21.203-27.489-36.231-36.18l20.487-20.487c10.012-9.985,26.223-9.963,36.208,0.049    c9.966,9.993,9.966,26.166,0,36.159L268.212,83.261z M266.251,308.611c-0.002-2.285,0.91-4.476,2.533-6.083l106.317-106.233    c6.675-6.681,6.679-17.506,0.009-24.192l-85.802-85.802l11.435-11.431c0.222-0.223,0.368-0.49,0.584-0.716l104.041,104.041    c3.308,3.316,3.308,8.684,0,12L288.293,307.186c-3.173,3.193-4.96,7.507-4.975,12.008v64.767h-17.067V308.611z M232.118,409.561    c0.003-4.711,3.822-8.53,8.533-8.533h68.267c4.711,0.003,8.53,3.822,8.533,8.533v17.067h-85.333V409.561z M147.393,494.895    c4.278-29.371,29.444-51.163,59.125-51.2h136.533c29.681,0.037,54.847,21.829,59.125,51.2H147.393z"/>
	</g>
</g>
<g>
	<g>
		<path d="M215.051,460.761h-8.533c-4.713,0-8.533,3.82-8.533,8.533s3.82,8.533,8.533,8.533h8.533c4.713,0,8.533-3.82,8.533-8.533    S219.764,460.761,215.051,460.761z"/>
	</g>
</g>
<g>
	<g>
		<path d="M257.718,460.761h-8.533c-4.713,0-8.533,3.82-8.533,8.533s3.82,8.533,8.533,8.533h8.533c4.713,0,8.533-3.82,8.533-8.533    S262.431,460.761,257.718,460.761z"/>
	</g>
</g>
<g>
	<g>
		<path d="M300.385,460.761h-8.533c-4.713,0-8.533,3.82-8.533,8.533s3.821,8.533,8.533,8.533h8.533c4.713,0,8.533-3.82,8.533-8.533    S305.098,460.761,300.385,460.761z"/>
	</g>
</g>
<g>
	<g>
		<path d="M343.051,460.761h-8.533c-4.713,0-8.533,3.82-8.533,8.533s3.82,8.533,8.533,8.533h8.533c4.713,0,8.533-3.82,8.533-8.533    S347.764,460.761,343.051,460.761z"/>
	</g>
</g>
<g>
</g>
<g>
</g>
<g>
</g>
<g>
</g>
<g>
</g>
<g>
</g>
<g>
</g>
<g>
</g>
<g>
</g>
<g>
</g>
<g>
</g>
<g>
</g>
<g>
</g>
<g>
</g>
<g>
</g>
</svg>
