<?xml version="1.0" encoding="iso-8859-1"?>
<!-- Generator: Adobe Illustrator 19.0.0, SVG Export Plug-In . SVG Version: 6.00 Build 0)  -->
<svg xmlns="http://www.w3.org/2000/svg" xmlns:xlink="http://www.w3.org/1999/xlink" version="1.1" id="Layer_1" x="0px" y="0px" viewBox="0 0 512 512" style="enable-background:new 0 0 512 512;" xml:space="preserve">
<g>
	<g>
		<path d="M349.867,0H162.133C129.16,0.04,102.44,26.76,102.4,59.733V486.4c0.015,14.132,11.468,25.585,25.6,25.6h25.6H384    c14.132-0.015,25.585-11.468,25.6-25.6V59.733C409.56,26.76,382.84,0.04,349.867,0z M349.867,494.933H162.133v-51.2    c0.003-4.711,3.822-8.53,8.533-8.533h170.667c4.711,0.003,8.53,3.822,8.533,8.533V494.933z M358.025,162.133    c-2.85,35.097-23.612,66.237-54.915,82.365c-11.059-26.018-41.116-38.145-67.134-27.085    c-12.194,5.183-21.902,14.892-27.085,27.085c-31.302-16.127-52.064-47.268-54.915-82.365H358.025z M154.032,145.067    c4.667-56.315,54.103-98.184,110.419-93.517c49.837,4.13,89.386,43.68,93.517,93.517H154.032z M230.4,308.806v32.527    c0,14.138,11.461,25.6,25.6,25.6c14.139,0,25.6-11.462,25.6-25.6v-32.527c15.822-9.132,25.579-26.004,25.6-44.273    c0-1.004-0.093-1.984-0.151-2.974c6.001-2.815,11.76-6.121,17.217-9.884v166.458H187.733V251.675    c5.457,3.763,11.216,7.069,17.217,9.884c-0.057,0.99-0.151,1.97-0.151,2.974C204.821,282.802,214.578,299.674,230.4,308.806z     M256,298.667c-18.851,0-34.133-15.282-34.133-34.133c0-18.851,15.282-34.133,34.133-34.133c18.851,0,34.133,15.282,34.133,34.133    C290.115,283.377,274.844,298.648,256,298.667z M264.533,314.963v26.371c0,4.713-3.82,8.533-8.533,8.533    c-4.713,0-8.533-3.82-8.533-8.533v-26.371C253.109,315.99,258.891,315.99,264.533,314.963z M392.533,486.4    c-0.003,4.711-3.822,8.53-8.533,8.533h-17.067v-51.2c-0.015-14.132-11.468-25.585-25.6-25.6v-179.2    c-0.053-0.484-0.149-0.962-0.288-1.429c46.338-46.969,45.827-122.609-1.143-168.948c-46.969-46.338-122.61-45.827-168.948,1.143    c-45.896,46.521-45.896,121.284,0,167.805c-0.139,0.467-0.236,0.945-0.289,1.429v179.2c-14.132,0.015-25.585,11.468-25.6,25.6    v51.2H128c-4.711-0.003-8.53-3.822-8.533-8.533V59.733c0.028-23.553,19.114-42.639,42.667-42.667h187.733    c23.553,0.028,42.639,19.114,42.667,42.667V486.4z"/>
	</g>
</g>
<g>
	<g>
		<path d="M195.583,466.092c-0.391-1.055-1.002-2.016-1.791-2.818c-0.419-0.388-0.877-0.731-1.367-1.025    c-0.434-0.339-0.925-0.599-1.45-0.767c-0.51-0.259-1.059-0.433-1.625-0.517c-2.783-0.544-5.655,0.32-7.676,2.308    c-1.561,1.634-2.445,3.799-2.475,6.059c-0.023,2.27,0.869,4.454,2.475,6.059c0.816,0.772,1.772,1.38,2.817,1.792    c4.287,1.839,9.253-0.146,11.092-4.433C196.495,470.625,196.495,468.218,195.583,466.092z"/>
	</g>
</g>
<g>
	<g>
		<path d="M229.717,466.092c-0.391-1.055-1.002-2.015-1.791-2.817c-0.407-0.367-0.836-0.709-1.283-1.025    c-0.474-0.324-0.99-0.582-1.533-0.767c-0.51-0.259-1.059-0.433-1.625-0.517c-1.633-0.343-3.334-0.162-4.858,0.517    c-1.035,0.432-1.987,1.038-2.817,1.792c-0.79,0.802-1.4,1.762-1.792,2.817c-0.437,1.026-0.67,2.127-0.683,3.242    c-0.023,2.27,0.869,4.454,2.475,6.059c0.829,0.754,1.782,1.36,2.817,1.792c2.065,0.911,4.418,0.911,6.483,0    c1.034-0.434,1.986-1.04,2.817-1.792C230.369,472.951,231.079,469.267,229.717,466.092z"/>
	</g>
</g>
<g>
	<g>
		<path d="M263.85,466.092c-0.391-1.055-1.002-2.015-1.791-2.817c-2.071-1.967-4.958-2.825-7.767-2.308    c-0.534,0.096-1.05,0.271-1.533,0.517c-0.546,0.184-1.065,0.442-1.542,0.767c-0.445,0.316-0.871,0.658-1.276,1.025    c-0.79,0.802-1.4,1.762-1.792,2.817c-0.48,1.012-0.714,2.123-0.683,3.242c0,4.713,3.82,8.533,8.533,8.533    c4.713,0,8.533-3.82,8.533-8.533C264.52,468.219,264.287,467.117,263.85,466.092z"/>
	</g>
</g>
<g>
	<g>
		<path d="M297.983,466.092c-0.391-1.055-1.002-2.015-1.791-2.817c-0.831-0.752-1.783-1.358-2.817-1.792    c-1.556-0.684-3.286-0.865-4.95-0.517c-0.534,0.096-1.05,0.271-1.533,0.517c-0.546,0.184-1.065,0.442-1.542,0.767    c-0.445,0.316-0.871,0.659-1.276,1.025c-0.79,0.802-1.401,1.762-1.792,2.817c-0.48,1.012-0.714,2.123-0.683,3.242    c-0.023,2.27,0.869,4.454,2.475,6.059c0.829,0.754,1.782,1.36,2.817,1.792c2.065,0.911,4.418,0.911,6.483,0    c1.034-0.434,1.986-1.04,2.817-1.792C298.635,472.951,299.345,469.267,297.983,466.092z"/>
	</g>
</g>
<g>
	<g>
		<path d="M332.116,466.092c-0.391-1.055-1.002-2.016-1.791-2.818c-0.419-0.388-0.877-0.731-1.367-1.025    c-0.434-0.339-0.925-0.599-1.45-0.767c-0.484-0.245-1-0.419-1.533-0.517c-2.81-0.53-5.703,0.33-7.767,2.308    c-0.79,0.802-1.4,1.762-1.792,2.817c-0.437,1.026-0.669,2.127-0.683,3.242c-0.023,2.27,0.869,4.454,2.475,6.059    c0.829,0.754,1.782,1.36,2.817,1.792c4.287,1.839,9.253-0.146,11.092-4.433C333.028,470.625,333.028,468.218,332.116,466.092z"/>
	</g>
</g>
<g>
</g>
<g>
</g>
<g>
</g>
<g>
</g>
<g>
</g>
<g>
</g>
<g>
</g>
<g>
</g>
<g>
</g>
<g>
</g>
<g>
</g>
<g>
</g>
<g>
</g>
<g>
</g>
<g>
</g>
</svg>
