<?xml version="1.0" encoding="iso-8859-1"?>
<!-- Generator: Adobe Illustrator 19.0.0, SVG Export Plug-In . SVG Version: 6.00 Build 0)  -->
<svg xmlns="http://www.w3.org/2000/svg" xmlns:xlink="http://www.w3.org/1999/xlink" version="1.1" id="Layer_1" x="0px" y="0px" viewBox="0 0 512 512" style="enable-background:new 0 0 512 512;" xml:space="preserve">
<g>
	<g>
		<path d="M448,234.667c-16.487,0.02-29.847,13.38-29.867,29.867c0.024,6.517,2.2,12.843,6.189,17.996l-32.463,48.658    c-3.81-1.729-7.942-2.634-12.126-2.654c-7.492,0.051-14.694,2.903-20.19,7.996l-38.579-33.031    c2.14-4.132,3.271-8.711,3.302-13.365c0-16.495-13.372-29.867-29.867-29.867s-29.867,13.372-29.867,29.867    c0.03,4.598,1.134,9.125,3.224,13.221l-35.197,29.35c-4.525-2.701-9.691-4.141-14.96-4.171c-16.495,0-29.867,13.372-29.867,29.867    c0,16.495,13.372,29.867,29.867,29.867c16.495,0,29.867-13.372,29.867-29.867c-0.03-4.598-1.134-9.125-3.224-13.221l35.197-29.35    c9.146,5.533,20.6,5.563,29.776,0.079l41.486,35.521c-3.944,16.026,5.851,32.214,21.876,36.157    c16.025,3.944,32.214-5.851,36.157-21.876c1.959-7.96,0.562-16.375-3.865-23.275l33.255-49.846    c3.164,1.163,6.504,1.776,9.875,1.811c16.495,0,29.867-13.372,29.867-29.867S464.495,234.667,448,234.667z M217.6,371.2    c-7.069,0-12.8-5.731-12.8-12.8c0-7.069,5.731-12.8,12.8-12.8c7.069,0,12.8,5.731,12.8,12.8    C230.392,365.466,224.666,371.192,217.6,371.2z M294.4,302.933c-7.066-0.008-12.792-5.734-12.8-12.8c0-7.069,5.731-12.8,12.8-12.8    c7.069,0,12.8,5.731,12.8,12.8C307.2,297.203,301.469,302.933,294.4,302.933z M379.733,371.2    c-7.069,0.015-12.812-5.704-12.826-12.773c-0.015-7.069,5.704-12.812,12.773-12.826c3.305-0.007,6.485,1.265,8.874,3.55    c2.576,2.381,4.023,5.742,3.979,9.25C392.526,365.466,386.799,371.192,379.733,371.2z M448,277.333c-7.069,0-12.8-5.731-12.8-12.8    s5.731-12.8,12.8-12.8c7.069,0,12.8,5.731,12.8,12.8C460.792,271.599,455.066,277.326,448,277.333z"/>
	</g>
</g>
<g>
	<g>
		<path d="M460.8,140.8H281.6c-4.713,0-8.533,3.82-8.533,8.533s3.82,8.533,8.533,8.533h179.2c4.713,0,8.533-3.82,8.533-8.533    S465.513,140.8,460.8,140.8z"/>
	</g>
</g>
<g>
	<g>
		<path d="M460.8,174.933H281.6c-4.713,0-8.533,3.82-8.533,8.533S276.887,192,281.6,192h179.2c4.713,0,8.533-3.82,8.533-8.533    S465.513,174.933,460.8,174.933z"/>
	</g>
</g>
<g>
	<g>
		<path d="M486.4,98.133H341.333v-25.6C341.313,53.69,326.043,38.42,307.2,38.4h-42.667v-8.533c0-4.713-3.82-8.533-8.533-8.533    s-8.533,3.82-8.533,8.533V38.4H204.8c-18.843,0.02-34.113,15.29-34.133,34.133v25.6H25.6c-14.132,0.015-25.585,11.468-25.6,25.6    V422.4c0.015,14.132,11.468,25.585,25.6,25.6v8.533c0.015,14.132,11.468,25.585,25.6,25.6h49.325    c4.812,5.41,11.701,8.514,18.942,8.533h273.067c7.241-0.02,14.13-3.123,18.942-8.533H460.8c14.132-0.015,25.585-11.468,25.6-25.6    V448c14.132-0.015,25.585-11.468,25.6-25.6V123.733C511.985,109.601,500.532,98.149,486.4,98.133z M187.733,72.533    c0.011-9.421,7.646-17.056,17.067-17.067h102.4c9.421,0.011,17.056,7.645,17.067,17.067v25.6H187.733V72.533z M93.867,465.067    H51.2c-4.711-0.005-8.529-3.822-8.533-8.533V448h51.2V465.067z M401.067,465.067c-0.005,4.711-3.823,8.529-8.533,8.533H119.467    c-4.711-0.005-8.529-3.822-8.533-8.533V422.4h290.133V465.067z M469.333,456.533c-0.005,4.711-3.822,8.529-8.533,8.533h-42.667    V448h51.2V456.533z M494.933,422.4c-0.005,4.711-3.822,8.529-8.533,8.533h-68.267V422.4c-0.011-9.421-7.646-17.056-17.067-17.067    H110.933c-9.421,0.011-17.056,7.646-17.067,17.067v8.533H25.6c-4.711-0.005-8.529-3.822-8.533-8.533V123.733    c0.005-4.711,3.822-8.529,8.533-8.533h460.8c4.711,0.005,8.529,3.822,8.533,8.533V422.4z"/>
	</g>
</g>
<g>
	<g>
		<path d="M170.667,439.467h-34.133c-4.713,0-8.533,3.82-8.533,8.533s3.82,8.533,8.533,8.533h34.133c4.713,0,8.533-3.82,8.533-8.533    S175.38,439.467,170.667,439.467z"/>
	</g>
</g>
<g>
	<g>
		<path d="M238.933,439.467H204.8c-4.713,0-8.533,3.82-8.533,8.533s3.82,8.533,8.533,8.533h34.133c4.713,0,8.533-3.82,8.533-8.533    S243.646,439.467,238.933,439.467z"/>
	</g>
</g>
<g>
	<g>
		<path d="M307.2,439.467h-34.133c-4.713,0-8.533,3.82-8.533,8.533s3.821,8.533,8.533,8.533H307.2c4.713,0,8.533-3.82,8.533-8.533    S311.913,439.467,307.2,439.467z"/>
	</g>
</g>
<g>
	<g>
		<path d="M375.467,439.467h-34.133c-4.713,0-8.533,3.82-8.533,8.533s3.821,8.533,8.533,8.533h34.133    c4.713,0,8.533-3.82,8.533-8.533S380.18,439.467,375.467,439.467z"/>
	</g>
</g>
<g>
	<g>
		<path d="M187.738,243.2c-0.001,0-0.003,0-0.004,0H128v-59.733c0.001-4.712-3.817-8.532-8.529-8.533c-0.001,0-0.003,0-0.004,0    c-42.415,0-76.8,34.385-76.8,76.8s34.385,76.8,76.8,76.8s76.8-34.385,76.8-76.8C196.268,247.022,192.449,243.201,187.738,243.2z     M119.467,311.467c-32.991-0.001-59.735-26.747-59.734-59.738c0.001-29.693,21.812-54.878,51.2-59.121v59.125    c-0.001,4.712,3.817,8.532,8.529,8.533c0.001,0,0.003,0,0.004,0h59.125C174.312,289.636,149.147,311.429,119.467,311.467z"/>
	</g>
</g>
<g>
	<g>
		<path d="M153.6,140.8c-4.712-0.001-8.532,3.817-8.533,8.529c0,0.002,0,0.003,0,0.004V217.6c-0.001,4.712,3.817,8.532,8.529,8.533    c0.001,0,0.003,0,0.004,0h68.267c4.712,0.001,8.532-3.817,8.533-8.529c0-0.001,0-0.003,0-0.004    C230.352,175.204,195.996,140.848,153.6,140.8z M162.133,209.067v-50.592c26.195,3.824,46.768,24.397,50.592,50.592H162.133z"/>
	</g>
</g>
<g>
</g>
<g>
</g>
<g>
</g>
<g>
</g>
<g>
</g>
<g>
</g>
<g>
</g>
<g>
</g>
<g>
</g>
<g>
</g>
<g>
</g>
<g>
</g>
<g>
</g>
<g>
</g>
<g>
</g>
</svg>
