<?xml version="1.0" encoding="iso-8859-1"?>
<!-- Generator: Adobe Illustrator 19.0.0, SVG Export Plug-In . SVG Version: 6.00 Build 0)  -->
<svg xmlns="http://www.w3.org/2000/svg" xmlns:xlink="http://www.w3.org/1999/xlink" version="1.1" id="Layer_1" x="0px" y="0px" viewBox="0 0 512 512" style="enable-background:new 0 0 512 512;" xml:space="preserve">
<g>
	<g>
		<path d="M486.4,38.4H25.6C11.468,38.415,0.015,49.868,0,64v162.133c0.015,14.132,11.468,25.585,25.6,25.6h145.067V268.8    c0.028,23.553,19.114,42.639,42.667,42.667V422.4h-68.267c-14.132,0.015-25.585,11.468-25.6,25.6v17.067    c-0.001,4.712,3.817,8.532,8.529,8.533c0.002,0,0.003,0,0.004,0h256c4.712,0.001,8.532-3.817,8.533-8.529c0-0.001,0-0.003,0-0.004    V448c-0.015-14.132-11.468-25.585-25.6-25.6h-68.267V311.467c23.553-0.028,42.639-19.114,42.667-42.667v-17.067H486.4    c14.132-0.015,25.585-11.468,25.6-25.6V64C511.985,49.868,500.532,38.415,486.4,38.4z M366.933,439.467    c4.711,0.005,8.529,3.822,8.533,8.533v8.533H136.533V448c0.005-4.711,3.822-8.529,8.533-8.533H366.933z M230.4,422.4V311.467h51.2    V422.4H230.4z M324.267,268.8c-0.015,14.132-11.468,25.585-25.6,25.6h-85.333c-14.132-0.015-25.585-11.468-25.6-25.6v-17.067    h136.533V268.8z M494.933,226.133c-0.005,4.711-3.822,8.529-8.533,8.533H25.6c-4.711-0.005-8.529-3.822-8.533-8.533V64    c0.005-4.711,3.822-8.529,8.533-8.533h460.8c4.711,0.005,8.529,3.822,8.533,8.533V226.133z"/>
	</g>
</g>
<g>
	<g>
		<path d="M366.933,81.067H145.067c-14.132,0.015-25.585,11.468-25.6,25.6v76.8c0.015,14.132,11.468,25.585,25.6,25.6h221.867    c14.132-0.015,25.585-11.468,25.6-25.6v-76.8C392.518,92.535,381.065,81.082,366.933,81.067z M145.067,192    c-4.711-0.005-8.529-3.822-8.533-8.533v-76.8c0.005-4.711,3.822-8.529,8.533-8.533h67.568    c-25.921,23.781-27.655,64.071-3.875,89.992c1.235,1.347,2.528,2.639,3.875,3.875H145.067z M256,192    c-25.921,0-46.933-21.013-46.933-46.933S230.079,98.133,256,98.133c25.908,0.031,46.903,21.026,46.933,46.933    C302.933,170.987,281.921,192,256,192z M375.467,183.467c-0.005,4.711-3.822,8.529-8.533,8.533h-67.568    c25.921-23.781,27.655-64.071,3.875-89.992c-1.235-1.347-2.528-2.639-3.875-3.875h67.568c4.711,0.005,8.529,3.822,8.533,8.533    V183.467z"/>
	</g>
</g>
<g>
	<g>
		<path d="M256,115.2c-16.495,0-29.867,13.372-29.867,29.867c0.02,16.487,13.38,29.847,29.867,29.867    c16.495,0,29.867-13.372,29.867-29.867S272.495,115.2,256,115.2z M256,157.867c-7.069,0-12.8-5.731-12.8-12.8    c0.008-7.066,5.734-12.792,12.8-12.8c7.069,0,12.8,5.731,12.8,12.8S263.069,157.867,256,157.867z"/>
	</g>
</g>
<g>
	<g>
		<path d="M65.657,75.034c-3.319-3.26-8.638-3.26-11.957,0L36.634,92.1c-3.332,3.333-3.331,8.736,0.002,12.068    c1.6,1.599,3.769,2.498,6.031,2.498c2.264,0.003,4.435-0.897,6.033-2.5L65.766,87.1C69.068,83.738,69.019,78.335,65.657,75.034z"/>
	</g>
</g>
<g>
	<g>
		<path d="M108.324,75.034c-3.319-3.26-8.638-3.26-11.957,0l-59.733,59.733c-3.362,3.302-3.411,8.704-0.109,12.066    c3.302,3.362,8.704,3.411,12.066,0.109c0.037-0.036,0.073-0.072,0.109-0.109L108.433,87.1    C111.735,83.738,111.686,78.335,108.324,75.034z"/>
	</g>
</g>
<g>
</g>
<g>
</g>
<g>
</g>
<g>
</g>
<g>
</g>
<g>
</g>
<g>
</g>
<g>
</g>
<g>
</g>
<g>
</g>
<g>
</g>
<g>
</g>
<g>
</g>
<g>
</g>
<g>
</g>
</svg>
