<?xml version="1.0" encoding="iso-8859-1"?>
<!-- Generator: Adobe Illustrator 19.0.0, SVG Export Plug-In . SVG Version: 6.00 Build 0)  -->
<svg xmlns="http://www.w3.org/2000/svg" xmlns:xlink="http://www.w3.org/1999/xlink" version="1.1" id="Layer_1" x="0px" y="0px" viewBox="0 0 512 512" style="enable-background:new 0 0 512 512;" xml:space="preserve">
<g>
	<g>
		<path d="M361.73,250.782l5.145-45.016c0.04-0.321,0.06-0.643,0.058-0.967c-0.052-44.762-26.964-85.119-68.267-102.374V85.333    c-0.015-14.132-11.468-25.585-25.6-25.6h-8.533v-12.8c0.005-2.354,1.912-4.262,4.267-4.267    c11.778-0.011,21.322-9.556,21.333-21.333v-12.8c0-4.713-3.82-8.533-8.533-8.533s-8.533,3.82-8.533,8.533v12.8    c-0.005,2.354-1.912,4.262-4.267,4.267c-11.778,0.011-21.322,9.556-21.333,21.333v12.8h-8.533    c-14.132,0.015-25.585,11.468-25.6,25.6v17.092c-41.302,17.255-68.214,57.613-68.267,102.374    c-0.002,0.323,0.018,0.646,0.058,0.967l5.144,45.003c-18.726,42.721-30.802,91.413-30.802,124.697    c-0.369,72.374,56.147,132.29,128.419,136.146l0.266,0.021c1.132,0.061,2.233,0.232,3.374,0.266c1.458,0.091,3.008,0.1,4.475,0.1    c1.467,0,3.017-0.008,4.175-0.083c1.173-0.035,2.304-0.21,3.469-0.273c0.192-0.017,0.385-0.027,0.577-0.045    c72.211-3.939,128.647-63.814,128.312-136.132C392.533,342.185,380.454,293.5,361.73,250.782z M230.4,85.333    c0.003-4.711,3.822-8.53,8.533-8.533h34.133c4.711,0.003,8.53,3.822,8.533,8.533v11.634c-16.816-4.135-34.384-4.135-51.2,0V85.333    z M264.533,162.133v59.733c-0.003,4.711-3.822,8.53-8.533,8.533c-4.711-0.003-8.53-3.822-8.533-8.533v-59.733    c0-4.713,3.82-8.533,8.533-8.533C260.713,153.6,264.533,157.421,264.533,162.133z M136.533,375.467    c1.346-30.257,7.374-60.123,17.869-88.534l17.106,149.675c1.355,11.758,5.16,23.101,11.168,33.298    C153.455,447.307,136.403,412.407,136.533,375.467z M262.505,494.621l-0.272,0.021c-2.056,0.188-4.133,0.291-6.233,0.291    c-34.561,0.01-63.625-25.92-67.541-60.258l-26.325-230.35c0.313-48.318,37.219-88.522,85.333-92.96v26.741    c-10.199,3.592-17.033,13.214-17.067,24.028v59.733c0.033,10.813,6.868,20.435,17.067,24.027v18.64    c0,4.713,3.82,8.533,8.533,8.533c4.713,0,8.533-3.82,8.533-8.533v-18.639c10.199-3.592,17.033-13.214,17.067-24.028v-59.733    c-0.033-10.813-6.868-20.435-17.067-24.028v-26.741c48.115,4.438,85.02,44.643,85.333,92.96l-26.325,230.35    C319.903,466.562,294.453,491.558,262.505,494.621z M329.373,469.823c5.98-10.176,9.767-21.489,11.119-33.215l17.106-149.676    c10.495,28.411,16.523,58.277,17.869,88.534C375.6,412.373,358.566,447.243,329.373,469.823z"/>
	</g>
</g>
<g>
	<g>
		<path d="M264.533,452.267h-17.067c-4.713,0-8.533,3.821-8.533,8.533s3.82,8.533,8.533,8.533h17.067    c4.713,0,8.533-3.82,8.533-8.533S269.246,452.267,264.533,452.267z"/>
	</g>
</g>
<g>
</g>
<g>
</g>
<g>
</g>
<g>
</g>
<g>
</g>
<g>
</g>
<g>
</g>
<g>
</g>
<g>
</g>
<g>
</g>
<g>
</g>
<g>
</g>
<g>
</g>
<g>
</g>
<g>
</g>
</svg>
