<?xml version="1.0" encoding="iso-8859-1"?>
<!-- Generator: Adobe Illustrator 19.0.0, SVG Export Plug-In . SVG Version: 6.00 Build 0)  -->
<svg xmlns="http://www.w3.org/2000/svg" xmlns:xlink="http://www.w3.org/1999/xlink" version="1.1" id="Layer_1" x="0px" y="0px" viewBox="0 0 512 512" style="enable-background:new 0 0 512 512;" xml:space="preserve">
<g>
	<g>
		<path d="M76.8,132.267H42.667c-4.713,0-8.533,3.821-8.533,8.533c0,4.713,3.82,8.533,8.533,8.533H76.8    c4.713,0,8.533-3.821,8.533-8.533C85.333,136.087,81.513,132.267,76.8,132.267z"/>
	</g>
</g>
<g>
	<g>
		<path d="M486.4,89.6h-25.6c-0.028-23.553-19.114-42.639-42.667-42.667H409.6V38.4c-0.015-14.132-11.468-25.585-25.6-25.6H128    c-14.132,0.015-25.585,11.468-25.6,25.6v8.533h-8.533C70.314,46.961,51.228,66.047,51.2,89.6H25.6    C11.468,89.615,0.015,101.068,0,115.2v145.067c0.012,9.421,7.646,17.054,17.067,17.067h17.067v163.706    c-10.199,3.592-17.033,13.214-17.067,24.028v25.6c-0.003,4.71,3.813,8.531,8.523,8.533c0.003,0,0.007,0,0.01,0h68.267    c4.71,0.003,8.531-3.813,8.533-8.523c0-0.003,0-0.007,0-0.01v-25.6c-0.033-10.813-6.868-20.435-17.067-24.028V422.4h51.2v8.533    c0.015,14.132,11.468,25.585,25.6,25.6h187.733c14.132-0.015,25.585-11.468,25.6-25.6V422.4h51.2v18.639    c-10.199,3.592-17.033,13.214-17.067,24.028v25.6c-0.003,4.71,3.813,8.531,8.523,8.533c0.003,0,0.007,0,0.01,0H486.4    c4.71,0.003,8.531-3.813,8.533-8.523c0-0.003,0-0.007,0-0.01v-25.6c-0.033-10.813-6.868-20.435-17.067-24.028V277.333h17.067    c9.421-0.012,17.054-7.646,17.067-17.067V115.2C511.985,101.068,500.532,89.615,486.4,89.6z M119.467,38.4    c0.003-4.711,3.822-8.53,8.533-8.533h256c4.711,0.003,8.53,3.822,8.533,8.533v8.533H119.467V38.4z M85.333,482.133h-51.2v-17.067    c0.003-4.711,3.822-8.53,8.533-8.533H76.8c4.712,0.003,8.53,3.822,8.533,8.533V482.133z M51.2,439.467V277.333h17.067v162.133    H51.2z M17.067,260.267V115.2c0.003-4.711,3.822-8.53,8.533-8.533h68.267c4.711,0.003,8.53,3.822,8.533,8.533l0.006,51.171    L102.4,166.4l0.006,0.029l0.01,85.227l-0.016,0.078l0.016,0.078l0.001,8.456H17.067z M136.533,405.333h-51.2v-17.067h51.2V405.333    z M136.533,371.2h-51.2v-93.867H102.4c9.421-0.012,17.054-7.646,17.067-17.067h17.067V371.2z M136.533,243.2h-17.067v-68.267    h17.067V243.2z M358.4,430.933c-0.003,4.711-3.822,8.53-8.533,8.533H162.133c-4.712-0.003-8.53-3.822-8.533-8.533v-256h204.8    V430.933z M119.467,157.867V115.2c-0.015-14.132-11.468-25.585-25.6-25.6h-25.6c0.015-14.132,11.468-25.585,25.6-25.6h324.267    c14.132,0.015,25.585,11.468,25.6,25.6h-25.6c-14.132,0.015-25.585,11.468-25.6,25.6v42.667H119.467z M392.533,260.267    c0.012,9.421,7.646,17.054,17.067,17.067h17.067V371.2h-51.2V260.267H392.533z M375.467,243.2v-68.267h17.067V243.2H375.467z     M375.467,405.333v-17.067h51.2v17.067H375.467z M477.867,482.133h-51.2v-17.067c0.003-4.711,3.822-8.53,8.533-8.533h34.133    c4.711,0.003,8.53,3.822,8.533,8.533V482.133z M443.733,439.467V277.333H460.8v162.133H443.733z M469.333,260.267H409.6V115.2    c0.003-4.711,3.822-8.53,8.533-8.533H486.4c4.711,0.003,8.53,3.822,8.533,8.533l0.017,145.067H469.333z"/>
	</g>
</g>
<g>
	<g>
		<path d="M469.333,132.267H435.2c-4.713,0-8.533,3.821-8.533,8.533c0,4.713,3.82,8.533,8.533,8.533h34.133    c4.713,0,8.533-3.821,8.533-8.533C477.867,136.087,474.046,132.267,469.333,132.267z"/>
	</g>
</g>
<g>
	<g>
		<path d="M366.933,89.6H145.067c-4.713,0-8.533,3.82-8.533,8.533s3.82,8.533,8.533,8.533h221.867c4.713,0,8.533-3.82,8.533-8.533    S371.646,89.6,366.933,89.6z"/>
	</g>
</g>
<g>
	<g>
		<path d="M195.583,197.292c-0.412-1.045-1.02-2.001-1.792-2.817c-3.421-3.158-8.695-3.158-12.117,0    c-0.772,0.816-1.38,1.772-1.792,2.817c-0.48,1.012-0.714,2.122-0.683,3.242c0.019,4.732,3.87,8.553,8.602,8.534    c2.244-0.009,4.395-0.898,5.99-2.475c1.57-1.629,2.455-3.797,2.475-6.059C196.253,199.418,196.021,198.317,195.583,197.292z"/>
	</g>
</g>
<g>
	<g>
		<path d="M229.717,197.292c-0.412-1.045-1.02-2.001-1.792-2.817c-3.421-3.158-8.695-3.158-12.117,0    c-0.772,0.816-1.38,1.772-1.792,2.817c-0.437,1.026-0.669,2.127-0.683,3.242c0,4.713,3.82,8.533,8.533,8.533    s8.533-3.821,8.533-8.533C230.386,199.418,230.154,198.317,229.717,197.292z"/>
	</g>
</g>
<g>
	<g>
		<path d="M263.85,197.292L263.85,197.292c-0.412-1.045-1.02-2.001-1.792-2.817c-3.421-3.158-8.695-3.158-12.117,0    c-0.772,0.816-1.38,1.772-1.792,2.817c-0.911,2.065-0.911,4.418,0,6.483c0.434,1.034,1.04,1.986,1.792,2.817    c2.441,2.444,6.125,3.154,9.3,1.792c1.034-0.434,1.986-1.04,2.817-1.792C264.502,204.15,265.212,200.466,263.85,197.292z"/>
	</g>
</g>
<g>
	<g>
		<path d="M297.983,197.292L297.983,197.292c-0.431-1.035-1.037-1.988-1.792-2.817c-3.221-3.346-8.544-3.447-11.89-0.226    c-0.887,0.854-1.576,1.893-2.018,3.043c-0.437,1.026-0.669,2.127-0.683,3.242c-0.045,4.667,3.702,8.488,8.369,8.533    c0.055,0,0.11,0,0.164,0c1.115-0.014,2.216-0.246,3.242-0.683c2.143-0.777,3.831-2.465,4.608-4.608    C298.894,201.71,298.894,199.357,297.983,197.292z"/>
	</g>
</g>
<g>
	<g>
		<path d="M332.117,197.292c-0.431-1.035-1.037-1.988-1.791-2.817c-0.817-0.77-1.773-1.378-2.817-1.792    c-2.076-0.858-4.407-0.858-6.483,0c-2.143,0.777-3.831,2.465-4.608,4.608c-0.438,1.026-0.67,2.127-0.684,3.243    c-0.023,2.27,0.869,4.454,2.475,6.059c0.829,0.754,1.782,1.36,2.817,1.792c2.065,0.911,4.418,0.911,6.483,0    c1.034-0.434,1.986-1.04,2.817-1.792C332.769,204.151,333.479,200.467,332.117,197.292z"/>
	</g>
</g>
<g>
	<g>
		<path d="M212.651,222.891c-0.412-1.045-1.02-2.001-1.792-2.817c-2.471-2.388-6.119-3.09-9.3-1.792    c-2.143,0.777-3.831,2.465-4.608,4.608c-0.911,2.065-0.911,4.418,0,6.483c0.434,1.034,1.04,1.986,1.792,2.817    c2.441,2.444,6.125,3.154,9.3,1.792c2.143-0.777,3.831-2.465,4.608-4.608C213.562,227.31,213.562,224.956,212.651,222.891z"/>
	</g>
</g>
<g>
	<g>
		<path d="M246.783,222.892c-0.411-1.045-1.02-2.001-1.791-2.817c-0.425-0.341-0.858-0.683-1.367-1.025    c-0.434-0.339-0.925-0.599-1.45-0.767c-0.51-0.259-1.059-0.433-1.625-0.517c-1.094-0.25-2.231-0.25-3.325,0    c-0.534,0.096-1.05,0.271-1.533,0.517c-0.546,0.184-1.065,0.442-1.542,0.767l-1.276,1.025c-0.772,0.816-1.38,1.772-1.792,2.817    c-0.437,1.026-0.669,2.127-0.683,3.242c-0.018,1.109,0.183,2.21,0.592,3.242c0.5,1.018,1.133,1.966,1.883,2.817    c3.365,3.3,8.752,3.3,12.117,0c0.752-0.831,1.358-1.783,1.792-2.817C247.694,227.31,247.694,224.957,246.783,222.892z"/>
	</g>
</g>
<g>
	<g>
		<path d="M280.917,222.891c-0.412-1.045-1.02-2.001-1.792-2.817c-0.831-0.752-1.783-1.358-2.817-1.792    c-2.067-0.9-4.416-0.9-6.483,0c-2.143,0.777-3.831,2.465-4.608,4.608c-0.911,2.065-0.911,4.418,0,6.483    c0.434,1.034,1.04,1.986,1.792,2.817c2.441,2.444,6.125,3.154,9.3,1.792c2.143-0.777,3.831-2.465,4.608-4.608    C281.828,227.31,281.828,224.956,280.917,222.891z"/>
	</g>
</g>
<g>
	<g>
		<path d="M315.05,222.891c-0.411-1.045-1.02-2.001-1.791-2.817c-0.425-0.341-0.858-0.683-1.367-1.025    c-0.434-0.339-0.925-0.599-1.45-0.767c-0.51-0.259-1.059-0.433-1.625-0.517c-1.094-0.25-2.231-0.25-3.325,0    c-0.534,0.096-1.05,0.271-1.533,0.517c-0.546,0.184-1.065,0.442-1.542,0.767l-1.276,1.025c-0.772,0.816-1.38,1.772-1.792,2.817    c-0.911,2.065-0.911,4.418,0,6.483c0.434,1.034,1.04,1.986,1.792,2.817c3.365,3.3,8.752,3.3,12.117,0    c0.752-0.831,1.358-1.783,1.792-2.817C315.961,227.31,315.961,224.956,315.05,222.891z"/>
	</g>
</g>
<g>
</g>
<g>
</g>
<g>
</g>
<g>
</g>
<g>
</g>
<g>
</g>
<g>
</g>
<g>
</g>
<g>
</g>
<g>
</g>
<g>
</g>
<g>
</g>
<g>
</g>
<g>
</g>
<g>
</g>
</svg>
