<?xml version="1.0" encoding="iso-8859-1"?>
<!-- Generator: Adobe Illustrator 19.0.0, SVG Export Plug-In . SVG Version: 6.00 Build 0)  -->
<svg xmlns="http://www.w3.org/2000/svg" xmlns:xlink="http://www.w3.org/1999/xlink" version="1.1" id="Layer_1" x="0px" y="0px" viewBox="0 0 512 512" style="enable-background:new 0 0 512 512;" xml:space="preserve">
<g>
	<g>
		<path d="M512,119.467V34.133C511.98,15.29,496.71,0.02,477.867,0H34.133C15.29,0.02,0.02,15.29,0,34.133v85.333    c0.045,15.521,10.568,29.054,25.6,32.922v28.023c-15.032,3.868-25.555,17.4-25.6,32.922v85.333    c0.045,15.521,10.568,29.054,25.6,32.922v28.023c-15.032,3.868-25.555,17.4-25.6,32.922v85.333    C0.02,496.71,15.29,511.98,34.133,512h443.733c18.843-0.02,34.113-15.29,34.133-34.133v-85.333    c-0.013-1.32-0.119-2.638-0.317-3.944c0.198-2.948,0.317-5.901,0.317-8.856c-0.017-19.012-4.163-37.794-12.153-55.046    c7.672-6.47,12.116-15.984,12.153-26.02v-85.333c-0.045-15.521-10.568-29.054-25.6-32.922v-28.023    C501.432,148.52,511.955,134.988,512,119.467z M34.133,494.933c-9.421-0.011-17.056-7.645-17.067-17.067v-85.333    c0.011-9.421,7.646-17.056,17.067-17.067h213.549c-0.045,1.429-0.216,2.827-0.216,4.267c0,4.279,0.284,8.545,0.696,12.8H51.2    c-9.421,0.011-17.056,7.646-17.067,17.067v51.2c0.011,9.421,7.645,17.056,17.067,17.067h240.003    c7.274,6.548,15.249,12.272,23.781,17.067H34.133z M249.349,358.4H42.667v-25.6h213.559    C253.074,341.079,250.77,349.656,249.349,358.4z M270.271,453.983c1.596,2.352,3.339,4.582,5.076,6.817H51.2v-51.2h199.713    c0.588,2.555,1.203,5.106,1.941,7.633C256.727,430.309,262.603,442.706,270.271,453.983z M494.933,477.867    c-0.011,9.421-7.645,17.056-17.066,17.067H444.49c17.863-10.01,33.163-24.024,44.698-40.942c2.054-3.017,3.955-6.125,5.746-9.295    V477.867z M490.25,412.308c-3.36,11.422-8.481,22.249-15.179,32.092c-35.694,52.692-107.345,66.471-160.037,30.777    c-52.692-35.694-66.471-107.345-30.777-160.037c35.694-52.692,107.345-66.471,160.037-30.777    c15.461,10.473,28.145,24.547,36.96,41.01v0l0.001,0.002l0.001,0.002c8.994,16.705,13.694,35.384,13.678,54.357    C494.925,390.759,493.348,401.727,490.25,412.308z M114.467,230.4h27.067l-51.2,51.2H63.267L114.467,230.4z M51.2,269.533V230.4    h39.133L51.2,269.533z M165.667,230.4h27.067l-51.2,51.2h-27.067L165.667,230.4z M216.867,230.4h27.067l-51.2,51.2h-27.067    L216.867,230.4z M268.067,230.4h27.067l-51.2,51.2h-27.067L268.067,230.4z M319.267,230.4H358.4v18.949    c-24.98,4.084-48.254,15.281-67.035,32.251h-23.298L319.267,230.4z M494.933,213.333v85.333c-0.024,3.75-1.303,7.385-3.632,10.324    c-24.198-38.262-66.296-61.477-111.568-61.524c-1.44,0-2.837,0.171-4.267,0.216V230.4c-0.011-9.421-7.645-17.056-17.067-17.067    H51.2c-9.421,0.011-17.056,7.645-17.067,17.067v51.2c0.024,1.701,0.306,3.389,0.836,5.005c-2.02,4.18-0.268,9.205,3.911,11.225    c2.31,1.116,5.003,1.116,7.313,0c1.617,0.53,3.305,0.812,5.006,0.836h224.248c-4.229,5.386-8.035,11.092-11.383,17.067H34.133    c-9.421-0.011-17.056-7.645-17.067-17.067v-85.333c0.011-9.421,7.646-17.056,17.067-17.067h443.733    C487.288,196.277,494.923,203.912,494.933,213.333z M42.667,179.2v-25.6h426.667v25.6H42.667z M477.867,136.533H34.133    c-9.421-0.011-17.056-7.645-17.067-17.067V34.133c0.011-9.421,7.646-17.056,17.067-17.067h443.733    c9.421,0.011,17.056,7.646,17.067,17.067v85.333C494.923,128.888,487.288,136.523,477.867,136.533z"/>
	</g>
</g>
<g>
	<g>
		<path d="M358.4,34.133H51.2c-9.421,0.011-17.056,7.645-17.067,17.067v51.2c0.011,9.421,7.645,17.056,17.067,17.067h307.2    c9.421-0.011,17.056-7.645,17.067-17.067V51.2C375.456,41.779,367.821,34.144,358.4,34.133z M51.2,102.4V51.2h307.2l0.012,51.2    H51.2z"/>
	</g>
</g>
<g>
	<g>
		<path d="M401.116,34.084c-2.293-0.013-4.494,0.896-6.108,2.524c-1.559,1.635-2.443,3.799-2.475,6.059    c0.012,1.115,0.243,2.216,0.679,3.242c0.435,1.034,1.042,1.986,1.796,2.817c0.828,0.753,1.78,1.359,2.813,1.792    c2.067,0.911,4.421,0.911,6.487,0c1.034-0.433,1.987-1.039,2.817-1.792c0.751-0.832,1.357-1.784,1.792-2.817    c0.437-1.026,0.669-2.127,0.683-3.242C409.627,37.954,405.829,34.111,401.116,34.084z"/>
	</g>
</g>
<g>
	<g>
		<path d="M441.259,36.608c-2.453-2.425-6.126-3.133-9.305-1.791c-1.033,0.433-1.984,1.039-2.813,1.792    c-1.559,1.635-2.443,3.799-2.475,6.058c-0.029,1.119,0.204,2.229,0.679,3.242c0.435,1.034,1.042,1.986,1.796,2.817    c0.829,0.753,1.78,1.359,2.813,1.792c2.067,0.911,4.421,0.911,6.487,0c1.034-0.433,1.987-1.039,2.817-1.792    c0.751-0.832,1.357-1.784,1.792-2.817c0.478-1.012,0.712-2.123,0.683-3.242C443.7,40.408,442.816,38.244,441.259,36.608z"/>
	</g>
</g>
<g>
	<g>
		<path d="M469.383,34.084c-2.293-0.013-4.494,0.896-6.108,2.524c-1.559,1.635-2.443,3.799-2.475,6.059    c0.012,1.115,0.243,2.216,0.679,3.242c0.435,1.034,1.042,1.986,1.796,2.817c0.829,0.753,1.78,1.359,2.813,1.792    c2.067,0.911,4.421,0.911,6.487,0c1.034-0.433,1.987-1.039,2.817-1.792c0.751-0.832,1.357-1.784,1.792-2.817    c0.437-1.026,0.669-2.127,0.683-3.242C477.894,37.954,474.096,34.111,469.383,34.084z"/>
	</g>
</g>
<g>
	<g>
		<path d="M409.429,75.092c-0.095-0.533-0.268-1.05-0.513-1.533c-0.187-0.546-0.447-1.064-0.771-1.542    c-0.313-0.446-0.654-0.872-1.021-1.275c-0.407-0.366-0.834-0.708-1.279-1.025c-0.475-0.325-0.992-0.582-1.538-0.767    c-0.485-0.246-1.003-0.42-1.538-0.517c-1.664-0.348-3.394-0.167-4.95,0.517c-1.033,0.433-1.984,1.039-2.813,1.792    c-0.368,0.403-0.71,0.829-1.025,1.275c-0.324,0.477-0.583,0.996-0.771,1.542c-0.246,0.483-0.417,1-0.509,1.533    c-0.1,0.564-0.157,1.135-0.171,1.708c-0.029,1.119,0.204,2.229,0.679,3.242c0.78,2.141,2.467,3.828,4.608,4.608    c2.067,0.911,4.421,0.911,6.487,0c1.034-0.432,1.987-1.038,2.817-1.791c0.751-0.832,1.357-1.784,1.792-2.817    c0.437-1.026,0.669-2.127,0.683-3.242C409.584,76.227,409.527,75.656,409.429,75.092z"/>
	</g>
</g>
<g>
	<g>
		<path d="M441.259,70.741c-0.83-0.753-1.783-1.359-2.817-1.791c-1.556-0.684-3.286-0.865-4.95-0.517    c-0.535,0.096-1.053,0.27-1.538,0.517c-0.543,0.185-1.059,0.443-1.533,0.767c-0.447,0.315-0.875,0.657-1.279,1.025l-1.025,1.275    c-0.324,0.477-0.583,0.996-0.771,1.542c-0.245,0.483-0.417,1-0.508,1.534c-0.1,0.564-0.157,1.135-0.171,1.708    c0.012,1.115,0.243,2.216,0.679,3.242c0.78,2.141,2.467,3.828,4.608,4.608c2.067,0.911,4.421,0.911,6.487,0    c1.034-0.432,1.987-1.038,2.817-1.791c0.751-0.832,1.357-1.784,1.792-2.817c0.478-1.012,0.712-2.123,0.683-3.242    C443.717,74.538,442.831,72.368,441.259,70.741z"/>
	</g>
</g>
<g>
	<g>
		<path d="M477.696,75.092c-0.095-0.533-0.268-1.05-0.513-1.533c-0.187-0.546-0.447-1.064-0.771-1.542    c-0.338-0.425-0.679-0.85-1.021-1.275c-0.406-0.366-0.834-0.708-1.279-1.025c-0.475-0.325-0.992-0.582-1.537-0.767    c-0.485-0.246-1.003-0.42-1.538-0.517c-1.664-0.348-3.394-0.167-4.95,0.517c-1.033,0.433-1.984,1.039-2.813,1.792    c-1.574,1.625-2.461,3.796-2.475,6.058c0.019,4.732,3.87,8.553,8.602,8.534c2.244-0.009,4.395-0.898,5.99-2.475    c0.751-0.832,1.357-1.784,1.792-2.817c0.437-1.026,0.669-2.127,0.683-3.242C477.851,76.227,477.794,75.656,477.696,75.092z"/>
	</g>
</g>
<g>
	<g>
		<path d="M408.917,107.691c-0.413-1.044-1.021-2-1.791-2.816c-3.421-3.158-8.695-3.158-12.117,0    c-0.755,0.829-1.363,1.782-1.796,2.817c-0.436,1.026-0.667,2.127-0.68,3.242c-0.029,1.119,0.204,2.229,0.679,3.242    c0.78,2.141,2.467,3.828,4.608,4.608c2.067,0.911,4.421,0.911,6.487,0c1.034-0.433,1.987-1.039,2.817-1.792    c0.751-0.832,1.357-1.784,1.792-2.817C409.828,112.109,409.828,109.756,408.917,107.691z"/>
	</g>
</g>
<g>
	<g>
		<path d="M443.05,107.692c-0.433-1.034-1.039-1.986-1.791-2.817c-0.83-0.753-1.783-1.359-2.817-1.792    c-3.178-1.333-6.845-0.626-9.3,1.792c-0.755,0.829-1.363,1.782-1.796,2.817c-0.906,2.066-0.906,4.417,0,6.483    c0.78,2.141,2.467,3.828,4.608,4.608c2.067,0.911,4.421,0.911,6.487,0c1.034-0.433,1.987-1.039,2.817-1.792    c0.749-0.85,1.379-1.798,1.875-2.817c0.413-1.03,0.617-2.131,0.6-3.241C443.762,109.814,443.528,108.704,443.05,107.692z"/>
	</g>
</g>
<g>
	<g>
		<path d="M477.184,107.691c-0.413-1.044-1.021-1.999-1.792-2.816c-3.421-3.158-8.695-3.158-12.117,0    c-0.755,0.829-1.363,1.782-1.796,2.817c-0.906,2.066-0.906,4.417,0,6.483c0.78,2.141,2.467,3.828,4.608,4.608    c2.067,0.911,4.421,0.911,6.487,0c1.034-0.433,1.987-1.039,2.817-1.792c0.751-0.832,1.357-1.784,1.792-2.817    C478.095,112.109,478.095,109.756,477.184,107.691z"/>
	</g>
</g>
<g>
	<g>
		<path d="M85.163,75.092c-0.095-0.533-0.268-1.05-0.513-1.533c-0.187-0.546-0.447-1.064-0.771-1.542    c-0.313-0.446-0.654-0.872-1.021-1.275c-0.83-0.753-1.783-1.359-2.817-1.792c-3.181-1.299-6.83-0.596-9.301,1.792l-1.025,1.275    c-0.324,0.477-0.583,0.996-0.771,1.542c-0.245,0.483-0.417,1-0.508,1.534c-0.1,0.564-0.157,1.135-0.171,1.708    c0.012,1.115,0.243,2.216,0.679,3.242c0.78,2.141,2.467,3.828,4.608,4.608c3.176,1.362,6.862,0.653,9.305-1.791    c0.751-0.832,1.357-1.784,1.792-2.817c0.478-1.012,0.712-2.123,0.683-3.242C85.318,76.227,85.261,75.656,85.163,75.092z"/>
	</g>
</g>
<g>
	<g>
		<path d="M170.667,68.267h-59.733c-4.713,0-8.533,3.82-8.533,8.533s3.82,8.533,8.533,8.533h59.733c4.713,0,8.533-3.82,8.533-8.533    S175.38,68.267,170.667,68.267z"/>
	</g>
</g>
<g>
	<g>
		<path d="M84.65,431.958c-1.665-4.336-6.529-6.5-10.865-4.835c-1.15,0.442-2.189,1.131-3.044,2.018    c-0.755,0.829-1.363,1.782-1.796,2.817c-1.835,4.293,0.157,9.26,4.45,11.095c1.076,0.46,2.235,0.691,3.405,0.68    c4.665,0.048,8.485-3.694,8.533-8.358C85.345,434.201,85.113,433.037,84.65,431.958z"/>
	</g>
</g>
<g>
	<g>
		<path d="M170.667,426.667h-59.733c-4.713,0-8.533,3.82-8.533,8.533s3.82,8.533,8.533,8.533h59.733c4.713,0,8.533-3.82,8.533-8.533    S175.38,426.667,170.667,426.667z"/>
	</g>
</g>
<g>
	<g>
		<path d="M408.917,218.625c-0.433-1.034-1.039-1.986-1.792-2.817c-0.83-0.753-1.783-1.359-2.817-1.792    c-3.181-1.299-6.829-0.596-9.3,1.792c-0.755,0.829-1.363,1.782-1.796,2.817c-1.849,4.337,0.167,9.351,4.504,11.2    c4.337,1.849,9.351-0.167,11.2-4.504C409.829,223.182,409.829,220.764,408.917,218.625z"/>
	</g>
</g>
<g>
	<g>
		<path d="M443.05,218.625c-0.433-1.034-1.039-1.987-1.791-2.817c-0.83-0.753-1.783-1.359-2.817-1.792c-2.069-0.9-4.419-0.9-6.487,0    c-1.044,0.412-1.998,1.02-2.813,1.792c-0.755,0.829-1.363,1.782-1.796,2.817c-1.357,3.176-0.646,6.858,1.795,9.301    c0.829,0.753,1.78,1.359,2.813,1.792c2.067,0.911,4.421,0.911,6.487,0c1.034-0.433,1.987-1.039,2.817-1.792    C443.702,225.484,444.412,221.8,443.05,218.625z"/>
	</g>
</g>
<g>
	<g>
		<path d="M477.183,218.625c-0.433-1.034-1.039-1.987-1.791-2.817c-0.816-0.771-1.772-1.379-2.817-1.792    c-2.069-0.9-4.419-0.9-6.487,0c-1.044,0.412-1.998,1.02-2.813,1.792c-0.755,0.829-1.363,1.782-1.796,2.817    c-1.357,3.176-0.646,6.858,1.795,9.301c0.829,0.753,1.78,1.359,2.813,1.792c2.067,0.911,4.421,0.911,6.487,0    c1.034-0.433,1.987-1.039,2.817-1.792C477.835,225.484,478.545,221.8,477.183,218.625z"/>
	</g>
</g>
<g>
	<g>
		<path d="M477.183,252.758c-0.413-1.044-1.021-2-1.791-2.817c-2.457-2.418-6.125-3.125-9.304-1.792    c-2.141,0.78-3.828,2.467-4.608,4.608c-0.436,1.026-0.667,2.128-0.68,3.243c-0.029,1.119,0.204,2.229,0.679,3.242    c0.78,2.141,2.467,3.828,4.608,4.608c2.067,0.911,4.421,0.911,6.487,0c1.034-0.433,1.987-1.039,2.817-1.792    c0.751-0.832,1.357-1.784,1.792-2.817c0.478-1.012,0.712-2.122,0.683-3.241C477.853,254.885,477.621,253.784,477.183,252.758z"/>
	</g>
</g>
<g>
	<g>
		<path d="M437.938,330.158c-3.61-3.276-8.428-4.89-13.283-4.45c-15.582,1.427-30.367-7.139-36.879-21.367    c-1.58-4.441-6.46-6.761-10.902-5.182c-2.419,0.86-4.322,2.763-5.182,5.182c-5.862,13.251-19.07,21.723-33.558,21.525    c-1.125,0-2.233-0.05-3.292-0.15c-4.866-0.472-9.704,1.143-13.313,4.442c-3.683,3.347-5.787,8.09-5.796,13.067v54.642    c0.05,17.939,7.798,34.994,21.275,46.833c11.846,10.404,27.083,16.126,42.85,16.091c2.743-0.002,5.483-0.175,8.204-0.517    c32.084-4.369,55.925-31.896,55.671-64.275v-52.775C443.724,338.248,441.62,333.505,437.938,330.158z M426.667,396    c0.264,23.776-17.173,44.048-40.721,47.342c-13.604,1.742-27.304-2.419-37.642-11.433c-9.808-8.601-15.454-20.997-15.504-34.042    l0.438-55.158c1.604,0.142,3.237,0.225,4.896,0.225c15.967-0.067,31.13-7.02,41.6-19.075c10.47,12.055,25.633,19.008,41.6,19.075    c1.783-0.084,3.57,0.014,5.333,0.292V396z"/>
	</g>
</g>
<g>
</g>
<g>
</g>
<g>
</g>
<g>
</g>
<g>
</g>
<g>
</g>
<g>
</g>
<g>
</g>
<g>
</g>
<g>
</g>
<g>
</g>
<g>
</g>
<g>
</g>
<g>
</g>
<g>
</g>
</svg>
