<?xml version="1.0" encoding="iso-8859-1"?>
<!-- Generator: Adobe Illustrator 19.0.0, SVG Export Plug-In . SVG Version: 6.00 Build 0)  -->
<svg xmlns="http://www.w3.org/2000/svg" xmlns:xlink="http://www.w3.org/1999/xlink" version="1.1" id="Layer_1" x="0px" y="0px" viewBox="0 0 512 512" style="enable-background:new 0 0 512 512;" xml:space="preserve">
<g>
	<g>
		<path d="M486.4,213.333h-8.533V204.8c-0.033-10.813-6.868-20.435-17.067-24.028v-35.706c-0.012-9.421-7.646-17.054-17.067-17.067    h-17.067c-9.421,0.012-17.054,7.646-17.067,17.067v35.706c-10.199,3.592-17.033,13.214-17.067,24.028v8.533h-81.8l-20.6-20.6    V179.2h76.8c14.132-0.015,25.585-11.468,25.6-25.6v-128c-0.015-14.132-11.468-25.585-25.6-25.6H145.067    c-14.132,0.015-25.585,11.468-25.6,25.6v128c0.015,14.132,11.468,25.585,25.6,25.6h76.8v13.533l-20.6,20.6h-90.333V204.8    c-0.015-14.132-11.468-25.585-25.6-25.6H42.667c-14.132,0.015-25.585,11.468-25.6,25.6v10.106    C6.868,218.498,0.033,228.12,0,238.933v264.533C0,508.18,3.82,512,8.533,512s8.533-3.82,8.533-8.533V486.4h119.467v17.067    c0,4.713,3.82,8.533,8.533,8.533s8.533-3.82,8.533-8.533v-85.333h204.8v85.333c0,4.713,3.82,8.533,8.533,8.533    s8.533-3.82,8.533-8.533V486.4h119.467v17.067c0,4.713,3.82,8.533,8.533,8.533s8.533-3.82,8.533-8.533V238.933    C511.985,224.801,500.532,213.349,486.4,213.333z M426.667,145.067h17.067V179.2h-17.067V145.067z M409.6,204.8    c0.003-4.711,3.822-8.53,8.533-8.533h34.133c4.712,0.003,8.53,3.822,8.533,8.533v8.533h-51.2V204.8z M145.067,162.133    c-4.711-0.003-8.53-3.822-8.533-8.533v-128c0.003-4.711,3.822-8.53,8.533-8.533h221.867c4.711,0.003,8.53,3.822,8.533,8.533v128    c-0.003,4.711-3.822,8.53-8.533,8.533H145.067z M275.567,202.3l11.033,11.034h-61.2l11.033-11.034c1.601-1.6,2.5-3.77,2.5-6.033    V179.2h34.133v17.067C273.066,198.53,273.966,200.7,275.567,202.3z M34.133,204.8c0.003-4.711,3.822-8.53,8.533-8.533h42.667    c4.712,0.003,8.53,3.822,8.533,8.533v8.533H34.133V204.8z M136.533,469.333H17.067v-51.2h119.467V469.333z M136.533,401.067    H17.067v-51.2h119.467V401.067z M136.533,332.8H17.067v-51.2h119.467V332.8z M358.4,401.067H153.6V281.6h204.8V401.067z     M494.933,469.333H375.467v-51.2h119.467V469.333z M494.933,401.067H375.467v-51.2h119.467V401.067z M494.933,332.8H375.467v-51.2    h119.467V332.8z M494.933,264.533H17.067v-25.6c0.003-4.711,3.822-8.53,8.533-8.533h460.8c4.711,0.003,8.53,3.822,8.533,8.533    V264.533z"/>
	</g>
</g>
<g>
	<g>
		<path d="M85.333,298.667H68.267c-4.713,0-8.533,3.82-8.533,8.533s3.82,8.533,8.533,8.533h17.067c4.713,0,8.533-3.82,8.533-8.533    S90.046,298.667,85.333,298.667z"/>
	</g>
</g>
<g>
	<g>
		<path d="M85.333,366.933H68.267c-4.713,0-8.533,3.82-8.533,8.533S63.554,384,68.267,384h17.067c4.713,0,8.533-3.82,8.533-8.533    S90.046,366.933,85.333,366.933z"/>
	</g>
</g>
<g>
	<g>
		<path d="M85.333,435.2H68.267c-4.713,0-8.533,3.82-8.533,8.533s3.82,8.533,8.533,8.533h17.067c4.713,0,8.533-3.82,8.533-8.533    S90.046,435.2,85.333,435.2z"/>
	</g>
</g>
<g>
	<g>
		<path d="M443.733,298.667h-17.067c-4.713,0-8.533,3.82-8.533,8.533s3.82,8.533,8.533,8.533h17.067c4.713,0,8.533-3.82,8.533-8.533    S448.446,298.667,443.733,298.667z"/>
	</g>
</g>
<g>
	<g>
		<path d="M443.733,366.933h-17.067c-4.713,0-8.533,3.82-8.533,8.533s3.82,8.533,8.533,8.533h17.067c4.713,0,8.533-3.82,8.533-8.533    S448.446,366.933,443.733,366.933z"/>
	</g>
</g>
<g>
	<g>
		<path d="M443.733,435.2h-17.067c-4.713,0-8.533,3.82-8.533,8.533s3.82,8.533,8.533,8.533h17.067c4.713,0,8.533-3.82,8.533-8.533    S448.446,435.2,443.733,435.2z"/>
	</g>
</g>
<g>
	<g>
		<path d="M185.236,36.636c-0.001-0.001-0.002-0.002-0.003-0.003c-3.33-3.332-8.732-3.333-12.064-0.003    c-0.001,0.001-0.002,0.002-0.003,0.003L156.1,53.7c-3.353,3.311-3.387,8.714-0.076,12.066c3.311,3.353,8.713,3.387,12.066,0.076    c0.025-0.025,0.051-0.05,0.076-0.076L185.233,48.7C188.565,45.369,188.566,39.968,185.236,36.636z"/>
	</g>
</g>
<g>
	<g>
		<path d="M236.436,36.636c-0.001-0.001-0.002-0.002-0.003-0.003c-3.33-3.332-8.732-3.333-12.064-0.003    c-0.001,0.001-0.002,0.002-0.003,0.003l-51.2,51.2c-3.353,3.311-3.387,8.713-0.076,12.066c3.311,3.353,8.713,3.387,12.066,0.076    c0.025-0.025,0.051-0.05,0.076-0.076l51.2-51.2C239.765,45.369,239.766,39.968,236.436,36.636z"/>
	</g>
</g>
<g>
</g>
<g>
</g>
<g>
</g>
<g>
</g>
<g>
</g>
<g>
</g>
<g>
</g>
<g>
</g>
<g>
</g>
<g>
</g>
<g>
</g>
<g>
</g>
<g>
</g>
<g>
</g>
<g>
</g>
</svg>
