<?xml version="1.0" encoding="iso-8859-1"?>
<!-- Generator: Adobe Illustrator 19.0.0, SVG Export Plug-In . SVG Version: 6.00 Build 0)  -->
<svg xmlns="http://www.w3.org/2000/svg" xmlns:xlink="http://www.w3.org/1999/xlink" version="1.1" id="Layer_1" x="0px" y="0px" viewBox="0 0 512 512" style="enable-background:new 0 0 512 512;" xml:space="preserve">
<g>
	<g>
		<path d="M486.4,213.333h-98.867l-20.6-20.6V179.2h76.8c14.132-0.015,25.585-11.468,25.6-25.6v-128    c-0.015-14.132-11.468-25.585-25.6-25.6H221.867c-14.132,0.015-25.585,11.468-25.6,25.6v128c0.015,14.132,11.468,25.585,25.6,25.6    h76.8v13.533l-20.6,20.6H153.6V51.2c0.003-4.71-3.813-8.531-8.523-8.533c-0.003,0-0.007,0-0.01,0h-102.4    c-4.71-0.003-8.531,3.813-8.533,8.523c0,0.003,0,0.007,0,0.01v162.133H25.6c-14.132,0.015-25.585,11.468-25.6,25.6v264.533    C0,508.18,3.82,512,8.533,512s8.533-3.82,8.533-8.533V486.4h153.6v17.067c0,4.713,3.82,8.533,8.533,8.533s8.533-3.82,8.533-8.533    v-85.333h307.2v85.333c0,4.713,3.82,8.533,8.533,8.533s8.533-3.82,8.533-8.533V238.933    C511.985,224.801,500.532,213.349,486.4,213.333z M221.867,162.133c-4.712-0.003-8.53-3.822-8.533-8.533v-128    c0.003-4.711,3.822-8.53,8.533-8.533h221.867c4.711,0.003,8.53,3.822,8.533,8.533v128c-0.003,4.711-3.822,8.53-8.533,8.533    H221.867z M352.367,202.3l11.033,11.034h-61.2l11.033-11.034c1.601-1.6,2.5-3.77,2.5-6.033V179.2h34.133v17.067    C349.867,198.53,350.766,200.7,352.367,202.3z M51.2,59.733h85.333v153.6H51.2V59.733z M170.667,469.333h-153.6v-51.2h153.6    V469.333z M170.667,401.067h-153.6v-51.2h153.6V401.067z M170.667,332.8h-153.6v-51.2h153.6V332.8z M494.933,401.067h-307.2V281.6    h307.2V401.067z M494.933,264.533H17.067v-25.6c0.003-4.711,3.822-8.53,8.533-8.533h460.8c4.711,0.003,8.53,3.822,8.533,8.533    V264.533z"/>
	</g>
</g>
<g>
	<g>
		<path d="M102.4,298.667H85.333c-4.713,0-8.533,3.82-8.533,8.533s3.82,8.533,8.533,8.533H102.4c4.713,0,8.533-3.82,8.533-8.533    S107.113,298.667,102.4,298.667z"/>
	</g>
</g>
<g>
	<g>
		<path d="M102.4,366.933H85.333c-4.713,0-8.533,3.82-8.533,8.533S80.62,384,85.333,384H102.4c4.713,0,8.533-3.82,8.533-8.533    S107.113,366.933,102.4,366.933z"/>
	</g>
</g>
<g>
	<g>
		<path d="M102.4,435.2H85.333c-4.713,0-8.533,3.82-8.533,8.533s3.82,8.533,8.533,8.533H102.4c4.713,0,8.533-3.82,8.533-8.533    S107.113,435.2,102.4,435.2z"/>
	</g>
</g>
<g>
	<g>
		<path d="M110.933,76.8H76.8c-4.713,0-8.533,3.82-8.533,8.533s3.82,8.533,8.533,8.533h34.133c4.713,0,8.533-3.821,8.533-8.533    S115.646,76.8,110.933,76.8z"/>
	</g>
</g>
<g>
	<g>
		<path d="M110.933,110.933H76.8c-4.713,0-8.533,3.82-8.533,8.533S72.087,128,76.8,128h34.133c4.713,0,8.533-3.82,8.533-8.533    S115.646,110.933,110.933,110.933z"/>
	</g>
</g>
<g>
	<g>
		<path d="M93.867,145.067c-14.139,0-25.6,11.462-25.6,25.6s11.461,25.6,25.6,25.6c14.138,0,25.6-11.461,25.6-25.6    C119.451,156.535,107.999,145.082,93.867,145.067z M93.867,179.2c-4.713,0-8.533-3.82-8.533-8.533s3.82-8.533,8.533-8.533    c4.713,0,8.533,3.82,8.533,8.533C102.397,175.378,98.578,179.197,93.867,179.2z"/>
	</g>
</g>
<g>
	<g>
		<path d="M262.036,36.636c-0.001-0.001-0.002-0.002-0.003-0.003c-3.33-3.332-8.732-3.333-12.064-0.003    c-0.001,0.001-0.002,0.002-0.003,0.003L232.9,53.7c-3.353,3.311-3.387,8.714-0.076,12.066s8.713,3.387,12.066,0.076    c0.025-0.025,0.051-0.05,0.076-0.076L262.033,48.7C265.365,45.369,265.366,39.968,262.036,36.636z"/>
	</g>
</g>
<g>
	<g>
		<path d="M313.236,36.636c-0.001-0.001-0.002-0.002-0.003-0.003c-3.33-3.332-8.732-3.333-12.064-0.003    c-0.001,0.001-0.002,0.002-0.003,0.003l-51.2,51.2c-3.353,3.311-3.388,8.713-0.077,12.066c3.311,3.353,8.713,3.388,12.066,0.077    c0.026-0.026,0.052-0.051,0.077-0.077l51.2-51.2C316.565,45.369,316.566,39.968,313.236,36.636z"/>
	</g>
</g>
<g>
</g>
<g>
</g>
<g>
</g>
<g>
</g>
<g>
</g>
<g>
</g>
<g>
</g>
<g>
</g>
<g>
</g>
<g>
</g>
<g>
</g>
<g>
</g>
<g>
</g>
<g>
</g>
<g>
</g>
</svg>
