<?xml version="1.0" encoding="iso-8859-1"?>
<!-- Generator: Adobe Illustrator 19.0.0, SVG Export Plug-In . SVG Version: 6.00 Build 0)  -->
<svg xmlns="http://www.w3.org/2000/svg" xmlns:xlink="http://www.w3.org/1999/xlink" version="1.1" id="Layer_1" x="0px" y="0px" viewBox="0 0 512 512" style="enable-background:new 0 0 512 512;" xml:space="preserve">
<g>
	<g>
		<path d="M149.333,277.333c-40.059,0-72.533,32.474-72.533,72.533c0,40.059,32.474,72.533,72.533,72.533    c40.059,0,72.533-32.474,72.533-72.533C221.819,309.827,189.373,277.381,149.333,277.333z M149.333,405.333    c-30.633,0-55.467-24.833-55.467-55.467c0-30.633,24.833-55.467,55.467-55.467c30.633,0,55.467,24.833,55.467,55.467    C204.765,380.485,179.952,405.298,149.333,405.333z"/>
	</g>
</g>
<g>
	<g>
		<path d="M149.343,311.467c-0.003,0-0.007,0-0.01,0c-21.198,0.023-38.377,17.202-38.4,38.4c0,4.713,3.82,8.533,8.533,8.533    s8.533-3.821,8.533-8.533c0.011-11.778,9.556-21.322,21.333-21.333c4.71,0.003,8.531-3.813,8.533-8.523c0-0.003,0-0.007,0-0.01    C157.869,315.29,154.053,311.469,149.343,311.467z"/>
	</g>
</g>
<g>
	<g>
		<path d="M169.983,359.425c-0.411-1.045-1.02-2.001-1.791-2.817c-3.421-3.158-8.695-3.158-12.117,0    c-0.754,0.829-1.36,1.782-1.792,2.817c-0.911,2.065-0.911,4.418,0,6.483c0.434,1.034,1.04,1.986,1.792,2.817    c2.441,2.444,6.125,3.154,9.3,1.792c2.143-0.777,3.831-2.465,4.608-4.608C170.894,363.844,170.894,361.49,169.983,359.425z"/>
	</g>
</g>
<g>
	<g>
		<path d="M290.143,302.933c-0.003,0-0.007,0-0.01,0c-4.71-0.003-8.531,3.813-8.533,8.523c0,0.003,0,0.007,0,0.01v76.8    c0,4.713,3.82,8.533,8.533,8.533s8.533-3.82,8.533-8.533v-76.8C298.669,306.757,294.853,302.936,290.143,302.933z"/>
	</g>
</g>
<g>
	<g>
		<path d="M324.277,302.933c-0.003,0-0.007,0-0.01,0c-4.71-0.003-8.531,3.813-8.533,8.523c0,0.003,0,0.007,0,0.01v76.8    c0,4.713,3.82,8.533,8.533,8.533s8.533-3.82,8.533-8.533v-76.8C332.803,306.757,328.987,302.936,324.277,302.933z"/>
	</g>
</g>
<g>
	<g>
		<path d="M358.41,302.933c-0.003,0-0.007,0-0.01,0c-4.71-0.003-8.531,3.813-8.533,8.523c0,0.003,0,0.007,0,0.01v76.8    c0,4.713,3.82,8.533,8.533,8.533s8.533-3.82,8.533-8.533v-76.8C366.936,306.757,363.12,302.936,358.41,302.933z"/>
	</g>
</g>
<g>
	<g>
		<path d="M392.543,302.933c-0.003,0-0.007,0-0.01,0c-4.71-0.003-8.531,3.813-8.533,8.523c0,0.003,0,0.007,0,0.01v76.8    c0,4.713,3.821,8.533,8.533,8.533c4.713,0,8.533-3.82,8.533-8.533v-76.8C401.069,306.757,397.253,302.936,392.543,302.933z"/>
	</g>
</g>
<g>
	<g>
		<path d="M426.677,302.933c-0.003,0-0.007,0-0.01,0c-4.71-0.003-8.531,3.813-8.533,8.523c0,0.003,0,0.007,0,0.01v76.8    c0,4.713,3.82,8.533,8.533,8.533s8.533-3.82,8.533-8.533v-76.8C435.203,306.757,431.387,302.936,426.677,302.933z"/>
	</g>
</g>
<g>
	<g>
		<path d="M460.81,302.933c-0.003,0-0.007,0-0.01,0c-4.71-0.003-8.531,3.813-8.533,8.523c0,0.003,0,0.007,0,0.01v76.8    c0,4.713,3.821,8.533,8.533,8.533s8.533-3.82,8.533-8.533v-76.8C469.336,306.757,465.52,302.936,460.81,302.933z"/>
	</g>
</g>
<g>
	<g>
		<path d="M511.382,280.402c0.869-2.177,0.794-4.616-0.207-6.735L406.092,52.992c-4.267-8.897-13.249-14.567-23.117-14.592h-253.95    c-9.867,0.025-18.85,5.695-23.117,14.592L0.825,273.667c-1.001,2.119-1.076,4.559-0.207,6.735    c-0.402,1.794-0.609,3.626-0.618,5.465v128c0.033,10.813,6.868,20.435,17.067,24.027V448c0,14.138,11.462,25.6,25.6,25.6    s25.6-11.461,25.6-25.6v-8.533h23.402c35.076,22.756,80.254,22.756,115.33,0h236.735V448c0,14.138,11.462,25.6,25.6,25.6    s25.6-11.461,25.6-25.6v-10.106c10.199-3.592,17.033-13.214,17.067-24.028v-128C511.992,284.028,511.785,282.196,511.382,280.402z     M121.325,60.325c1.421-2.963,4.414-4.851,7.7-4.858h253.95c3.286,0.007,6.279,1.895,7.7,4.858l95.211,199.942H206.998    c-35.076-22.756-80.254-22.756-115.33,0H26.115L121.325,60.325z M51.2,448c0,4.713-3.82,8.533-8.533,8.533    s-8.533-3.82-8.533-8.533v-8.533H51.2V448z M59.733,422.4H25.6c-4.711-0.003-8.53-3.822-8.533-8.533v-128    c0.003-4.711,3.822-8.53,8.533-8.533h45.747c-38.241,40.795-38.241,104.272,0,145.067H59.733z M149.333,439.467    c-49.462-0.054-89.546-40.138-89.6-89.6c0-49.485,40.115-89.6,89.6-89.6c49.485,0,89.6,40.115,89.6,89.6    C238.933,399.351,198.818,439.467,149.333,439.467z M477.867,448c0,4.713-3.82,8.533-8.533,8.533s-8.533-3.82-8.533-8.533v-8.533    h17.067V448z M494.933,413.867c-0.003,4.712-3.822,8.53-8.533,8.533H227.319c38.241-40.795,38.241-104.272,0-145.067H486.4    c4.711,0.003,8.53,3.822,8.533,8.533V413.867z"/>
	</g>
</g>
<g>
	<g>
		<path d="M320,166.4c-26.317,0-46.933,14.992-46.933,34.133c0,19.142,20.617,34.133,46.933,34.133    c26.317,0,46.933-14.992,46.933-34.133C366.933,181.392,346.317,166.4,320,166.4z M320,217.6c-17.6,0-29.867-8.992-29.867-17.067    S302.4,183.467,320,183.467c17.6,0,29.867,8.992,29.867,17.067S337.6,217.6,320,217.6z"/>
	</g>
</g>
<g>
	<g>
		<path d="M401.067,226.133H384c-4.713,0-8.533,3.821-8.533,8.533c0,4.713,3.82,8.533,8.533,8.533h17.067    c4.713,0,8.533-3.821,8.533-8.533C409.6,229.954,405.78,226.133,401.067,226.133z"/>
	</g>
</g>
<g>
	<g>
		<path d="M401.067,157.867H384c-4.713,0-8.533,3.82-8.533,8.533s3.82,8.533,8.533,8.533h17.067c4.713,0,8.533-3.821,8.533-8.533    S405.78,157.867,401.067,157.867z"/>
	</g>
</g>
<g>
	<g>
		<path d="M409.6,192h-17.067c-4.713,0-8.533,3.82-8.533,8.533s3.821,8.533,8.533,8.533H409.6c4.713,0,8.533-3.82,8.533-8.533    S414.313,192,409.6,192z"/>
	</g>
</g>
<g>
</g>
<g>
</g>
<g>
</g>
<g>
</g>
<g>
</g>
<g>
</g>
<g>
</g>
<g>
</g>
<g>
</g>
<g>
</g>
<g>
</g>
<g>
</g>
<g>
</g>
<g>
</g>
<g>
</g>
</svg>
