<?xml version="1.0" encoding="iso-8859-1"?>
<!-- Generator: Adobe Illustrator 19.0.0, SVG Export Plug-In . SVG Version: 6.00 Build 0)  -->
<svg xmlns="http://www.w3.org/2000/svg" xmlns:xlink="http://www.w3.org/1999/xlink" version="1.1" id="Layer_1" x="0px" y="0px" viewBox="0 0 512 512" style="enable-background:new 0 0 512 512;" xml:space="preserve">
<g>
	<g>
		<path d="M392.533,0H119.467c-9.421,0.012-17.054,7.646-17.067,17.067v477.867c0.012,9.421,7.646,17.054,17.067,17.067h273.067    c9.421-0.012,17.054-7.646,17.067-17.067V17.067C409.588,7.646,401.954,0.012,392.533,0z M119.467,17.067h273.067l0.01,281.6    h-87.595c-18.775-27.033-55.91-33.728-82.943-14.953c-5.836,4.053-10.9,9.117-14.953,14.953h-87.585V17.067z M298.667,332.8    c0,23.564-19.103,42.667-42.667,42.667s-42.667-19.102-42.667-42.667c0-23.564,19.102-42.667,42.667-42.667    C279.553,290.161,298.639,309.247,298.667,332.8z M119.467,494.933v-179.2h79.316c-9.474,31.6,8.463,64.897,40.063,74.371    c31.6,9.474,64.897-8.463,74.371-40.063c3.355-11.19,3.355-23.118,0-34.308h79.327l0.007,179.2H119.467z"/>
	</g>
</g>
<g>
	<g>
		<path d="M349.867,34.133H162.133c-14.132,0.015-25.585,11.468-25.6,25.6v8.533c0.015,14.132,11.468,25.585,25.6,25.6h187.733    c14.132-0.015,25.585-11.468,25.6-25.6v-8.533C375.451,45.601,363.999,34.149,349.867,34.133z M358.4,68.267    c-0.003,4.711-3.822,8.53-8.533,8.533H162.133c-4.712-0.003-8.53-3.822-8.533-8.533v-8.533c0.003-4.711,3.822-8.53,8.533-8.533    h187.733c4.711,0.003,8.53,3.822,8.533,8.533V68.267z"/>
	</g>
</g>
<g>
	<g>
		<path d="M349.867,110.933H162.133c-14.132,0.015-25.585,11.468-25.6,25.6v8.533c0.015,14.132,11.468,25.585,25.6,25.6h187.733    c14.132-0.015,25.585-11.468,25.6-25.6v-8.533C375.451,122.401,363.999,110.949,349.867,110.933z M358.4,145.067    c-0.003,4.712-3.822,8.53-8.533,8.533H162.133c-4.712-0.003-8.53-3.822-8.533-8.533v-8.533c0.003-4.711,3.822-8.53,8.533-8.533    h187.733c4.711,0.003,8.53,3.822,8.533,8.533V145.067z"/>
	</g>
</g>
<g>
	<g>
		<path d="M349.867,187.733H162.133c-14.132,0.015-25.585,11.468-25.6,25.6v8.533c0.015,14.132,11.468,25.585,25.6,25.6h187.733    c14.132-0.015,25.585-11.468,25.6-25.6v-8.533C375.451,199.201,363.999,187.749,349.867,187.733z M358.4,221.867    c-0.003,4.711-3.822,8.53-8.533,8.533H162.133c-4.712-0.003-8.53-3.822-8.533-8.533v-8.533c0.003-4.712,3.822-8.53,8.533-8.533    h187.733c4.711,0.003,8.53,3.822,8.533,8.533V221.867z"/>
	</g>
</g>
<g>
	<g>
		<path d="M256,307.2c-14.138,0-25.6,11.462-25.6,25.6c0,14.138,11.461,25.6,25.6,25.6c14.139,0,25.6-11.462,25.6-25.6    C281.585,318.668,270.132,307.215,256,307.2z M256,341.333c-4.713,0-8.533-3.821-8.533-8.533c0-4.713,3.82-8.533,8.533-8.533    c4.713,0,8.533,3.821,8.533,8.533C264.53,337.512,260.712,341.33,256,341.333z"/>
	</g>
</g>
<g>
	<g>
		<path d="M153.61,409.6c-0.003,0-0.007,0-0.01,0c-4.71-0.003-8.531,3.813-8.533,8.523c0,0.003,0,0.007,0,0.01v51.2    c0,4.713,3.821,8.533,8.533,8.533c4.713,0,8.533-3.82,8.533-8.533v-51.2C162.136,413.423,158.32,409.603,153.61,409.6z"/>
	</g>
</g>
<g>
	<g>
		<path d="M187.743,409.6c-0.003,0-0.007,0-0.01,0c-4.71-0.003-8.531,3.813-8.533,8.523c0,0.003,0,0.007,0,0.01v51.2    c0,4.713,3.82,8.533,8.533,8.533s8.533-3.82,8.533-8.533v-51.2C196.269,413.423,192.453,409.603,187.743,409.6z"/>
	</g>
</g>
<g>
	<g>
		<path d="M221.877,409.6c-0.003,0-0.007,0-0.01,0c-4.71-0.003-8.531,3.813-8.533,8.523c0,0.003,0,0.007,0,0.01v51.2    c0,4.713,3.82,8.533,8.533,8.533s8.533-3.82,8.533-8.533v-51.2C230.403,413.423,226.587,409.603,221.877,409.6z"/>
	</g>
</g>
<g>
	<g>
		<path d="M256.01,409.6c-0.003,0-0.007,0-0.01,0c-4.71-0.003-8.531,3.813-8.533,8.523c0,0.003,0,0.007,0,0.01v51.2    c0,4.713,3.82,8.533,8.533,8.533c4.713,0,8.533-3.82,8.533-8.533v-51.2C264.536,413.423,260.72,409.603,256.01,409.6z"/>
	</g>
</g>
<g>
	<g>
		<path d="M290.143,409.6c-0.003,0-0.007,0-0.01,0c-4.71-0.003-8.531,3.813-8.533,8.523c0,0.003,0,0.007,0,0.01v51.2    c0,4.713,3.82,8.533,8.533,8.533s8.533-3.82,8.533-8.533v-51.2C298.669,413.423,294.853,409.603,290.143,409.6z"/>
	</g>
</g>
<g>
	<g>
		<path d="M324.277,409.6c-0.003,0-0.007,0-0.01,0c-4.71-0.003-8.531,3.813-8.533,8.523c0,0.003,0,0.007,0,0.01v51.2    c0,4.713,3.82,8.533,8.533,8.533s8.533-3.82,8.533-8.533v-51.2C332.803,413.423,328.987,409.603,324.277,409.6z"/>
	</g>
</g>
<g>
	<g>
		<path d="M358.41,409.6c-0.003,0-0.007,0-0.01,0c-4.71-0.003-8.531,3.813-8.533,8.523c0,0.003,0,0.007,0,0.01v51.2    c0,4.713,3.82,8.533,8.533,8.533s8.533-3.82,8.533-8.533v-51.2C366.936,413.423,363.12,409.603,358.41,409.6z"/>
	</g>
</g>
<g>
	<g>
		<path d="M178.517,346.625c-0.412-1.045-1.02-2.001-1.792-2.817c-2.455-2.417-6.122-3.124-9.3-1.792    c-1.045,0.412-2.001,1.02-2.817,1.792c-1.561,1.634-2.445,3.799-2.475,6.058c0,4.713,3.82,8.533,8.533,8.533    s8.533-3.82,8.533-8.533C179.186,348.752,178.954,347.651,178.517,346.625z"/>
	</g>
</g>
<g>
	<g>
		<path d="M349.184,346.625L349.184,346.625c-0.412-1.045-1.021-2.001-1.793-2.817c-3.421-3.158-8.695-3.158-12.117,0    c-0.772,0.816-1.38,1.772-1.792,2.817c-0.437,1.026-0.669,2.127-0.683,3.242c0.045,4.758,3.939,8.578,8.697,8.533    c1.054-0.01,2.097-0.213,3.078-0.6c1.037-0.464,1.989-1.097,2.817-1.875C349.836,353.484,350.546,349.8,349.184,346.625z"/>
	</g>
</g>
<g>
</g>
<g>
</g>
<g>
</g>
<g>
</g>
<g>
</g>
<g>
</g>
<g>
</g>
<g>
</g>
<g>
</g>
<g>
</g>
<g>
</g>
<g>
</g>
<g>
</g>
<g>
</g>
<g>
</g>
</svg>
