<?xml version="1.0" encoding="iso-8859-1"?>
<!-- Generator: Adobe Illustrator 19.0.0, SVG Export Plug-In . SVG Version: 6.00 Build 0)  -->
<svg xmlns="http://www.w3.org/2000/svg" xmlns:xlink="http://www.w3.org/1999/xlink" version="1.1" id="Layer_1" x="0px" y="0px" viewBox="0 0 512.034 512.034" style="enable-background:new 0 0 512.034 512.034;" xml:space="preserve">
<g>
	<g>
		<path d="M506.852,338.914c-0.252-0.876-0.513-1.75-0.783-2.621c3.802-4.575,5.898-10.328,5.931-16.276v-128    c-0.02-6.319-2.394-12.404-6.658-17.067c4.265-4.663,6.639-10.748,6.658-17.067v-128c-0.015-14.132-11.468-25.585-25.6-25.6H25.6    C11.468,4.299,0.015,15.751,0,29.884v128c0.02,6.319,2.394,12.404,6.658,17.067C2.394,179.613,0.02,185.698,0,192.017v128    c0.02,6.319,2.394,12.404,6.658,17.067C2.394,341.746,0.02,347.831,0,354.15v128c0.015,14.132,11.468,25.585,25.6,25.6h354.133    c12.344,0.032,24.631-1.688,36.492-5.108C486.463,482.456,527.038,409.152,506.852,338.914z M443.733,21.35H486.4    c4.711,0.003,8.53,3.822,8.533,8.533v128c-0.003,4.711-3.822,8.53-8.533,8.533h-42.667V21.35z M443.733,183.484H486.4    c4.711,0.003,8.53,3.822,8.533,8.533v118.696c-12.053-21.357-29.771-38.971-51.2-50.898V183.484z M85.333,21.35h341.333v145.067    H85.333V21.35z M85.333,183.484h341.333v68.493c-14.978-5.762-30.885-8.731-46.933-8.759    c-54.878,0.092-104.008,34.037-123.507,85.333H85.333V183.484z M68.267,490.684H25.6c-4.711-0.005-8.529-3.822-8.533-8.533v-128    c0.005-4.711,3.822-8.529,8.533-8.533h42.667V490.684z M68.267,328.55H25.6c-4.711-0.005-8.529-3.822-8.533-8.533v-128    c0.005-4.711,3.822-8.529,8.533-8.533h42.667V328.55z M68.267,166.417H25.6c-4.711-0.005-8.529-3.822-8.533-8.533v-128    c0.005-4.711,3.822-8.529,8.533-8.533h42.667V166.417z M85.333,490.684V345.617h165.661c-1.335,5.619-2.297,11.321-2.88,17.067    H110.933c-4.713,0-8.533,3.82-8.533,8.533s3.82,8.533,8.533,8.533h136.686c0.338,11.254,2.097,22.42,5.235,33.233    c9.773,33.018,32.071,60.904,62.13,77.7H85.333z M490.25,408.059c-3.36,11.421-8.48,22.248-15.175,32.092    c-35.653,52.467-107.089,66.098-159.556,30.444c-52.467-35.653-66.098-107.089-30.444-159.556    c35.653-52.467,107.089-66.098,159.556-30.444C485.922,308.653,504.361,360.171,490.25,408.059z"/>
	</g>
</g>
<g>
	<g>
		<path d="M50.517,43.709c-0.777-2.143-2.465-3.831-4.608-4.608c-3.182-1.291-6.826-0.59-9.301,1.791    c-0.773,0.815-1.383,1.772-1.796,2.817c-0.906,2.066-0.906,4.417,0,6.483c0.435,1.034,1.042,1.986,1.796,2.817    c2.441,2.444,6.125,3.154,9.3,1.792c1.034-0.433,1.987-1.039,2.817-1.792c0.751-0.832,1.357-1.784,1.792-2.817    C51.428,48.127,51.428,45.774,50.517,43.709z"/>
	</g>
</g>
<g>
	<g>
		<path d="M48.725,134.758c-3.319-3.346-8.722-3.368-12.068-0.05c-1.628,1.614-2.537,3.816-2.524,6.108    c-0.007,2.267,0.882,4.445,2.475,6.059c1.606,1.604,3.789,2.496,6.059,2.475c1.109,0.015,2.211-0.189,3.242-0.6    c1.037-0.463,1.99-1.096,2.817-1.875c0.751-0.832,1.357-1.784,1.792-2.817c0.478-1.012,0.712-2.123,0.683-3.242    C51.167,138.558,50.283,136.395,48.725,134.758z"/>
	</g>
</g>
<g>
	<g>
		<path d="M477.184,43.709c-0.412-1.045-1.02-2.001-1.792-2.817c-0.831-0.752-1.783-1.358-2.817-1.792c-2.067-0.9-4.416-0.9-6.483,0    c-2.143,0.777-3.831,2.465-4.608,4.608c-0.911,2.065-0.911,4.418,0,6.483c0.433,1.034,1.039,1.987,1.791,2.818    c2.441,2.444,6.125,3.154,9.3,1.792c1.034-0.434,1.986-1.039,2.817-1.792c0.752-0.831,1.358-1.783,1.792-2.817    C478.095,48.127,478.095,45.774,477.184,43.709z"/>
	</g>
</g>
<g>
	<g>
		<path d="M475.392,134.758c-2.05-2.002-4.956-2.866-7.767-2.308c-0.534,0.096-1.05,0.271-1.533,0.517    c-0.546,0.184-1.065,0.442-1.542,0.767c-0.445,0.316-0.871,0.658-1.275,1.025c-1.561,1.634-2.445,3.799-2.475,6.059    c-0.031,1.119,0.203,2.23,0.683,3.242c0.434,1.034,1.04,1.986,1.792,2.817c0.827,0.779,1.779,1.413,2.817,1.875    c3.2,1.248,6.834,0.516,9.3-1.875c0.752-0.831,1.358-1.783,1.792-2.817c0.437-1.026,0.669-2.127,0.683-3.242    C477.833,138.558,476.95,136.395,475.392,134.758z"/>
	</g>
</g>
<g>
	<g>
		<path d="M135.85,103.442c-0.433-1.034-1.039-1.986-1.791-2.817c-3.227-3.346-8.556-3.442-11.902-0.215    c-0.883,0.852-1.569,1.887-2.011,3.032c-0.436,1.026-0.667,2.127-0.68,3.242c-0.038,2.248,0.858,4.412,2.475,5.975    c1.575,1.659,3.771,2.587,6.059,2.558c3.448-0.007,6.55-2.098,7.85-5.292C136.761,107.86,136.761,105.507,135.85,103.442z"/>
	</g>
</g>
<g>
	<g>
		<path d="M161.45,120.509c-0.433-1.034-1.039-1.987-1.791-2.817c-3.399-3.214-8.717-3.214-12.117,0    c-0.755,0.829-1.363,1.782-1.796,2.817c-0.436,1.026-0.667,2.127-0.68,3.242c-0.029,1.119,0.204,2.229,0.679,3.242    c0.435,1.034,1.042,1.986,1.795,2.817c3.365,3.3,8.752,3.3,12.117,0c0.751-0.832,1.357-1.784,1.792-2.817    C162.361,124.927,162.361,122.574,161.45,120.509z"/>
	</g>
</g>
<g>
	<g>
		<path d="M128.05,132.234c-2.293-0.013-4.494,0.896-6.108,2.524c-1.559,1.635-2.443,3.799-2.475,6.059    c0.012,1.115,0.243,2.216,0.679,3.242c0.435,1.034,1.042,1.986,1.796,2.817c2.466,2.391,6.1,3.123,9.3,1.875    c1.038-0.463,1.99-1.097,2.817-1.875c0.751-0.832,1.357-1.784,1.792-2.817c0.437-1.026,0.669-2.127,0.683-3.242    C136.561,136.104,132.763,132.262,128.05,132.234z"/>
	</g>
</g>
<g>
	<g>
		<path d="M187.05,103.442c-0.413-1.044-1.021-2-1.791-2.817c-3.227-3.346-8.556-3.442-11.902-0.215    c-0.883,0.852-1.569,1.887-2.011,3.032c-0.436,1.026-0.667,2.127-0.68,3.242c-0.038,2.248,0.858,4.412,2.475,5.975    c1.575,1.659,3.771,2.587,6.059,2.558c3.448-0.007,6.55-2.098,7.85-5.292C187.961,107.86,187.961,105.507,187.05,103.442z"/>
	</g>
</g>
<g>
	<g>
		<path d="M212.65,120.509c-0.433-1.034-1.039-1.986-1.791-2.817c-3.399-3.214-8.717-3.214-12.117,0    c-0.773,0.815-1.383,1.772-1.796,2.817c-1.357,3.176-0.646,6.858,1.795,9.301c0.829,0.753,1.78,1.359,2.813,1.792    c1.014,0.477,2.126,0.71,3.246,0.683c4.665,0.048,8.485-3.694,8.533-8.358C213.345,122.751,213.113,121.588,212.65,120.509z"/>
	</g>
</g>
<g>
	<g>
		<path d="M185.259,134.758c-2.05-2.002-4.956-2.866-7.767-2.308c-0.535,0.096-1.053,0.27-1.538,0.517    c-0.543,0.185-1.059,0.443-1.533,0.767c-0.447,0.315-0.875,0.657-1.279,1.025c-1.559,1.635-2.443,3.799-2.475,6.059    c-0.007,2.267,0.882,4.445,2.475,6.059c0.826,0.778,1.776,1.412,2.813,1.875c2.089,0.8,4.399,0.8,6.487,0    c1.021-0.493,1.968-1.124,2.817-1.875c0.751-0.832,1.357-1.784,1.792-2.817c0.437-1.026,0.669-2.127,0.683-3.242    C187.717,138.555,186.831,136.385,185.259,134.758z"/>
	</g>
</g>
<g>
	<g>
		<path d="M238.25,103.442c-0.413-1.044-1.021-2-1.791-2.817c-3.227-3.346-8.556-3.442-11.902-0.215    c-0.883,0.852-1.569,1.887-2.011,3.032c-0.436,1.026-0.667,2.127-0.68,3.242c-0.038,2.248,0.858,4.412,2.475,5.975    c1.616,1.599,3.786,2.515,6.059,2.558c4.699-0.033,8.501-3.834,8.533-8.533C238.92,105.569,238.687,104.467,238.25,103.442z"/>
	</g>
</g>
<g>
	<g>
		<path d="M263.85,120.508c-0.777-2.143-2.465-3.831-4.608-4.608c-2.077-0.858-4.41-0.858-6.487,0    c-2.141,0.78-3.828,2.467-4.608,4.608c-1.357,3.176-0.647,6.858,1.794,9.301c1.606,1.604,3.789,2.496,6.059,2.475    c1.119,0.027,2.229-0.207,3.242-0.683c1.034-0.433,1.987-1.039,2.817-1.792C264.502,127.367,265.212,123.683,263.85,120.508z"/>
	</g>
</g>
<g>
	<g>
		<path d="M236.459,134.758c-0.407-0.366-0.834-0.708-1.279-1.025c-0.475-0.325-0.992-0.582-1.538-0.767    c-0.485-0.246-1.003-0.42-1.538-0.517c-2.81-0.558-5.714,0.305-7.763,2.308c-1.559,1.635-2.443,3.799-2.475,6.059    c0.012,1.115,0.243,2.216,0.679,3.242c0.435,1.034,1.042,1.986,1.796,2.817c2.466,2.391,6.1,3.123,9.3,1.875    c1.038-0.463,1.99-1.097,2.817-1.875c0.751-0.832,1.357-1.784,1.792-2.817c0.437-1.026,0.669-2.127,0.683-3.242    C238.9,138.558,238.016,136.395,236.459,134.758z"/>
	</g>
</g>
<g>
	<g>
		<path d="M289.45,103.442c-0.413-1.044-1.021-2-1.791-2.817c-0.407-0.366-0.834-0.708-1.279-1.025    c-0.475-0.325-0.992-0.582-1.538-0.767c-0.509-0.259-1.056-0.433-1.621-0.517c-2.78-0.476-5.623,0.379-7.68,2.308    c-0.773,0.815-1.383,1.772-1.796,2.817c-1.764,4.399,0.373,9.396,4.772,11.16c0.981,0.393,2.026,0.602,3.083,0.616    c4.699-0.033,8.501-3.834,8.533-8.533C290.12,105.569,289.888,104.467,289.45,103.442z"/>
	</g>
</g>
<g>
	<g>
		<path d="M315.051,120.509c-0.433-1.034-1.039-1.987-1.792-2.817c-0.802-0.789-1.762-1.399-2.817-1.792    c-3.181-1.299-6.829-0.596-9.3,1.792c-0.755,0.829-1.363,1.782-1.796,2.817c-1.788,4.363,0.299,9.35,4.662,11.138    c3.173,1.3,6.815,0.577,9.25-1.838c0.751-0.832,1.357-1.784,1.792-2.817C315.962,124.927,315.962,122.574,315.051,120.509z"/>
	</g>
</g>
<g>
	<g>
		<path d="M287.659,134.758c-2.05-2.002-4.956-2.866-7.767-2.308c-0.535,0.096-1.053,0.27-1.538,0.517    c-0.543,0.185-1.059,0.443-1.533,0.767c-0.447,0.315-0.874,0.657-1.279,1.025c-1.559,1.635-2.443,3.799-2.475,6.059    c0.012,1.115,0.243,2.216,0.679,3.242c0.435,1.034,1.042,1.986,1.796,2.817c0.826,0.778,1.776,1.412,2.813,1.875    c2.089,0.8,4.399,0.8,6.487,0c1.021-0.493,1.969-1.124,2.817-1.875c0.751-0.832,1.357-1.784,1.792-2.817    c0.478-1.012,0.712-2.123,0.683-3.242C290.1,138.558,289.216,136.395,287.659,134.758z"/>
	</g>
</g>
<g>
	<g>
		<path d="M340.65,103.442c-0.433-1.034-1.039-1.986-1.791-2.817c-3.399-3.214-8.717-3.214-12.117,0    c-0.755,0.829-1.363,1.782-1.796,2.817c-0.436,1.026-0.667,2.127-0.68,3.242c-0.029,1.119,0.204,2.229,0.679,3.242    c0.416,1.019,1.026,1.947,1.796,2.733c3.319,3.346,8.722,3.368,12.068,0.049c1.607-1.594,2.515-3.761,2.524-6.024    C341.32,105.569,341.087,104.467,340.65,103.442z"/>
	</g>
</g>
<g>
	<g>
		<path d="M366.25,120.509c-0.433-1.034-1.039-1.986-1.791-2.817c-0.816-0.771-1.772-1.379-2.817-1.792    c-2.077-0.858-4.41-0.858-6.487,0c-1.044,0.412-1.998,1.02-2.813,1.792c-0.755,0.829-1.363,1.782-1.796,2.817    c-0.906,2.066-0.906,4.417,0,6.483c0.435,1.034,1.042,1.986,1.795,2.817c3.365,3.3,8.752,3.3,12.117,0    c0.751-0.832,1.357-1.784,1.792-2.817c0.478-1.012,0.713-2.123,0.683-3.242C366.92,122.635,366.688,121.534,366.25,120.509z"/>
	</g>
</g>
<g>
	<g>
		<path d="M338.859,134.758c-0.407-0.366-0.834-0.708-1.28-1.025c-0.475-0.325-0.992-0.582-1.538-0.767    c-0.485-0.246-1.003-0.42-1.538-0.517c-2.81-0.558-5.714,0.305-7.763,2.308c-1.574,1.626-2.461,3.796-2.475,6.059    c0.012,1.115,0.243,2.216,0.679,3.242c0.435,1.034,1.042,1.986,1.795,2.817c0.847,0.751,1.794,1.382,2.813,1.875    c2.089,0.8,4.399,0.8,6.487,0c1.038-0.463,1.99-1.097,2.817-1.875c0.751-0.832,1.357-1.784,1.792-2.817    c0.437-1.026,0.669-2.127,0.683-3.242C341.3,138.558,340.416,136.395,338.859,134.758z"/>
	</g>
</g>
<g>
	<g>
		<path d="M391.85,103.442c-0.433-1.034-1.039-1.986-1.792-2.817c-0.406-0.366-0.834-0.708-1.279-1.025    c-0.475-0.325-0.992-0.582-1.538-0.767c-0.485-0.246-1.003-0.42-1.538-0.517c-1.664-0.348-3.394-0.167-4.95,0.517    c-2.141,0.78-3.828,2.467-4.608,4.608c-0.436,1.026-0.667,2.127-0.68,3.242c-0.029,1.119,0.204,2.229,0.679,3.242    c0.416,1.019,1.026,1.947,1.796,2.733c3.255,3.346,8.607,3.419,11.952,0.164c0.055-0.054,0.11-0.109,0.164-0.164    C392.501,110.251,393.213,106.589,391.85,103.442z"/>
	</g>
</g>
<g>
	<g>
		<path d="M390.059,134.758c-2.05-2.002-4.956-2.866-7.767-2.308c-0.535,0.096-1.053,0.27-1.537,0.517    c-0.543,0.185-1.059,0.443-1.533,0.767c-0.447,0.315-0.875,0.657-1.279,1.025c-1.559,1.635-2.443,3.799-2.475,6.059    c0.012,1.115,0.243,2.216,0.679,3.242c0.435,1.034,1.042,1.986,1.795,2.817c0.826,0.778,1.776,1.412,2.813,1.875    c3.201,1.248,6.837,0.516,9.305-1.875c0.751-0.832,1.357-1.784,1.792-2.817c0.478-1.012,0.712-2.123,0.683-3.242    C392.5,138.558,391.616,136.395,390.059,134.758z"/>
	</g>
</g>
<g>
	<g>
		<path d="M238.933,38.417h-128c-4.713,0-8.533,3.82-8.533,8.533s3.82,8.533,8.533,8.533h128c4.713,0,8.533-3.82,8.533-8.533    S243.646,38.417,238.933,38.417z"/>
	</g>
</g>
<g>
	<g>
		<path d="M401.067,38.417h-128c-4.713,0-8.533,3.82-8.533,8.533s3.821,8.533,8.533,8.533h128c4.713,0,8.533-3.82,8.533-8.533    S405.78,38.417,401.067,38.417z"/>
	</g>
</g>
<g>
	<g>
		<path d="M50.517,205.842c-0.433-1.034-1.039-1.986-1.792-2.817c-3.421-3.158-8.695-3.158-12.117,0    c-0.773,0.815-1.383,1.772-1.796,2.817c-1.849,4.337,0.167,9.351,4.504,11.2c4.337,1.849,9.351-0.167,11.2-4.504    C51.429,210.399,51.429,207.98,50.517,205.842z"/>
	</g>
</g>
<g>
	<g>
		<path d="M50.517,299.709c-0.433-1.034-1.039-1.987-1.791-2.817c-2.453-2.425-6.126-3.133-9.304-1.792    c-1.033,0.433-1.984,1.039-2.813,1.792c-0.755,0.829-1.363,1.782-1.796,2.817c-0.906,2.066-0.906,4.417,0,6.483    c0.435,1.034,1.042,1.986,1.795,2.817c3.365,3.3,8.752,3.3,12.117,0c0.751-0.832,1.357-1.784,1.792-2.817    C51.428,304.127,51.428,301.774,50.517,299.709z"/>
	</g>
</g>
<g>
	<g>
		<path d="M477.183,205.842c-0.411-1.045-1.02-2.001-1.791-2.817c-3.421-3.158-8.695-3.158-12.117,0    c-0.772,0.816-1.38,1.772-1.792,2.817c-0.438,1.026-0.67,2.127-0.683,3.242c0,4.713,3.82,8.533,8.533,8.533    s8.533-3.821,8.533-8.533C477.853,207.969,477.621,206.867,477.183,205.842z"/>
	</g>
</g>
<g>
	<g>
		<path d="M128.05,260.234c-2.293-0.013-4.494,0.896-6.108,2.524c-1.559,1.635-2.443,3.799-2.475,6.059    c0,4.713,3.82,8.533,8.533,8.533s8.533-3.821,8.533-8.533C136.561,264.104,132.763,260.262,128.05,260.234z"/>
	</g>
</g>
<g>
	<g>
		<path d="M153.65,277.301c-2.293-0.013-4.494,0.896-6.108,2.524c-0.773,0.815-1.383,1.772-1.796,2.817    c-1.819,4.343,0.228,9.337,4.57,11.156s9.337-0.228,11.156-4.57c0.443-1.059,0.668-2.196,0.661-3.344    C162.161,281.171,158.362,277.328,153.65,277.301z"/>
	</g>
</g>
<g>
	<g>
		<path d="M135.85,299.709c-0.433-1.034-1.039-1.987-1.791-2.817c-3.421-3.158-8.695-3.158-12.117,0    c-0.755,0.829-1.363,1.782-1.796,2.817c-0.906,2.066-0.906,4.417,0,6.483c0.435,1.034,1.042,1.986,1.795,2.817    c3.365,3.3,8.752,3.3,12.117,0c0.751-0.832,1.357-1.784,1.792-2.817C136.761,304.127,136.761,301.774,135.85,299.709z"/>
	</g>
</g>
<g>
	<g>
		<path d="M179.25,260.234c-2.293-0.013-4.494,0.896-6.108,2.524c-1.559,1.635-2.443,3.799-2.475,6.059    c0,4.713,3.82,8.533,8.533,8.533s8.533-3.821,8.533-8.533C187.761,264.104,183.963,260.262,179.25,260.234z"/>
	</g>
</g>
<g>
	<g>
		<path d="M204.85,277.301c-2.293-0.013-4.494,0.896-6.108,2.524c-1.559,1.635-2.443,3.799-2.475,6.059    c0,4.713,3.82,8.533,8.533,8.533s8.533-3.82,8.533-8.533C213.361,281.171,209.563,277.328,204.85,277.301z"/>
	</g>
</g>
<g>
	<g>
		<path d="M187.05,299.709c-0.433-1.034-1.039-1.987-1.791-2.817c-3.421-3.158-8.695-3.158-12.117,0    c-0.755,0.829-1.363,1.782-1.796,2.817c-0.906,2.066-0.906,4.417,0,6.483c0.435,1.034,1.042,1.986,1.795,2.817    c3.365,3.3,8.752,3.3,12.117,0c0.751-0.832,1.357-1.784,1.792-2.817C187.961,304.127,187.961,301.774,187.05,299.709z"/>
	</g>
</g>
<g>
	<g>
		<path d="M236.459,262.758c-0.803-0.789-1.762-1.399-2.817-1.791c-3.177-1.341-6.849-0.634-9.3,1.792    c-1.574,1.625-2.461,3.795-2.475,6.058c0,4.713,3.82,8.533,8.533,8.533s8.533-3.821,8.533-8.533    C238.9,266.558,238.016,264.395,236.459,262.758z"/>
	</g>
</g>
<g>
	<g>
		<path d="M256.05,277.301c-2.293-0.013-4.494,0.896-6.108,2.524c-1.559,1.635-2.443,3.799-2.475,6.059    c0.045,4.758,3.939,8.578,8.697,8.533c1.054-0.01,2.097-0.213,3.078-0.6c1.02-0.493,1.968-1.124,2.817-1.875    c1.604-1.606,2.496-3.789,2.475-6.059C264.561,281.171,260.763,277.328,256.05,277.301z"/>
	</g>
</g>
<g>
	<g>
		<path d="M238.251,299.709c-0.433-1.034-1.039-1.987-1.792-2.817c-3.421-3.158-8.695-3.158-12.117,0    c-0.755,0.829-1.363,1.782-1.796,2.817c-0.906,2.066-0.906,4.417,0,6.483c0.435,1.034,1.042,1.986,1.795,2.817    c0.847,0.751,1.794,1.382,2.813,1.875c3.201,1.248,6.837,0.516,9.305-1.875c0.751-0.832,1.357-1.784,1.792-2.817    C239.162,304.127,239.162,301.774,238.251,299.709z"/>
	</g>
</g>
<g>
	<g>
		<path d="M238.933,200.55h-128c-4.713,0-8.533,3.821-8.533,8.533c0,4.713,3.82,8.533,8.533,8.533h128    c4.713,0,8.533-3.821,8.533-8.533C247.467,204.371,243.646,200.55,238.933,200.55z"/>
	</g>
</g>
<g>
	<g>
		<path d="M401.067,200.55h-128c-4.713,0-8.533,3.821-8.533,8.533c0,4.713,3.821,8.533,8.533,8.533h128    c4.713,0,8.533-3.821,8.533-8.533C409.6,204.371,405.78,200.55,401.067,200.55z"/>
	</g>
</g>
<g>
	<g>
		<path d="M48.725,365.158c-3.422-3.159-8.696-3.159-12.117,0c-1.559,1.635-2.443,3.799-2.475,6.059    c-0.023,2.27,0.869,4.454,2.475,6.059c0.826,0.778,1.776,1.412,2.813,1.875c3.201,1.248,6.837,0.516,9.305-1.875    c0.751-0.832,1.357-1.784,1.792-2.817c0.437-1.026,0.669-2.127,0.683-3.242C51.167,368.958,50.283,366.795,48.725,365.158z"/>
	</g>
</g>
<g>
	<g>
		<path d="M48.725,459.025c-0.83-0.753-1.783-1.359-2.817-1.791c-3.177-1.342-6.849-0.634-9.3,1.791    c-1.574,1.626-2.461,3.796-2.475,6.059c0.012,1.115,0.243,2.216,0.679,3.242c0.435,1.034,1.042,1.986,1.795,2.817    c3.365,3.3,8.752,3.3,12.117,0c0.751-0.832,1.357-1.784,1.792-2.817c0.438-1.026,0.67-2.127,0.683-3.242    C51.167,462.825,50.283,460.661,48.725,459.025z"/>
	</g>
</g>
<g>
	<g>
		<path d="M135.85,427.709c-0.433-1.034-1.039-1.987-1.791-2.817c-3.421-3.158-8.695-3.158-12.117,0    c-0.755,0.829-1.363,1.782-1.796,2.817c-0.906,2.066-0.906,4.417,0,6.483c0.435,1.034,1.042,1.986,1.795,2.817    c3.365,3.3,8.752,3.3,12.117,0c0.751-0.832,1.357-1.784,1.792-2.817C136.761,432.127,136.761,429.774,135.85,427.709z"/>
	</g>
</g>
<g>
	<g>
		<path d="M161.45,444.775c-0.433-1.034-1.039-1.986-1.792-2.817c-2.044-2.014-4.955-2.879-7.767-2.308    c-0.535,0.096-1.053,0.271-1.538,0.517c-0.543,0.185-1.059,0.443-1.533,0.767c-0.429,0.341-0.854,0.683-1.279,1.025    c-0.773,0.815-1.383,1.772-1.796,2.817c-1.849,4.337,0.167,9.351,4.504,11.2c4.337,1.849,9.351-0.167,11.2-4.504    C162.362,449.332,162.362,446.914,161.45,444.775z"/>
	</g>
</g>
<g>
	<g>
		<path d="M134.059,459.025c-0.419-0.387-0.878-0.731-1.367-1.025c-0.434-0.34-0.925-0.6-1.45-0.767    c-0.509-0.259-1.056-0.433-1.621-0.517c-1.636-0.343-3.339-0.162-4.867,0.517c-1.033,0.433-1.984,1.039-2.813,1.792    c-1.559,1.635-2.443,3.799-2.475,6.058c-0.029,1.119,0.204,2.229,0.679,3.242c0.435,1.034,1.042,1.986,1.796,2.817    c3.365,3.3,8.752,3.3,12.117,0c0.751-0.832,1.357-1.784,1.792-2.817c0.478-1.012,0.713-2.123,0.683-3.242    C136.5,462.825,135.616,460.661,134.059,459.025z"/>
	</g>
</g>
<g>
	<g>
		<path d="M187.05,427.709c-0.433-1.034-1.039-1.987-1.791-2.817c-3.421-3.158-8.695-3.158-12.117,0    c-0.773,0.815-1.383,1.772-1.796,2.817c-0.906,2.066-0.906,4.417,0,6.483c0.435,1.034,1.042,1.986,1.795,2.817    c3.365,3.3,8.752,3.3,12.117,0c0.751-0.832,1.357-1.784,1.792-2.817C187.961,432.127,187.961,429.774,187.05,427.709z"/>
	</g>
</g>
<g>
	<g>
		<path d="M212.651,444.776c-0.413-1.044-1.021-2-1.792-2.817c-0.429-0.341-0.854-0.683-1.279-1.025    c-0.475-0.325-0.992-0.582-1.538-0.767c-0.485-0.246-1.003-0.42-1.538-0.517c-2.81-0.558-5.715,0.305-7.763,2.308    c-0.773,0.815-1.383,1.772-1.796,2.817c-1.357,3.176-0.646,6.858,1.796,9.301c0.847,0.751,1.794,1.382,2.813,1.875    c2.089,0.8,4.399,0.8,6.487,0c1.021-0.493,1.969-1.124,2.817-1.875C213.303,451.634,214.013,447.95,212.651,444.776z"/>
	</g>
</g>
<g>
	<g>
		<path d="M179.25,456.501c-2.293-0.013-4.494,0.896-6.108,2.524l-1.025,1.275c-0.324,0.477-0.583,0.996-0.771,1.542    c-0.245,0.483-0.417,1-0.508,1.533c-0.096,0.565-0.153,1.136-0.17,1.709c0.012,1.115,0.243,2.216,0.679,3.242    c0.78,2.141,2.467,3.828,4.608,4.608c2.067,0.911,4.421,0.911,6.487,0c1.034-0.433,1.987-1.039,2.817-1.792    c0.751-0.832,1.357-1.784,1.792-2.817c0.437-1.025,0.67-2.126,0.683-3.241C187.761,460.371,183.963,456.528,179.25,456.501z"/>
	</g>
</g>
<g>
	<g>
		<path d="M238.251,427.709c-0.433-1.034-1.039-1.987-1.792-2.817c-3.421-3.158-8.695-3.158-12.117,0    c-0.755,0.829-1.363,1.782-1.796,2.817c-0.906,2.066-0.906,4.417,0,6.483c0.435,1.034,1.042,1.986,1.795,2.817    c2.466,2.391,6.1,3.123,9.3,1.875c1.021-0.493,1.969-1.124,2.817-1.875c0.751-0.832,1.357-1.784,1.792-2.817    C239.162,432.127,239.162,429.774,238.251,427.709z"/>
	</g>
</g>
<g>
	<g>
		<path d="M236.459,459.025c-0.83-0.753-1.783-1.359-2.817-1.791c-1.556-0.684-3.286-0.865-4.95-0.517    c-0.535,0.096-1.053,0.27-1.538,0.517c-0.543,0.185-1.059,0.443-1.533,0.767c-0.447,0.315-0.875,0.657-1.279,1.025    c-1.559,1.635-2.443,3.799-2.475,6.059c0.012,1.115,0.243,2.216,0.679,3.242c0.435,1.034,1.042,1.986,1.796,2.817    c3.365,3.3,8.752,3.3,12.117,0c0.751-0.832,1.357-1.784,1.792-2.817c0.478-1.012,0.713-2.123,0.683-3.242    C238.9,462.825,238.016,460.661,236.459,459.025z"/>
	</g>
</g>
<g>
	<g>
		<path d="M456.692,391.009l-56.608-89.767c-6.695-11.143-21.155-14.75-32.299-8.056c-3.304,1.985-6.07,4.751-8.056,8.056    l-56.608,89.767c-5.195,8.265-5.486,18.701-0.758,27.242c4.097,7.776,12.148,12.66,20.937,12.7h113.208    c8.795-0.041,16.851-4.927,20.95-12.708C462.181,409.702,461.887,399.269,456.692,391.009z M442.508,410    c-1.122,2.309-3.434,3.805-6,3.883H323.3c-2.563-0.08-4.87-1.571-5.996-3.875c-1.719-3.101-1.624-6.89,0.25-9.9l56.608-89.767    c1.867-3.172,5.952-4.23,9.124-2.364c0.976,0.574,1.789,1.388,2.364,2.364l56.608,89.767    C444.13,403.116,444.226,406.902,442.508,410z"/>
	</g>
</g>
<g>
	<g>
		<path d="M379.908,337.084c-0.001,0-0.003,0-0.004,0c-4.712-0.001-8.532,3.817-8.533,8.529c0,0.001,0,0.003,0,0.004v22.525    c0,4.713,3.821,8.533,8.533,8.533c4.713,0,8.533-3.821,8.533-8.533v-22.525C388.439,340.905,384.62,337.085,379.908,337.084z"/>
	</g>
</g>
<g>
	<g>
		<path d="M385.963,385.384c-2.051-2.005-4.944-2.896-7.767-2.392c-0.512,0.167-1.025,0.341-1.538,0.508    c-0.512,0.258-1.021,0.517-1.45,0.775c-0.495,0.317-0.952,0.689-1.363,1.108c-1.574,1.626-2.461,3.796-2.475,6.059    c0.012,1.115,0.243,2.216,0.679,3.242c0.414,1.017,1.025,1.943,1.796,2.725c3.365,3.3,8.752,3.3,12.117,0    c1.589-1.578,2.481-3.727,2.475-5.967C388.437,389.177,387.549,387.001,385.963,385.384z"/>
	</g>
</g>
<g>
</g>
<g>
</g>
<g>
</g>
<g>
</g>
<g>
</g>
<g>
</g>
<g>
</g>
<g>
</g>
<g>
</g>
<g>
</g>
<g>
</g>
<g>
</g>
<g>
</g>
<g>
</g>
<g>
</g>
</svg>
