<?xml version="1.0" encoding="iso-8859-1"?>
<!-- Generator: Adobe Illustrator 19.0.0, SVG Export Plug-In . SVG Version: 6.00 Build 0)  -->
<svg xmlns="http://www.w3.org/2000/svg" xmlns:xlink="http://www.w3.org/1999/xlink" version="1.1" id="Layer_1" x="0px" y="0px" viewBox="0 0 512.034 512.034" style="enable-background:new 0 0 512.034 512.034;" xml:space="preserve">
<g>
	<g>
		<path d="M506.85,338.908c-0.252-0.875-0.512-1.748-0.782-2.619c3.802-4.574,5.898-10.325,5.932-16.272v-128    c-0.02-6.319-2.394-12.404-6.658-17.067c4.265-4.663,6.639-10.748,6.658-17.067v-128c-0.015-14.132-11.468-25.585-25.6-25.6H25.6    C11.468,4.299,0.015,15.751,0,29.884v128c0.02,6.319,2.394,12.404,6.658,17.067C2.394,179.613,0.02,185.698,0,192.017v128    c0.02,6.319,2.394,12.404,6.658,17.067C2.394,341.746,0.02,347.831,0,354.15v128c0.015,14.132,11.468,25.585,25.6,25.6h354.133    c12.346,0.031,24.633-1.689,36.496-5.108C486.467,482.452,527.04,409.146,506.85,338.908z M443.733,21.35H486.4    c4.711,0.005,8.529,3.822,8.533,8.533v128c-0.005,4.711-3.822,8.529-8.533,8.533h-42.667V21.35z M443.733,183.484H486.4    c4.711,0.005,8.529,3.822,8.533,8.533v118.696c-12.053-21.357-29.771-38.971-51.2-50.898V183.484z M85.333,21.35h341.333v145.067    H85.333V21.35z M85.333,183.484h341.333v68.493c-14.978-5.762-30.885-8.731-46.933-8.759    c-54.878,0.092-104.008,34.037-123.507,85.333H85.333V183.484z M68.267,490.684H25.6c-4.711-0.005-8.529-3.822-8.533-8.533v-128    c0.005-4.711,3.822-8.529,8.533-8.533h42.667V490.684z M68.267,328.55H25.6c-4.711-0.005-8.529-3.822-8.533-8.533v-128    c0.005-4.711,3.822-8.529,8.533-8.533h42.667V328.55z M68.267,166.417H25.6c-4.711-0.005-8.529-3.822-8.533-8.533v-128    c0.005-4.711,3.822-8.529,8.533-8.533h42.667V166.417z M85.333,490.684V345.617h165.661c-1.335,5.619-2.297,11.321-2.88,17.067    H110.933c-4.713,0-8.533,3.82-8.533,8.533s3.82,8.533,8.533,8.533h136.686c0.338,11.254,2.097,22.42,5.235,33.233    c9.773,33.018,32.071,60.904,62.13,77.7H85.333z M490.25,408.059c-3.36,11.422-8.481,22.249-15.179,32.092    c-35.65,52.444-107.065,66.058-159.509,30.408c-52.444-35.65-66.058-107.065-30.408-159.509    c35.65-52.444,107.065-66.058,159.509-30.408C485.932,308.695,504.357,360.193,490.25,408.059z"/>
	</g>
</g>
<g>
	<g>
		<path d="M50.517,43.709c-0.413-1.044-1.021-2-1.792-2.817c-2.044-2.014-4.955-2.879-7.767-2.308    c-0.535,0.096-1.053,0.27-1.538,0.517c-0.543,0.185-1.059,0.443-1.533,0.767c-0.447,0.315-0.875,0.657-1.28,1.025    c-0.773,0.815-1.383,1.772-1.796,2.817c-0.906,2.066-0.906,4.417,0,6.483c0.435,1.034,1.042,1.986,1.796,2.817    c0.829,0.753,1.78,1.359,2.813,1.792c3.176,1.362,6.862,0.652,9.305-1.792c0.751-0.832,1.357-1.784,1.792-2.817    C51.428,48.127,51.428,45.774,50.517,43.709z"/>
	</g>
</g>
<g>
	<g>
		<path d="M48.725,134.758c-3.421-3.158-8.695-3.158-12.117,0c-1.574,1.626-2.461,3.796-2.475,6.059    c0.012,1.115,0.243,2.216,0.679,3.242c0.435,1.034,1.042,1.986,1.795,2.817c0.847,0.751,1.794,1.382,2.813,1.875    c3.201,1.248,6.837,0.516,9.305-1.875c0.751-0.832,1.357-1.784,1.792-2.817c0.437-1.026,0.669-2.127,0.683-3.242    C51.167,138.558,50.283,136.395,48.725,134.758z"/>
	</g>
</g>
<g>
	<g>
		<path d="M477.184,43.709c-0.413-1.044-1.021-2-1.792-2.817c-2.044-2.014-4.955-2.879-7.767-2.308    c-0.535,0.096-1.053,0.27-1.538,0.517c-0.543,0.185-1.059,0.443-1.533,0.767c-0.447,0.315-0.875,0.657-1.28,1.025    c-0.773,0.815-1.383,1.772-1.796,2.817c-0.906,2.066-0.906,4.417,0,6.483c0.435,1.034,1.042,1.986,1.796,2.817    c0.829,0.753,1.78,1.359,2.813,1.792c3.176,1.362,6.862,0.652,9.305-1.792c0.751-0.832,1.357-1.784,1.792-2.817    C478.095,48.127,478.095,45.774,477.184,43.709z"/>
	</g>
</g>
<g>
	<g>
		<path d="M469.383,132.234c-2.293-0.013-4.494,0.896-6.108,2.524c-1.559,1.635-2.443,3.799-2.475,6.059    c0.012,1.115,0.243,2.216,0.679,3.242c0.435,1.034,1.042,1.986,1.796,2.817c3.365,3.3,8.752,3.3,12.117,0    c0.751-0.832,1.357-1.784,1.792-2.817c0.438-1.026,0.67-2.127,0.683-3.242C477.894,136.104,474.096,132.261,469.383,132.234z"/>
	</g>
</g>
<g>
	<g>
		<path d="M135.85,103.442c-0.433-1.034-1.039-1.986-1.791-2.817c-0.83-0.753-1.783-1.359-2.817-1.792    c-2.077-0.858-4.41-0.858-6.487,0c-2.141,0.78-3.828,2.467-4.608,4.608c-1.294,3.156-0.588,6.778,1.795,9.218    c3.255,3.346,8.607,3.419,11.952,0.164c0.056-0.054,0.11-0.109,0.164-0.164C136.5,110.251,137.212,106.589,135.85,103.442z"/>
	</g>
</g>
<g>
	<g>
		<path d="M161.45,120.509c-0.433-1.034-1.039-1.986-1.791-2.817c-0.816-0.771-1.772-1.379-2.817-1.792    c-2.077-0.858-4.41-0.858-6.487,0c-1.044,0.412-1.998,1.02-2.813,1.792c-0.755,0.829-1.363,1.782-1.796,2.817    c-0.436,1.026-0.667,2.127-0.68,3.242c-0.029,1.119,0.204,2.229,0.679,3.242c0.435,1.034,1.042,1.986,1.795,2.817    c3.365,3.3,8.752,3.3,12.117,0c0.751-0.832,1.357-1.784,1.792-2.817c0.478-1.012,0.713-2.123,0.683-3.242    C162.12,122.635,161.887,121.534,161.45,120.509z"/>
	</g>
</g>
<g>
	<g>
		<path d="M134.059,134.758c-2.022-1.989-4.896-2.853-7.679-2.308c-0.566,0.083-1.115,0.257-1.625,0.517    c-0.543,0.185-1.059,0.443-1.533,0.767c-0.447,0.315-0.875,0.657-1.279,1.025c-1.559,1.635-2.443,3.799-2.475,6.059    c0.012,1.115,0.243,2.216,0.679,3.242c0.435,1.034,1.042,1.986,1.796,2.817c0.826,0.778,1.776,1.412,2.813,1.875    c2.089,0.8,4.399,0.8,6.487,0c1.021-0.493,1.968-1.124,2.817-1.875c0.751-0.832,1.357-1.784,1.792-2.817    c0.437-1.026,0.669-2.127,0.683-3.242C136.517,138.554,135.631,136.385,134.059,134.758z"/>
	</g>
</g>
<g>
	<g>
		<path d="M187.05,103.442c-0.433-1.034-1.039-1.986-1.791-2.817c-3.401-3.211-8.716-3.211-12.117,0    c-0.755,0.829-1.363,1.782-1.796,2.817c-0.436,1.026-0.667,2.127-0.68,3.242c-0.038,2.248,0.858,4.412,2.475,5.975    c3.255,3.346,8.607,3.419,11.952,0.164c0.055-0.054,0.11-0.109,0.164-0.164c0.767-0.788,1.376-1.716,1.792-2.733    c0.478-1.012,0.712-2.123,0.683-3.242C187.72,105.569,187.487,104.467,187.05,103.442z"/>
	</g>
</g>
<g>
	<g>
		<path d="M212.65,120.508c-0.433-1.034-1.039-1.986-1.792-2.817c-2.473-2.388-6.122-3.09-9.304-1.792    c-1.054,0.392-2.012,1.002-2.813,1.792c-0.773,0.815-1.383,1.772-1.796,2.817c-1.849,4.337,0.167,9.351,4.504,11.2    c4.337,1.849,9.351-0.167,11.2-4.504C213.562,125.065,213.562,122.647,212.65,120.508z"/>
	</g>
</g>
<g>
	<g>
		<path d="M179.25,132.234c-2.293-0.013-4.494,0.896-6.108,2.524c-1.559,1.635-2.443,3.799-2.475,6.059    c0.012,1.115,0.243,2.216,0.679,3.242c0.435,1.034,1.042,1.986,1.796,2.817c0.826,0.778,1.776,1.412,2.813,1.875    c2.089,0.8,4.399,0.8,6.487,0c1.038-0.463,1.99-1.097,2.817-1.875c0.751-0.832,1.357-1.784,1.792-2.817    c0.437-1.026,0.669-2.127,0.683-3.242C187.761,136.104,183.963,132.261,179.25,132.234z"/>
	</g>
</g>
<g>
	<g>
		<path d="M238.25,103.442c-0.433-1.034-1.039-1.986-1.791-2.817c-3.227-3.346-8.556-3.442-11.902-0.215    c-0.883,0.852-1.569,1.887-2.011,3.032c-0.436,1.026-0.667,2.127-0.68,3.242c-0.038,2.248,0.858,4.412,2.475,5.975    c3.255,3.346,8.607,3.419,11.952,0.164c0.055-0.054,0.11-0.109,0.164-0.164c0.767-0.788,1.376-1.716,1.792-2.733    C239.161,107.86,239.161,105.507,238.25,103.442z"/>
	</g>
</g>
<g>
	<g>
		<path d="M263.85,120.509c-0.777-2.143-2.465-3.831-4.608-4.608c-2.077-0.858-4.41-0.858-6.487,0    c-2.141,0.78-3.828,2.467-4.608,4.608c-1.357,3.176-0.646,6.857,1.795,9.3c0.829,0.753,1.78,1.359,2.813,1.792    c1.014,0.477,2.126,0.71,3.246,0.683c4.664,0.048,8.485-3.694,8.533-8.358C264.545,122.751,264.313,121.588,263.85,120.509z"/>
	</g>
</g>
<g>
	<g>
		<path d="M236.459,134.758c-2.05-2.002-4.956-2.866-7.767-2.308c-0.535,0.096-1.053,0.27-1.538,0.517    c-0.543,0.185-1.059,0.443-1.533,0.767c-0.447,0.315-0.875,0.657-1.279,1.025c-1.559,1.635-2.443,3.799-2.475,6.059    c0.012,1.115,0.243,2.216,0.679,3.242c0.435,1.034,1.042,1.986,1.796,2.817c0.826,0.778,1.776,1.412,2.813,1.875    c2.089,0.8,4.399,0.8,6.487,0c1.021-0.493,1.969-1.124,2.817-1.875c0.751-0.832,1.357-1.784,1.792-2.817    c0.437-1.026,0.669-2.127,0.683-3.242C238.917,138.554,238.031,136.385,236.459,134.758z"/>
	</g>
</g>
<g>
	<g>
		<path d="M289.45,103.442c-0.433-1.034-1.039-1.986-1.791-2.817c-0.816-0.771-1.772-1.379-2.817-1.792    c-2.077-0.858-4.41-0.858-6.487,0c-2.141,0.78-3.828,2.467-4.608,4.608c-0.436,1.026-0.667,2.128-0.68,3.243    c-0.038,2.248,0.858,4.412,2.475,5.975c1.575,1.659,3.771,2.587,6.059,2.558c3.448-0.007,6.55-2.098,7.85-5.292    C290.361,107.86,290.361,105.507,289.45,103.442z"/>
	</g>
</g>
<g>
	<g>
		<path d="M315.05,120.509c-0.413-1.044-1.021-2-1.791-2.817c-0.816-0.771-1.772-1.379-2.817-1.792c-2.077-0.858-4.41-0.858-6.487,0    c-1.054,0.392-2.012,1.002-2.813,1.792c-0.755,0.829-1.363,1.782-1.796,2.817c-1.835,4.293,0.157,9.26,4.45,11.095    c1.076,0.46,2.235,0.691,3.404,0.68c1.119,0.027,2.229-0.207,3.242-0.683c1.034-0.433,1.987-1.039,2.817-1.792    c1.604-1.606,2.496-3.788,2.475-6.058C315.762,122.631,315.528,121.521,315.05,120.509z"/>
	</g>
</g>
<g>
	<g>
		<path d="M287.659,134.758c-0.407-0.366-0.834-0.708-1.279-1.025c-0.475-0.325-0.992-0.582-1.538-0.767    c-0.485-0.246-1.003-0.42-1.538-0.517c-2.81-0.558-5.714,0.305-7.763,2.308c-1.559,1.635-2.443,3.799-2.475,6.059    c0.012,1.115,0.243,2.216,0.679,3.242c0.435,1.034,1.042,1.986,1.796,2.817c2.466,2.391,6.1,3.123,9.3,1.875    c1.038-0.463,1.99-1.097,2.817-1.875c0.751-0.832,1.357-1.784,1.792-2.817c0.437-1.026,0.669-2.127,0.683-3.242    C290.1,138.558,289.216,136.395,287.659,134.758z"/>
	</g>
</g>
<g>
	<g>
		<path d="M340.65,103.442c-0.433-1.034-1.039-1.986-1.791-2.817c-3.227-3.346-8.556-3.442-11.902-0.215    c-0.883,0.852-1.57,1.887-2.011,3.032c-0.436,1.026-0.667,2.127-0.68,3.242c-0.038,2.248,0.858,4.412,2.475,5.975    c3.272,3.346,8.637,3.406,11.983,0.133c0.832-0.813,1.487-1.789,1.925-2.867C341.561,107.86,341.561,105.507,340.65,103.442z"/>
	</g>
</g>
<g>
	<g>
		<path d="M366.25,120.509c-0.433-1.034-1.039-1.987-1.791-2.817c-0.802-0.789-1.762-1.399-2.817-1.792    c-3.185-1.256-6.81-0.558-9.3,1.792c-0.755,0.829-1.363,1.782-1.796,2.817c-0.906,2.066-0.906,4.417,0,6.483    c0.435,1.034,1.042,1.986,1.795,2.817c3.365,3.3,8.752,3.3,12.117,0c0.751-0.832,1.357-1.784,1.792-2.817    C367.161,124.927,367.161,122.574,366.25,120.509z"/>
	</g>
</g>
<g>
	<g>
		<path d="M338.859,134.758c-2.05-2.002-4.956-2.866-7.767-2.308c-0.535,0.096-1.053,0.27-1.538,0.517    c-0.543,0.185-1.059,0.443-1.533,0.767c-0.447,0.315-0.874,0.657-1.279,1.025c-1.559,1.635-2.443,3.799-2.475,6.059    c0.012,1.115,0.243,2.216,0.679,3.242c0.435,1.034,1.042,1.986,1.795,2.817c0.826,0.778,1.777,1.412,2.813,1.875    c2.089,0.8,4.399,0.8,6.487,0c1.021-0.493,1.969-1.124,2.817-1.875c0.751-0.832,1.357-1.784,1.792-2.817    c0.478-1.012,0.712-2.123,0.683-3.242C341.3,138.558,340.416,136.395,338.859,134.758z"/>
	</g>
</g>
<g>
	<g>
		<path d="M391.85,103.442c-0.413-1.044-1.021-2-1.791-2.817c-0.816-0.771-1.772-1.379-2.817-1.792    c-3.182-1.29-6.825-0.588-9.3,1.792c-0.773,0.815-1.383,1.772-1.796,2.817c-0.436,1.026-0.667,2.127-0.68,3.242    c-0.038,2.248,0.858,4.412,2.475,5.975c1.616,1.599,3.786,2.515,6.059,2.558c4.699-0.033,8.501-3.834,8.533-8.533    C392.52,105.569,392.287,104.467,391.85,103.442z"/>
	</g>
</g>
<g>
	<g>
		<path d="M390.059,134.758c-0.407-0.366-0.834-0.708-1.279-1.025c-0.475-0.325-0.992-0.582-1.538-0.767    c-0.485-0.246-1.003-0.42-1.538-0.517c-2.81-0.558-5.714,0.305-7.763,2.308c-1.574,1.626-2.461,3.796-2.475,6.059    c0.012,1.115,0.243,2.216,0.679,3.242c0.435,1.034,1.042,1.986,1.795,2.817c0.847,0.751,1.794,1.382,2.813,1.875    c2.089,0.8,4.399,0.8,6.487,0c1.038-0.463,1.99-1.097,2.817-1.875c0.751-0.832,1.357-1.784,1.792-2.817    c0.437-1.026,0.669-2.127,0.683-3.242C392.5,138.558,391.616,136.395,390.059,134.758z"/>
	</g>
</g>
<g>
	<g>
		<path d="M238.933,38.417h-128c-4.713,0-8.533,3.82-8.533,8.533s3.82,8.533,8.533,8.533h128c4.713,0,8.533-3.82,8.533-8.533    S243.646,38.417,238.933,38.417z"/>
	</g>
</g>
<g>
	<g>
		<path d="M401.067,38.417h-128c-4.713,0-8.533,3.82-8.533,8.533s3.821,8.533,8.533,8.533h128c4.713,0,8.533-3.82,8.533-8.533    S405.78,38.417,401.067,38.417z"/>
	</g>
</g>
<g>
	<g>
		<path d="M50.517,205.842c-0.433-1.034-1.039-1.986-1.792-2.817c-0.406-0.366-0.834-0.708-1.279-1.025    c-0.475-0.325-0.992-0.582-1.538-0.767c-0.485-0.246-1.003-0.42-1.538-0.517c-1.664-0.348-3.394-0.167-4.95,0.517    c-1.044,0.412-1.998,1.02-2.813,1.792c-0.755,0.829-1.363,1.782-1.796,2.817c-1.849,4.337,0.167,9.351,4.504,11.2    c4.337,1.849,9.351-0.167,11.2-4.504C51.429,210.399,51.429,207.981,50.517,205.842z"/>
	</g>
</g>
<g>
	<g>
		<path d="M50.517,299.709c-0.433-1.034-1.039-1.987-1.791-2.817c-3.421-3.158-8.695-3.158-12.117,0    c-0.755,0.829-1.363,1.782-1.796,2.817c-0.906,2.066-0.906,4.417,0,6.483c0.435,1.034,1.042,1.986,1.795,2.817    c3.365,3.3,8.752,3.3,12.117,0c0.751-0.832,1.357-1.784,1.792-2.817C51.428,304.127,51.428,301.774,50.517,299.709z"/>
	</g>
</g>
<g>
	<g>
		<path d="M477.184,205.842c-0.413-1.044-1.021-2-1.792-2.817c-3.421-3.158-8.695-3.158-12.117,0    c-0.773,0.815-1.383,1.772-1.796,2.817c-1.849,4.337,0.167,9.351,4.504,11.2c4.337,1.849,9.351-0.167,11.2-4.504    C478.096,210.399,478.096,207.98,477.184,205.842z"/>
	</g>
</g>
<g>
	<g>
		<path d="M128.05,260.234c-2.293-0.013-4.494,0.896-6.108,2.524c-1.559,1.635-2.443,3.799-2.475,6.059    c0,4.713,3.82,8.533,8.533,8.533s8.533-3.821,8.533-8.533C136.561,264.104,132.763,260.261,128.05,260.234z"/>
	</g>
</g>
<g>
	<g>
		<path d="M153.65,277.301c-2.293-0.013-4.494,0.896-6.108,2.524c-1.559,1.635-2.443,3.799-2.475,6.059    c0,4.713,3.821,8.533,8.533,8.533c4.713,0,8.533-3.82,8.533-8.533C162.161,281.171,158.362,277.328,153.65,277.301z"/>
	</g>
</g>
<g>
	<g>
		<path d="M135.85,299.709c-0.433-1.034-1.039-1.987-1.791-2.817c-3.421-3.158-8.695-3.158-12.117,0    c-0.755,0.829-1.363,1.782-1.796,2.817c-0.906,2.066-0.906,4.417,0,6.483c0.435,1.034,1.042,1.986,1.795,2.817    c3.365,3.3,8.752,3.3,12.117,0c0.751-0.832,1.357-1.784,1.792-2.817C136.761,304.127,136.761,301.774,135.85,299.709z"/>
	</g>
</g>
<g>
	<g>
		<path d="M185.259,262.758c-2.453-2.425-6.126-3.133-9.305-1.791c-1.033,0.433-1.984,1.039-2.813,1.792    c-1.559,1.635-2.443,3.799-2.475,6.058c-0.023,2.27,0.869,4.454,2.475,6.059c0.829,0.753,1.78,1.359,2.813,1.792    c4.29,1.839,9.258-0.148,11.096-4.438c0.462-1.078,0.695-2.24,0.683-3.413C187.717,266.554,186.831,264.385,185.259,262.758z"/>
	</g>
</g>
<g>
	<g>
		<path d="M204.85,277.301c-2.293-0.013-4.494,0.896-6.108,2.524c-1.559,1.635-2.443,3.799-2.475,6.059    c0,4.713,3.82,8.533,8.533,8.533s8.533-3.82,8.533-8.533C213.361,281.171,209.563,277.328,204.85,277.301z"/>
	</g>
</g>
<g>
	<g>
		<path d="M187.051,299.709c-0.433-1.034-1.039-1.987-1.792-2.817c-3.421-3.158-8.695-3.158-12.117,0    c-0.755,0.829-1.363,1.782-1.796,2.817c-0.906,2.066-0.906,4.417,0,6.483c0.435,1.034,1.042,1.986,1.795,2.817    c2.466,2.391,6.1,3.123,9.3,1.875c1.021-0.493,1.968-1.124,2.817-1.875c0.751-0.832,1.357-1.784,1.792-2.817    C187.962,304.127,187.962,301.774,187.051,299.709z"/>
	</g>
</g>
<g>
	<g>
		<path d="M236.459,262.758c-2.453-2.425-6.126-3.133-9.305-1.791c-1.044,0.412-1.998,1.02-2.813,1.792    c-1.559,1.635-2.443,3.799-2.475,6.058c0,4.713,3.82,8.533,8.533,8.533s8.533-3.821,8.533-8.533    C238.9,266.558,238.016,264.395,236.459,262.758z"/>
	</g>
</g>
<g>
	<g>
		<path d="M256.05,277.301c-2.293-0.013-4.494,0.896-6.108,2.524c-1.559,1.635-2.443,3.799-2.475,6.059    c0,4.713,3.82,8.533,8.533,8.533s8.533-3.82,8.533-8.533C264.561,281.171,260.763,277.328,256.05,277.301z"/>
	</g>
</g>
<g>
	<g>
		<path d="M238.25,299.709c-0.433-1.034-1.039-1.987-1.791-2.817c-3.421-3.158-8.695-3.158-12.117,0    c-0.755,0.829-1.363,1.782-1.796,2.817c-0.906,2.066-0.906,4.417,0,6.483c0.435,1.034,1.042,1.986,1.795,2.817    c3.365,3.3,8.752,3.3,12.117,0c0.751-0.832,1.357-1.784,1.792-2.817C239.161,304.127,239.161,301.774,238.25,299.709z"/>
	</g>
</g>
<g>
	<g>
		<path d="M238.933,200.55h-128c-4.713,0-8.533,3.821-8.533,8.533c0,4.713,3.82,8.533,8.533,8.533h128    c4.713,0,8.533-3.821,8.533-8.533C247.467,204.371,243.646,200.55,238.933,200.55z"/>
	</g>
</g>
<g>
	<g>
		<path d="M401.067,200.55h-128c-4.713,0-8.533,3.821-8.533,8.533c0,4.713,3.821,8.533,8.533,8.533h128    c4.713,0,8.533-3.821,8.533-8.533C409.6,204.371,405.78,200.55,401.067,200.55z"/>
	</g>
</g>
<g>
	<g>
		<path d="M48.725,365.158c-0.83-0.753-1.783-1.359-2.817-1.791c-3.177-1.342-6.849-0.634-9.3,1.791    c-1.559,1.635-2.443,3.799-2.475,6.059c0,4.713,3.82,8.533,8.533,8.533s8.533-3.82,8.533-8.533    C51.167,368.958,50.283,366.795,48.725,365.158z"/>
	</g>
</g>
<g>
	<g>
		<path d="M48.725,459.025c-0.407-0.366-0.834-0.708-1.279-1.025c-0.475-0.324-0.992-0.582-1.538-0.767    c-0.485-0.246-1.003-0.42-1.538-0.517c-2.81-0.571-5.721,0.295-7.763,2.308c-1.559,1.635-2.443,3.799-2.475,6.059    c0.012,1.115,0.243,2.216,0.679,3.242c0.435,1.034,1.042,1.986,1.795,2.817c0.829,0.753,1.78,1.359,2.813,1.792    c2.066,0.911,4.421,0.911,6.487,0c1.034-0.433,1.987-1.039,2.817-1.792c0.751-0.832,1.357-1.784,1.792-2.817    c0.437-1.026,0.669-2.127,0.683-3.242C51.167,462.825,50.283,460.661,48.725,459.025z"/>
	</g>
</g>
<g>
	<g>
		<path d="M135.85,427.709c-0.433-1.034-1.039-1.987-1.791-2.817c-3.421-3.158-8.695-3.158-12.117,0    c-0.755,0.829-1.363,1.782-1.796,2.817c-0.906,2.066-0.906,4.417,0,6.483c0.435,1.034,1.042,1.986,1.795,2.817    c3.365,3.3,8.752,3.3,12.117,0c0.751-0.832,1.357-1.784,1.792-2.817C136.761,432.127,136.761,429.774,135.85,427.709z"/>
	</g>
</g>
<g>
	<g>
		<path d="M161.45,444.775c-0.433-1.034-1.039-1.986-1.792-2.816c-0.83-0.753-1.783-1.359-2.817-1.792    c-1.556-0.684-3.286-0.865-4.95-0.517c-0.535,0.096-1.053,0.27-1.538,0.517c-0.524,0.169-1.015,0.428-1.45,0.767    c-0.513,0.341-0.938,0.683-1.363,1.025c-0.773,0.815-1.383,1.772-1.796,2.817c-1.849,4.337,0.167,9.351,4.504,11.2    c4.337,1.849,9.351-0.167,11.2-4.504C162.362,449.332,162.362,446.913,161.45,444.775z"/>
	</g>
</g>
<g>
	<g>
		<path d="M136.363,463.375c-0.095-0.533-0.268-1.05-0.513-1.533c-0.187-0.546-0.447-1.064-0.771-1.542    c-0.313-0.446-0.654-0.872-1.021-1.275c-3.421-3.158-8.695-3.158-12.117,0c-1.574,1.626-2.461,3.796-2.475,6.059    c0.012,1.115,0.243,2.216,0.679,3.242c0.78,2.141,2.467,3.828,4.608,4.608c2.067,0.911,4.421,0.911,6.487,0    c1.034-0.433,1.987-1.039,2.817-1.792c0.751-0.832,1.357-1.784,1.792-2.817c0.437-1.025,0.67-2.126,0.683-3.241    C136.514,464.511,136.457,463.94,136.363,463.375z"/>
	</g>
</g>
<g>
	<g>
		<path d="M187.05,427.709c-0.433-1.034-1.039-1.987-1.791-2.817c-3.421-3.158-8.695-3.158-12.117,0    c-0.755,0.829-1.363,1.782-1.796,2.817c-0.906,2.066-0.906,4.417,0,6.483c0.435,1.034,1.042,1.986,1.795,2.817    c3.365,3.3,8.752,3.3,12.117,0c0.751-0.832,1.357-1.784,1.792-2.817C187.961,432.127,187.961,429.774,187.05,427.709z"/>
	</g>
</g>
<g>
	<g>
		<path d="M212.651,444.776c-0.413-1.044-1.021-2-1.792-2.817c-0.429-0.341-0.854-0.683-1.279-1.025    c-0.475-0.325-0.992-0.582-1.538-0.767c-0.485-0.246-1.003-0.42-1.538-0.517c-2.81-0.558-5.715,0.305-7.763,2.308    c-0.773,0.815-1.383,1.772-1.796,2.817c-0.906,2.066-0.906,4.417,0,6.483c0.435,1.034,1.042,1.987,1.796,2.817    c0.847,0.751,1.794,1.382,2.813,1.875c2.089,0.8,4.399,0.8,6.487,0c1.021-0.493,1.969-1.124,2.817-1.875    C213.303,451.634,214.013,447.95,212.651,444.776z"/>
	</g>
</g>
<g>
	<g>
		<path d="M185.259,459.025c-0.83-0.753-1.783-1.359-2.817-1.791c-2.06-0.942-4.427-0.942-6.487,0    c-1.033,0.433-1.984,1.039-2.813,1.792c-1.559,1.635-2.443,3.799-2.475,6.058c0.012,1.115,0.243,2.216,0.679,3.242    c0.435,1.034,1.042,1.986,1.796,2.817c3.365,3.3,8.752,3.3,12.117,0c0.751-0.832,1.357-1.784,1.792-2.817    c0.478-1.012,0.713-2.123,0.683-3.242C187.7,462.825,186.816,460.661,185.259,459.025z"/>
	</g>
</g>
<g>
	<g>
		<path d="M238.251,427.709c-0.433-1.034-1.039-1.987-1.792-2.817c-3.421-3.158-8.695-3.158-12.117,0    c-0.755,0.829-1.363,1.782-1.796,2.817c-0.906,2.066-0.906,4.417,0,6.483c0.435,1.034,1.042,1.986,1.795,2.817    c2.466,2.391,6.1,3.123,9.3,1.875c1.021-0.493,1.969-1.124,2.817-1.875c0.751-0.832,1.357-1.784,1.792-2.817    C239.162,432.127,239.162,429.774,238.251,427.709z"/>
	</g>
</g>
<g>
	<g>
		<path d="M236.459,459.025c-0.407-0.366-0.834-0.708-1.279-1.025c-0.475-0.324-0.992-0.582-1.538-0.767    c-0.485-0.246-1.003-0.42-1.538-0.517c-1.664-0.348-3.394-0.167-4.95,0.517c-1.033,0.433-1.984,1.039-2.813,1.792    c-1.559,1.635-2.443,3.799-2.475,6.058c-0.029,1.119,0.204,2.229,0.679,3.242c0.435,1.034,1.042,1.986,1.796,2.817    c3.365,3.3,8.752,3.3,12.117,0c0.751-0.832,1.357-1.784,1.792-2.817c0.438-1.026,0.67-2.127,0.683-3.242    C238.9,462.825,238.016,460.661,236.459,459.025z"/>
	</g>
</g>
<g>
	<g>
		<path d="M437.938,325.909c-3.611-3.276-8.428-4.89-13.283-4.45c-15.585,1.441-30.378-7.13-36.879-21.367    c-1.58-4.441-6.46-6.761-10.902-5.182c-2.419,0.86-4.322,2.763-5.182,5.182c-5.862,13.251-19.07,21.723-33.558,21.525    c-1.125,0-2.233-0.05-3.292-0.15c-4.867-0.481-9.709,1.134-13.313,4.442c-3.683,3.347-5.787,8.09-5.796,13.067v54.642    c0.05,17.939,7.798,34.994,21.275,46.833c11.846,10.404,27.083,16.126,42.85,16.091c2.743-0.002,5.483-0.175,8.204-0.517    c32.084-4.369,55.925-31.896,55.671-64.275v-52.775C443.724,333.999,441.62,329.256,437.938,325.909z M426.667,391.75    c0.264,23.776-17.173,44.048-40.721,47.342c-13.605,1.744-27.305-2.417-37.642-11.433c-9.808-8.601-15.454-20.997-15.504-34.042    l0.438-55.158c1.604,0.142,3.237,0.225,4.896,0.225c15.967-0.067,31.13-7.02,41.6-19.075c10.47,12.055,25.633,19.008,41.6,19.075    c1.783-0.08,3.57,0.018,5.333,0.292V391.75z"/>
	</g>
</g>
<g>
</g>
<g>
</g>
<g>
</g>
<g>
</g>
<g>
</g>
<g>
</g>
<g>
</g>
<g>
</g>
<g>
</g>
<g>
</g>
<g>
</g>
<g>
</g>
<g>
</g>
<g>
</g>
<g>
</g>
</svg>
