<?xml version="1.0" encoding="iso-8859-1"?>
<!-- Generator: Adobe Illustrator 19.0.0, SVG Export Plug-In . SVG Version: 6.00 Build 0)  -->
<svg xmlns="http://www.w3.org/2000/svg" xmlns:xlink="http://www.w3.org/1999/xlink" version="1.1" id="Layer_1" x="0px" y="0px" viewBox="0 0 512 512" style="enable-background:new 0 0 512 512;" xml:space="preserve">
<g>
	<g>
		<path d="M512,119.467V34.133C511.98,15.29,496.71,0.02,477.867,0H34.133C15.29,0.02,0.02,15.29,0,34.133v85.333    c0.045,15.521,10.568,29.054,25.6,32.922v28.023c-15.032,3.868-25.555,17.4-25.6,32.922v85.333    c0.045,15.521,10.568,29.054,25.6,32.922v28.023c-15.032,3.868-25.555,17.4-25.6,32.922v85.333    C0.02,496.71,15.29,511.98,34.133,512h443.733c18.843-0.02,34.113-15.29,34.133-34.133v-85.333    c-0.045-15.521-10.568-29.054-25.6-32.922v-28.023c15.032-3.868,25.555-17.4,25.6-32.922v-85.333    c-0.045-15.521-10.568-29.054-25.6-32.922v-28.023C501.432,148.52,511.955,134.988,512,119.467z M494.933,392.533v85.333    c-0.011,9.421-7.645,17.056-17.067,17.067H34.133c-9.421-0.011-17.056-7.645-17.067-17.067v-85.333    c0.011-9.421,7.646-17.056,17.067-17.067h443.733C487.288,375.477,494.923,383.112,494.933,392.533z M42.667,358.4v-25.6h426.667    v25.6H42.667z M494.933,213.333v85.333c-0.011,9.421-7.645,17.056-17.067,17.067H34.133c-9.421-0.011-17.056-7.645-17.067-17.067    v-85.333c0.011-9.421,7.646-17.056,17.067-17.067h443.733C487.288,196.277,494.923,203.912,494.933,213.333z M42.667,179.2v-25.6    h426.667v25.6H42.667z M477.867,136.533H34.133c-9.421-0.011-17.056-7.645-17.067-17.067V34.133    c0.011-9.421,7.646-17.056,17.067-17.067h443.733c9.421,0.011,17.056,7.646,17.067,17.067v85.333    C494.923,128.888,487.288,136.523,477.867,136.533z"/>
	</g>
</g>
<g>
	<g>
		<path d="M358.4,34.133H51.2c-9.421,0.011-17.056,7.645-17.067,17.067v51.2c0.011,9.421,7.645,17.056,17.067,17.067h307.2    c9.421-0.011,17.056-7.645,17.067-17.067V51.2C375.456,41.779,367.821,34.144,358.4,34.133z M51.2,102.4V51.2h307.2l0.012,51.2    H51.2z"/>
	</g>
</g>
<g>
	<g>
		<path d="M407.125,36.608c-0.817-0.771-1.773-1.379-2.817-1.791c-2.077-0.858-4.41-0.858-6.487,0    c-1.033,0.433-1.984,1.039-2.813,1.792c-1.559,1.635-2.443,3.799-2.475,6.058c-0.023,2.27,0.869,4.454,2.475,6.059    c0.828,0.753,1.78,1.359,2.813,1.792c2.067,0.911,4.421,0.911,6.487,0c1.034-0.433,1.987-1.039,2.817-1.792    c1.604-1.606,2.496-3.789,2.475-6.059C409.567,40.408,408.683,38.244,407.125,36.608z"/>
	</g>
</g>
<g>
	<g>
		<path d="M441.259,36.608c-0.816-0.771-1.773-1.379-2.817-1.791c-2.077-0.858-4.41-0.858-6.487,0    c-1.044,0.412-1.998,1.02-2.813,1.792c-1.559,1.635-2.443,3.799-2.475,6.058c-0.023,2.27,0.869,4.454,2.475,6.059    c0.829,0.753,1.78,1.359,2.813,1.792c4.29,1.839,9.258-0.148,11.096-4.438c0.462-1.078,0.695-2.24,0.683-3.412    C443.7,40.408,442.816,38.244,441.259,36.608z"/>
	</g>
</g>
<g>
	<g>
		<path d="M469.383,34.084c-2.293-0.013-4.494,0.896-6.108,2.524c-0.773,0.815-1.383,1.772-1.796,2.817    c-1.837,4.289,0.15,9.256,4.439,11.093c2.125,0.91,4.531,0.91,6.656-0.001c1.034-0.432,1.987-1.038,2.817-1.791    c1.604-1.606,2.496-3.789,2.475-6.059C477.894,37.954,474.096,34.111,469.383,34.084z"/>
	</g>
</g>
<g>
	<g>
		<path d="M408.917,73.559c-0.413-1.044-1.021-2-1.791-2.817c-0.407-0.366-0.834-0.708-1.279-1.025    c-0.475-0.325-0.992-0.582-1.538-0.767c-0.485-0.246-1.003-0.42-1.538-0.517c-2.81-0.558-5.715,0.305-7.763,2.308    c-1.559,1.635-2.443,3.799-2.475,6.059c0.012,1.115,0.243,2.216,0.679,3.242c0.435,1.034,1.042,1.986,1.796,2.817    c3.365,3.3,8.752,3.3,12.117,0c0.751-0.832,1.357-1.784,1.792-2.817C409.828,77.977,409.828,75.624,408.917,73.559z"/>
	</g>
</g>
<g>
	<g>
		<path d="M435.25,68.217c-2.293-0.013-4.494,0.896-6.108,2.524c-0.773,0.815-1.383,1.772-1.796,2.817    c-0.906,2.066-0.906,4.417,0,6.483c0.78,2.141,2.467,3.828,4.608,4.608c2.067,0.911,4.421,0.911,6.487,0    c1.034-0.432,1.987-1.038,2.818-1.791c0.751-0.832,1.357-1.784,1.792-2.817c0.478-1.012,0.712-2.123,0.683-3.242    C443.761,72.087,439.963,68.245,435.25,68.217z"/>
	</g>
</g>
<g>
	<g>
		<path d="M477.183,73.559c-0.413-1.044-1.021-2-1.791-2.817c-0.406-0.366-0.834-0.708-1.279-1.025    c-0.475-0.325-0.992-0.582-1.537-0.767c-0.485-0.246-1.003-0.42-1.538-0.517c-2.81-0.558-5.715,0.305-7.763,2.308    c-1.559,1.635-2.443,3.799-2.475,6.059c0.012,1.115,0.243,2.216,0.679,3.242c0.435,1.034,1.042,1.986,1.796,2.817    c3.365,3.3,8.752,3.3,12.117,0c0.751-0.832,1.357-1.784,1.792-2.817C478.094,77.977,478.094,75.624,477.183,73.559z"/>
	</g>
</g>
<g>
	<g>
		<path d="M408.916,107.692c-0.413-1.044-1.021-2-1.791-2.817c-3.227-3.346-8.556-3.442-11.902-0.215    c-0.883,0.852-1.569,1.887-2.011,3.032c-0.436,1.026-0.667,2.127-0.68,3.242c-0.038,2.248,0.858,4.412,2.475,5.975    c3.272,3.346,8.637,3.406,11.983,0.133c0.832-0.813,1.487-1.789,1.925-2.867C409.827,112.11,409.827,109.757,408.916,107.692z"/>
	</g>
</g>
<g>
	<g>
		<path d="M443.05,107.692c-0.433-1.034-1.039-1.986-1.792-2.817c-2.492-2.35-6.117-3.048-9.304-1.792    c-2.141,0.78-3.828,2.467-4.608,4.608c-0.437,1.026-0.667,2.128-0.68,3.243c-0.029,1.119,0.204,2.229,0.679,3.242    c0.416,1.019,1.026,1.947,1.796,2.733c3.255,3.346,8.607,3.419,11.952,0.164c0.055-0.054,0.11-0.109,0.164-0.164    C443.701,114.5,444.413,110.839,443.05,107.692z"/>
	</g>
</g>
<g>
	<g>
		<path d="M477.183,107.692c-0.433-1.034-1.039-1.986-1.791-2.817c-2.058-1.928-4.899-2.782-7.679-2.308    c-0.566,0.083-1.115,0.257-1.625,0.517c-0.543,0.185-1.059,0.443-1.533,0.767c-0.447,0.315-0.875,0.657-1.28,1.025    c-0.773,0.815-1.383,1.772-1.796,2.817c-0.436,1.026-0.667,2.127-0.679,3.242c-0.038,2.248,0.858,4.412,2.475,5.975    c1.575,1.659,3.771,2.587,6.059,2.558c3.448-0.007,6.55-2.098,7.85-5.292C478.094,112.11,478.094,109.757,477.183,107.692z"/>
	</g>
</g>
<g>
	<g>
		<path d="M82.859,70.741c-0.407-0.366-0.834-0.708-1.279-1.025c-0.475-0.325-0.992-0.582-1.538-0.767    c-0.485-0.246-1.003-0.42-1.538-0.517c-1.124-0.25-2.289-0.25-3.412,0c-0.535,0.096-1.053,0.27-1.538,0.517    c-0.543,0.185-1.059,0.443-1.533,0.767c-0.447,0.315-0.875,0.657-1.279,1.025c-1.559,1.635-2.443,3.799-2.475,6.059    c0.012,1.115,0.243,2.216,0.679,3.242c0.435,1.034,1.042,1.986,1.795,2.817c3.365,3.3,8.752,3.3,12.117,0    c0.751-0.832,1.357-1.784,1.792-2.817c0.437-1.026,0.669-2.127,0.683-3.242C85.3,74.541,84.416,72.378,82.859,70.741z"/>
	</g>
</g>
<g>
	<g>
		<path d="M170.667,68.267h-59.733c-4.713,0-8.533,3.82-8.533,8.533s3.82,8.533,8.533,8.533h59.733c4.713,0,8.533-3.82,8.533-8.533    S175.38,68.267,170.667,68.267z"/>
	</g>
</g>
<g>
	<g>
		<path d="M358.4,392.533H51.2c-9.421,0.011-17.056,7.646-17.067,17.067v51.2c0.011,9.421,7.645,17.056,17.067,17.067h307.2    c9.421-0.011,17.056-7.646,17.067-17.067v-51.2C375.456,400.179,367.821,392.544,358.4,392.533z M51.2,460.8v-51.2h307.2    l0.012,51.2H51.2z"/>
	</g>
</g>
<g>
	<g>
		<path d="M408.917,397.825c-0.433-1.034-1.039-1.987-1.791-2.817c-0.83-0.753-1.783-1.359-2.817-1.792    c-2.077-0.858-4.41-0.858-6.487,0c-1.033,0.433-1.984,1.039-2.813,1.792c-0.773,0.815-1.383,1.772-1.796,2.817    c-0.906,2.066-0.906,4.417,0,6.483c0.435,1.034,1.042,1.986,1.795,2.817c3.365,3.3,8.752,3.3,12.117,0    c0.751-0.832,1.357-1.784,1.792-2.817C409.828,402.244,409.828,399.89,408.917,397.825z"/>
	</g>
</g>
<g>
	<g>
		<path d="M443.05,397.825c-0.433-1.034-1.039-1.986-1.791-2.817c-0.83-0.753-1.783-1.359-2.817-1.792    c-4.173-1.86-9.063,0.015-10.922,4.188c-0.062,0.138-0.12,0.278-0.174,0.42c-0.906,2.066-0.906,4.417,0,6.483    c0.435,1.034,1.042,1.987,1.795,2.818c3.365,3.3,8.752,3.3,12.117,0c0.751-0.832,1.357-1.784,1.792-2.817    c0.478-1.012,0.712-2.123,0.683-3.242C443.72,399.952,443.487,398.851,443.05,397.825z"/>
	</g>
</g>
<g>
	<g>
		<path d="M477.183,397.825c-0.433-1.034-1.039-1.987-1.791-2.817c-3.421-3.158-8.695-3.158-12.117,0    c-0.773,0.815-1.383,1.772-1.796,2.817c-0.906,2.066-0.906,4.417,0,6.483c0.435,1.034,1.042,1.986,1.795,2.817    c3.365,3.3,8.752,3.3,12.117,0c0.751-0.832,1.357-1.784,1.792-2.817C478.094,402.244,478.094,399.89,477.183,397.825z"/>
	</g>
</g>
<g>
	<g>
		<path d="M408.917,431.959c-0.433-1.034-1.039-1.987-1.792-2.817c-2.476-2.38-6.121-3.082-9.304-1.792    c-2.141,0.78-3.828,2.467-4.608,4.608c-1.772,4.387,0.348,9.38,4.736,11.152c2.039,0.823,4.316,0.831,6.36,0.023    c1.02-0.493,1.968-1.123,2.816-1.874c0.751-0.832,1.357-1.784,1.792-2.817C409.828,436.377,409.828,434.024,408.917,431.959z"/>
	</g>
</g>
<g>
	<g>
		<path d="M443.051,431.959c-0.433-1.034-1.039-1.987-1.792-2.817c-2.476-2.38-6.121-3.082-9.304-1.792    c-2.141,0.78-3.828,2.467-4.608,4.608c-1.789,4.363,0.298,9.35,4.662,11.139c3.173,1.301,6.816,0.577,9.25-1.837    c0.751-0.832,1.357-1.784,1.792-2.817C443.962,436.377,443.962,434.024,443.051,431.959z"/>
	</g>
</g>
<g>
	<g>
		<path d="M477.183,431.959c-0.433-1.034-1.039-1.987-1.791-2.817c-2.473-2.388-6.122-3.09-9.304-1.792    c-2.141,0.78-3.828,2.467-4.608,4.608c-0.906,2.066-0.906,4.417,0,6.483c0.435,1.034,1.042,1.987,1.795,2.818    c3.365,3.3,8.752,3.3,12.117,0c0.751-0.832,1.357-1.784,1.792-2.817C478.094,436.377,478.094,434.024,477.183,431.959z"/>
	</g>
</g>
<g>
	<g>
		<path d="M401.116,460.751c-2.293-0.013-4.494,0.896-6.108,2.524c-1.574,1.626-2.461,3.796-2.475,6.059    c0.012,1.115,0.243,2.216,0.679,3.242c0.78,2.141,2.467,3.828,4.608,4.608c2.067,0.911,4.421,0.911,6.487,0    c1.034-0.433,1.987-1.039,2.817-1.792c0.751-0.832,1.357-1.784,1.792-2.817c0.437-1.025,0.67-2.126,0.683-3.241    C409.627,464.621,405.829,460.778,401.116,460.751z"/>
	</g>
</g>
<g>
	<g>
		<path d="M441.259,463.275c-0.407-0.366-0.834-0.708-1.279-1.025c-0.475-0.324-0.992-0.582-1.538-0.767    c-0.485-0.246-1.003-0.42-1.538-0.517c-1.664-0.348-3.394-0.167-4.95,0.517c-1.033,0.433-1.984,1.039-2.813,1.792    c-1.559,1.635-2.443,3.799-2.475,6.058c-0.029,1.119,0.204,2.229,0.679,3.242c0.435,1.034,1.042,1.986,1.796,2.817    c3.365,3.3,8.752,3.3,12.117,0c0.751-0.832,1.357-1.784,1.792-2.817c0.438-1.026,0.67-2.127,0.683-3.242    C443.7,467.074,442.816,464.911,441.259,463.275z"/>
	</g>
</g>
<g>
	<g>
		<path d="M475.392,463.275c-2.457-2.418-6.125-3.124-9.305-1.791c-1.033,0.433-1.984,1.039-2.813,1.792    c-1.559,1.635-2.443,3.799-2.475,6.058c0.012,1.115,0.243,2.216,0.679,3.242c0.435,1.034,1.042,1.986,1.796,2.817    c3.365,3.3,8.752,3.3,12.117,0c0.751-0.832,1.357-1.784,1.792-2.817c0.438-1.026,0.67-2.127,0.683-3.242    C477.833,467.074,476.95,464.911,475.392,463.275z"/>
	</g>
</g>
<g>
	<g>
		<path d="M84.651,431.959c-0.433-1.034-1.039-1.987-1.792-2.817c-3.421-3.158-8.695-3.158-12.117,0    c-0.755,0.829-1.363,1.782-1.796,2.817c-0.906,2.066-0.906,4.417,0,6.483c0.435,1.034,1.042,1.986,1.795,2.817    c0.847,0.751,1.794,1.382,2.813,1.875c3.201,1.248,6.837,0.516,9.305-1.875c0.751-0.832,1.357-1.784,1.792-2.817    C85.562,436.377,85.562,434.024,84.651,431.959z"/>
	</g>
</g>
<g>
	<g>
		<path d="M170.667,426.667h-59.733c-4.713,0-8.533,3.82-8.533,8.533s3.82,8.533,8.533,8.533h59.733c4.713,0,8.533-3.82,8.533-8.533    S175.38,426.667,170.667,426.667z"/>
	</g>
</g>
<g>
	<g>
		<path d="M358.4,213.333H51.2c-9.421,0.011-17.056,7.645-17.067,17.067v51.2c0.024,1.701,0.306,3.389,0.836,5.005    c-2.02,4.18-0.268,9.205,3.911,11.225c2.31,1.116,5.003,1.116,7.313,0c1.617,0.53,3.305,0.812,5.006,0.836h307.2    c9.421-0.011,17.056-7.646,17.067-17.067v-51.2C375.456,220.979,367.821,213.344,358.4,213.333z M51.2,230.4h39.133L51.2,269.533    V230.4z M63.267,281.6l51.2-51.2h27.067l-51.2,51.2H63.267z M114.467,281.6l51.2-51.2h27.067l-51.2,51.2H114.467z M165.667,281.6    l51.2-51.2h27.067l-51.2,51.2H165.667z M216.867,281.6l51.2-51.2h27.067l-51.2,51.2H216.867z M268.067,281.6l51.2-51.2h27.067    l-51.2,51.2H268.067z M319.267,281.6l39.136-39.136l0.009,39.136H319.267z"/>
	</g>
</g>
<g>
	<g>
		<path d="M408.916,218.625c-0.433-1.034-1.038-1.987-1.791-2.817c-2.453-2.425-6.126-3.133-9.304-1.792    c-1.033,0.433-1.984,1.039-2.813,1.792c-0.773,0.815-1.383,1.772-1.796,2.817c-1.357,3.176-0.646,6.858,1.795,9.301    c0.847,0.751,1.794,1.382,2.813,1.875c4.327,1.814,9.306-0.224,11.119-4.552C409.828,223.129,409.82,220.739,408.916,218.625z"/>
	</g>
</g>
<g>
	<g>
		<path d="M443.05,218.625c-0.433-1.034-1.039-1.986-1.791-2.817c-3.421-3.158-8.695-3.158-12.117,0    c-0.755,0.829-1.363,1.782-1.796,2.817c-1.357,3.176-0.646,6.858,1.795,9.301c0.847,0.751,1.794,1.382,2.813,1.875    c4.353,1.797,9.338-0.276,11.135-4.629c0.432-1.048,0.652-2.171,0.645-3.305C443.762,220.748,443.528,219.637,443.05,218.625z"/>
	</g>
</g>
<g>
	<g>
		<path d="M477.183,218.625c-0.413-1.044-1.021-2-1.791-2.817c-3.421-3.158-8.695-3.158-12.117,0    c-0.755,0.829-1.363,1.782-1.796,2.817c-1.357,3.176-0.646,6.858,1.795,9.301c0.847,0.751,1.794,1.382,2.813,1.875    c4.327,1.814,9.306-0.224,11.119-4.552C478.095,223.129,478.087,220.739,477.183,218.625z"/>
	</g>
</g>
<g>
	<g>
		<path d="M407.125,249.941c-3.422-3.159-8.696-3.159-12.117,0c-1.559,1.635-2.443,3.799-2.475,6.059    c0,4.713,3.821,8.533,8.533,8.533s8.533-3.82,8.533-8.533C409.584,253.738,408.698,251.568,407.125,249.941z"/>
	</g>
</g>
<g>
	<g>
		<path d="M441.259,249.941c-2.453-2.425-6.126-3.133-9.305-1.791c-1.044,0.412-1.998,1.02-2.813,1.792    c-1.559,1.635-2.443,3.799-2.475,6.058c0.045,4.758,3.939,8.578,8.697,8.533c1.054-0.01,2.097-0.213,3.078-0.6    c1.02-0.493,1.968-1.124,2.817-1.875c1.604-1.606,2.496-3.789,2.475-6.059C443.7,253.741,442.816,251.578,441.259,249.941z"/>
	</g>
</g>
<g>
	<g>
		<path d="M469.383,247.417c-2.293-0.013-4.494,0.896-6.108,2.524c-1.574,1.626-2.461,3.796-2.475,6.059    c0,4.713,3.82,8.533,8.533,8.533s8.533-3.82,8.533-8.533C477.894,251.287,474.096,247.445,469.383,247.417z"/>
	</g>
</g>
<g>
	<g>
		<path d="M401.116,281.551c-2.293-0.013-4.494,0.896-6.108,2.524c-1.559,1.635-2.443,3.799-2.475,6.059    c0,4.713,3.821,8.533,8.533,8.533s8.533-3.82,8.533-8.533C409.627,285.421,405.829,281.578,401.116,281.551z"/>
	</g>
</g>
<g>
	<g>
		<path d="M435.25,281.551c-2.292-0.013-4.494,0.896-6.108,2.524c-1.559,1.635-2.443,3.799-2.475,6.059    c0.045,4.758,3.939,8.578,8.697,8.533c1.054-0.01,2.097-0.213,3.078-0.6c1.02-0.493,1.968-1.124,2.817-1.875    c1.604-1.606,2.496-3.789,2.475-6.059C443.761,285.421,439.963,281.578,435.25,281.551z"/>
	</g>
</g>
<g>
	<g>
		<path d="M469.383,281.551c-2.293-0.013-4.494,0.896-6.108,2.524c-1.559,1.635-2.443,3.799-2.475,6.059    c0,4.713,3.82,8.533,8.533,8.533s8.533-3.82,8.533-8.533C477.894,285.421,474.096,281.578,469.383,281.551z"/>
	</g>
</g>
<g>
</g>
<g>
</g>
<g>
</g>
<g>
</g>
<g>
</g>
<g>
</g>
<g>
</g>
<g>
</g>
<g>
</g>
<g>
</g>
<g>
</g>
<g>
</g>
<g>
</g>
<g>
</g>
<g>
</g>
</svg>
