<?xml version="1.0" encoding="iso-8859-1"?>
<!-- Generator: Adobe Illustrator 19.0.0, SVG Export Plug-In . SVG Version: 6.00 Build 0)  -->
<svg xmlns="http://www.w3.org/2000/svg" xmlns:xlink="http://www.w3.org/1999/xlink" version="1.1" id="Layer_1" x="0px" y="0px" viewBox="0 0 512 512" style="enable-background:new 0 0 512 512;" xml:space="preserve">
<g>
	<g>
		<path d="M409.6,0H102.4C88.268,0.015,76.815,11.468,76.8,25.6v460.8c0.015,14.132,11.468,25.585,25.6,25.6h307.2    c14.132-0.015,25.585-11.468,25.6-25.6V25.6C435.185,11.468,423.732,0.015,409.6,0z M418.133,486.4    c-0.003,4.711-3.822,8.53-8.533,8.533H102.4c-4.712-0.003-8.53-3.822-8.533-8.533v-85.333h324.267V486.4z M418.133,384H93.867    V85.333h324.267V384z M418.133,68.267H93.867V25.6c0.003-4.711,3.822-8.53,8.533-8.533h307.2c4.711,0.003,8.53,3.822,8.533,8.533    V68.267z"/>
	</g>
</g>
<g>
	<g>
		<path d="M256,418.133c-16.495,0-29.867,13.372-29.867,29.867c0.02,16.487,13.38,29.847,29.867,29.867    c16.495,0,29.867-13.372,29.867-29.867C285.867,431.505,272.495,418.133,256,418.133z M256,460.8c-7.069,0-12.8-5.731-12.8-12.8    c0.008-7.066,5.734-12.792,12.8-12.8c7.069,0,12.8,5.731,12.8,12.8C268.8,455.069,263.069,460.8,256,460.8z"/>
	</g>
</g>
<g>
	<g>
		<path d="M256,34.133c-4.713,0-8.533,3.82-8.533,8.533c-0.007,2.267,0.882,4.445,2.475,6.059c1.605,1.605,3.789,2.497,6.059,2.475    c4.667,0.045,8.488-3.702,8.533-8.369c0.001-0.055,0.001-0.11,0-0.164C264.533,37.954,260.713,34.133,256,34.133z"/>
	</g>
</g>
<g>
	<g>
		<path d="M142.457,104.9c-3.319-3.26-8.638-3.26-11.957,0l-17.067,17.067c-3.332,3.333-3.331,8.736,0.002,12.068    c1.6,1.599,3.769,2.498,6.031,2.498c2.264,0.003,4.435-0.897,6.033-2.5l17.067-17.067    C145.868,113.604,145.819,108.202,142.457,104.9z"/>
	</g>
</g>
<g>
	<g>
		<path d="M193.691,104.9c-3.323-3.282-8.668-3.282-11.991,0l-51.2,51.2c-3.324,3.33-3.318,8.73,0,12.066    c3.33,3.332,8.731,3.333,12.064,0.003c0.001-0.001,0.002-0.002,0.003-0.003l51.2-51.2    C197.078,113.614,197.044,108.211,193.691,104.9z"/>
	</g>
</g>
<g>
	<g>
		<path d="M392.533,110.933H307.2c-4.713,0-8.533,3.82-8.533,8.533S302.487,128,307.2,128h85.333c4.713,0,8.533-3.82,8.533-8.533    S397.246,110.933,392.533,110.933z"/>
	</g>
</g>
<g>
	<g>
		<path d="M392.533,145.067H307.2c-4.713,0-8.533,3.821-8.533,8.533c0,4.713,3.82,8.533,8.533,8.533h85.333    c4.713,0,8.533-3.821,8.533-8.533C401.067,148.887,397.246,145.067,392.533,145.067z"/>
	</g>
</g>
<g>
	<g>
		<path d="M392.533,307.2H307.2c-4.713,0-8.533,3.82-8.533,8.533s3.82,8.533,8.533,8.533h85.333c4.713,0,8.533-3.82,8.533-8.533    S397.246,307.2,392.533,307.2z"/>
	</g>
</g>
<g>
	<g>
		<path d="M392.533,341.333H307.2c-4.713,0-8.533,3.82-8.533,8.533s3.82,8.533,8.533,8.533h85.333c4.713,0,8.533-3.82,8.533-8.533    S397.246,341.333,392.533,341.333z"/>
	</g>
</g>
<g>
	<g>
		<path d="M256.01,281.6c-0.003,0-0.007,0-0.01,0h-59.733v-59.733c0.003-4.71-3.813-8.531-8.523-8.533c-0.003,0-0.007,0-0.01,0    c-42.415,0-76.8,34.385-76.8,76.8s34.385,76.8,76.8,76.8s76.8-34.385,76.8-76.8C264.536,285.423,260.72,281.603,256.01,281.6z     M187.733,349.867c-32.991-0.001-59.735-26.747-59.734-59.738c0.001-29.693,21.812-54.878,51.2-59.121v59.125    c-0.003,4.71,3.813,8.531,8.523,8.533c0.003,0,0.007,0,0.01,0h59.125C242.58,328.037,217.414,349.83,187.733,349.867z"/>
	</g>
</g>
<g>
	<g>
		<path d="M221.867,179.2c-4.71-0.003-8.531,3.813-8.533,8.523c0,0.003,0,0.007,0,0.01V256c-0.003,4.71,3.813,8.531,8.523,8.533    c0.003,0,0.007,0,0.01,0h68.267c4.71,0.003,8.531-3.813,8.533-8.523c0-0.003,0-0.007,0-0.01    C298.62,213.604,264.263,179.246,221.867,179.2z M230.4,247.467v-50.592c26.196,3.821,46.771,24.396,50.592,50.592H230.4z"/>
	</g>
</g>
<g>
</g>
<g>
</g>
<g>
</g>
<g>
</g>
<g>
</g>
<g>
</g>
<g>
</g>
<g>
</g>
<g>
</g>
<g>
</g>
<g>
</g>
<g>
</g>
<g>
</g>
<g>
</g>
<g>
</g>
</svg>
