<?xml version="1.0" encoding="iso-8859-1"?>
<!-- Generator: Adobe Illustrator 19.0.0, SVG Export Plug-In . SVG Version: 6.00 Build 0)  -->
<svg xmlns="http://www.w3.org/2000/svg" xmlns:xlink="http://www.w3.org/1999/xlink" version="1.1" id="Layer_1" x="0px" y="0px" viewBox="0 0 512 512" style="enable-background:new 0 0 512 512;" xml:space="preserve">
<g>
	<g>
		<path d="M409.6,0H102.4C88.268,0.015,76.815,11.468,76.8,25.6v460.8c0.015,14.132,11.468,25.585,25.6,25.6h307.2    c14.132-0.015,25.585-11.468,25.6-25.6V25.6C435.185,11.468,423.732,0.015,409.6,0z M418.133,486.4    c-0.003,4.711-3.822,8.53-8.533,8.533H102.4c-4.712-0.003-8.53-3.822-8.533-8.533v-85.333h324.267V486.4z M418.133,384H93.867    V85.333h324.267V384z M418.133,68.267H93.867V25.6c0.003-4.711,3.822-8.53,8.533-8.533h307.2c4.711,0.003,8.53,3.822,8.533,8.533    V68.267z"/>
	</g>
</g>
<g>
	<g>
		<path d="M256,418.133c-16.495,0-29.867,13.372-29.867,29.867c0.02,16.487,13.38,29.847,29.867,29.867    c16.495,0,29.867-13.372,29.867-29.867C285.867,431.505,272.495,418.133,256,418.133z M256,460.8c-7.069,0-12.8-5.731-12.8-12.8    c0.008-7.066,5.734-12.792,12.8-12.8c7.069,0,12.8,5.731,12.8,12.8C268.8,455.069,263.069,460.8,256,460.8z"/>
	</g>
</g>
<g>
	<g>
		<path d="M263.851,39.425c-0.412-1.045-1.02-2.002-1.792-2.817c-3.421-3.158-8.695-3.158-12.117,0    c-0.772,0.816-1.38,1.772-1.792,2.817c-0.48,1.012-0.715,2.123-0.683,3.242c-0.023,2.27,0.869,4.454,2.475,6.059    c0.83,0.754,1.782,1.36,2.817,1.791c2.065,0.911,4.418,0.911,6.483,0c1.034-0.433,1.986-1.039,2.817-1.791    C264.503,46.284,265.212,42.6,263.851,39.425z"/>
	</g>
</g>
<g>
	<g>
		<path d="M142.569,104.903c-0.001-0.001-0.002-0.002-0.003-0.003c-3.33-3.332-8.732-3.333-12.064-0.003    c-0.001,0.001-0.002,0.002-0.003,0.003l-17.067,17.067c-3.353,3.311-3.388,8.713-0.077,12.066s8.713,3.388,12.066,0.077    c0.026-0.026,0.052-0.051,0.077-0.077l17.067-17.067C145.898,113.636,145.9,108.235,142.569,104.903z"/>
	</g>
</g>
<g>
	<g>
		<path d="M193.658,104.9c-3.319-3.26-8.638-3.26-11.958,0l-51.2,51.2c-3.362,3.302-3.41,8.704-0.108,12.066    c3.302,3.362,8.704,3.41,12.066,0.108c0.036-0.036,0.072-0.072,0.108-0.108l51.2-51.2    C197.068,113.604,197.02,108.202,193.658,104.9z"/>
	</g>
</g>
<g>
	<g>
		<path d="M281.6,170.667v-8.533c-0.012-9.421-7.646-17.054-17.067-17.067h-17.067c-9.421,0.012-17.054,7.646-17.067,17.067v8.533    c-14.132,0.015-25.585,11.468-25.6,25.6v102.4c0.015,14.132,11.468,25.585,25.6,25.6h51.2c14.132-0.015,25.585-11.468,25.6-25.6    v-102.4C307.185,182.135,295.732,170.682,281.6,170.667z M247.467,162.133h17.067v8.533h-17.067V162.133z M290.133,298.667    c-0.003,4.711-3.822,8.53-8.533,8.533h-51.2c-4.712-0.003-8.53-3.822-8.533-8.533v-8.533h68.267V298.667z M290.133,273.067    h-68.267V256h68.267V273.067z M290.133,238.933h-68.267v-17.067h68.267V238.933z M290.133,204.8h-68.267v-8.533    c0.003-4.711,3.822-8.53,8.533-8.533h51.2c4.711,0.003,8.53,3.822,8.533,8.533V204.8z"/>
	</g>
</g>
<g>
</g>
<g>
</g>
<g>
</g>
<g>
</g>
<g>
</g>
<g>
</g>
<g>
</g>
<g>
</g>
<g>
</g>
<g>
</g>
<g>
</g>
<g>
</g>
<g>
</g>
<g>
</g>
<g>
</g>
</svg>
