<?xml version="1.0" encoding="iso-8859-1"?>
<!-- Generator: Adobe Illustrator 19.0.0, SVG Export Plug-In . SVG Version: 6.00 Build 0)  -->
<svg xmlns="http://www.w3.org/2000/svg" xmlns:xlink="http://www.w3.org/1999/xlink" version="1.1" id="Layer_1" x="0px" y="0px" viewBox="0 0 512 512" style="enable-background:new 0 0 512 512;" xml:space="preserve">
<g>
	<g>
		<path d="M409.6,0H102.4C88.268,0.015,76.815,11.468,76.8,25.6v460.8c0.015,14.132,11.468,25.585,25.6,25.6h307.2    c14.132-0.015,25.585-11.468,25.6-25.6V25.6C435.185,11.468,423.732,0.015,409.6,0z M418.133,486.4    c-0.003,4.711-3.822,8.53-8.533,8.533H102.4c-4.712-0.003-8.53-3.822-8.533-8.533v-85.333h324.267V486.4z M418.133,384H93.867    V85.333h324.267V384z M418.133,68.267H93.867V25.6c0.003-4.711,3.822-8.53,8.533-8.533h307.2c4.711,0.003,8.53,3.822,8.533,8.533    V68.267z"/>
	</g>
</g>
<g>
	<g>
		<path d="M256,418.133c-16.495,0-29.867,13.372-29.867,29.867c0.02,16.487,13.38,29.847,29.867,29.867    c16.495,0,29.867-13.372,29.867-29.867C285.867,431.505,272.495,418.133,256,418.133z M256,460.8c-7.069,0-12.8-5.731-12.8-12.8    c0.008-7.066,5.734-12.792,12.8-12.8c7.069,0,12.8,5.731,12.8,12.8C268.8,455.069,263.069,460.8,256,460.8z"/>
	</g>
</g>
<g>
	<g>
		<path d="M263.85,39.425c-0.411-1.045-1.02-2.001-1.791-2.817c-0.831-0.752-1.783-1.358-2.817-1.792    c-2.076-0.858-4.407-0.858-6.483,0c-2.143,0.777-3.831,2.465-4.608,4.608c-0.481,1.012-0.715,2.123-0.684,3.243    c-0.045,4.667,3.702,8.488,8.369,8.533c0.055,0.001,0.11,0.001,0.164,0c4.664,0.048,8.485-3.694,8.533-8.358    C264.545,41.668,264.313,40.504,263.85,39.425z"/>
	</g>
</g>
<g>
	<g>
		<path d="M142.569,104.903c-0.001-0.001-0.002-0.002-0.003-0.003c-3.33-3.332-8.732-3.333-12.064-0.003    c-0.001,0.001-0.002,0.002-0.003,0.003l-17.067,17.067c-3.353,3.311-3.388,8.713-0.077,12.066s8.713,3.388,12.066,0.077    c0.026-0.026,0.052-0.051,0.077-0.077l17.067-17.067C145.898,113.636,145.9,108.235,142.569,104.903z"/>
	</g>
</g>
<g>
	<g>
		<path d="M193.769,104.903c-0.001-0.001-0.002-0.002-0.003-0.003c-3.33-3.332-8.732-3.333-12.064-0.003    c-0.001,0.001-0.002,0.002-0.003,0.003l-51.2,51.2c-3.353,3.312-3.386,8.714-0.074,12.066c3.311,3.353,8.714,3.386,12.066,0.074    c0.025-0.025,0.05-0.05,0.075-0.075l51.2-51.2C197.098,113.636,197.1,108.235,193.769,104.903z"/>
	</g>
</g>
<g>
	<g>
		<path d="M334.058,161.842c-4.236-3.881-9.924-5.775-15.642-5.208c-1.6,0.168-3.208,0.251-4.817,0.25    c-21.949-0.162-41.575-13.709-49.508-34.175c-1.495-4.469-6.33-6.879-10.799-5.384c-2.54,0.85-4.534,2.844-5.384,5.384    c-7.934,20.466-27.559,34.013-49.508,34.175c-1.614,0.001-3.228-0.083-4.833-0.25c-5.713-0.57-11.397,1.325-15.625,5.208    c-4.651,4.244-7.293,10.254-7.275,16.55v80.358c-0.109,25.876,10.95,50.542,30.342,67.675    c15.118,13.437,34.64,20.862,54.867,20.867c3.785-0.001,7.565-0.254,11.317-0.758C309.458,340.925,341.333,302,341.333,256    v-77.608C341.351,172.096,338.709,166.085,334.058,161.842z M324.267,256c0,37.475-25.5,69.125-59.325,73.617    c-19.061,2.611-38.309-3.247-52.683-16.034c-15.693-13.891-24.632-33.875-24.525-54.833v-80.358    c-0.014-1.468,0.584-2.875,1.65-3.883c0.577-0.567,1.349-0.892,2.158-0.908c0.098-0.003,0.195,0.003,0.292,0.017    c2.182,0.221,4.374,0.332,6.567,0.333c22.876-0.21,44.276-11.329,57.6-29.925c13.324,18.596,34.724,29.715,57.6,29.925    c2.188-0.001,4.374-0.112,6.55-0.333c0.913-0.079,1.815,0.247,2.467,0.892c1.066,1.009,1.664,2.416,1.65,3.883V256z"/>
	</g>
</g>
<g>
	<g>
		<path d="M303.059,194.9C303.059,194.9,303.059,194.9,303.059,194.9c-4.04-2.426-9.281-1.119-11.707,2.921    c-0.001,0.001-0.002,0.003-0.002,0.004l-45.575,75.967L227.9,255.917c-3.351-3.313-8.753-3.283-12.066,0.068    c-3.287,3.324-3.287,8.675,0,11.999l25.6,25.6c1.6,1.6,3.77,2.5,6.033,2.5c0.348-0.001,0.696-0.024,1.042-0.067    c2.608-0.318,4.923-1.822,6.275-4.075l51.2-85.333C308.409,202.568,307.1,197.326,303.059,194.9z"/>
	</g>
</g>
<g>
</g>
<g>
</g>
<g>
</g>
<g>
</g>
<g>
</g>
<g>
</g>
<g>
</g>
<g>
</g>
<g>
</g>
<g>
</g>
<g>
</g>
<g>
</g>
<g>
</g>
<g>
</g>
<g>
</g>
</svg>
