<?xml version="1.0" encoding="iso-8859-1"?>
<!-- Generator: Adobe Illustrator 19.0.0, SVG Export Plug-In . SVG Version: 6.00 Build 0)  -->
<svg xmlns="http://www.w3.org/2000/svg" xmlns:xlink="http://www.w3.org/1999/xlink" version="1.1" id="Layer_1" x="0px" y="0px" viewBox="0 0 512 512" style="enable-background:new 0 0 512 512;" xml:space="preserve">
<g>
	<g>
		<path d="M185.157,104.9c-3.323-3.282-8.667-3.281-11.991,0L156.1,121.967c-3.332,3.331-3.333,8.732-0.003,12.064    c0.001,0.001,0.002,0.002,0.003,0.003c3.33,3.332,8.732,3.333,12.064,0.003c0.001-0.001,0.002-0.002,0.003-0.003l17.067-17.067    C188.545,113.613,188.51,108.211,185.157,104.9z"/>
	</g>
</g>
<g>
	<g>
		<path d="M236.358,104.9c-3.323-3.282-8.668-3.282-11.991,0l-51.2,51.2c-3.332,3.331-3.333,8.732-0.003,12.064    c0.001,0.001,0.002,0.002,0.003,0.003c3.33,3.332,8.732,3.333,12.064,0.003c0.001-0.001,0.002-0.002,0.003-0.003l51.2-51.2    C239.745,113.614,239.711,108.211,236.358,104.9z"/>
	</g>
</g>
<g>
	<g>
		<path d="M349.867,0H162.133c-23.553,0.028-42.639,19.114-42.667,42.667v426.667c0.028,23.553,19.114,42.639,42.667,42.667h187.733    c23.553-0.028,42.639-19.114,42.667-42.667V42.667C392.506,19.114,373.419,0.028,349.867,0z M375.467,469.333    c-0.015,14.132-11.468,25.585-25.6,25.6H162.133c-14.132-0.015-25.585-11.468-25.6-25.6V409.6h238.933V469.333z M375.467,392.533    H136.533v-307.2h238.933V392.533z M375.467,68.267H136.533v-25.6c0.015-14.132,11.468-25.585,25.6-25.6h187.733    c14.132,0.015,25.585,11.468,25.6,25.6V68.267z"/>
	</g>
</g>
<g>
	<g>
		<path d="M256,426.667c-14.138,0-25.6,11.462-25.6,25.6c0,14.138,11.461,25.6,25.6,25.6s25.6-11.462,25.6-25.6    C281.585,438.135,270.132,426.682,256,426.667z M256,460.8c-4.713,0-8.533-3.821-8.533-8.533c0-4.713,3.82-8.533,8.533-8.533    s8.533,3.821,8.533,8.533C264.53,456.978,260.712,460.797,256,460.8z"/>
	</g>
</g>
<g>
	<g>
		<path d="M227.925,36.608c-2.05-2.002-4.956-2.866-7.767-2.308c-0.534,0.096-1.05,0.271-1.533,0.517    c-0.546,0.184-1.065,0.442-1.542,0.767c-0.445,0.316-0.871,0.658-1.276,1.025c-1.576,1.625-2.462,3.795-2.475,6.059    c-0.045,4.667,3.702,8.488,8.369,8.533c0.055,0.001,0.109,0.001,0.164,0c2.269,0.019,4.452-0.872,6.059-2.475    c0.752-0.831,1.358-1.783,1.792-2.817c0.437-1.026,0.669-2.127,0.683-3.242C230.367,40.408,229.483,38.244,227.925,36.608z"/>
	</g>
</g>
<g>
	<g>
		<path d="M290.133,34.133H256c-4.713,0-8.533,3.82-8.533,8.533S251.287,51.2,256,51.2h34.133c4.713,0,8.533-3.82,8.533-8.533    S294.846,34.133,290.133,34.133z"/>
	</g>
</g>
<g>
	<g>
		<path d="M341.333,273.067h-25.991c0.243-2.805,0.391-5.646,0.391-8.533c0-2.887-0.148-5.728-0.391-8.533h25.991    c4.713,0,8.533-3.82,8.533-8.533s-3.82-8.533-8.533-8.533h-29.085c-1.534-5.632-3.63-11.096-6.257-16.309    c10.161-0.023,20.032-3.388,28.092-9.574c4.704-4.301,7.343-10.41,7.25-16.783c0-4.713-3.821-8.533-8.533-8.533    c-4.713,0-8.533,3.82-8.533,8.533c0.099,1.622-0.56,3.198-1.783,4.267c-8.576,4.775-18.491,6.577-28.198,5.124    c-17.632-21.144-49.066-23.991-70.211-6.359c-2.307,1.924-4.436,4.053-6.36,6.36h0c-9.707,1.443-19.619-0.359-28.198-5.124    c-1.223-1.069-1.882-2.645-1.783-4.267c0-4.713-3.82-8.533-8.533-8.533s-8.533,3.82-8.533,8.533    c-0.093,6.373,2.546,12.482,7.25,16.783c8.06,6.187,17.932,9.551,28.093,9.574c-2.627,5.213-4.723,10.677-6.258,16.309h-29.085    c-4.713,0-8.533,3.82-8.533,8.533s3.82,8.533,8.533,8.533h25.991c-0.243,2.805-0.391,5.646-0.391,8.533    c0,2.887,0.148,5.728,0.391,8.533h-25.991c-4.713,0-8.533,3.821-8.533,8.533s3.82,8.533,8.533,8.533h29.085    c1.531,5.622,3.623,11.076,6.244,16.281c-10.159,0.035-20.026,3.409-28.079,9.603c-4.704,4.301-7.343,10.41-7.25,16.783    c0,4.713,3.82,8.533,8.533,8.533s8.533-3.821,8.533-8.533c-0.099-1.622,0.56-3.198,1.783-4.267    c8.585-4.752,18.494-6.551,28.202-5.12c17.634,21.143,49.069,23.987,70.211,6.353c2.305-1.923,4.432-4.05,6.355-6.355    c9.707-1.443,19.619,0.357,28.199,5.123c1.223,1.069,1.882,2.645,1.783,4.267c0,4.713,3.821,8.533,8.533,8.533    c4.713,0,8.533-3.821,8.533-8.533c0.093-6.373-2.546-12.482-7.25-16.783c-8.053-6.193-17.919-9.567-28.079-9.603    c2.621-5.204,4.712-10.659,6.244-16.281h29.085c4.713,0,8.533-3.82,8.533-8.533S346.046,273.067,341.333,273.067z     M247.467,323.062c-19.451-5.551-34.133-29.685-34.133-58.529c0.016-2.851,0.178-5.699,0.487-8.533h33.646V323.062z     M217.509,238.933C224.374,218.789,239.024,204.8,256,204.8s31.626,13.989,38.491,34.133H217.509z M264.533,323.062V256h33.646    c0.309,2.834,0.471,5.682,0.487,8.533C298.667,293.377,283.984,317.511,264.533,323.062z"/>
	</g>
</g>
<g>
</g>
<g>
</g>
<g>
</g>
<g>
</g>
<g>
</g>
<g>
</g>
<g>
</g>
<g>
</g>
<g>
</g>
<g>
</g>
<g>
</g>
<g>
</g>
<g>
</g>
<g>
</g>
<g>
</g>
</svg>
