<?xml version="1.0" encoding="iso-8859-1"?>
<!-- Generator: Adobe Illustrator 19.0.0, SVG Export Plug-In . SVG Version: 6.00 Build 0)  -->
<svg xmlns="http://www.w3.org/2000/svg" xmlns:xlink="http://www.w3.org/1999/xlink" version="1.1" id="Layer_1" x="0px" y="0px" viewBox="0 0 512 512" style="enable-background:new 0 0 512 512;" xml:space="preserve">
<g>
	<g>
		<path d="M185.236,104.903c-0.001-0.001-0.002-0.002-0.003-0.003c-3.33-3.332-8.732-3.333-12.064-0.003    c-0.001,0.001-0.002,0.002-0.003,0.003L156.1,121.967c-3.353,3.311-3.387,8.714-0.076,12.066    c3.311,3.353,8.713,3.387,12.066,0.076c0.025-0.025,0.051-0.05,0.076-0.076l17.067-17.067    C188.565,113.636,188.566,108.235,185.236,104.903z"/>
	</g>
</g>
<g>
	<g>
		<path d="M236.436,104.903c-0.001-0.001-0.002-0.002-0.003-0.003c-3.33-3.332-8.732-3.333-12.064-0.003    c-0.001,0.001-0.002,0.002-0.003,0.003l-51.2,51.2c-3.353,3.312-3.386,8.714-0.074,12.066c3.312,3.353,8.714,3.386,12.066,0.074    c0.025-0.025,0.05-0.05,0.075-0.075l51.2-51.2C239.765,113.636,239.766,108.235,236.436,104.903z"/>
	</g>
</g>
<g>
	<g>
		<path d="M349.867,0H162.133c-23.553,0.028-42.639,19.114-42.667,42.667v426.667c0.028,23.553,19.114,42.639,42.667,42.667h187.733    c23.553-0.028,42.639-19.114,42.667-42.667V42.667C392.506,19.114,373.419,0.028,349.867,0z M375.467,469.333    c-0.015,14.132-11.468,25.585-25.6,25.6H162.133c-14.132-0.015-25.585-11.468-25.6-25.6V409.6h238.933V469.333z M375.467,392.533    H136.533v-307.2h238.933V392.533z M375.467,68.267H136.533v-25.6c0.015-14.132,11.468-25.585,25.6-25.6h187.733    c14.132,0.015,25.585,11.468,25.6,25.6V68.267z"/>
	</g>
</g>
<g>
	<g>
		<path d="M256,426.667c-14.138,0-25.6,11.462-25.6,25.6c0.015,14.132,11.468,25.585,25.6,25.6c14.138,0,25.6-11.462,25.6-25.6    C281.6,438.128,270.138,426.667,256,426.667z M256,460.8c-4.713,0-8.533-3.821-8.533-8.533c0.003-4.711,3.822-8.53,8.533-8.533    c4.713,0,8.533,3.821,8.533,8.533C264.533,456.979,260.713,460.8,256,460.8z"/>
	</g>
</g>
<g>
	<g>
		<path d="M230.225,41.042c-0.077-0.564-0.249-1.11-0.508-1.617c-0.188-0.545-0.445-1.063-0.767-1.542l-1.025-1.275    c-0.831-0.752-1.783-1.358-2.817-1.792c-3.177-1.342-6.85-0.634-9.301,1.792l-1.025,1.275c-0.325,0.477-0.583,0.995-0.767,1.542    c-0.259,0.507-0.433,1.053-0.517,1.617c-0.097,0.537-0.152,1.08-0.166,1.625c0.045,2.232,0.929,4.365,2.475,5.975    c3.255,3.346,8.607,3.419,11.952,0.164c0.055-0.054,0.11-0.109,0.164-0.164c1.546-1.61,2.43-3.743,2.475-5.975    C230.387,42.121,230.329,41.578,230.225,41.042z"/>
	</g>
</g>
<g>
	<g>
		<path d="M290.133,34.133H256c-4.713,0-8.533,3.82-8.533,8.533S251.287,51.2,256,51.2h34.133c4.713,0,8.533-3.82,8.533-8.533    S294.846,34.133,290.133,34.133z"/>
	</g>
</g>
<g>
	<g>
		<path d="M281.6,179.2v-8.533c-0.012-9.421-7.646-17.054-17.067-17.067h-17.067c-9.421,0.012-17.054,7.646-17.067,17.067v8.533    c-14.132,0.015-25.585,11.468-25.6,25.6v102.4c0.015,14.132,11.468,25.585,25.6,25.6h51.2c14.132-0.015,25.585-11.468,25.6-25.6    V204.8C307.185,190.668,295.732,179.215,281.6,179.2z M247.467,170.667h17.067v8.533h-17.067V170.667z M290.133,307.2    c-0.003,4.711-3.822,8.53-8.533,8.533h-51.2c-4.712-0.003-8.53-3.822-8.533-8.533v-8.533h68.267V307.2z M290.133,281.6h-68.267    v-17.067h68.267V281.6z M290.133,247.467h-68.267V230.4h68.267V247.467z M290.133,213.333h-68.267V204.8    c0.003-4.711,3.822-8.53,8.533-8.533h51.2c4.711,0.003,8.53,3.822,8.533,8.533V213.333z"/>
	</g>
</g>
<g>
</g>
<g>
</g>
<g>
</g>
<g>
</g>
<g>
</g>
<g>
</g>
<g>
</g>
<g>
</g>
<g>
</g>
<g>
</g>
<g>
</g>
<g>
</g>
<g>
</g>
<g>
</g>
<g>
</g>
</svg>
