<?xml version="1.0" encoding="iso-8859-1"?>
<!-- Generator: Adobe Illustrator 19.0.0, SVG Export Plug-In . SVG Version: 6.00 Build 0)  -->
<svg xmlns="http://www.w3.org/2000/svg" xmlns:xlink="http://www.w3.org/1999/xlink" version="1.1" id="Layer_1" x="0px" y="0px" viewBox="0 0 512 512" style="enable-background:new 0 0 512 512;" xml:space="preserve">
<g>
	<g>
		<path d="M349.867,0H162.133c-23.553,0.028-42.639,19.114-42.667,42.667v426.667c0.028,23.553,19.114,42.639,42.667,42.667h187.733    c23.553-0.028,42.639-19.114,42.667-42.667V42.667C392.506,19.114,373.419,0.028,349.867,0z M375.467,469.333    c-0.015,14.132-11.468,25.585-25.6,25.6H162.133c-14.132-0.015-25.585-11.468-25.6-25.6V409.6h238.933V469.333z M375.467,392.533    H136.533v-307.2h238.933V392.533z M375.467,68.267H136.533v-25.6c0.015-14.132,11.468-25.585,25.6-25.6h187.733    c14.132,0.015,25.585,11.468,25.6,25.6V68.267z"/>
	</g>
</g>
<g>
	<g>
		<path d="M256,426.667c-14.138,0-25.6,11.462-25.6,25.6c0.015,14.132,11.468,25.585,25.6,25.6c14.138,0,25.6-11.462,25.6-25.6    C281.6,438.128,270.138,426.667,256,426.667z M256,460.8c-4.713,0-8.533-3.821-8.533-8.533c0.005-4.711,3.822-8.529,8.533-8.533    c4.713,0,8.533,3.821,8.533,8.533C264.533,456.979,260.713,460.8,256,460.8z"/>
	</g>
</g>
<g>
	<g>
		<path d="M229.717,39.425c-0.413-1.044-1.021-2-1.791-2.817c-2.453-2.425-6.126-3.133-9.304-1.792    c-1.033,0.433-1.984,1.039-2.813,1.792c-0.773,0.815-1.383,1.772-1.796,2.817c-1.835,4.293,0.157,9.26,4.449,11.095    c1.076,0.46,2.235,0.691,3.404,0.68c4.664,0.048,8.485-3.694,8.533-8.358C230.412,41.668,230.179,40.504,229.717,39.425z"/>
	</g>
</g>
<g>
	<g>
		<path d="M290.133,34.133H256c-4.713,0-8.533,3.82-8.533,8.533S251.287,51.2,256,51.2h34.133c4.713,0,8.533-3.82,8.533-8.533    S294.846,34.133,290.133,34.133z"/>
	</g>
</g>
<g>
	<g>
		<path d="M185.236,104.903c-0.001-0.001-0.002-0.002-0.003-0.003c-3.33-3.332-8.732-3.333-12.064-0.003    c-0.001,0.001-0.002,0.002-0.003,0.003L156.1,121.967c-3.353,3.311-3.387,8.714-0.076,12.066    c3.311,3.353,8.713,3.387,12.066,0.076c0.025-0.025,0.051-0.05,0.076-0.076l17.067-17.067    C188.565,113.636,188.566,108.235,185.236,104.903z"/>
	</g>
</g>
<g>
	<g>
		<path d="M236.358,104.9c-3.323-3.282-8.668-3.282-11.991,0l-51.2,51.2c-3.332,3.331-3.333,8.732-0.003,12.064    c0.001,0.001,0.002,0.002,0.003,0.003c3.33,3.332,8.732,3.333,12.064,0.003c0.001-0.001,0.002-0.002,0.003-0.003l51.2-51.2    C239.745,113.614,239.711,108.211,236.358,104.9z"/>
	</g>
</g>
<g>
	<g>
		<path d="M337.125,273.2l-60.079-98.783c-6.565-11.623-21.31-15.723-32.934-9.158c-3.829,2.163-6.995,5.329-9.158,9.158    L174.875,273.2c-5.46,9.019-5.637,20.281-0.463,29.467c4.238,7.964,12.488,12.976,21.508,13.067h120.158    c9.02-0.091,17.27-5.103,21.508-13.067C342.762,293.481,342.585,282.219,337.125,273.2z M322.713,294.3L322.713,294.3    c-1.246,2.56-3.79,4.234-6.633,4.367H195.921c-2.844-0.132-5.388-1.807-6.633-4.367c-2.115-3.82-2.05-8.474,0.171-12.233    l60.079-98.783c1.697-3.569,5.966-5.087,9.535-3.39c1.486,0.707,2.684,1.904,3.39,3.39l60.079,98.783    C324.762,285.826,324.827,290.48,322.713,294.3z"/>
	</g>
</g>
<g>
	<g>
		<path d="M256.004,204.8c-0.001,0-0.003,0-0.004,0c-4.712-0.001-8.532,3.817-8.533,8.529c0,0.001,0,0.003,0,0.004v34.133    c0,4.713,3.82,8.533,8.533,8.533s8.533-3.82,8.533-8.533v-34.133C264.535,208.622,260.716,204.801,256.004,204.8z"/>
	</g>
</g>
<g>
	<g>
		<path d="M263.851,269.825c-0.433-1.034-1.039-1.987-1.792-2.817c-3.421-3.158-8.695-3.158-12.117,0    c-0.755,0.829-1.363,1.782-1.796,2.817c-0.906,2.066-0.906,4.417,0,6.483c0.78,2.141,2.467,3.828,4.608,4.608    c3.176,1.362,6.861,0.653,9.304-1.791c0.751-0.832,1.357-1.784,1.792-2.817C264.762,274.244,264.762,271.89,263.851,269.825z"/>
	</g>
</g>
<g>
</g>
<g>
</g>
<g>
</g>
<g>
</g>
<g>
</g>
<g>
</g>
<g>
</g>
<g>
</g>
<g>
</g>
<g>
</g>
<g>
</g>
<g>
</g>
<g>
</g>
<g>
</g>
<g>
</g>
</svg>
