<?xml version="1.0" encoding="iso-8859-1"?>
<!-- Generator: Adobe Illustrator 19.0.0, SVG Export Plug-In . SVG Version: 6.00 Build 0)  -->
<svg xmlns="http://www.w3.org/2000/svg" xmlns:xlink="http://www.w3.org/1999/xlink" version="1.1" id="Layer_1" x="0px" y="0px" viewBox="0 0 512 512" style="enable-background:new 0 0 512 512;" xml:space="preserve">
<g>
	<g>
		<path d="M349.867,0H162.133c-23.553,0.028-42.639,19.114-42.667,42.667v426.667c0.028,23.553,19.114,42.639,42.667,42.667h187.733    c23.553-0.028,42.639-19.114,42.667-42.667V42.667C392.506,19.114,373.419,0.028,349.867,0z M136.533,85.333h25.822    l-25.822,25.824V85.333z M136.533,135.292l49.954-49.958h27.067l-77.021,77.025V135.292z M136.533,186.492L237.688,85.333h27.067    L136.533,213.558V186.492z M136.533,237.692L288.888,85.333h30.821L136.533,268.508V237.692z M375.467,469.333    c-0.015,14.132-11.468,25.585-25.6,25.6H162.133c-14.132-0.015-25.585-11.468-25.6-25.6V409.6h238.933V469.333z M375.467,392.533    h-26.845l26.845-26.843V392.533z M375.467,341.558l-50.979,50.975h-27.066l78.045-78.042V341.558z M375.467,290.358    L273.288,392.533h-27.066l129.245-129.242V290.358z M375.467,239.158L222.088,392.533h-27.066l180.445-180.442V239.158z     M375.467,187.958L170.888,392.533h-27.063l231.642-231.642V187.958z M375.467,136.758L136.533,375.692v-27.067l238.933-238.933    V136.758z M375.467,85.558L136.533,324.492v-31.85L343.842,85.333h31.625V85.558z M375.467,68.267H136.533v-25.6    c0.015-14.132,11.468-25.585,25.6-25.6h187.733c14.132,0.015,25.585,11.468,25.6,25.6V68.267z"/>
	</g>
</g>
<g>
	<g>
		<path d="M256,426.667c-14.138,0-25.6,11.462-25.6,25.6c0.015,14.132,11.468,25.585,25.6,25.6c14.138,0,25.6-11.462,25.6-25.6    C281.6,438.128,270.138,426.667,256,426.667z M256,460.8c-4.713,0-8.533-3.821-8.533-8.533c0.005-4.711,3.822-8.529,8.533-8.533    c4.713,0,8.533,3.821,8.533,8.533C264.533,456.979,260.713,460.8,256,460.8z"/>
	</g>
</g>
<g>
	<g>
		<path d="M229.717,39.425c-0.413-1.044-1.021-2-1.792-2.817c-0.407-0.366-0.834-0.708-1.279-1.025    c-0.475-0.324-0.992-0.582-1.538-0.767c-0.509-0.259-1.056-0.433-1.621-0.517c-2.785-0.558-5.664,0.307-7.68,2.308    c-1.559,1.635-2.443,3.799-2.475,6.059c-0.045,4.667,3.702,8.488,8.369,8.533c0.055,0.001,0.109,0.001,0.164,0    c2.27,0.021,4.453-0.871,6.059-2.475c0.751-0.832,1.357-1.784,1.792-2.817C230.628,43.844,230.628,41.49,229.717,39.425z"/>
	</g>
</g>
<g>
	<g>
		<path d="M290.133,34.133H256c-4.713,0-8.533,3.82-8.533,8.533S251.287,51.2,256,51.2h34.133c4.713,0,8.533-3.82,8.533-8.533    S294.846,34.133,290.133,34.133z"/>
	</g>
</g>
<g>
</g>
<g>
</g>
<g>
</g>
<g>
</g>
<g>
</g>
<g>
</g>
<g>
</g>
<g>
</g>
<g>
</g>
<g>
</g>
<g>
</g>
<g>
</g>
<g>
</g>
<g>
</g>
<g>
</g>
</svg>
