<?xml version="1.0" encoding="iso-8859-1"?>
<!-- Generator: Adobe Illustrator 19.0.0, SVG Export Plug-In . SVG Version: 6.00 Build 0)  -->
<svg xmlns="http://www.w3.org/2000/svg" xmlns:xlink="http://www.w3.org/1999/xlink" version="1.1" id="Layer_1" x="0px" y="0px" viewBox="0 0 512 512" style="enable-background:new 0 0 512 512;" xml:space="preserve">
<g>
	<g>
		<path d="M349.867,0H162.133c-23.553,0.028-42.639,19.114-42.667,42.667v426.667c0.028,23.553,19.114,42.639,42.667,42.667h187.733    c23.553-0.028,42.639-19.114,42.667-42.667V42.667C392.506,19.114,373.419,0.028,349.867,0z M375.467,469.333    c-0.015,14.132-11.468,25.585-25.6,25.6H162.133c-14.132-0.015-25.585-11.468-25.6-25.6V409.6h238.933V469.333z M375.467,392.533    H136.533v-307.2h238.933V392.533z M375.467,68.267H136.533v-25.6c0.015-14.132,11.468-25.585,25.6-25.6h187.733    c14.132,0.015,25.585,11.468,25.6,25.6V68.267z"/>
	</g>
</g>
<g>
	<g>
		<path d="M256,426.667c-14.138,0-25.6,11.462-25.6,25.6c0,14.138,11.461,25.6,25.6,25.6s25.6-11.462,25.6-25.6    C281.585,438.135,270.132,426.682,256,426.667z M256,460.8c-4.713,0-8.533-3.821-8.533-8.533c0-4.713,3.82-8.533,8.533-8.533    s8.533,3.821,8.533,8.533C264.529,456.978,260.711,460.795,256,460.8z"/>
	</g>
</g>
<g>
	<g>
		<path d="M229.717,39.425c-0.413-1.044-1.021-2-1.792-2.817c-2.453-2.425-6.126-3.133-9.304-1.792    c-1.033,0.433-1.984,1.039-2.813,1.792c-0.773,0.815-1.383,1.772-1.796,2.817c-1.849,4.337,0.167,9.351,4.504,11.2    c4.337,1.849,9.351-0.167,11.2-4.504C230.629,43.982,230.629,41.564,229.717,39.425z"/>
	</g>
</g>
<g>
	<g>
		<path d="M290.133,34.133H256c-4.713,0-8.533,3.82-8.533,8.533S251.287,51.2,256,51.2h34.133c4.713,0,8.533-3.82,8.533-8.533    S294.846,34.133,290.133,34.133z"/>
	</g>
</g>
<g>
	<g>
		<path d="M185.157,104.9c-3.323-3.282-8.667-3.281-11.991,0L156.1,121.967c-3.332,3.331-3.333,8.732-0.003,12.064    c0.001,0.001,0.002,0.002,0.003,0.003c3.33,3.332,8.732,3.333,12.064,0.003c0.001-0.001,0.002-0.002,0.003-0.003l17.067-17.067    C188.545,113.613,188.51,108.211,185.157,104.9z"/>
	</g>
</g>
<g>
	<g>
		<path d="M236.358,104.9c-3.323-3.282-8.668-3.282-11.991,0l-51.2,51.2c-3.332,3.331-3.333,8.732-0.003,12.064    c0.001,0.001,0.002,0.002,0.003,0.003c3.33,3.332,8.732,3.333,12.064,0.003c0.001-0.001,0.002-0.002,0.003-0.003l51.2-51.2    C239.745,113.614,239.711,108.211,236.358,104.9z"/>
	</g>
</g>
<g>
	<g>
		<path d="M284.064,215.672c10.72-15.502,6.844-36.76-8.658-47.481s-36.76-6.844-47.48,8.658c-3.946,5.706-6.059,12.48-6.058,19.417    c-0.001,6.936,2.116,13.706,6.069,19.406c-9.204,7.795-14.539,19.225-14.602,31.286v26.108c-0.001,4.712,3.817,8.532,8.529,8.533    c0.001,0,0.003,0,0.004,0h68.267c4.712,0.001,8.532-3.817,8.533-8.529c0-0.001,0-0.003,0-0.004v-26.108    C298.604,234.897,293.269,223.466,284.064,215.672z M241.776,186.833c3.162-4.768,8.503-7.634,14.224-7.633    c9.423-0.003,17.064,7.633,17.067,17.055c0.002,5.724-2.866,11.067-7.637,14.228c-5.733,3.733-13.129,3.733-18.862,0    C238.713,205.275,236.568,194.687,241.776,186.833z M281.6,264.533h-51.2v-17.575c0.004-8.047,4.058-15.552,10.785-19.968    c9.353,4.547,20.275,4.546,29.628-0.001c6.728,4.416,10.782,11.921,10.787,19.969V264.533z"/>
	</g>
</g>
<g>
	<g>
		<path d="M298.667,298.667h-85.333c-4.713,0-8.533,3.82-8.533,8.533s3.821,8.533,8.533,8.533h85.333    c4.713,0,8.533-3.82,8.533-8.533S303.38,298.667,298.667,298.667z"/>
	</g>
</g>
<g>
	<g>
		<path d="M298.667,332.8h-85.333c-4.713,0-8.533,3.821-8.533,8.533s3.821,8.533,8.533,8.533h85.333c4.713,0,8.533-3.82,8.533-8.533    S303.38,332.8,298.667,332.8z"/>
	</g>
</g>
<g>
</g>
<g>
</g>
<g>
</g>
<g>
</g>
<g>
</g>
<g>
</g>
<g>
</g>
<g>
</g>
<g>
</g>
<g>
</g>
<g>
</g>
<g>
</g>
<g>
</g>
<g>
</g>
<g>
</g>
</svg>
