<?xml version="1.0" encoding="iso-8859-1"?>
<!-- Generator: Adobe Illustrator 19.0.0, SVG Export Plug-In . SVG Version: 6.00 Build 0)  -->
<svg xmlns="http://www.w3.org/2000/svg" xmlns:xlink="http://www.w3.org/1999/xlink" version="1.1" id="Layer_1" x="0px" y="0px" viewBox="0 0 512 512" style="enable-background:new 0 0 512 512;" xml:space="preserve">
<g>
	<g>
		<path d="M486.4,12.8H25.6C11.468,12.815,0.015,24.268,0,38.4v358.4c0.015,14.132,11.468,25.585,25.6,25.6h153.6v34.088    c0.738,13.425-9.547,24.906-22.972,25.643c-0.875,0.048-1.752,0.049-2.628,0.002h-51.2c-4.713,0-8.533,3.82-8.533,8.533    s3.82,8.533,8.533,8.533h307.2c4.713,0,8.533-3.82,8.533-8.533s-3.82-8.533-8.533-8.533h-51.2    c-13.42,0.719-24.881-9.577-25.6-22.997c-0.046-0.867-0.046-1.736,0-2.603V422.4h153.6c14.132-0.015,25.585-11.468,25.6-25.6V38.4    C511.985,24.268,500.532,12.815,486.4,12.8z M188.423,482.133c5.004-7.61,7.726-16.493,7.844-25.6V422.4h119.467v34.133    c0.118,9.107,2.839,17.99,7.844,25.6H188.423z M494.933,396.8c-0.005,4.711-3.822,8.529-8.533,8.533H25.6    c-4.711-0.005-8.529-3.822-8.533-8.533v-85.333h477.867V396.8z M494.933,294.4H17.067v-256c0.005-4.711,3.822-8.529,8.533-8.533    h460.8c4.711,0.005,8.529,3.822,8.533,8.533V294.4z"/>
	</g>
</g>
<g>
	<g>
		<path d="M256,328.533c-16.495,0-29.867,13.372-29.867,29.867s13.372,29.867,29.867,29.867c16.495,0,29.867-13.372,29.867-29.867    C285.847,341.913,272.487,328.553,256,328.533z M256,371.2c-7.069,0-12.8-5.731-12.8-12.8c0-7.069,5.731-12.8,12.8-12.8    c7.069,0,12.8,5.731,12.8,12.8C268.792,365.466,263.066,371.192,256,371.2z"/>
	</g>
</g>
<g>
	<g>
		<path d="M227.925,441.942c-2.475-2.379-6.117-3.082-9.3-1.796c-1.045,0.413-2.001,1.022-2.817,1.796    c-3.346,3.319-3.368,8.722-0.05,12.068c1.614,1.628,3.816,2.537,6.108,2.524c0.542-0.016,1.083-0.073,1.617-0.171    c0.566-0.082,1.115-0.255,1.625-0.512c0.524-0.171,1.015-0.432,1.45-0.771c0.49-0.291,0.949-0.633,1.367-1.021    C231.225,450.694,231.225,445.307,227.925,441.942z"/>
	</g>
</g>
<g>
	<g>
		<path d="M263.851,444.754c-0.433-1.033-1.039-1.984-1.792-2.813c-3.421-3.158-8.695-3.158-12.117,0    c-0.753,0.828-1.359,1.78-1.792,2.813c-0.911,2.067-0.911,4.421,0,6.487c0.433,1.034,1.039,1.987,1.792,2.817    c3.365,3.3,8.752,3.3,12.117,0c0.753-0.83,1.359-1.783,1.792-2.817C264.762,449.175,264.762,446.82,263.851,444.754z"/>
	</g>
</g>
<g>
	<g>
		<path d="M290.183,439.417c-2.293-0.013-4.494,0.896-6.108,2.524c-3.346,3.319-3.368,8.722-0.05,12.068    c1.614,1.628,3.816,2.537,6.108,2.524c2.262-0.019,4.43-0.905,6.059-2.475c0.341-0.429,0.683-0.854,1.025-1.367    c0.337-0.436,0.596-0.926,0.767-1.45c0.247-0.483,0.419-1.002,0.508-1.538c0.104-0.563,0.162-1.133,0.175-1.704    C298.694,443.287,294.896,439.445,290.183,439.417z"/>
	</g>
</g>
<g>
	<g>
		<path d="M65.657,49.434c-3.319-3.259-8.637-3.259-11.956,0L36.634,66.5c-3.332,3.333-3.331,8.736,0.002,12.068    c1.6,1.599,3.769,2.498,6.031,2.498c2.264,0.003,4.435-0.897,6.033-2.5L65.766,61.5C69.068,58.137,69.019,52.735,65.657,49.434z"/>
	</g>
</g>
<g>
	<g>
		<path d="M116.89,49.433c-3.323-3.281-8.667-3.281-11.99,0l-51.2,51.2c-3.332,3.331-3.333,8.732-0.003,12.064    c0.001,0.001,0.002,0.002,0.003,0.003c3.33,3.332,8.732,3.333,12.064,0.003c0.001-0.001,0.002-0.002,0.003-0.003l51.2-51.2    C120.278,58.146,120.243,52.744,116.89,49.433z"/>
	</g>
</g>
<g>
	<g>
		<path d="M341.333,183.467h-25.992c0.244-2.806,0.392-5.646,0.392-8.533s-0.148-5.728-0.392-8.533h25.992    c4.713,0,8.533-3.82,8.533-8.533s-3.82-8.533-8.533-8.533h-29.085c-1.534-5.631-3.63-11.094-6.256-16.306    c10.161-0.027,20.031-3.392,28.092-9.578c4.703-4.302,7.342-10.41,7.25-16.783c0-4.713-3.821-8.533-8.533-8.533    c-4.713,0-8.533,3.82-8.533,8.533c0.099,1.619-0.557,3.192-1.775,4.263c-8.583,4.765-18.497,6.567-28.208,5.128    c-17.63-21.143-49.062-23.991-70.206-6.361c-2.307,1.924-4.435,4.052-6.359,6.358c-9.711,1.444-19.628-0.357-28.21-5.126    c-1.219-1.07-1.874-2.644-1.775-4.263c0-4.713-3.82-8.533-8.533-8.533s-8.533,3.82-8.533,8.533    c-0.092,6.373,2.547,12.482,7.25,16.783c8.061,6.185,17.931,9.551,28.092,9.578c-2.626,5.212-4.722,10.675-6.256,16.306h-29.085    c-4.713,0-8.533,3.82-8.533,8.533s3.82,8.533,8.533,8.533h25.992c-0.244,2.806-0.392,5.646-0.392,8.533s0.148,5.728,0.392,8.533    h-25.992c-4.712-0.001-8.532,3.817-8.533,8.529c0,0.001,0,0.003,0,0.004c-0.001,4.712,3.817,8.532,8.529,8.533    c0.001,0,0.003,0,0.004,0h29.085c1.531,5.622,3.623,11.076,6.245,16.281c-10.159,0.04-20.024,3.414-28.08,9.603    c-4.703,4.302-7.342,10.41-7.25,16.783c0,4.713,3.82,8.533,8.533,8.533s8.533-3.82,8.533-8.533    c-0.099-1.619,0.557-3.192,1.775-4.262c8.585-4.76,18.498-6.562,28.208-5.127c17.632,21.143,49.066,23.99,70.209,6.358    c2.307-1.924,4.436-4.053,6.36-6.36c9.711-1.456,19.63,0.347,28.206,5.129c1.219,1.07,1.874,2.644,1.775,4.262    c0,4.713,3.821,8.533,8.533,8.533c4.713,0,8.533-3.82,8.533-8.533c0.092-6.373-2.547-12.482-7.25-16.783    c-8.056-6.19-17.92-9.563-28.079-9.603c2.62-5.204,4.712-10.659,6.244-16.281h29.085c4.713,0,8.533-3.821,8.533-8.533    S346.046,183.467,341.333,183.467z M247.467,233.463c-19.45-5.551-34.133-29.682-34.133-58.529    c0.016-2.851,0.179-5.699,0.487-8.533h33.646V233.463z M217.508,149.333C224.375,129.188,239.024,115.2,256,115.2    c16.976,0,31.625,13.988,38.492,34.133H217.508z M264.533,233.463V166.4h33.646c0.309,2.834,0.471,5.682,0.487,8.533    C298.667,203.78,283.983,227.912,264.533,233.463z"/>
	</g>
</g>
<g>
</g>
<g>
</g>
<g>
</g>
<g>
</g>
<g>
</g>
<g>
</g>
<g>
</g>
<g>
</g>
<g>
</g>
<g>
</g>
<g>
</g>
<g>
</g>
<g>
</g>
<g>
</g>
<g>
</g>
</svg>
