<?xml version="1.0" encoding="iso-8859-1"?>
<!-- Generator: Adobe Illustrator 19.0.0, SVG Export Plug-In . SVG Version: 6.00 Build 0)  -->
<svg xmlns="http://www.w3.org/2000/svg" xmlns:xlink="http://www.w3.org/1999/xlink" version="1.1" id="Layer_1" x="0px" y="0px" viewBox="0 0 512 512" style="enable-background:new 0 0 512 512;" xml:space="preserve">
<g>
	<g>
		<path d="M486.4,12.8H25.6C11.468,12.815,0.015,24.268,0,38.4v358.4c0.015,14.132,11.468,25.585,25.6,25.6h153.6v34.088    c0.738,13.425-9.547,24.906-22.972,25.643c-0.875,0.048-1.752,0.049-2.628,0.002h-51.2c-4.713,0-8.533,3.82-8.533,8.533    s3.82,8.533,8.533,8.533h307.2c4.713,0,8.533-3.82,8.533-8.533s-3.82-8.533-8.533-8.533h-51.2    c-13.42,0.719-24.881-9.577-25.6-22.997c-0.046-0.867-0.046-1.736,0-2.603V422.4h153.6c14.132-0.015,25.585-11.468,25.6-25.6V38.4    C511.985,24.268,500.532,12.815,486.4,12.8z M188.422,482.133c5.005-7.61,7.727-16.493,7.844-25.6V422.4h119.467v34.133    c0.118,9.107,2.84,17.99,7.844,25.6H188.422z M494.933,396.8c-0.005,4.711-3.822,8.529-8.533,8.533H25.6    c-4.711-0.005-8.529-3.822-8.533-8.533v-85.333h477.867V396.8z M494.933,294.4H17.067v-256c0.005-4.711,3.822-8.529,8.533-8.533    h460.8c4.711,0.005,8.529,3.822,8.533,8.533V294.4z"/>
	</g>
</g>
<g>
	<g>
		<path d="M256,328.533c-16.495,0-29.867,13.372-29.867,29.867s13.372,29.867,29.867,29.867c16.495,0,29.867-13.372,29.867-29.867    C285.847,341.913,272.487,328.553,256,328.533z M256,371.2c-7.069,0-12.8-5.731-12.8-12.8c0-7.069,5.731-12.8,12.8-12.8    c7.069,0,12.8,5.731,12.8,12.8C268.792,365.466,263.066,371.192,256,371.2z"/>
	</g>
</g>
<g>
	<g>
		<path d="M221.939,439.457c-0.598-0.003-1.195,0.058-1.781,0.18c-0.534,0.091-1.051,0.263-1.533,0.508    c-0.546,0.187-1.064,0.447-1.542,0.771l-1.275,1.025c-3.3,3.365-3.3,8.752,0,12.117c0.425,0.341,0.85,0.683,1.275,1.021    c0.477,0.324,0.996,0.583,1.542,0.771c0.483,0.245,1,0.418,1.533,0.513c0.565,0.094,1.136,0.151,1.709,0.171    c4.715,0.02,8.554-3.786,8.574-8.502C230.461,443.316,226.655,439.477,221.939,439.457z"/>
	</g>
</g>
<g>
	<g>
		<path d="M263.85,444.754c-0.432-1.033-1.038-1.984-1.791-2.813c-0.831-0.754-1.783-1.361-2.817-1.796    c-2.078-0.85-4.406-0.85-6.483,0c-1.045,0.413-2.002,1.023-2.817,1.796c-0.753,0.828-1.359,1.78-1.792,2.813    c-0.481,1.013-0.715,2.125-0.683,3.246c0,4.713,3.82,8.533,8.533,8.533s8.533-3.82,8.533-8.533    C264.52,446.884,264.288,445.781,263.85,444.754z"/>
	</g>
</g>
<g>
	<g>
		<path d="M296.192,441.942c-2.039-1.964-4.9-2.822-7.683-2.305c-0.563,0.079-1.11,0.25-1.617,0.508    c-0.546,0.187-1.064,0.447-1.542,0.771c-0.446,0.315-0.872,0.657-1.275,1.025c-3.3,3.365-3.3,8.752,0,12.117    c0.425,0.341,0.85,0.683,1.275,1.021c0.477,0.324,0.996,0.583,1.542,0.771c0.508,0.257,1.054,0.431,1.617,0.513    c0.537,0.098,1.08,0.155,1.625,0.171c0.542-0.016,1.083-0.073,1.617-0.171c0.566-0.082,1.115-0.255,1.625-0.512    c0.524-0.171,1.015-0.432,1.45-0.771c0.508-0.338,0.942-0.679,1.367-1.021C299.492,450.694,299.492,445.307,296.192,441.942z"/>
	</g>
</g>
<g>
	<g>
		<path d="M65.657,49.434c-3.319-3.259-8.637-3.259-11.956,0L36.634,66.5c-3.332,3.333-3.331,8.736,0.002,12.068    c1.6,1.599,3.769,2.498,6.031,2.498c2.264,0.003,4.435-0.897,6.033-2.5L65.766,61.5C69.068,58.137,69.019,52.735,65.657,49.434z"/>
	</g>
</g>
<g>
	<g>
		<path d="M116.89,49.433c-3.323-3.281-8.667-3.281-11.99,0l-51.2,51.2c-3.332,3.331-3.333,8.732-0.003,12.064    c0.001,0.001,0.002,0.002,0.003,0.003c3.33,3.332,8.732,3.333,12.064,0.003c0.001-0.001,0.002-0.002,0.003-0.003l51.2-51.2    C120.278,58.146,120.243,52.744,116.89,49.433z"/>
	</g>
</g>
<g>
	<g>
		<path d="M448,123.733c-16.495,0-29.867,13.372-29.867,29.867c0.024,6.516,2.199,12.841,6.188,17.994l-32.464,48.663    c-3.809-1.731-7.94-2.636-12.124-2.657c-7.493,0.052-14.695,2.905-20.192,7.997l-38.577-33.033    c2.14-4.132,3.271-8.711,3.302-13.364c0-16.495-13.372-29.867-29.867-29.867s-29.867,13.372-29.867,29.867    c0.029,4.597,1.133,9.124,3.223,13.218l-35.198,29.351c-4.525-2.699-9.689-4.139-14.958-4.169    c-16.495,0-29.867,13.372-29.867,29.867c0,16.495,13.372,29.867,29.867,29.867c16.487-0.02,29.847-13.38,29.867-29.867    c-0.029-4.597-1.133-9.123-3.223-13.218l35.198-29.351c9.146,5.53,20.598,5.56,29.773,0.078l41.483,35.521    c-3.947,16.026,5.846,32.217,21.872,36.164s32.217-5.846,36.164-21.872c1.961-7.961,0.564-16.378-3.862-23.28l33.257-49.851    c3.163,1.162,6.502,1.774,9.872,1.809c16.495,0,29.867-13.372,29.867-29.867C477.867,137.105,464.495,123.733,448,123.733z     M217.6,260.267c-7.069,0-12.8-5.731-12.8-12.8c0.008-7.066,5.734-12.792,12.8-12.8c7.069,0,12.8,5.731,12.8,12.8    C230.4,254.536,224.669,260.267,217.6,260.267z M294.4,192c-7.069,0-12.8-5.731-12.8-12.8c0.008-7.066,5.734-12.792,12.8-12.8    c7.069,0,12.8,5.731,12.8,12.8C307.2,186.269,301.469,192,294.4,192z M379.733,260.267c-7.069,0-12.8-5.731-12.8-12.8    c0-7.069,5.731-12.8,12.8-12.8c3.289,0.01,6.449,1.284,8.825,3.558c2.576,2.377,4.021,5.737,3.975,9.242    C392.533,254.536,386.803,260.267,379.733,260.267z M448,166.4c-7.069,0-12.8-5.731-12.8-12.8c0.008-7.066,5.734-12.792,12.8-12.8    c7.069,0,12.8,5.731,12.8,12.8C460.8,160.669,455.069,166.4,448,166.4z"/>
	</g>
</g>
<g>
	<g>
		<path d="M102.4,132.267c-37.703,0-68.267,30.564-68.267,68.267c0.043,37.685,30.582,68.224,68.267,68.267    c37.703,0,68.267-30.564,68.267-68.267C170.667,162.831,140.103,132.267,102.4,132.267z M110.933,150.046    c21.47,3.667,38.289,20.484,41.958,41.954h-41.958V150.046z M93.87,251.021c-27.884-4.713-46.667-31.138-41.954-59.021    c3.632-21.486,20.464-38.32,41.951-41.954v50.487c-0.001,4.712,3.817,8.532,8.529,8.533c0.001,0,0.003,0,0.004,0h50.492    C148.179,236.95,121.754,255.734,93.87,251.021z"/>
	</g>
</g>
<g>
	<g>
		<path d="M298.667,55.467H204.8c-4.713,0-8.533,3.82-8.533,8.533s3.82,8.533,8.533,8.533h93.867c4.713,0,8.533-3.82,8.533-8.533    S303.38,55.467,298.667,55.467z"/>
	</g>
</g>
<g>
	<g>
		<path d="M469.333,55.467h-128c-4.713,0-8.533,3.82-8.533,8.533s3.821,8.533,8.533,8.533h128c4.713,0,8.533-3.82,8.533-8.533    S474.046,55.467,469.333,55.467z"/>
	</g>
</g>
<g>
	<g>
		<path d="M384,89.6H204.8c-4.713,0-8.533,3.82-8.533,8.533s3.82,8.533,8.533,8.533H384c4.713,0,8.533-3.82,8.533-8.533    S388.713,89.6,384,89.6z"/>
	</g>
</g>
<g>
	<g>
		<path d="M469.333,89.6h-42.667c-4.713,0-8.533,3.82-8.533,8.533s3.82,8.533,8.533,8.533h42.667c4.713,0,8.533-3.82,8.533-8.533    S474.046,89.6,469.333,89.6z"/>
	</g>
</g>
<g>
</g>
<g>
</g>
<g>
</g>
<g>
</g>
<g>
</g>
<g>
</g>
<g>
</g>
<g>
</g>
<g>
</g>
<g>
</g>
<g>
</g>
<g>
</g>
<g>
</g>
<g>
</g>
<g>
</g>
</svg>
