<?xml version="1.0" encoding="iso-8859-1"?>
<!-- Generator: Adobe Illustrator 19.0.0, SVG Export Plug-In . SVG Version: 6.00 Build 0)  -->
<svg xmlns="http://www.w3.org/2000/svg" xmlns:xlink="http://www.w3.org/1999/xlink" version="1.1" id="Layer_1" x="0px" y="0px" viewBox="0 0 512 512" style="enable-background:new 0 0 512 512;" xml:space="preserve">
<g>
	<g>
		<path d="M486.4,12.8H25.6C11.468,12.815,0.015,24.268,0,38.4v358.4c0.015,14.132,11.468,25.585,25.6,25.6h153.6v34.088    c0.738,13.425-9.547,24.906-22.972,25.643c-0.875,0.048-1.752,0.049-2.628,0.002h-51.2c-4.713,0-8.533,3.82-8.533,8.533    s3.82,8.533,8.533,8.533h307.2c4.713,0,8.533-3.82,8.533-8.533s-3.82-8.533-8.533-8.533h-51.2    c-13.42,0.719-24.881-9.577-25.6-22.997c-0.046-0.867-0.046-1.736,0-2.603V422.4h153.6c14.132-0.015,25.585-11.468,25.6-25.6V38.4    C511.985,24.268,500.532,12.815,486.4,12.8z M188.422,482.133c5.005-7.61,7.727-16.493,7.844-25.6V422.4h119.467v34.133    c0.118,9.107,2.84,17.99,7.844,25.6H188.422z M494.933,396.8c-0.005,4.711-3.822,8.529-8.533,8.533H25.6    c-4.711-0.005-8.529-3.822-8.533-8.533v-85.333h477.867V396.8z M494.933,294.4H17.067v-256c0.005-4.711,3.822-8.529,8.533-8.533    h460.8c4.711,0.005,8.529,3.822,8.533,8.533V294.4z"/>
	</g>
</g>
<g>
	<g>
		<path d="M256,328.533c-16.495,0-29.867,13.372-29.867,29.867s13.372,29.867,29.867,29.867c16.495,0,29.867-13.372,29.867-29.867    C285.847,341.913,272.487,328.553,256,328.533z M256,371.2c-7.069,0-12.8-5.731-12.8-12.8c0-7.069,5.731-12.8,12.8-12.8    c7.069,0,12.8,5.731,12.8,12.8C268.792,365.466,263.066,371.192,256,371.2z"/>
	</g>
</g>
<g>
	<g>
		<path d="M221.996,439.452c-0.618-0.005-1.234,0.057-1.838,0.186c-0.534,0.091-1.051,0.263-1.533,0.508    c-0.546,0.187-1.064,0.447-1.542,0.771l-1.275,1.025c-0.772,0.814-1.38,1.769-1.792,2.813c-0.438,1.027-0.67,2.13-0.683,3.246    c0.014,2.263,0.9,4.433,2.475,6.059c0.425,0.341,0.85,0.683,1.275,1.021c0.477,0.324,0.996,0.583,1.542,0.771    c0.483,0.245,1,0.418,1.533,0.513c0.565,0.098,1.136,0.155,1.709,0.171c2.259-0.035,4.421-0.918,6.059-2.475    c0.341-0.429,0.683-0.854,1.025-1.367c0.337-0.436,0.596-0.926,0.767-1.45c0.247-0.483,0.419-1.002,0.508-1.538    c0.103-0.563,0.162-1.133,0.175-1.704C230.44,443.319,226.677,439.492,221.996,439.452z"/>
	</g>
</g>
<g>
	<g>
		<path d="M262.058,441.941c-3.346-3.346-8.771-3.346-12.117,0c-3.346,3.319-3.368,8.722-0.05,12.068    c1.614,1.628,3.816,2.537,6.108,2.524c0.542-0.016,1.083-0.073,1.617-0.171c0.566-0.082,1.115-0.255,1.625-0.512    c0.524-0.171,1.015-0.432,1.45-0.771c0.508-0.338,0.942-0.679,1.367-1.021C265.404,450.713,265.404,445.288,262.058,441.941z"/>
	</g>
</g>
<g>
	<g>
		<path d="M296.192,441.941c-3.346-3.346-8.771-3.346-12.117,0c-3.346,3.319-3.368,8.722-0.05,12.068    c1.614,1.628,3.816,2.537,6.108,2.524c0.542-0.016,1.083-0.073,1.617-0.171c0.566-0.082,1.115-0.255,1.625-0.512    c0.524-0.171,1.015-0.432,1.45-0.771c0.508-0.338,0.942-0.679,1.367-1.021C299.538,450.712,299.538,445.288,296.192,441.941z"/>
	</g>
</g>
<g>
	<g>
		<path d="M65.657,49.434c-3.319-3.259-8.637-3.259-11.956,0L36.634,66.5c-3.332,3.333-3.331,8.736,0.002,12.068    c1.6,1.599,3.769,2.498,6.031,2.498c2.264,0.003,4.435-0.897,6.033-2.5L65.766,61.5C69.068,58.137,69.019,52.735,65.657,49.434z"/>
	</g>
</g>
<g>
	<g>
		<path d="M116.89,49.433c-3.323-3.281-8.667-3.281-11.99,0l-51.2,51.2c-3.332,3.331-3.333,8.732-0.003,12.064    c0.001,0.001,0.002,0.002,0.003,0.003c3.33,3.332,8.732,3.333,12.064,0.003c0.001-0.001,0.002-0.002,0.003-0.003l51.2-51.2    C120.278,58.146,120.243,52.744,116.89,49.433z"/>
	</g>
</g>
<g>
	<g>
		<path d="M179.204,192c-0.002,0-0.003,0-0.004,0h-59.733v-59.733c0.001-4.712-3.817-8.532-8.529-8.533c-0.001,0-0.003,0-0.004,0    c-42.415,0-76.8,34.385-76.8,76.8c0,42.415,34.385,76.8,76.8,76.8c42.396-0.048,76.752-34.404,76.8-76.8    C187.735,195.822,183.916,192.001,179.204,192z M102.4,259.654c-32.653-4.714-55.301-35.006-50.587-67.658    c3.784-26.212,24.375-46.803,50.587-50.587v59.125c-0.001,4.712,3.817,8.532,8.529,8.533c0.001,0,0.003,0,0.004,0h59.125    C165.344,241.719,135.053,264.368,102.4,259.654z"/>
	</g>
</g>
<g>
	<g>
		<path d="M145.067,89.6c-4.712-0.001-8.532,3.817-8.533,8.529c0,0.001,0,0.003,0,0.004V166.4c-0.001,4.712,3.817,8.532,8.529,8.533    c0.001,0,0.003,0,0.004,0h68.267c4.712,0.001,8.532-3.817,8.533-8.529c0-0.002,0-0.003,0-0.004    C221.819,124.004,187.462,89.648,145.067,89.6z M153.6,157.867v-50.592c26.195,3.824,46.768,24.397,50.592,50.592H153.6z"/>
	</g>
</g>
<g>
	<g>
		<path d="M392.533,123.733h-17.067c-9.421,0.011-17.056,7.646-17.067,17.067v128c0.011,9.421,7.645,17.056,17.067,17.067h17.067    c9.421-0.011,17.056-7.646,17.067-17.067v-128C409.589,131.379,401.955,123.744,392.533,123.733z M392.533,268.8h-17.067v-128    h17.067V268.8z"/>
	</g>
</g>
<g>
	<g>
		<path d="M460.8,55.467h-17.067c-9.421,0.011-17.056,7.645-17.067,17.067V268.8c0.011,9.421,7.646,17.056,17.067,17.067H460.8    c9.421-0.011,17.056-7.646,17.067-17.067V72.533C477.856,63.112,470.221,55.477,460.8,55.467z M460.8,268.8h-17.067V72.533H460.8    V268.8z"/>
	</g>
</g>
<g>
	<g>
		<path d="M324.267,200.533H307.2c-9.421,0.011-17.056,7.645-17.067,17.067v51.2c0.011,9.421,7.645,17.056,17.067,17.067h17.067    c9.421-0.011,17.056-7.646,17.067-17.067v-51.2C341.323,208.179,333.688,200.544,324.267,200.533z M324.267,268.8H307.2v-51.2    h17.067V268.8z"/>
	</g>
</g>
<g>
	<g>
		<path d="M256,217.6h-17.067c-9.421,0.011-17.056,7.645-17.067,17.067V268.8c0.011,9.421,7.645,17.056,17.067,17.067H256    c9.421-0.011,17.056-7.646,17.067-17.067v-34.133C273.056,225.245,265.421,217.611,256,217.6z M256,268.8h-17.067v-34.133H256    V268.8z"/>
	</g>
</g>
<g>
</g>
<g>
</g>
<g>
</g>
<g>
</g>
<g>
</g>
<g>
</g>
<g>
</g>
<g>
</g>
<g>
</g>
<g>
</g>
<g>
</g>
<g>
</g>
<g>
</g>
<g>
</g>
<g>
</g>
</svg>
