<?xml version="1.0" encoding="iso-8859-1"?>
<!-- Generator: Adobe Illustrator 19.0.0, SVG Export Plug-In . SVG Version: 6.00 Build 0)  -->
<svg xmlns="http://www.w3.org/2000/svg" xmlns:xlink="http://www.w3.org/1999/xlink" version="1.1" id="Layer_1" x="0px" y="0px" viewBox="0 0 512 512" style="enable-background:new 0 0 512 512;" xml:space="preserve">
<g>
	<g>
		<path d="M486.4,12.8H25.6C11.468,12.815,0.015,24.268,0,38.4v358.4c0.015,14.132,11.468,25.585,25.6,25.6h153.6v34.088    c0.738,13.425-9.547,24.906-22.972,25.643c-0.875,0.048-1.752,0.049-2.628,0.002h-51.2c-4.713,0-8.533,3.82-8.533,8.533    s3.82,8.533,8.533,8.533h307.2c4.713,0,8.533-3.82,8.533-8.533s-3.82-8.533-8.533-8.533h-51.2    c-13.42,0.719-24.881-9.577-25.6-22.997c-0.046-0.867-0.046-1.736,0-2.603V422.4h153.6c14.132-0.015,25.585-11.468,25.6-25.6V38.4    C511.985,24.268,500.532,12.815,486.4,12.8z M188.422,482.133c5.005-7.61,7.727-16.493,7.844-25.6V422.4h119.467v34.133    c0.118,9.107,2.84,17.99,7.844,25.6H188.422z M494.933,396.8c-0.005,4.711-3.822,8.529-8.533,8.533H25.6    c-4.711-0.005-8.529-3.822-8.533-8.533v-85.333h477.867V396.8z M494.933,294.4H17.067v-256c0.005-4.711,3.822-8.529,8.533-8.533    h460.8c4.711,0.005,8.529,3.822,8.533,8.533V294.4z"/>
	</g>
</g>
<g>
	<g>
		<path d="M256,328.533c-16.495,0-29.867,13.372-29.867,29.867s13.372,29.867,29.867,29.867c16.495,0,29.867-13.372,29.867-29.867    C285.847,341.913,272.487,328.553,256,328.533z M256,371.2c-7.069,0-12.8-5.731-12.8-12.8c0-7.069,5.731-12.8,12.8-12.8    c7.069,0,12.8,5.731,12.8,12.8C268.792,365.466,263.066,371.192,256,371.2z"/>
	</g>
</g>
<g>
	<g>
		<path d="M227.925,441.941c-0.831-0.754-1.783-1.361-2.817-1.796c-3.178-1.339-6.849-0.63-9.3,1.796    c-1.561,1.634-2.445,3.799-2.475,6.059c0.014,1.115,0.246,2.216,0.683,3.242c0.433,1.034,1.039,1.987,1.792,2.817    c1.636,1.558,3.799,2.441,6.058,2.475c1.119,0.029,2.229-0.205,3.242-0.683c1.033-0.435,1.985-1.041,2.817-1.792    c0.753-0.83,1.359-1.783,1.792-2.817c0.437-1.025,0.669-2.127,0.683-3.241C230.367,445.741,229.483,443.578,227.925,441.941z"/>
	</g>
</g>
<g>
	<g>
		<path d="M263.85,444.754c-0.432-1.033-1.038-1.984-1.791-2.813c-0.418-0.389-0.876-0.732-1.367-1.025    c-0.435-0.339-0.926-0.6-1.45-0.771c-0.51-0.258-1.059-0.43-1.625-0.508c-2.783-0.561-5.661,0.303-7.675,2.304    c-0.753,0.829-1.359,1.78-1.792,2.813c-0.438,1.027-0.67,2.13-0.683,3.246c0.014,0.571,0.07,1.141,0.167,1.704    c0.096,0.535,0.271,1.053,0.517,1.538c0.167,0.525,0.427,1.016,0.767,1.45c0.294,0.489,0.637,0.947,1.025,1.367    c1.627,1.572,3.796,2.459,6.059,2.475c0.542-0.016,1.083-0.073,1.617-0.171c0.566-0.082,1.115-0.255,1.625-0.512    c0.524-0.171,1.015-0.432,1.45-0.771c0.508-0.338,0.942-0.679,1.367-1.021c1.557-1.637,2.441-3.8,2.475-6.059    C264.52,446.884,264.288,445.781,263.85,444.754z"/>
	</g>
</g>
<g>
	<g>
		<path d="M297.983,444.754c-0.411-1.044-1.02-1.999-1.791-2.813c-0.425-0.341-0.858-0.683-1.367-1.025    c-0.435-0.339-0.926-0.6-1.45-0.771c-0.51-0.258-1.059-0.43-1.625-0.508c-1.065-0.258-2.177-0.258-3.242,0    c-0.563,0.079-1.11,0.25-1.617,0.508c-0.546,0.187-1.064,0.447-1.542,0.771l-1.276,1.025c-0.772,0.814-1.38,1.769-1.792,2.813    c-0.481,1.013-0.715,2.125-0.683,3.246c0.03,2.26,0.914,4.424,2.475,6.059c0.425,0.341,0.85,0.683,1.275,1.021    c0.477,0.324,0.996,0.583,1.542,0.771c0.508,0.257,1.054,0.431,1.617,0.513c0.537,0.098,1.08,0.155,1.625,0.171    c0.542-0.016,1.083-0.073,1.617-0.171c0.566-0.082,1.115-0.255,1.625-0.512c0.524-0.171,1.015-0.432,1.45-0.771    c0.508-0.338,0.942-0.679,1.367-1.021c1.557-1.637,2.441-3.8,2.475-6.059C298.653,446.884,298.421,445.781,297.983,444.754z"/>
	</g>
</g>
<g>
	<g>
		<path d="M65.657,49.434c-3.319-3.259-8.637-3.259-11.956,0L36.634,66.5c-3.332,3.333-3.331,8.736,0.002,12.068    c1.6,1.599,3.769,2.498,6.031,2.498c2.264,0.003,4.435-0.897,6.033-2.5L65.766,61.5C69.068,58.137,69.019,52.735,65.657,49.434z"/>
	</g>
</g>
<g>
	<g>
		<path d="M116.89,49.433c-3.323-3.281-8.667-3.281-11.99,0l-51.2,51.2c-3.332,3.331-3.333,8.732-0.003,12.064    c0.001,0.001,0.002,0.002,0.003,0.003c3.33,3.332,8.732,3.333,12.064,0.003c0.001-0.001,0.002-0.002,0.003-0.003l51.2-51.2    C120.278,58.146,120.243,52.744,116.89,49.433z"/>
	</g>
</g>
<g>
	<g>
		<path d="M337.125,200.671l-60.075-98.791c-6.574-11.626-21.328-15.721-32.953-9.147c-3.823,2.162-6.985,5.324-9.147,9.147    l-60.075,98.792c-5.457,9.017-5.636,20.273-0.467,29.458c4.241,7.965,12.493,12.978,21.517,13.07h120.149    c9.023-0.092,17.276-5.105,21.517-13.071C342.76,220.944,342.582,209.687,337.125,200.671z M322.708,221.767    c-1.246,2.559-3.79,4.234-6.633,4.367H195.925c-2.843-0.133-5.387-1.807-6.633-4.367c-2.116-3.818-2.053-8.47,0.166-12.229h0    l60.075-98.792c1.897-3.571,6.33-4.929,9.901-3.032c1.291,0.685,2.346,1.741,3.032,3.032l60.075,98.792    C324.761,213.296,324.824,217.949,322.708,221.767z"/>
	</g>
</g>
<g>
	<g>
		<path d="M256,132.267c-4.713,0-8.533,3.821-8.533,8.533v34.133c-0.001,4.712,3.817,8.532,8.529,8.533c0.002,0,0.003,0,0.004,0    c4.712,0.001,8.532-3.817,8.533-8.529c0-0.001,0-0.003,0-0.004V140.8C264.533,136.087,260.713,132.267,256,132.267z"/>
	</g>
</g>
<g>
	<g>
		<path d="M262.059,194.475c-0.425-0.341-0.858-0.683-1.367-1.025c-0.435-0.339-0.926-0.6-1.45-0.771    c-0.51-0.258-1.059-0.43-1.625-0.508c-2.783-0.561-5.661,0.303-7.675,2.304c-0.388,0.417-0.732,0.874-1.025,1.362    c-0.338,0.435-0.598,0.926-0.767,1.45c-0.259,0.51-0.434,1.059-0.517,1.625c-0.097,0.535-0.153,1.077-0.167,1.621    c0.014,1.115,0.246,2.216,0.683,3.242c0.412,1.044,1.02,2,1.791,2.817c1.636,1.558,3.8,2.441,6.059,2.475    c0.542-0.016,1.083-0.073,1.617-0.171c0.566-0.082,1.115-0.255,1.625-0.513c0.524-0.171,1.015-0.432,1.45-0.771    c0.49-0.291,0.948-0.633,1.367-1.021c0.789-0.802,1.399-1.762,1.792-2.817c0.437-1.026,0.669-2.127,0.683-3.242    C264.5,198.274,263.616,196.111,262.059,194.475z"/>
	</g>
</g>
<g>
</g>
<g>
</g>
<g>
</g>
<g>
</g>
<g>
</g>
<g>
</g>
<g>
</g>
<g>
</g>
<g>
</g>
<g>
</g>
<g>
</g>
<g>
</g>
<g>
</g>
<g>
</g>
<g>
</g>
</svg>
