<?xml version="1.0" encoding="iso-8859-1"?>
<!-- Generator: Adobe Illustrator 19.0.0, SVG Export Plug-In . SVG Version: 6.00 Build 0)  -->
<svg xmlns="http://www.w3.org/2000/svg" xmlns:xlink="http://www.w3.org/1999/xlink" version="1.1" id="Layer_1" x="0px" y="0px" viewBox="0 0 512 512" style="enable-background:new 0 0 512 512;" xml:space="preserve">
<g>
	<g>
		<path d="M486.4,12.8H25.6C11.468,12.815,0.015,24.268,0,38.4v358.4c0.015,14.132,11.468,25.585,25.6,25.6h153.6v34.088    c0.736,13.427-9.552,24.908-22.979,25.643c-0.873,0.048-1.748,0.049-2.621,0.002h-51.2c-4.713,0-8.533,3.82-8.533,8.533    s3.82,8.533,8.533,8.533h307.2c4.713,0,8.533-3.82,8.533-8.533s-3.82-8.533-8.533-8.533h-51.2    c-13.421,0.717-24.883-9.581-25.6-23.003c-0.046-0.865-0.046-1.732,0-2.597V422.4h153.6c14.132-0.015,25.585-11.468,25.6-25.6    V38.4C511.985,24.268,500.532,12.815,486.4,12.8z M457.267,29.867L192.733,294.4h-27.067L430.2,29.867H457.267z M406.067,29.867    L141.533,294.4h-27.067L379,29.867H406.067z M354.867,29.867L90.333,294.4H63.267L327.8,29.867H354.867z M17.067,38.4    c0.006-4.71,3.823-8.527,8.533-8.533h22.067l-30.6,30.6V38.4z M17.067,84.6L71.8,29.867h27.067l-81.8,81.8V84.6z M17.067,135.8    L123,29.867h27.067l-133,133V135.8z M17.067,187L174.2,29.867h27.067l-184.2,184.2V187z M17.067,238.2L225.4,29.867h27.067    l-235.4,235.4V238.2z M17.067,289.4L276.6,29.867h27.067L39.133,294.4H17.067V289.4z M188.422,482.133    c5.005-7.61,7.727-16.493,7.844-25.6V422.4h119.467v34.133c0.118,9.107,2.84,17.99,7.844,25.6H188.422z M494.933,396.8    c-0.005,4.711-3.822,8.529-8.533,8.533H25.6c-4.71-0.006-8.527-3.823-8.533-8.533v-85.333h477.867V396.8z M494.933,294.4h-22.067    l22.067-22.067V294.4z M494.933,248.2l-46.2,46.2h-27.067l73.267-73.267V248.2z M494.933,197l-97.4,97.4h-27.067l124.467-124.467    V197z M494.933,145.8l-148.6,148.6h-27.067l175.667-175.667V145.8z M494.933,94.6l-199.8,199.8h-27.067L494.933,67.533V94.6z     M494.933,43.4l-251,251h-27.067L481.4,29.867h5c4.711,0.005,8.529,3.822,8.533,8.533V43.4z"/>
	</g>
</g>
<g>
	<g>
		<path d="M256,328.533c-16.495,0-29.867,13.372-29.867,29.867s13.372,29.867,29.867,29.867c16.495,0,29.867-13.372,29.867-29.867    C285.847,341.913,272.487,328.553,256,328.533z M256,371.2c-7.069,0-12.8-5.731-12.8-12.8c0-7.069,5.731-12.8,12.8-12.8    c7.069,0,12.8,5.731,12.8,12.8C268.792,365.466,263.066,371.192,256,371.2z"/>
	</g>
</g>
<g>
	<g>
		<path d="M227.925,441.941c-2.457-2.417-6.124-3.125-9.305-1.796c-1.044,0.413-1.999,1.023-2.813,1.796    c-1.559,1.635-2.443,3.799-2.475,6.059c0.012,1.115,0.243,2.216,0.679,3.242c0.434,1.034,1.041,1.987,1.796,2.817    c3.365,3.3,8.752,3.3,12.117,0c0.752-0.831,1.358-1.783,1.792-2.817c0.438-1.026,0.67-2.127,0.683-3.242    C230.367,445.741,229.483,443.578,227.925,441.941z"/>
	</g>
</g>
<g>
	<g>
		<path d="M262.059,441.941c-0.429-0.341-0.854-0.683-1.279-1.025c-0.476-0.324-0.993-0.583-1.538-0.771    c-0.508-0.258-1.056-0.43-1.621-0.508c-1.635-0.344-3.338-0.166-4.867,0.508c-1.044,0.413-1.999,1.023-2.813,1.796    c-3.346,3.319-3.368,8.722-0.05,12.068c1.614,1.628,3.816,2.537,6.108,2.524c0.544-0.016,1.086-0.073,1.621-0.171    c0.564-0.082,1.112-0.255,1.621-0.512c0.544-0.188,1.062-0.447,1.538-0.771c0.425-0.338,0.85-0.679,1.279-1.021    c0.752-0.831,1.358-1.783,1.792-2.817c0.437-1.026,0.669-2.127,0.683-3.242C264.5,445.741,263.616,443.578,262.059,441.941z"/>
	</g>
</g>
<g>
	<g>
		<path d="M296.192,441.941c-0.429-0.341-0.855-0.683-1.279-1.025c-0.476-0.324-0.993-0.583-1.538-0.771    c-0.484-0.245-1.002-0.417-1.538-0.508c-1.663-0.348-3.393-0.171-4.95,0.508c-1.033,0.434-1.984,1.041-2.813,1.796    c-3.346,3.319-3.368,8.722-0.05,12.068c1.614,1.628,3.816,2.537,6.108,2.524c0.571-0.02,1.14-0.077,1.704-0.171    c0.535-0.095,1.053-0.268,1.538-0.512c0.544-0.188,1.062-0.447,1.538-0.771c0.425-0.338,0.85-0.679,1.279-1.021    c0.752-0.831,1.358-1.783,1.792-2.817c0.478-1.012,0.712-2.123,0.683-3.242C298.633,445.741,297.75,443.578,296.192,441.941z"/>
	</g>
</g>
<g>
</g>
<g>
</g>
<g>
</g>
<g>
</g>
<g>
</g>
<g>
</g>
<g>
</g>
<g>
</g>
<g>
</g>
<g>
</g>
<g>
</g>
<g>
</g>
<g>
</g>
<g>
</g>
<g>
</g>
</svg>
