<?xml version="1.0" encoding="iso-8859-1"?>
<!-- Generator: Adobe Illustrator 19.0.0, SVG Export Plug-In . SVG Version: 6.00 Build 0)  -->
<svg xmlns="http://www.w3.org/2000/svg" xmlns:xlink="http://www.w3.org/1999/xlink" version="1.1" id="Layer_1" x="0px" y="0px" viewBox="0 0 512 512" style="enable-background:new 0 0 512 512;" xml:space="preserve">
<g>
	<g>
		<path d="M486.4,12.8H25.6C11.468,12.815,0.015,24.268,0,38.4v358.4c0.015,14.132,11.468,25.585,25.6,25.6h153.6v34.088    c0.736,13.427-9.552,24.908-22.979,25.643c-0.873,0.048-1.748,0.049-2.621,0.002h-51.2c-4.713,0-8.533,3.82-8.533,8.533    s3.82,8.533,8.533,8.533h307.2c4.713,0,8.533-3.82,8.533-8.533s-3.82-8.533-8.533-8.533h-51.2    c-13.421,0.717-24.883-9.581-25.6-23.003c-0.046-0.865-0.046-1.732,0-2.597V422.4h153.6c14.132-0.015,25.585-11.468,25.6-25.6    V38.4C511.985,24.268,500.532,12.815,486.4,12.8z M188.422,482.133c5.005-7.61,7.727-16.493,7.844-25.6V422.4h119.467v34.133    c0.118,9.107,2.84,17.99,7.844,25.6H188.422z M494.933,396.8c-0.006,4.71-3.823,8.527-8.533,8.533H25.6    c-4.71-0.006-8.527-3.823-8.533-8.533v-85.333h477.867V396.8z M494.933,294.4H17.067v-256c0.006-4.71,3.823-8.527,8.533-8.533    h460.8c4.71,0.006,8.527,3.823,8.533,8.533V294.4z"/>
	</g>
</g>
<g>
	<g>
		<path d="M256,328.533c-16.495,0-29.867,13.372-29.867,29.867s13.372,29.867,29.867,29.867c16.495,0,29.867-13.372,29.867-29.867    C285.847,341.913,272.487,328.553,256,328.533z M256,371.2c-7.069,0-12.8-5.731-12.8-12.8c0-7.069,5.731-12.8,12.8-12.8    c7.069,0,12.8,5.731,12.8,12.8C268.792,365.466,263.066,371.192,256,371.2z"/>
	</g>
</g>
<g>
	<g>
		<path d="M227.925,441.941c-0.816-0.772-1.772-1.382-2.817-1.796c-3.182-1.294-6.828-0.59-9.3,1.796    c-0.754,0.828-1.362,1.78-1.796,2.813c-0.906,2.068-0.906,4.42,0,6.487c0.414,1.045,1.023,2.001,1.796,2.817    c0.425,0.341,0.85,0.683,1.279,1.021c0.475,0.323,0.991,0.582,1.533,0.771c0.485,0.245,1.003,0.418,1.538,0.513    c0.565,0.094,1.136,0.151,1.709,0.171c4.732-0.019,8.553-3.87,8.534-8.602C230.392,445.688,229.503,443.537,227.925,441.941z"/>
	</g>
</g>
<g>
	<g>
		<path d="M262.059,441.941c-0.816-0.772-1.772-1.382-2.817-1.796c-2.079-0.85-4.408-0.85-6.487,0    c-1.044,0.413-1.999,1.023-2.813,1.796c-1.559,1.635-2.443,3.799-2.475,6.059c0.012,1.115,0.243,2.216,0.679,3.242    c0.434,1.034,1.041,1.987,1.795,2.817c3.346,3.346,8.771,3.346,12.117,0C265.405,450.713,265.405,445.287,262.059,441.941z"/>
	</g>
</g>
<g>
	<g>
		<path d="M297.984,444.755c-0.434-1.032-1.04-1.983-1.792-2.813c-3.397-3.221-8.72-3.221-12.117,0    c-3.346,3.346-3.346,8.771,0,12.117c3.346,3.346,8.771,3.346,12.117,0c0.752-0.831,1.358-1.783,1.792-2.817    C298.895,449.175,298.895,446.821,297.984,444.755z"/>
	</g>
</g>
<g>
	<g>
		<path d="M65.657,49.434c-3.319-3.259-8.637-3.259-11.956,0L36.634,66.5c-3.332,3.333-3.331,8.736,0.002,12.068    c1.6,1.599,3.769,2.498,6.031,2.498c2.264,0.003,4.435-0.897,6.033-2.5L65.766,61.5C69.068,58.137,69.019,52.735,65.657,49.434z"/>
	</g>
</g>
<g>
	<g>
		<path d="M116.89,49.433c-3.323-3.281-8.667-3.281-11.99,0l-51.2,51.2c-3.332,3.331-3.333,8.732-0.003,12.064    c0.001,0.001,0.002,0.002,0.003,0.003c3.33,3.332,8.732,3.333,12.064,0.003c0.001-0.001,0.002-0.002,0.003-0.003l51.2-51.2    C120.278,58.146,120.243,52.744,116.89,49.433z"/>
	</g>
</g>
<g>
	<g>
		<path d="M284.065,134.604c10.728-15.5,6.859-36.762-8.642-47.49s-36.762-6.859-47.49,8.642    c-8.089,11.687-8.088,27.163,0.001,38.85c-9.205,7.792-14.54,19.222-14.6,31.282V192c0,4.713,3.82,8.533,8.533,8.533h68.267    c4.713,0,8.533-3.821,8.533-8.533v-26.112C298.606,153.827,293.271,142.396,284.065,134.604z M241.778,105.762    c3.162-4.766,8.502-7.63,14.222-7.629c9.422-0.004,17.063,7.632,17.067,17.054c0.002,5.727-2.87,11.073-7.646,14.234    c-5.734,3.731-13.128,3.727-18.859-0.009C238.71,124.202,236.568,113.614,241.778,105.762z M281.6,183.467h-51.2v-17.579    c0.004-8.045,4.056-15.549,10.78-19.966c9.356,4.549,20.283,4.549,29.639,0c6.725,4.417,10.776,11.921,10.781,19.967V183.467z"/>
	</g>
</g>
<g>
	<g>
		<path d="M315.733,217.6H196.267c-4.713,0-8.533,3.82-8.533,8.533s3.82,8.533,8.533,8.533h119.467c4.713,0,8.533-3.82,8.533-8.533    S320.446,217.6,315.733,217.6z"/>
	</g>
</g>
<g>
	<g>
		<path d="M315.733,251.733H196.267c-4.713,0-8.533,3.821-8.533,8.533c0,4.713,3.82,8.533,8.533,8.533h119.467    c4.713,0,8.533-3.821,8.533-8.533C324.267,255.554,320.446,251.733,315.733,251.733z"/>
	</g>
</g>
<g>
</g>
<g>
</g>
<g>
</g>
<g>
</g>
<g>
</g>
<g>
</g>
<g>
</g>
<g>
</g>
<g>
</g>
<g>
</g>
<g>
</g>
<g>
</g>
<g>
</g>
<g>
</g>
<g>
</g>
</svg>
