<?xml version="1.0" encoding="iso-8859-1"?>
<!-- Generator: Adobe Illustrator 19.0.0, SVG Export Plug-In . SVG Version: 6.00 Build 0)  -->
<svg xmlns="http://www.w3.org/2000/svg" xmlns:xlink="http://www.w3.org/1999/xlink" version="1.1" id="Layer_1" x="0px" y="0px" viewBox="0 0 512 512" style="enable-background:new 0 0 512 512;" xml:space="preserve">
<g>
	<g>
		<path d="M443.733,64h-42.667c-4.713,0-8.533,3.82-8.533,8.533v34.133c0,4.713,3.821,8.533,8.533,8.533h42.667    c4.713,0,8.533-3.82,8.533-8.533V72.533C452.267,67.821,448.446,64,443.733,64z M435.2,98.133h-25.6V81.067h25.6V98.133z"/>
	</g>
</g>
<g>
	<g>
		<path d="M486.4,132.267v-76.8c-0.015-14.132-11.468-25.585-25.6-25.6H25.6C11.468,29.882,0.015,41.335,0,55.467V217.6    c0.015,14.132,11.468,25.585,25.6,25.6h8.533v180.772C23.934,427.565,17.1,437.187,17.067,448v25.6    c0,4.713,3.82,8.533,8.533,8.533h68.267c4.713,0,8.533-3.82,8.533-8.533V448c-0.033-10.813-6.868-20.435-17.067-24.028v-10.106    h315.733v10.106C390.868,427.565,384.033,437.187,384,448v25.6c0,4.713,3.821,8.533,8.533,8.533H460.8    c4.713,0,8.533-3.82,8.533-8.533V448c-0.033-10.813-6.868-20.435-17.067-24.028V243.2h8.533c14.132-0.015,25.585-11.468,25.6-25.6    v-8.533c14.132-0.015,25.585-11.468,25.6-25.6v-25.6C511.985,143.735,500.532,132.282,486.4,132.267z M25.6,226.133    c-4.71-0.006-8.527-3.823-8.533-8.533V55.467c0.006-4.71,3.823-8.527,8.533-8.533h42.667v179.2H25.6z M68.267,243.2v179.2H51.2    V243.2H68.267z M85.333,465.067h-51.2V448c0.006-4.71,3.823-8.527,8.533-8.533H76.8c4.71,0.006,8.527,3.823,8.533,8.533V465.067z     M375.467,46.933H460.8c4.71,0.006,8.527,3.823,8.533,8.533v76.8h-93.867V46.933z M85.333,46.933H358.4V89.6H85.333V46.933z     M85.333,106.667H358.4v42.667h-17.067v-17.067c0-4.713-3.821-8.533-8.533-8.533H110.933c-4.713,0-8.533,3.82-8.533,8.533v17.067    H85.333V106.667z M358.4,166.4v59.733h-17.067V166.4H358.4z M324.267,140.8V320c-0.006,4.71-3.823,8.527-8.533,8.533H128    c-4.71-0.006-8.527-3.823-8.533-8.533V140.8H324.267z M85.333,166.4H102.4v59.733H85.333V166.4z M85.333,243.2H102.4V320    c0.015,14.132,11.468,25.585,25.6,25.6h187.733c14.132-0.015,25.585-11.468,25.6-25.6v-76.8h59.733v119.467H85.333V243.2z     M85.333,396.8v-17.067h315.733V396.8H85.333z M452.267,465.067h-51.2V448c0.006-4.71,3.823-8.527,8.533-8.533h34.133    c4.71,0.006,8.527,3.823,8.533,8.533V465.067z M418.133,422.4V243.2H435.2v179.2H418.133z M469.333,217.6    c-0.006,4.71-3.823,8.527-8.533,8.533h-85.333v-17.067h93.867V217.6z M494.933,183.467c-0.006,4.71-3.823,8.527-8.533,8.533    H375.467v-42.667H486.4c4.71,0.006,8.527,3.823,8.533,8.533V183.467z"/>
	</g>
</g>
<g>
	<g>
		<path d="M298.667,157.867h-153.6c-4.713,0-8.533,3.82-8.533,8.533v136.533c0,4.713,3.82,8.533,8.533,8.533h153.6    c4.713,0,8.533-3.821,8.533-8.533V166.4C307.2,161.687,303.38,157.867,298.667,157.867z M290.133,251.733H256    c-4.713,0-8.533,3.82-8.533,8.533s3.82,8.533,8.533,8.533h34.133v25.6h-93.867v-25.6h25.6c4.713,0,8.533-3.82,8.533-8.533    s-3.82-8.533-8.533-8.533h-25.6V243.2c0-4.713-3.82-8.533-8.533-8.533s-8.533,3.821-8.533,8.533v51.2h-25.6V174.933h25.6v34.133    c0,4.713,3.82,8.533,8.533,8.533s8.533-3.82,8.533-8.533v-34.133h51.971c3.659,21.441,20.455,38.237,41.896,41.896V251.733z     M290.133,199.322c-11.946-3.113-21.275-12.442-24.388-24.388h24.388V199.322z"/>
	</g>
</g>
<g>
</g>
<g>
</g>
<g>
</g>
<g>
</g>
<g>
</g>
<g>
</g>
<g>
</g>
<g>
</g>
<g>
</g>
<g>
</g>
<g>
</g>
<g>
</g>
<g>
</g>
<g>
</g>
<g>
</g>
</svg>
