<?xml version="1.0" encoding="iso-8859-1"?>
<!-- Generator: Adobe Illustrator 19.0.0, SVG Export Plug-In . SVG Version: 6.00 Build 0)  -->
<svg xmlns="http://www.w3.org/2000/svg" xmlns:xlink="http://www.w3.org/1999/xlink" version="1.1" id="Layer_1" x="0px" y="0px" viewBox="0 0 512 512" style="enable-background:new 0 0 512 512;" xml:space="preserve">
<g>
	<g>
		<path d="M213.333,34.133h-51.2c-9.422,0.009-17.057,7.645-17.067,17.067v93.867c0.009,9.422,7.645,17.057,17.067,17.067h51.2    c9.422-0.009,17.057-7.645,17.067-17.067V51.2C230.391,41.778,222.755,34.143,213.333,34.133z M162.133,145.067V51.2h51.2    l0.012,93.867H162.133z"/>
	</g>
</g>
<g>
	<g>
		<path d="M187.733,179.2c-22.354-1.089-41.403,16.055-42.667,38.4c1.264,22.345,20.312,39.489,42.667,38.4    c22.354,1.089,41.403-16.055,42.667-38.4C229.136,195.255,210.088,178.111,187.733,179.2z M187.733,238.933    c-12.921,1.052-24.305-8.435-25.6-21.333c1.295-12.899,12.679-22.386,25.6-21.333c12.921-1.052,24.305,8.435,25.6,21.333    C212.038,230.499,200.654,239.986,187.733,238.933z"/>
	</g>
</g>
<g>
	<g>
		<path d="M161.45,278.354c-0.78-2.141-2.467-3.828-4.608-4.608c-3.182-1.294-6.828-0.59-9.301,1.795    c-0.754,0.828-1.362,1.78-1.796,2.813c-0.437,1.027-0.667,2.13-0.679,3.246c0.032,2.259,0.916,4.423,2.475,6.059    c0.416,0.388,0.873,0.73,1.363,1.021c0.436,0.338,0.926,0.599,1.45,0.771c0.51,0.258,1.059,0.431,1.625,0.512    c0.535,0.098,1.077,0.155,1.621,0.171c4.667,0.045,8.488-3.702,8.533-8.369c0-0.055,0-0.109,0-0.164    C162.12,280.484,161.888,279.381,161.45,278.354z"/>
	</g>
</g>
<g>
	<g>
		<path d="M195.583,278.354c-0.434-1.032-1.04-1.983-1.791-2.813c-0.83-0.754-1.782-1.362-2.817-1.796    c-3.179-1.33-6.845-0.622-9.301,1.796c-0.754,0.828-1.362,1.78-1.796,2.813c-0.436,1.027-0.667,2.13-0.679,3.246    c0.032,2.259,0.916,4.423,2.475,6.059c0.404,0.368,0.831,0.709,1.279,1.021c0.475,0.323,0.991,0.582,1.533,0.771    c0.485,0.245,1.003,0.418,1.538,0.513c0.565,0.098,1.136,0.155,1.709,0.171c1.119,0.029,2.229-0.205,3.242-0.683    c1.033-0.434,1.986-1.04,2.817-1.792c1.557-1.637,2.441-3.799,2.475-6.058C196.253,280.484,196.021,279.381,195.583,278.354z"/>
	</g>
</g>
<g>
	<g>
		<path d="M229.717,278.354c-0.434-1.032-1.04-1.983-1.791-2.813c-0.816-0.772-1.772-1.382-2.817-1.796    c-2.079-0.85-4.409-0.85-6.487,0c-1.044,0.413-1.999,1.023-2.813,1.796c-0.754,0.828-1.362,1.78-1.796,2.813    c-0.437,1.027-0.667,2.13-0.679,3.246c0,4.713,3.82,8.533,8.533,8.533s8.533-3.82,8.533-8.533    C230.387,280.484,230.155,279.381,229.717,278.354z"/>
	</g>
</g>
<g>
	<g>
		<path d="M159.659,309.675c-0.83-0.754-1.783-1.362-2.817-1.796c-1.557-0.679-3.287-0.857-4.95-0.508    c-0.535,0.091-1.053,0.263-1.538,0.508c-0.543,0.188-1.058,0.448-1.533,0.771c-0.429,0.341-0.854,0.683-1.279,1.025    c-1.559,1.635-2.443,3.799-2.475,6.058c0.012,1.115,0.243,2.216,0.679,3.242c0.414,1.045,1.023,2.001,1.795,2.817    c0.425,0.341,0.85,0.683,1.279,1.021c0.475,0.323,0.991,0.582,1.533,0.771c0.485,0.245,1.003,0.418,1.538,0.513    c0.565,0.098,1.136,0.155,1.709,0.171c2.259-0.034,4.422-0.918,6.059-2.475c0.77-0.817,1.378-1.773,1.792-2.817    c0.437-1.026,0.669-2.127,0.683-3.242C162.1,313.474,161.216,311.311,159.659,309.675z"/>
	</g>
</g>
<g>
	<g>
		<path d="M193.792,309.675c-0.83-0.754-1.783-1.362-2.817-1.795c-3.182-1.296-6.829-0.592-9.3,1.795    c-1.559,1.635-2.443,3.799-2.475,6.059c0.012,1.115,0.243,2.216,0.679,3.242c0.434,1.034,1.041,1.987,1.796,2.817    c0.425,0.341,0.85,0.683,1.279,1.021c0.475,0.323,0.991,0.582,1.533,0.771c0.485,0.245,1.003,0.418,1.538,0.513    c0.565,0.098,1.136,0.155,1.709,0.171c2.259-0.034,4.422-0.918,6.059-2.475c0.77-0.817,1.378-1.773,1.792-2.817    c0.478-1.012,0.712-2.123,0.683-3.242C196.233,313.474,195.35,311.311,193.792,309.675z"/>
	</g>
</g>
<g>
	<g>
		<path d="M230.229,314.025c-0.095-0.535-0.268-1.053-0.513-1.537c-0.188-0.543-0.448-1.058-0.771-1.533    c-0.312-0.448-0.653-0.876-1.021-1.279c-0.429-0.341-0.854-0.683-1.279-1.025c-0.476-0.324-0.993-0.583-1.538-0.771    c-0.508-0.258-1.056-0.43-1.621-0.508c-2.784-0.562-5.664,0.303-7.679,2.304c-1.56,1.635-2.444,3.799-2.475,6.059    c0.012,1.115,0.243,2.216,0.679,3.242c0.434,1.034,1.041,1.987,1.796,2.817c0.425,0.341,0.85,0.683,1.279,1.021    c0.475,0.323,0.991,0.582,1.533,0.771c0.485,0.245,1.003,0.418,1.538,0.513c0.565,0.094,1.136,0.151,1.709,0.171    c0.544-0.016,1.086-0.073,1.621-0.171c0.564-0.082,1.112-0.255,1.621-0.513c0.544-0.187,1.062-0.447,1.538-0.771    c0.425-0.337,0.85-0.679,1.279-1.021c1.557-1.637,2.441-3.8,2.475-6.059C230.38,315.161,230.323,314.59,230.229,314.025z"/>
	</g>
</g>
<g>
	<g>
		<path d="M159.658,343.808c-0.816-0.772-1.772-1.382-2.817-1.796c-1.557-0.679-3.287-0.857-4.95-0.508    c-0.535,0.091-1.053,0.263-1.538,0.508c-0.543,0.188-1.058,0.448-1.533,0.771c-0.429,0.341-0.854,0.683-1.279,1.025    c-0.754,0.828-1.362,1.78-1.796,2.813c-0.906,2.068-0.906,4.42,0,6.487c0.434,1.034,1.041,1.987,1.796,2.817    c0.404,0.368,0.831,0.709,1.279,1.021c0.475,0.323,0.991,0.582,1.533,0.771c0.485,0.245,1.003,0.418,1.538,0.513    c0.565,0.098,1.136,0.155,1.709,0.171c1.115-0.014,2.216-0.246,3.242-0.683c1.044-0.414,1.999-1.022,2.817-1.792    C162.958,352.56,162.958,347.173,159.658,343.808z"/>
	</g>
</g>
<g>
	<g>
		<path d="M195.583,346.621c-0.434-1.032-1.04-1.983-1.791-2.813c-2.065-1.977-4.958-2.835-7.767-2.304    c-0.535,0.091-1.053,0.263-1.538,0.508c-0.524,0.172-1.014,0.433-1.45,0.771c-0.513,0.341-0.937,0.683-1.362,1.025    c-0.754,0.828-1.362,1.78-1.796,2.813c-0.906,2.068-0.906,4.42,0,6.487c0.434,1.034,1.041,1.987,1.795,2.817    c0.416,0.388,0.873,0.731,1.362,1.021c0.436,0.338,0.926,0.599,1.45,0.771c0.485,0.245,1.003,0.418,1.538,0.513    c0.565,0.094,1.136,0.151,1.709,0.171c4.667,0.045,8.488-3.702,8.533-8.369c0.001-0.055,0.001-0.109,0-0.164    C196.253,348.75,196.021,347.648,195.583,346.621z"/>
	</g>
</g>
<g>
	<g>
		<path d="M229.717,346.621c-0.434-1.032-1.04-1.983-1.792-2.813c-0.429-0.341-0.854-0.683-1.367-1.025    c-0.435-0.34-0.925-0.601-1.45-0.771c-0.484-0.246-1.002-0.417-1.538-0.508c-1.093-0.258-2.232-0.258-3.325,0    c-0.566,0.078-1.115,0.25-1.625,0.508c-0.543,0.188-1.058,0.448-1.533,0.771c-0.429,0.341-0.854,0.683-1.279,1.025    c-0.754,0.828-1.362,1.78-1.796,2.813c-0.437,1.027-0.668,2.13-0.679,3.246c0.019,4.732,3.87,8.553,8.602,8.534    c2.244-0.009,4.395-0.898,5.99-2.475c0.752-0.831,1.358-1.783,1.792-2.817C230.628,351.042,230.628,348.688,229.717,346.621z"/>
	</g>
</g>
<g>
	<g>
		<path d="M161.451,380.755c-0.413-1.043-1.021-1.997-1.792-2.813c-2.457-2.417-6.124-3.125-9.304-1.796    c-2.139,0.784-3.824,2.469-4.608,4.608c-0.437,1.027-0.668,2.13-0.68,3.246c0.032,2.259,0.916,4.423,2.475,6.059    c0.815,0.77,1.77,1.378,2.813,1.791c1.013,0.479,2.125,0.713,3.246,0.683c2.259-0.034,4.422-0.918,6.059-2.475    c0.752-0.831,1.358-1.783,1.792-2.817C162.362,385.175,162.362,382.821,161.451,380.755z"/>
	</g>
</g>
<g>
	<g>
		<path d="M195.583,380.754c-0.413-1.043-1.021-1.997-1.791-2.813c-2.48-2.372-6.119-3.075-9.304-1.796    c-1.033,0.434-1.985,1.041-2.813,1.796c-0.773,0.814-1.383,1.769-1.796,2.813c-0.436,1.027-0.667,2.13-0.679,3.246    c0.032,2.259,0.916,4.423,2.475,6.059c0.815,0.771,1.77,1.379,2.813,1.792c2.067,0.911,4.421,0.911,6.487,0    c1.033-0.434,1.986-1.04,2.817-1.792c1.557-1.637,2.441-3.8,2.475-6.059C196.296,382.879,196.062,381.768,195.583,380.754z"/>
	</g>
</g>
<g>
	<g>
		<path d="M229.717,380.754c-0.413-1.043-1.021-1.997-1.791-2.813c-2.461-2.41-6.123-3.117-9.304-1.796    c-2.139,0.784-3.824,2.469-4.608,4.608c-0.437,1.027-0.668,2.13-0.68,3.246c0.032,2.259,0.916,4.423,2.475,6.059    c0.815,0.771,1.77,1.379,2.813,1.792c2.066,0.911,4.421,0.911,6.487,0c1.033-0.434,1.986-1.04,2.817-1.792    c1.557-1.637,2.441-3.8,2.475-6.059C230.43,382.879,230.195,381.768,229.717,380.754z"/>
	</g>
</g>
<g>
	<g>
		<path d="M481.483,424.7c-0.204-0.33-0.428-0.648-0.671-0.95l-59.475-72.987c-4.853-5.978-12.146-9.443-19.846-9.429H264.533V25.6    c-0.015-14.132-11.468-25.585-25.6-25.6h-102.4c-14.132,0.015-25.585,11.468-25.6,25.6v315.733h-0.341    c-7.773-0.001-15.125,3.533-19.979,9.604l-57.471,71.888c-4.88,6.039-7.542,13.569-7.542,21.333V486.4    c0.015,14.132,11.468,25.585,25.6,25.6h409.6c14.132-0.015,25.585-11.468,25.6-25.6v-44.117    C486.407,436.082,484.705,429.999,481.483,424.7z M128,25.6c0.006-4.71,3.823-8.527,8.533-8.533h102.4    c4.71,0.006,8.527,3.823,8.533,8.533v401.067H128V25.6z M469.333,486.4c-0.006,4.71-3.823,8.527-8.533,8.533H51.2    c-4.71-0.006-8.527-3.823-8.533-8.533v-42.242c-0.003-3.869,1.328-7.621,3.767-10.625l57.483-71.904    c1.619-2.034,4.075-3.222,6.675-3.229h0.341v68.267H93.867c-4.713,0-8.533,3.82-8.533,8.533s3.82,8.533,8.533,8.533H281.6    c4.713,0,8.533-3.82,8.533-8.533s-3.82-8.533-8.533-8.533h-17.067V358.4h136.958c2.566-0.005,4.997,1.151,6.612,3.146    l53.067,65.121H384c-4.713,0-8.533,3.82-8.533,8.533s3.82,8.533,8.533,8.533h85.333V486.4z"/>
	</g>
</g>
<g>
	<g>
		<path d="M392.533,375.467H384c-4.713,0-8.533,3.82-8.533,8.533s3.82,8.533,8.533,8.533h8.533c4.713,0,8.533-3.82,8.533-8.533    S397.246,375.467,392.533,375.467z"/>
	</g>
</g>
<g>
	<g>
		<path d="M349.867,375.467h-8.533c-4.713,0-8.533,3.82-8.533,8.533s3.821,8.533,8.533,8.533h8.533c4.713,0,8.533-3.82,8.533-8.533    S354.579,375.467,349.867,375.467z"/>
	</g>
</g>
<g>
	<g>
		<path d="M307.2,375.467h-8.533c-4.713,0-8.533,3.82-8.533,8.533s3.82,8.533,8.533,8.533h8.533c4.713,0,8.533-3.82,8.533-8.533    S311.913,375.467,307.2,375.467z"/>
	</g>
</g>
<g>
	<g>
		<path d="M349.867,426.667H332.8c-4.713,0-8.533,3.82-8.533,8.533s3.821,8.533,8.533,8.533h17.067c4.713,0,8.533-3.82,8.533-8.533    S354.579,426.667,349.867,426.667z"/>
	</g>
</g>
<g>
</g>
<g>
</g>
<g>
</g>
<g>
</g>
<g>
</g>
<g>
</g>
<g>
</g>
<g>
</g>
<g>
</g>
<g>
</g>
<g>
</g>
<g>
</g>
<g>
</g>
<g>
</g>
<g>
</g>
</svg>
