<?xml version="1.0" encoding="iso-8859-1"?>
<!-- Generator: Adobe Illustrator 19.0.0, SVG Export Plug-In . SVG Version: 6.00 Build 0)  -->
<svg xmlns="http://www.w3.org/2000/svg" xmlns:xlink="http://www.w3.org/1999/xlink" version="1.1" id="Layer_1" x="0px" y="0px" viewBox="0 0 512 512" style="enable-background:new 0 0 512 512;" xml:space="preserve">
<g>
	<g>
		<path d="M443.733,64h-42.667c-4.713,0-8.533,3.82-8.533,8.533v34.133c0,4.713,3.821,8.533,8.533,8.533h42.667    c4.713,0,8.533-3.82,8.533-8.533V72.533C452.267,67.821,448.446,64,443.733,64z M435.2,98.133h-25.6V81.067h25.6V98.133z"/>
	</g>
</g>
<g>
	<g>
		<path d="M486.4,132.267v-76.8c-0.015-14.132-11.468-25.585-25.6-25.6H25.6C11.468,29.882,0.015,41.335,0,55.467V217.6    c0.015,14.132,11.468,25.585,25.6,25.6h8.533v180.772C23.934,427.565,17.1,437.187,17.067,448v25.6    c0,4.713,3.82,8.533,8.533,8.533h68.267c4.713,0,8.533-3.82,8.533-8.533V448c-0.033-10.813-6.868-20.435-17.067-24.028v-10.106    h315.733v10.106C390.868,427.565,384.033,437.187,384,448v25.6c0,4.713,3.821,8.533,8.533,8.533H460.8    c4.713,0,8.533-3.82,8.533-8.533V448c-0.033-10.813-6.868-20.435-17.067-24.028V243.2h8.533c14.132-0.015,25.585-11.468,25.6-25.6    v-8.533c14.132-0.015,25.585-11.468,25.6-25.6v-25.6C511.985,143.735,500.532,132.282,486.4,132.267z M25.6,226.133    c-4.71-0.006-8.527-3.823-8.533-8.533V55.467c0.006-4.71,3.823-8.527,8.533-8.533h42.667v179.2H25.6z M68.267,243.2v179.2H51.2    V243.2H68.267z M85.333,465.067h-51.2V448c0.006-4.71,3.823-8.527,8.533-8.533H76.8c4.71,0.006,8.527,3.823,8.533,8.533V465.067z     M375.467,46.933H460.8c4.71,0.006,8.527,3.823,8.533,8.533v76.8h-93.867V46.933z M85.333,46.933H358.4V89.6H85.333V46.933z     M85.333,106.667H358.4v42.667h-17.067v-17.067c0-4.713-3.821-8.533-8.533-8.533H110.933c-4.713,0-8.533,3.82-8.533,8.533v17.067    H85.333V106.667z M358.4,166.4v59.733h-17.067V166.4H358.4z M324.267,140.8V320c-0.006,4.71-3.823,8.527-8.533,8.533H128    c-4.71-0.006-8.527-3.823-8.533-8.533V140.8H324.267z M85.333,166.4H102.4v59.733H85.333V166.4z M85.333,243.2H102.4V320    c0.015,14.132,11.468,25.585,25.6,25.6h187.733c14.132-0.015,25.585-11.468,25.6-25.6v-76.8h59.733v119.467H85.333V243.2z     M85.333,396.8v-17.067h315.733V396.8H85.333z M452.267,465.067h-51.2V448c0.006-4.71,3.823-8.527,8.533-8.533h34.133    c4.71,0.006,8.527,3.823,8.533,8.533V465.067z M418.133,422.4V243.2H435.2v179.2H418.133z M469.333,217.6    c-0.006,4.71-3.823,8.527-8.533,8.533h-85.333v-17.067h93.867V217.6z M494.933,183.467c-0.006,4.71-3.823,8.527-8.533,8.533    H375.467v-42.667H486.4c4.71,0.006,8.527,3.823,8.533,8.533V183.467z"/>
	</g>
</g>
<g>
	<g>
		<path d="M161.45,163.154c-0.78-2.141-2.467-3.828-4.608-4.608c-2.079-0.85-4.409-0.85-6.487,0    c-2.139,0.784-3.824,2.469-4.608,4.608c-0.437,1.027-0.668,2.13-0.68,3.246c0.032,2.259,0.916,4.423,2.475,6.059    c0.83,0.752,1.781,1.357,2.813,1.791c2.067,0.911,4.421,0.911,6.487,0c1.033-0.434,1.986-1.04,2.817-1.792    c1.557-1.637,2.441-3.799,2.475-6.058C162.12,165.284,161.888,164.181,161.45,163.154z"/>
	</g>
</g>
<g>
	<g>
		<path d="M195.583,163.154c-0.434-1.032-1.04-1.983-1.792-2.813c-3.421-3.158-8.695-3.158-12.117,0    c-0.754,0.828-1.362,1.78-1.796,2.813c-0.436,1.027-0.667,2.13-0.679,3.246c0.032,2.259,0.916,4.423,2.475,6.059    c0.425,0.341,0.85,0.683,1.363,1.021c0.436,0.338,0.926,0.599,1.45,0.771c0.485,0.245,1.003,0.418,1.538,0.513    c0.565,0.098,1.135,0.155,1.708,0.171c2.259-0.034,4.422-0.918,6.059-2.475c0.366-0.405,0.707-0.833,1.021-1.279    c0.324-0.476,0.583-0.993,0.771-1.538c0.245-0.485,0.418-1.003,0.513-1.538c0.094-0.564,0.151-1.133,0.17-1.704    C196.296,165.28,196.062,164.168,195.583,163.154z"/>
	</g>
</g>
<g>
	<g>
		<path d="M229.717,163.154c-0.434-1.032-1.04-1.983-1.792-2.813c-3.421-3.158-8.695-3.158-12.117,0    c-0.754,0.828-1.362,1.78-1.796,2.813c-0.436,1.027-0.667,2.13-0.679,3.246c-0.045,4.667,3.702,8.488,8.369,8.533    c0.055,0.001,0.109,0.001,0.164,0c4.667,0.045,8.488-3.702,8.533-8.369c0.001-0.055,0.001-0.109,0-0.164    C230.387,165.284,230.155,164.181,229.717,163.154z"/>
	</g>
</g>
<g>
	<g>
		<path d="M263.85,163.154c-0.434-1.032-1.04-1.983-1.792-2.813c-3.421-3.158-8.695-3.158-12.117,0    c-0.754,0.828-1.362,1.78-1.796,2.813c-0.436,1.027-0.667,2.13-0.679,3.246c-0.045,4.667,3.702,8.488,8.369,8.533    c0.055,0.001,0.11,0.001,0.164,0c0.571-0.016,1.141-0.073,1.704-0.171c0.535-0.095,1.053-0.268,1.538-0.513    c0.544-0.187,1.062-0.447,1.538-0.771c0.425-0.338,0.85-0.679,1.279-1.021c1.557-1.637,2.441-3.8,2.475-6.058    C264.52,165.284,264.288,164.181,263.85,163.154z"/>
	</g>
</g>
<g>
	<g>
		<path d="M297.983,163.154c-0.434-1.032-1.04-1.983-1.792-2.813c-0.429-0.341-0.854-0.683-1.367-1.025    c-0.435-0.34-0.925-0.601-1.45-0.771c-0.484-0.246-1.002-0.417-1.538-0.508c-2.81-0.574-5.721,0.29-7.763,2.304    c-0.754,0.828-1.362,1.78-1.796,2.813c-0.436,1.027-0.667,2.13-0.679,3.246c0.032,2.259,0.916,4.423,2.475,6.059    c0.425,0.341,0.85,0.683,1.279,1.021c0.475,0.323,0.991,0.582,1.533,0.771c0.485,0.245,1.003,0.418,1.538,0.513    c0.565,0.094,1.136,0.151,1.708,0.171c0.571-0.016,1.141-0.073,1.704-0.171c0.535-0.095,1.053-0.268,1.538-0.513    c0.525-0.17,1.015-0.431,1.45-0.771c0.513-0.338,0.938-0.679,1.367-1.021c1.557-1.637,2.441-3.8,2.475-6.058    C298.653,165.284,298.421,164.181,297.983,163.154z"/>
	</g>
</g>
<g>
	<g>
		<path d="M176.794,185.942c-3.327-3.365-8.752-3.395-12.117-0.068c-1.636,1.618-2.553,3.825-2.544,6.126    c0.013,0.572,0.07,1.141,0.171,1.704c0.091,0.535,0.263,1.053,0.508,1.538c0.188,0.544,0.447,1.062,0.771,1.538    c0.341,0.425,0.683,0.85,1.025,1.279c0.404,0.368,0.831,0.709,1.279,1.021c0.475,0.323,0.991,0.582,1.533,0.771    c0.485,0.245,1.003,0.418,1.538,0.513c0.565,0.094,1.136,0.151,1.708,0.171c0.571-0.016,1.141-0.073,1.704-0.171    c0.535-0.095,1.053-0.268,1.538-0.513c0.544-0.187,1.062-0.447,1.538-0.771c0.447-0.314,0.874-0.655,1.279-1.021    C180.09,194.732,180.121,189.307,176.794,185.942z"/>
	</g>
</g>
<g>
	<g>
		<path d="M210.927,185.942c-3.327-3.365-8.752-3.395-12.117-0.068c-1.636,1.618-2.553,3.825-2.544,6.126    c0.013,0.572,0.071,1.141,0.171,1.704c0.091,0.535,0.263,1.053,0.508,1.538c0.188,0.544,0.447,1.062,0.771,1.538    c0.316,0.447,0.658,0.874,1.025,1.279c0.404,0.368,0.831,0.709,1.279,1.021c0.475,0.323,0.991,0.582,1.533,0.771    c0.485,0.245,1.003,0.418,1.538,0.513c0.565,0.098,1.136,0.155,1.709,0.171c0.571-0.02,1.141-0.077,1.704-0.171    c0.535-0.095,1.053-0.268,1.538-0.513c0.544-0.187,1.062-0.447,1.538-0.771c0.447-0.314,0.874-0.655,1.279-1.021    C214.223,194.732,214.254,189.307,210.927,185.942z"/>
	</g>
</g>
<g>
	<g>
		<path d="M245.06,185.942c-3.327-3.365-8.752-3.395-12.117-0.068c-1.636,1.618-2.553,3.825-2.544,6.126    c0.013,0.572,0.071,1.141,0.171,1.704c0.091,0.535,0.263,1.053,0.508,1.538c0.187,0.544,0.447,1.062,0.771,1.538    c0.316,0.447,0.658,0.874,1.025,1.279c1.636,1.558,3.8,2.441,6.059,2.475c0.571-0.016,1.141-0.073,1.704-0.171    c0.535-0.095,1.053-0.268,1.537-0.513c0.545-0.187,1.062-0.447,1.538-0.771c0.447-0.314,0.874-0.655,1.279-1.021    C248.357,194.732,248.387,189.307,245.06,185.942z"/>
	</g>
</g>
<g>
	<g>
		<path d="M279.125,185.941c-0.83-0.754-1.783-1.362-2.817-1.796c-2.061-0.938-4.427-0.938-6.487,0    c-1.044,0.413-1.999,1.023-2.813,1.796c-3.3,3.365-3.3,8.752,0,12.117v0.001c3.346,3.346,8.771,3.346,12.117,0    C282.471,194.713,282.471,189.287,279.125,185.941z"/>
	</g>
</g>
<g>
</g>
<g>
</g>
<g>
</g>
<g>
</g>
<g>
</g>
<g>
</g>
<g>
</g>
<g>
</g>
<g>
</g>
<g>
</g>
<g>
</g>
<g>
</g>
<g>
</g>
<g>
</g>
<g>
</g>
</svg>
