<?xml version="1.0" encoding="iso-8859-1"?>
<!-- Generator: Adobe Illustrator 19.0.0, SVG Export Plug-In . SVG Version: 6.00 Build 0)  -->
<svg xmlns="http://www.w3.org/2000/svg" xmlns:xlink="http://www.w3.org/1999/xlink" version="1.1" id="Layer_1" x="0px" y="0px" viewBox="0 0 512 512" style="enable-background:new 0 0 512 512;" xml:space="preserve">
<g>
	<g>
		<path d="M452.267,0H59.733C40.89,0.02,25.62,15.29,25.6,34.133v443.733C25.62,496.71,40.89,511.98,59.733,512h392.533    c18.843-0.02,34.113-15.29,34.133-34.133V34.133C486.38,15.29,471.11,0.02,452.267,0z M469.333,477.867    c-0.011,9.421-7.646,17.056-17.067,17.067H59.733c-9.421-0.011-17.056-7.645-17.067-17.067V34.133    c0.011-9.421,7.645-17.056,17.067-17.067h392.533c9.421,0.011,17.056,7.646,17.067,17.067V477.867z"/>
	</g>
</g>
<g>
	<g>
		<path d="M435.2,34.133H230.4c-9.421,0.011-17.056,7.645-17.067,17.067V128c0.011,9.421,7.645,17.056,17.067,17.067h204.8    c9.421-0.011,17.056-7.645,17.067-17.067V51.2C452.256,41.779,444.621,34.144,435.2,34.133z M230.4,128V51.2h204.8l0.009,76.8    H230.4z"/>
	</g>
</g>
<g>
	<g>
		<path d="M256.05,68.217c-2.292-0.013-4.494,0.896-6.108,2.524c-1.561,1.634-2.445,3.799-2.475,6.059    c-0.031,1.119,0.203,2.23,0.683,3.242c0.777,2.143,2.465,3.831,4.608,4.608c2.065,0.911,4.418,0.911,6.483,0    c1.033-0.435,1.985-1.04,2.817-1.791c0.771-0.816,1.379-1.772,1.792-2.817c0.437-1.026,0.669-2.127,0.683-3.242    C264.561,72.087,260.762,68.245,256.05,68.217z"/>
	</g>
</g>
<g>
	<g>
		<path d="M332.8,68.267h-42.667c-4.713,0-8.533,3.82-8.533,8.533s3.82,8.533,8.533,8.533H332.8c4.713,0,8.533-3.82,8.533-8.533    S337.513,68.267,332.8,68.267z"/>
	</g>
</g>
<g>
	<g>
		<path d="M264.533,162.133H230.4c-9.421,0.011-17.056,7.645-17.067,17.067v34.133c0.011,9.421,7.645,17.056,17.067,17.067h34.133    c9.421-0.011,17.056-7.646,17.067-17.067V179.2C281.589,169.779,273.954,162.144,264.533,162.133z M230.4,213.333V179.2h34.133    l0.009,34.133H230.4z"/>
	</g>
</g>
<g>
	<g>
		<path d="M349.867,162.133h-34.133c-9.421,0.011-17.056,7.645-17.067,17.067v34.133c0.011,9.421,7.645,17.056,17.067,17.067h34.133    c9.421-0.011,17.056-7.646,17.067-17.067V179.2C366.923,169.779,359.288,162.144,349.867,162.133z M315.733,213.333V179.2h34.133    l0.008,34.133H315.733z"/>
	</g>
</g>
<g>
	<g>
		<path d="M435.2,162.133h-34.133c-9.421,0.011-17.056,7.645-17.067,17.067v34.133c0.011,9.421,7.646,17.056,17.067,17.067H435.2    c9.421-0.011,17.056-7.646,17.067-17.067V179.2C452.256,169.779,444.621,162.144,435.2,162.133z M401.067,213.333V179.2H435.2    l0.009,34.133H401.067z"/>
	</g>
</g>
<g>
	<g>
		<path d="M264.533,247.467H230.4c-9.421,0.011-17.056,7.646-17.067,17.067v34.133c0.011,9.421,7.645,17.056,17.067,17.067h34.133    c9.421-0.011,17.056-7.645,17.067-17.067v-34.133C281.589,255.112,273.954,247.477,264.533,247.467z M230.4,298.667v-34.133    h34.133l0.009,34.133H230.4z"/>
	</g>
</g>
<g>
	<g>
		<path d="M349.867,247.467h-34.133c-9.421,0.011-17.056,7.646-17.067,17.067v34.133c0.011,9.421,7.645,17.056,17.067,17.067h34.133    c9.421-0.011,17.056-7.645,17.067-17.067v-34.133C366.923,255.112,359.288,247.477,349.867,247.467z M315.733,298.667v-34.133    h34.133l0.008,34.133H315.733z"/>
	</g>
</g>
<g>
	<g>
		<path d="M435.2,247.467h-34.133c-9.421,0.011-17.056,7.646-17.067,17.067v34.133c0.011,9.421,7.646,17.056,17.067,17.067H435.2    c9.421-0.011,17.056-7.645,17.067-17.067v-34.133C452.256,255.112,444.621,247.477,435.2,247.467z M401.067,298.667v-34.133H435.2    l0.009,34.133H401.067z"/>
	</g>
</g>
<g>
	<g>
		<path d="M264.533,332.8H230.4c-9.421,0.011-17.056,7.646-17.067,17.067V384c0.011,9.421,7.645,17.056,17.067,17.067h34.133    c9.421-0.011,17.056-7.646,17.067-17.067v-34.133C281.589,340.445,273.954,332.811,264.533,332.8z M230.4,384v-34.133h34.133    L264.542,384H230.4z"/>
	</g>
</g>
<g>
	<g>
		<path d="M349.867,332.8h-34.133c-9.421,0.011-17.056,7.646-17.067,17.067V384c0.011,9.421,7.645,17.056,17.067,17.067h34.133    c9.421-0.011,17.056-7.646,17.067-17.067v-34.133C366.923,340.445,359.288,332.811,349.867,332.8z M315.733,384v-34.133h34.133    L349.875,384H315.733z"/>
	</g>
</g>
<g>
	<g>
		<path d="M435.2,332.8h-34.133c-9.421,0.011-17.056,7.646-17.067,17.067V384c0.011,9.421,7.646,17.056,17.067,17.067H435.2    c9.421-0.011,17.056-7.646,17.067-17.067v-34.133C452.256,340.445,444.621,332.811,435.2,332.8z M401.067,384v-34.133H435.2    L435.209,384H401.067z"/>
	</g>
</g>
<g>
	<g>
		<path d="M451.595,425.855c-0.141-1.643-0.78-3.205-1.831-4.476c-1.045-1.29-2.447-2.243-4.031-2.74    c-0.481-0.327-1.073-0.446-1.643-0.332c-0.285-0.074-0.573-0.132-0.865-0.174h-220.85c-0.291,0.042-0.58,0.101-0.865,0.174    c-0.298-0.014-0.596-0.011-0.894,0.009c-0.255,0.095-0.505,0.203-0.75,0.323c-1.052,0.337-2.032,0.867-2.89,1.564    c-0.818,0.704-1.505,1.549-2.028,2.494c-0.509,0.985-0.829,2.057-0.944,3.159c0.007,0.855,0.013,1.71,0.02,2.565    c6.025,28.65,55.975,49.446,118.775,49.446s112.75-20.796,118.775-49.446c-0.052-0.591,0.011-1.187,0.183-1.754    C451.718,426.394,451.663,426.123,451.595,425.855z M290.133,456.985c-19.242-2.447-37.487-9.966-52.866-21.785h52.866V456.985z     M358.4,459.439c-17.018,1.815-34.182,1.815-51.2,0V435.2h51.2V459.439z M375.467,456.985V435.2h52.866    C412.953,447.019,394.708,454.538,375.467,456.985z"/>
	</g>
</g>
<g>
	<g>
		<path d="M128,34.133c-37.703,0-68.267,30.564-68.267,68.267v307.2c0.043,37.685,30.582,68.224,68.267,68.267    c37.685-0.043,68.224-30.582,68.267-68.267V102.4C196.267,64.697,165.703,34.133,128,34.133z M179.2,409.6    c0,28.277-22.923,51.2-51.2,51.2s-51.2-22.923-51.2-51.2V102.4c0-28.277,22.923-51.2,51.2-51.2s51.2,22.923,51.2,51.2V409.6z"/>
	</g>
</g>
<g>
</g>
<g>
</g>
<g>
</g>
<g>
</g>
<g>
</g>
<g>
</g>
<g>
</g>
<g>
</g>
<g>
</g>
<g>
</g>
<g>
</g>
<g>
</g>
<g>
</g>
<g>
</g>
<g>
</g>
</svg>
