<?xml version="1.0" encoding="iso-8859-1"?>
<!-- Generator: Adobe Illustrator 19.0.0, SVG Export Plug-In . SVG Version: 6.00 Build 0)  -->
<svg xmlns="http://www.w3.org/2000/svg" xmlns:xlink="http://www.w3.org/1999/xlink" version="1.1" id="Layer_1" x="0px" y="0px" viewBox="0 0 512 512" style="enable-background:new 0 0 512 512;" xml:space="preserve">
<g>
	<g>
		<path d="M409.6,0H102.4C88.268,0.015,76.815,11.468,76.8,25.6v460.8c0.015,14.132,11.468,25.585,25.6,25.6h307.2    c14.132-0.015,25.585-11.468,25.6-25.6V25.6C435.185,11.468,423.732,0.015,409.6,0z M418.133,486.4    c-0.005,4.711-3.822,8.529-8.533,8.533H102.4c-4.711-0.005-8.529-3.822-8.533-8.533v-85.333h324.267V486.4z M418.133,384H93.867    V85.333h324.267V384z M418.133,68.267H93.867V25.6c0.005-4.711,3.822-8.529,8.533-8.533h307.2    c4.711,0.005,8.529,3.822,8.533,8.533V68.267z"/>
	</g>
</g>
<g>
	<g>
		<path d="M256,418.133c-16.495,0-29.867,13.372-29.867,29.867c0.02,16.487,13.38,29.847,29.867,29.867    c16.495,0,29.867-13.372,29.867-29.867C285.867,431.505,272.495,418.133,256,418.133z M256,460.8c-7.069,0-12.8-5.731-12.8-12.8    c0.008-7.066,5.734-12.792,12.8-12.8c7.069,0,12.8,5.731,12.8,12.8C268.8,455.069,263.069,460.8,256,460.8z"/>
	</g>
</g>
<g>
	<g>
		<path d="M255.951,34.183c-4.713,0.027-8.511,3.87-8.484,8.583c0.013,2.234,0.901,4.373,2.474,5.959    c1.636,1.558,3.8,2.441,6.059,2.475c4.667,0.045,8.488-3.702,8.533-8.369c0.001-0.055,0.001-0.11,0-0.164    C264.506,37.954,260.663,34.156,255.951,34.183z"/>
	</g>
</g>
<g>
	<g>
		<path d="M142.569,104.903c-0.001-0.001-0.002-0.002-0.003-0.003c-3.33-3.332-8.732-3.333-12.064-0.003    c-0.001,0.001-0.002,0.002-0.003,0.003l-17.067,17.067c-3.353,3.311-3.388,8.713-0.077,12.066s8.713,3.388,12.066,0.077    c0.026-0.026,0.052-0.051,0.077-0.077l17.067-17.067C145.898,113.636,145.9,108.235,142.569,104.903z"/>
	</g>
</g>
<g>
	<g>
		<path d="M193.769,104.903c-0.001-0.001-0.002-0.002-0.003-0.003c-3.33-3.332-8.732-3.333-12.064-0.003    c-0.001,0.001-0.002,0.002-0.003,0.003l-51.2,51.2c-3.353,3.312-3.386,8.714-0.074,12.066c3.311,3.353,8.714,3.386,12.066,0.074    c0.025-0.025,0.05-0.05,0.075-0.075l51.2-51.2C197.098,113.636,197.1,108.235,193.769,104.903z"/>
	</g>
</g>
<g>
	<g>
		<path d="M332.545,218.794c-6.102-8.596-13.608-16.104-22.203-22.206v0c-3.713-2.618-7.616-4.958-11.675-6.998v-45.835    c-0.736-23.564-20.436-42.07-44-41.334c-22.53,0.704-40.63,18.804-41.333,41.334v45.836c-4.056,2.039-7.955,4.375-11.667,6.989    c-42.275,30.006-52.221,88.603-22.215,130.878c30.006,42.275,88.603,52.221,130.878,22.215S362.551,261.07,332.545,218.794z     M230.4,143.754c0.387-13.765,11.834-24.625,25.6-24.287c13.766-0.337,25.213,10.522,25.6,24.287v39.034    c-16.744-4.689-34.454-4.691-51.2-0.007V143.754z M318.635,317.534c-14.403,20.293-37.75,32.345-62.635,32.333    c-42.396,0.019-76.78-34.333-76.8-76.729c-0.011-24.899,12.054-48.257,32.367-62.658c5.006-3.596,10.439-6.556,16.175-8.812    c18.174-7.21,38.417-7.2,56.583,0.029c5.712,2.25,11.123,5.2,16.108,8.783l0.033,0.025    C335.039,235.043,343.173,282.961,318.635,317.534z"/>
	</g>
</g>
<g>
	<g>
		<path d="M256,213.333c-23.169-0.348-42.251,18.116-42.667,41.283c0.07,13.101,6.417,25.374,17.067,33.004v24.313    c0.388,14.138,12.164,25.285,26.303,24.897c13.593-0.373,24.524-11.304,24.897-24.897v-24.313    c10.65-7.63,16.996-19.903,17.067-33.004C298.251,231.449,279.169,212.985,256,213.333z M268.95,275.471l-4.417,2.433v34.029    c-0.399,4.713-4.542,8.21-9.255,7.812c-4.16-0.352-7.46-3.652-7.812-7.812v-34.029l-4.417-2.433    c-7.746-4.08-12.61-12.099-12.65-20.854c0.786-14.138,12.884-24.963,27.023-24.177c13.041,0.725,23.452,11.136,24.177,24.177    C281.56,263.371,276.696,271.391,268.95,275.471z"/>
	</g>
</g>
<g>
</g>
<g>
</g>
<g>
</g>
<g>
</g>
<g>
</g>
<g>
</g>
<g>
</g>
<g>
</g>
<g>
</g>
<g>
</g>
<g>
</g>
<g>
</g>
<g>
</g>
<g>
</g>
<g>
</g>
</svg>
