<?xml version="1.0" encoding="iso-8859-1"?>
<!-- Generator: Adobe Illustrator 19.0.0, SVG Export Plug-In . SVG Version: 6.00 Build 0)  -->
<svg xmlns="http://www.w3.org/2000/svg" xmlns:xlink="http://www.w3.org/1999/xlink" version="1.1" id="Layer_1" x="0px" y="0px" viewBox="0 0 512 512" style="enable-background:new 0 0 512 512;" xml:space="preserve">
<g>
	<g>
		<path d="M409.6,0H102.4C88.268,0.015,76.815,11.468,76.8,25.6v460.8c0.015,14.132,11.468,25.585,25.6,25.6h307.2    c14.132-0.015,25.585-11.468,25.6-25.6V25.6C435.185,11.468,423.732,0.015,409.6,0z M418.133,486.4    c-0.005,4.711-3.822,8.529-8.533,8.533H102.4c-4.711-0.005-8.529-3.822-8.533-8.533v-85.333h324.267V486.4z M418.133,384H93.867    V85.333h324.267V384z M418.133,68.267H93.867V25.6c0.005-4.711,3.822-8.529,8.533-8.533h307.2    c4.711,0.005,8.529,3.822,8.533,8.533V68.267z"/>
	</g>
</g>
<g>
	<g>
		<path d="M256,418.133c-16.495,0-29.867,13.372-29.867,29.867c0.02,16.487,13.38,29.847,29.867,29.867    c16.495,0,29.867-13.372,29.867-29.867C285.867,431.505,272.495,418.133,256,418.133z M256,460.8c-7.069,0-12.8-5.731-12.8-12.8    c0.008-7.066,5.734-12.792,12.8-12.8c7.069,0,12.8,5.731,12.8,12.8C268.8,455.069,263.069,460.8,256,460.8z"/>
	</g>
</g>
<g>
	<g>
		<path d="M263.85,39.421c-0.432-1.033-1.038-1.984-1.791-2.813c-0.418-0.389-0.876-0.732-1.367-1.025    c-0.435-0.339-0.926-0.6-1.45-0.771c-0.51-0.258-1.059-0.43-1.625-0.508c-2.78-0.518-5.64,0.34-7.675,2.304    c-0.753,0.829-1.359,1.78-1.792,2.813c-0.438,1.027-0.67,2.13-0.683,3.246c0.014,0.571,0.07,1.141,0.167,1.704    c0.096,0.535,0.271,1.053,0.517,1.537c0.184,0.545,0.442,1.062,0.767,1.538c0.317,0.446,0.659,0.873,1.025,1.279    c1.636,1.558,3.8,2.441,6.059,2.475c0.542-0.016,1.083-0.073,1.617-0.171c0.566-0.082,1.115-0.255,1.625-0.513    c0.524-0.171,1.015-0.432,1.45-0.771c0.508-0.338,0.942-0.679,1.367-1.021c1.557-1.637,2.44-3.8,2.475-6.059    C264.52,41.55,264.288,40.448,263.85,39.421z"/>
	</g>
</g>
<g>
	<g>
		<path d="M142.569,104.903c-0.001-0.001-0.002-0.002-0.003-0.003c-3.33-3.332-8.732-3.333-12.064-0.003    c-0.001,0.001-0.002,0.002-0.003,0.003l-17.067,17.067c-3.353,3.311-3.388,8.713-0.077,12.066s8.713,3.388,12.066,0.077    c0.026-0.026,0.052-0.051,0.077-0.077l17.067-17.067C145.898,113.636,145.9,108.235,142.569,104.903z"/>
	</g>
</g>
<g>
	<g>
		<path d="M193.658,104.9c-3.319-3.26-8.638-3.26-11.957,0l-51.2,51.2c-3.362,3.302-3.41,8.704-0.108,12.066    c3.302,3.362,8.704,3.41,12.066,0.108c0.036-0.036,0.072-0.072,0.108-0.108l51.2-51.2    C197.068,113.604,197.02,108.202,193.658,104.9z"/>
	</g>
</g>
<g>
	<g>
		<path d="M287.285,233.152c13.741-17.279,10.872-42.426-6.407-56.167c-17.279-13.741-42.426-10.872-56.167,6.407    c-11.582,14.565-11.582,35.196,0.001,49.761c-12.522,9.651-19.874,24.553-19.913,40.363V307.2    c-0.001,4.712,3.817,8.532,8.529,8.533c0.001,0,0.003,0,0.004,0h85.333c4.712,0.001,8.532-3.817,8.533-8.529    c0-0.001,0-0.003,0-0.004v-33.683C307.161,257.706,299.809,242.803,287.285,233.152z M236.907,195.729    c4.244-6.4,11.414-10.245,19.093-10.242c12.645-0.007,22.901,10.238,22.908,22.883c0.004,7.687-3.849,14.862-10.258,19.105    c-5.692,3.708-12.722,4.738-19.237,2.817c-2.158-0.629-4.207-1.581-6.079-2.826C232.795,220.477,229.918,206.268,236.907,195.729z     M290.133,298.667h-68.267v-25.15c0.002-11.972,6.28-23.067,16.542-29.233c0.103,0.051,0.215,0.083,0.318,0.133    c0.454,0.219,0.927,0.382,1.388,0.583c1.111,0.481,2.232,0.928,3.382,1.302c0.778,0.257,1.564,0.47,2.357,0.679    c0.799,0.206,1.601,0.383,2.412,0.54c0.98,0.193,1.957,0.377,2.953,0.497c0.502,0.059,1.007,0.07,1.51,0.11    c1.09,0.089,2.17,0.24,3.271,0.24c1.102,0,2.182-0.151,3.271-0.24c0.503-0.041,1.008-0.051,1.51-0.11    c0.997-0.12,1.976-0.304,2.956-0.497c0.807-0.156,1.606-0.332,2.401-0.537c0.796-0.209,1.585-0.423,2.366-0.681    c1.145-0.372,2.26-0.818,3.366-1.296c0.464-0.202,0.94-0.367,1.397-0.586c0.105-0.051,0.218-0.084,0.323-0.135    c10.262,6.166,16.54,17.261,16.542,29.233V298.667z"/>
	</g>
</g>
<g>
	<g>
		<path d="M256,136.533c-63.623,0-115.2,51.577-115.2,115.2s51.577,115.2,115.2,115.2s115.2-51.577,115.2-115.2    C371.129,188.14,319.594,136.604,256,136.533z M256,349.867c-54.198,0-98.133-43.936-98.133-98.133    c0-54.198,43.936-98.133,98.133-98.133s98.133,43.936,98.133,98.133C354.072,305.905,310.172,349.805,256,349.867z"/>
	</g>
</g>
<g>
</g>
<g>
</g>
<g>
</g>
<g>
</g>
<g>
</g>
<g>
</g>
<g>
</g>
<g>
</g>
<g>
</g>
<g>
</g>
<g>
</g>
<g>
</g>
<g>
</g>
<g>
</g>
<g>
</g>
</svg>
