<?xml version="1.0" encoding="iso-8859-1"?>
<!-- Generator: Adobe Illustrator 19.0.0, SVG Export Plug-In . SVG Version: 6.00 Build 0)  -->
<svg xmlns="http://www.w3.org/2000/svg" xmlns:xlink="http://www.w3.org/1999/xlink" version="1.1" id="Layer_1" x="0px" y="0px" viewBox="0 0 512 512" style="enable-background:new 0 0 512 512;" xml:space="preserve">
<g>
	<g>
		<path d="M409.6,0H102.4C88.268,0.015,76.815,11.468,76.8,25.6v460.8c0.015,14.132,11.468,25.585,25.6,25.6h307.2    c14.132-0.015,25.585-11.468,25.6-25.6V25.6C435.185,11.468,423.732,0.015,409.6,0z M418.133,486.4    c-0.005,4.711-3.822,8.529-8.533,8.533H102.4c-4.71-0.006-8.527-3.823-8.533-8.533v-85.333h324.267V486.4z M418.133,384H93.867    V85.333h324.267V384z M418.133,68.267H93.867V25.6c0.006-4.71,3.823-8.527,8.533-8.533h307.2c4.711,0.005,8.529,3.822,8.533,8.533    V68.267z"/>
	</g>
</g>
<g>
	<g>
		<path d="M256,418.133c-16.495,0-29.867,13.372-29.867,29.867c0.02,16.487,13.38,29.847,29.867,29.867    c16.495,0,29.867-13.372,29.867-29.867C285.867,431.505,272.495,418.133,256,418.133z M256,460.8c-7.069,0-12.8-5.731-12.8-12.8    c0.008-7.066,5.734-12.792,12.8-12.8c7.069,0,12.8,5.731,12.8,12.8C268.8,455.069,263.069,460.8,256,460.8z"/>
	</g>
</g>
<g>
	<g>
		<path d="M263.85,39.421c-0.434-1.032-1.04-1.983-1.791-2.813c-0.802-0.79-1.762-1.402-2.817-1.796    c-4.179-1.857-9.072,0.025-10.929,4.204c-0.059,0.133-0.115,0.268-0.167,0.404c-0.906,2.068-0.906,4.42,0,6.487    c0.434,1.034,1.041,1.987,1.795,2.818c0.425,0.341,0.85,0.683,1.279,1.021c0.475,0.323,0.991,0.582,1.533,0.771    c0.485,0.245,1.003,0.418,1.538,0.512c0.565,0.098,1.136,0.155,1.708,0.171c1.115-0.014,2.216-0.246,3.242-0.683    c1.054-0.394,2.013-1.004,2.817-1.791c1.557-1.637,2.44-3.8,2.475-6.059C264.52,41.55,264.288,40.448,263.85,39.421z"/>
	</g>
</g>
<g>
	<g>
		<path d="M142.457,104.9c-3.319-3.26-8.638-3.26-11.957,0l-17.067,17.067c-3.332,3.333-3.331,8.736,0.002,12.068    c1.6,1.599,3.769,2.498,6.031,2.498c2.264,0.003,4.435-0.897,6.033-2.5l17.067-17.067    C145.868,113.604,145.819,108.202,142.457,104.9z"/>
	</g>
</g>
<g>
	<g>
		<path d="M193.691,104.9c-3.323-3.282-8.668-3.282-11.991,0l-51.2,51.2c-3.324,3.33-3.318,8.73,0,12.066    c3.33,3.332,8.731,3.333,12.064,0.003c0.001-0.001,0.002-0.002,0.003-0.003l51.2-51.2    C197.078,113.614,197.044,108.211,193.691,104.9z"/>
	</g>
</g>
<g>
	<g>
		<path d="M371.2,162.133c-16.487,0.02-29.847,13.38-29.867,29.867c0.024,6.516,2.199,12.841,6.188,17.994l-32.462,48.66    c-3.81-1.73-7.942-2.634-12.126-2.654c-7.492,0.052-14.693,2.904-20.189,7.996l-38.58-33.032c2.14-4.132,3.271-8.711,3.302-13.364    c0-16.495-13.372-29.867-29.867-29.867c-16.495,0-29.867,13.372-29.867,29.867c0.029,4.597,1.133,9.123,3.223,13.218    l-35.198,29.351c-4.525-2.699-9.689-4.139-14.958-4.169c-16.495,0-29.867,13.372-29.867,29.867    c0,16.495,13.372,29.867,29.867,29.867c16.495,0,29.867-13.372,29.867-29.867c-0.029-4.597-1.133-9.124-3.223-13.218    l35.198-29.351c9.146,5.531,20.599,5.56,29.773,0.077l41.486,35.521c-3.945,16.025,5.848,32.214,21.873,36.159    c16.025,3.945,32.214-5.848,36.159-21.873c1.959-7.959,0.563-16.374-3.862-23.274l33.256-49.85    c3.163,1.162,6.502,1.774,9.872,1.809c16.495,0,29.867-13.372,29.867-29.867C401.067,175.505,387.695,162.133,371.2,162.133z     M140.8,298.667c-7.069,0-12.8-5.731-12.8-12.8c0-7.069,5.731-12.8,12.8-12.8c7.069,0,12.8,5.731,12.8,12.8    C153.592,292.933,147.866,298.659,140.8,298.667z M217.6,230.4c-7.066-0.008-12.792-5.734-12.8-12.8c0-7.069,5.731-12.8,12.8-12.8    c7.069,0,12.8,5.731,12.8,12.8C230.4,224.669,224.669,230.4,217.6,230.4z M302.933,298.667c-7.069,0.017-12.814-5.7-12.831-12.769    c-0.017-7.069,5.7-12.814,12.769-12.831c3.311-0.008,6.497,1.267,8.887,3.558c2.574,2.378,4.019,5.737,3.975,9.242    C315.726,292.933,309.999,298.659,302.933,298.667z M371.2,204.8c-7.069,0-12.8-5.731-12.8-12.8c0-7.069,5.731-12.8,12.8-12.8    c7.069,0,12.8,5.731,12.8,12.8C383.992,199.066,378.266,204.792,371.2,204.8z"/>
	</g>
</g>
<g>
</g>
<g>
</g>
<g>
</g>
<g>
</g>
<g>
</g>
<g>
</g>
<g>
</g>
<g>
</g>
<g>
</g>
<g>
</g>
<g>
</g>
<g>
</g>
<g>
</g>
<g>
</g>
<g>
</g>
</svg>
