<?xml version="1.0" encoding="iso-8859-1"?>
<!-- Generator: Adobe Illustrator 19.0.0, SVG Export Plug-In . SVG Version: 6.00 Build 0)  -->
<svg xmlns="http://www.w3.org/2000/svg" xmlns:xlink="http://www.w3.org/1999/xlink" version="1.1" id="Layer_1" x="0px" y="0px" viewBox="0 0 512 512" style="enable-background:new 0 0 512 512;" xml:space="preserve">
<g>
	<g>
		<path d="M409.6,0H102.4C88.268,0.015,76.815,11.468,76.8,25.6v460.8c0.015,14.132,11.468,25.585,25.6,25.6h307.2    c14.132-0.015,25.585-11.468,25.6-25.6V25.6C435.185,11.468,423.732,0.015,409.6,0z M418.133,486.4    c-0.006,4.71-3.823,8.527-8.533,8.533H102.4c-4.71-0.006-8.527-3.823-8.533-8.533v-85.333h324.267V486.4z M418.133,384H93.867    V85.333h324.267V384z M418.133,68.267H93.867V25.6c0.006-4.71,3.823-8.527,8.533-8.533h307.2c4.71,0.006,8.527,3.823,8.533,8.533    V68.267z"/>
	</g>
</g>
<g>
	<g>
		<path d="M256,418.133c-16.495,0-29.867,13.372-29.867,29.867c0.02,16.487,13.38,29.847,29.867,29.867    c16.495,0,29.867-13.372,29.867-29.867C285.867,431.505,272.495,418.133,256,418.133z M256,460.8c-7.069,0-12.8-5.731-12.8-12.8    c0.008-7.066,5.734-12.792,12.8-12.8c7.069,0,12.8,5.731,12.8,12.8C268.8,455.069,263.069,460.8,256,460.8z"/>
	</g>
</g>
<g>
	<g>
		<path d="M256.129,34.118c-0.617-0.005-1.234,0.057-1.838,0.186c-0.535,0.091-1.053,0.263-1.538,0.508    c-0.543,0.188-1.058,0.448-1.533,0.771c-0.448,0.314-0.876,0.656-1.279,1.025c-0.773,0.814-1.383,1.769-1.796,2.813    c-0.906,2.068-0.906,4.42,0,6.487c0.434,1.034,1.041,1.987,1.796,2.817c0.425,0.341,0.85,0.683,1.279,1.021    c0.475,0.323,0.991,0.582,1.533,0.771c0.485,0.245,1.003,0.418,1.538,0.512c0.565,0.094,1.136,0.151,1.708,0.171    c4.667,0.045,8.488-3.702,8.533-8.369c0.001-0.055,0.001-0.11,0-0.164C264.573,37.985,260.811,34.158,256.129,34.118z"/>
	</g>
</g>
<g>
	<g>
		<path d="M142.569,104.903c-0.001-0.001-0.002-0.002-0.003-0.003c-3.33-3.332-8.732-3.333-12.064-0.003    c-0.001,0.001-0.002,0.002-0.003,0.003l-17.067,17.067c-3.353,3.311-3.388,8.713-0.077,12.066s8.713,3.388,12.066,0.077    c0.026-0.026,0.052-0.051,0.077-0.077l17.067-17.067C145.898,113.636,145.9,108.235,142.569,104.903z"/>
	</g>
</g>
<g>
	<g>
		<path d="M193.769,104.903c-0.001-0.001-0.002-0.002-0.003-0.003c-3.33-3.332-8.732-3.333-12.064-0.003    c-0.001,0.001-0.002,0.002-0.003,0.003l-51.2,51.2c-3.353,3.312-3.386,8.714-0.074,12.066c3.311,3.353,8.714,3.386,12.066,0.074    c0.025-0.025,0.05-0.05,0.075-0.075l51.2-51.2C197.098,113.636,197.1,108.235,193.769,104.903z"/>
	</g>
</g>
<g>
	<g>
		<path d="M337.125,273.204l-60.079-98.791c-6.57-11.623-21.318-15.72-32.941-9.15c-3.825,2.162-6.989,5.325-9.15,9.15    l-60.079,98.791c-5.459,9.018-5.638,20.277-0.467,29.463c4.24,7.964,12.491,12.975,21.513,13.067h120.158    c9.021-0.091,17.273-5.103,21.513-13.067C342.763,293.481,342.584,282.222,337.125,273.204z M322.712,294.3L322.712,294.3    c-1.246,2.56-3.79,4.234-6.633,4.367H195.921c-2.844-0.132-5.388-1.807-6.633-4.367c-2.115-3.818-2.05-8.471,0.171-12.229    l60.079-98.792c1.893-3.569,6.321-4.928,9.89-3.035c1.292,0.685,2.349,1.742,3.035,3.035l60.079,98.792    C324.762,285.829,324.827,290.481,322.712,294.3z"/>
	</g>
</g>
<g>
	<g>
		<path d="M256,204.8c-4.713,0-8.533,3.821-8.533,8.533v34.133c0,4.713,3.82,8.533,8.533,8.533c4.713,0,8.533-3.82,8.533-8.533    v-34.133C264.533,208.621,260.713,204.8,256,204.8z"/>
	</g>
</g>
<g>
	<g>
		<path d="M262.059,267.008c-2.05-2.003-4.956-2.865-7.767-2.304c-0.535,0.091-1.053,0.263-1.538,0.508    c-0.543,0.188-1.058,0.448-1.533,0.771c-0.429,0.341-0.854,0.683-1.279,1.025c-3.3,3.365-3.3,8.752,0,12.117    c0.404,0.368,0.831,0.709,1.279,1.021c0.475,0.323,0.991,0.582,1.533,0.771c0.485,0.245,1.003,0.418,1.538,0.513    c0.565,0.094,1.136,0.151,1.708,0.171c2.259-0.034,4.422-0.918,6.059-2.475c0.341-0.429,0.683-0.854,1.021-1.279    c0.324-0.476,0.583-0.993,0.771-1.538c0.245-0.485,0.418-1.003,0.513-1.538c0.094-0.564,0.151-1.133,0.17-1.704    C264.5,270.808,263.616,268.644,262.059,267.008z"/>
	</g>
</g>
<g>
</g>
<g>
</g>
<g>
</g>
<g>
</g>
<g>
</g>
<g>
</g>
<g>
</g>
<g>
</g>
<g>
</g>
<g>
</g>
<g>
</g>
<g>
</g>
<g>
</g>
<g>
</g>
<g>
</g>
</svg>
