<?xml version="1.0" encoding="iso-8859-1"?>
<!-- Generator: Adobe Illustrator 19.0.0, SVG Export Plug-In . SVG Version: 6.00 Build 0)  -->
<svg xmlns="http://www.w3.org/2000/svg" xmlns:xlink="http://www.w3.org/1999/xlink" version="1.1" id="Layer_1" x="0px" y="0px" viewBox="0 0 512 512" style="enable-background:new 0 0 512 512;" xml:space="preserve">
<g>
	<g>
		<path d="M409.6,0H102.4C88.268,0.015,76.815,11.468,76.8,25.6v460.8c0.015,14.132,11.468,25.585,25.6,25.6h307.2    c14.132-0.015,25.585-11.468,25.6-25.6V25.6C435.185,11.468,423.732,0.015,409.6,0z M418.133,486.4    c-0.006,4.71-3.823,8.527-8.533,8.533H102.4c-4.71-0.006-8.527-3.823-8.533-8.533v-85.333h324.267V486.4z M418.133,384H93.867    V85.333h324.267V384z M418.133,68.267H93.867V25.6c0.006-4.71,3.823-8.527,8.533-8.533h307.2c4.71,0.006,8.527,3.823,8.533,8.533    V68.267z"/>
	</g>
</g>
<g>
	<g>
		<path d="M256,418.133c-16.495,0-29.867,13.372-29.867,29.867c0.02,16.487,13.38,29.847,29.867,29.867    c16.495,0,29.867-13.372,29.867-29.867C285.867,431.505,272.495,418.133,256,418.133z M256,460.8c-7.069,0-12.8-5.731-12.8-12.8    c0.008-7.066,5.734-12.792,12.8-12.8c7.069,0,12.8,5.731,12.8,12.8C268.8,455.069,263.069,460.8,256,460.8z"/>
	</g>
</g>
<g>
	<g>
		<path d="M262.059,36.609c-0.83-0.754-1.782-1.362-2.817-1.796c-3.178-1.338-6.849-0.63-9.301,1.795c-3.3,3.365-3.3,8.752,0,12.117    c1.636,1.558,3.8,2.442,6.059,2.475c1.115-0.014,2.216-0.246,3.242-0.683c1.033-0.434,1.986-1.04,2.817-1.791    C265.359,45.361,265.359,39.974,262.059,36.609z"/>
	</g>
</g>
<g>
	<g>
		<path d="M142.569,104.903c-0.001-0.001-0.002-0.002-0.003-0.003c-3.33-3.332-8.732-3.333-12.064-0.003    c-0.001,0.001-0.002,0.002-0.003,0.003l-17.067,17.067c-3.353,3.311-3.388,8.713-0.077,12.066s8.713,3.388,12.066,0.077    c0.026-0.026,0.052-0.051,0.077-0.077l17.067-17.067C145.898,113.636,145.9,108.235,142.569,104.903z"/>
	</g>
</g>
<g>
	<g>
		<path d="M193.658,104.9c-3.319-3.26-8.638-3.26-11.958,0l-51.2,51.2c-3.362,3.302-3.41,8.704-0.108,12.066    c3.302,3.362,8.704,3.41,12.066,0.108c0.036-0.036,0.072-0.072,0.108-0.108l51.2-51.2    C197.068,113.604,197.02,108.202,193.658,104.9z"/>
	</g>
</g>
<g>
</g>
<g>
</g>
<g>
</g>
<g>
</g>
<g>
</g>
<g>
</g>
<g>
</g>
<g>
</g>
<g>
</g>
<g>
</g>
<g>
</g>
<g>
</g>
<g>
</g>
<g>
</g>
<g>
</g>
</svg>
