<?xml version="1.0" encoding="iso-8859-1"?>
<!-- Generator: Adobe Illustrator 19.0.0, SVG Export Plug-In . SVG Version: 6.00 Build 0)  -->
<svg xmlns="http://www.w3.org/2000/svg" xmlns:xlink="http://www.w3.org/1999/xlink" version="1.1" id="Layer_1" x="0px" y="0px" viewBox="0 0 512.48 512.48" style="enable-background:new 0 0 512.48 512.48;" xml:space="preserve">
<g>
	<g>
		<path d="M426.907,170.667H409.84c-14.138,0-25.6,11.461-25.6,25.6s11.462,25.6,25.6,25.6V281.6    c-0.009,9.422-7.645,17.057-17.067,17.067h-12.15c-6.784-15.526-22.107-25.571-39.05-25.6h-25.6V256h24.463    c14.143-0.003,25.606-11.47,25.603-25.613c0-0.568-0.019-1.136-0.057-1.703L351.119,23.95C350.223,10.493,339.06,0.027,325.573,0    H186.907c-13.464,0.02-24.619,10.451-25.542,23.883L146.494,228.75c-0.907,14.114,9.799,26.29,23.913,27.197    c0.545,0.035,1.091,0.053,1.637,0.053h24.462v17.067h-25.6c-16.943,0.029-32.266,10.074-39.05,25.6h-12.15    c-9.422-0.009-17.057-7.645-17.067-17.067v-59.733c14.132-0.015,25.585-11.468,25.6-25.6c-0.015-14.132-11.468-25.585-25.6-25.6    H85.573c-14.138,0-25.6,11.461-25.6,25.6s11.461,25.6,25.6,25.6V281.6c0.022,18.842,15.291,34.112,34.133,34.133h8.533v8.533    c0.009,9.422,7.645,17.057,17.067,17.067h68.267v34.133c0,4.713,3.82,8.533,8.533,8.533h8.533v51.2h-76.8    c-17.142,0.005-32.604,10.301-39.221,26.114c-13.999,2.693-23.165,16.225-20.472,30.224c2.693,13.999,16.225,23.165,30.224,20.472    c13.999-2.693,23.165-16.225,20.472-30.224c-1.426-7.413-6.026-13.83-12.588-17.562c4.657-7.435,12.811-11.952,21.584-11.957    h93.867v10.106c-13.33,4.713-20.315,19.339-15.603,32.669c4.713,13.33,19.339,20.315,32.669,15.603    c13.33-4.713,20.315-19.339,15.603-32.669c-2.578-7.29-8.312-13.025-15.603-15.603v-10.106h93.867    c8.773,0.005,16.927,4.522,21.584,11.957c-12.182,7.013-16.373,22.573-9.36,34.755c7.013,12.182,22.573,16.373,34.755,9.36    s16.373-22.573,9.36-34.755c-3.667-6.37-9.909-10.844-17.119-12.27c-6.616-15.813-22.079-26.109-39.221-26.114h-76.8V384h8.533    c4.713,0,8.533-3.82,8.533-8.533v-34.133h68.267c9.422-0.009,17.057-7.645,17.067-17.067v-8.533h8.533    c18.842-0.022,34.112-15.291,34.133-34.133v-59.733c14.138,0,25.6-11.462,25.6-25.6S441.045,170.667,426.907,170.667z     M85.573,204.8c-4.71-0.006-8.527-3.823-8.533-8.533c0.006-4.71,3.823-8.527,8.533-8.533h17.067c4.713,0,8.533,3.82,8.533,8.533    s-3.82,8.533-8.533,8.533H85.573z M119.707,494.933c-4.713,0-8.533-3.82-8.533-8.533s3.82-8.533,8.533-8.533    s8.533,3.82,8.533,8.533C128.234,491.11,124.417,494.927,119.707,494.933z M392.773,477.867c4.713,0,8.533,3.82,8.533,8.533    c-0.006,4.71-3.823,8.527-8.533,8.533c-4.713,0-8.533-3.82-8.533-8.533S388.06,477.867,392.773,477.867z M213.573,17.067h85.333    V128c-0.015,14.132-11.468,25.585-25.6,25.6h-34.133c-14.132-0.015-25.585-11.468-25.6-25.6V17.067z M172.044,238.933    c-2.36,0.01-4.617-0.968-6.225-2.696c-1.611-1.696-2.443-3.986-2.295-6.321l14.87-204.867c0.298-4.485,4.018-7.973,8.513-7.983    h9.6V128c0.028,23.553,19.114,42.639,42.667,42.667h34.133c23.553-0.028,42.639-19.114,42.667-42.667V17.067h9.6    c4.517,0.018,8.244,3.541,8.516,8.05l14.862,204.733c0.303,4.703-3.263,8.762-7.967,9.066c-0.183,0.012-0.366,0.018-0.55,0.018    H172.044z M298.907,256v17.067h-85.333V256H298.907z M256.24,494.933c-4.713,0-8.533-3.82-8.533-8.533s3.82-8.533,8.533-8.533    c4.713,0,8.533,3.82,8.533,8.533C264.767,491.11,260.95,494.927,256.24,494.933z M264.773,435.2h-17.067V384h17.067V435.2z     M281.84,366.933h-51.2v-25.6h51.2V366.933z M145.307,324.267v-8.533c0.015-14.132,11.468-25.585,25.6-25.6h170.667    c14.132,0.015,25.585,11.468,25.6,25.6l0.012,8.533H145.307z M426.907,204.8H409.84c-4.71-0.006-8.527-3.823-8.533-8.533    c0.006-4.71,3.823-8.527,8.533-8.533h17.067c4.713,0,8.533,3.82,8.533,8.533S431.619,204.8,426.907,204.8z"/>
	</g>
</g>
<g>
</g>
<g>
</g>
<g>
</g>
<g>
</g>
<g>
</g>
<g>
</g>
<g>
</g>
<g>
</g>
<g>
</g>
<g>
</g>
<g>
</g>
<g>
</g>
<g>
</g>
<g>
</g>
<g>
</g>
</svg>
