<?xml version="1.0" encoding="iso-8859-1"?>
<!-- Generator: Adobe Illustrator 19.0.0, SVG Export Plug-In . SVG Version: 6.00 Build 0)  -->
<svg xmlns="http://www.w3.org/2000/svg" xmlns:xlink="http://www.w3.org/1999/xlink" version="1.1" id="Layer_1" x="0px" y="0px" viewBox="0 0 512 512" style="enable-background:new 0 0 512 512;" xml:space="preserve">
<g>
	<g>
		<path d="M256,0C114.615,0,0,114.615,0,256s114.615,256,256,256s256-114.615,256-256C511.84,114.682,397.318,0.16,256,0z     M256,494.933C124.041,494.933,17.067,387.959,17.067,256S124.041,17.067,256,17.067S494.933,124.041,494.933,256    C494.785,387.898,387.898,494.785,256,494.933z"/>
	</g>
</g>
<g>
	<g>
		<path d="M256,34.133C133.466,34.133,34.133,133.466,34.133,256S133.466,477.867,256,477.867S477.867,378.534,477.867,256    C477.73,133.523,378.477,34.27,256,34.133z M256,460.8c-113.108,0-204.8-91.692-204.8-204.8S142.892,51.2,256,51.2    S460.8,142.892,460.8,256C460.671,369.054,369.054,460.671,256,460.8z"/>
	</g>
</g>
<g>
	<g>
		<path d="M262.981,72.17c-0.262-0.504-0.571-0.982-0.923-1.428c-0.347-0.255-0.71-0.486-1.087-0.694    c-0.673-0.521-1.423-0.934-2.222-1.227c-0.752-0.273-1.541-0.432-2.34-0.472c-0.143-0.007-0.264-0.082-0.41-0.082    c-0.258,0-0.476,0.125-0.729,0.147c-0.646,0.056-1.283,0.185-1.9,0.384c-0.348,0.098-0.689,0.219-1.021,0.361    c-0.886,0.389-1.7,0.924-2.409,1.583c-0.373,0.466-0.698,0.968-0.971,1.498c-0.939,1.339-1.463,2.925-1.504,4.56v25.6    c-0.001,4.712,3.817,8.532,8.529,8.533c0.002,0,0.003,0,0.004,0c4.712,0.001,8.532-3.817,8.533-8.529c0-0.001,0-0.003,0-0.004    V76.8C264.492,75.136,263.951,73.523,262.981,72.17z"/>
	</g>
</g>
<g>
	<g>
		<path d="M256.004,401.067c-0.001,0-0.003,0-0.004,0c-4.712-0.001-8.532,3.817-8.533,8.529c0,0.001,0,0.003,0,0.004v25.6    c0.041,1.643,0.57,3.238,1.519,4.58c0.269,0.523,0.589,1.018,0.956,1.478c0.449,0.354,0.93,0.665,1.436,0.929    c2.752,2.072,6.547,2.061,9.286-0.029c1.064-0.404,1.903-1.245,2.304-2.309c0.978-1.357,1.524-2.977,1.565-4.649v-25.6    C264.535,404.888,260.716,401.068,256.004,401.067z"/>
	</g>
</g>
<g>
	<g>
		<path d="M166.294,92.25c-0.538,0.003-1.075,0.058-1.603,0.161c-0.523,0.133-1.035,0.304-1.533,0.513l-1.542,0.771    c-0.445,0.345-0.871,0.715-1.275,1.108c-0.769,0.784-1.378,1.711-1.792,2.729c-0.438,1.027-0.67,2.13-0.683,3.246    c0.015,2.263,0.902,4.432,2.475,6.059c0.404,0.393,0.83,0.763,1.276,1.109c0.517,0.254,1.025,0.513,1.542,0.767    c0.5,0.181,1.012,0.325,1.533,0.429c0.559,0.137,1.134,0.195,1.708,0.171c1.11,0.017,2.212-0.187,3.242-0.6    c1.037-0.464,1.989-1.097,2.817-1.875c1.57-1.628,2.455-3.797,2.475-6.059C174.903,96.038,171.035,92.22,166.294,92.25z"/>
	</g>
</g>
<g>
	<g>
		<path d="M351.659,405.162c-0.383-0.394-0.815-0.738-1.284-1.025c-0.493-0.316-1.005-0.602-1.533-0.854    c-0.499-0.181-1.012-0.323-1.533-0.425c-4.616-0.966-9.14,1.993-10.106,6.609s1.993,9.14,6.609,10.106    c2.851,0.596,5.809-0.301,7.847-2.382c0.383-0.392,0.726-0.82,1.025-1.279c0.337-0.436,0.596-0.926,0.767-1.45    c0.26-0.508,0.432-1.056,0.508-1.621c0.103-0.534,0.162-1.077,0.175-1.621C354.116,408.959,353.23,406.79,351.659,405.162z"/>
	</g>
</g>
<g>
	<g>
		<path d="M100.721,157.909c-2.214,0.013-4.337,0.885-5.921,2.433c-3.346,3.255-3.419,8.607-0.164,11.952    c0.054,0.055,0.109,0.11,0.164,0.164c0.788,0.767,1.716,1.376,2.733,1.792c1.025,0.437,2.127,0.67,3.242,0.683    c2.266,0,4.441-0.889,6.059-2.475c0.778-0.829,1.414-1.781,1.883-2.817c0.408-1.031,0.609-2.133,0.591-3.242    C109.282,161.684,105.437,157.882,100.721,157.909z"/>
	</g>
</g>
<g>
	<g>
		<path d="M417.192,339.541c-3.389-3.158-8.644-3.158-12.033,0c-2.391,2.466-3.123,6.1-1.875,9.3    c0.442,1.048,1.079,2.004,1.875,2.817c3.332,3.3,8.701,3.3,12.033,0c0.808-0.803,1.446-1.761,1.875-2.817    c0.441-1.024,0.674-2.126,0.683-3.241C419.728,343.323,418.808,341.146,417.192,339.541z"/>
	</g>
</g>
<g>
	<g>
		<path d="M106.834,339.543l-1.275-1.026c-0.447-0.321-0.934-0.58-1.45-0.771c-0.515-0.245-1.062-0.416-1.625-0.508    c-4.604-0.955-9.11,2.004-10.065,6.608c-0.589,2.84,0.309,5.784,2.382,7.813c0.788,0.767,1.716,1.376,2.733,1.792    c1.012,0.478,2.123,0.712,3.242,0.683c2.262-0.016,4.432-0.902,6.059-2.475C110.134,348.294,110.134,342.907,106.834,339.543z"/>
	</g>
</g>
<g>
	<g>
		<path d="M417.192,160.341c-3.389-3.158-8.644-3.158-12.033,0c-2.391,2.466-3.123,6.1-1.875,9.3    c0.442,1.049,1.079,2.004,1.875,2.817c3.346,3.323,8.752,3.304,12.075-0.042C420.557,169.071,420.538,163.664,417.192,160.341z"/>
	</g>
</g>
<g>
	<g>
		<path d="M172.458,405.162c-0.828-0.779-1.78-1.414-2.817-1.879c-1.576-0.612-3.293-0.759-4.95-0.425    c-0.522,0.101-1.034,0.243-1.533,0.425c-0.531,0.253-1.046,0.538-1.542,0.854c-0.466,0.287-0.895,0.631-1.275,1.025    c-3.3,3.331-3.3,8.699,0,12.029c0.403,0.395,0.829,0.767,1.275,1.112c0.517,0.254,1.025,0.508,1.542,0.767l1.533,0.512    c0.565,0.094,1.136,0.151,1.708,0.171c4.698-0.036,8.497-3.836,8.533-8.533C174.915,408.959,174.029,406.79,172.458,405.162z"/>
	</g>
</g>
<g>
	<g>
		<path d="M353.45,97.533c-0.414-1.018-1.023-1.945-1.792-2.729c-3.405-3.2-8.712-3.2-12.117,0    c-0.769,0.784-1.378,1.711-1.792,2.729c-0.481,1.013-0.715,2.125-0.683,3.246c-0.001,2.266,0.887,4.442,2.475,6.059    c1.604,1.607,3.789,2.499,6.059,2.475c2.27,0.021,4.453-0.87,6.059-2.475l1.025-1.283c0.32-0.446,0.578-0.934,0.767-1.45    c0.248-0.512,0.42-1.059,0.508-1.621c0.104-0.563,0.162-1.133,0.175-1.705C354.12,99.663,353.888,98.56,353.45,97.533z"/>
	</g>
</g>
<g>
	<g>
		<path d="M102.4,247.467H76.8c-1.853,0.037-3.64,0.69-5.081,1.856c-0.341,0.182-0.668,0.388-0.977,0.619    c-0.248,0.344-0.477,0.702-0.683,1.073c-2.396,2.905-2.388,7.102,0.019,9.998c0.194,0.366,0.416,0.716,0.665,1.047    c0.449,0.354,0.93,0.665,1.436,0.929c1.352,0.966,2.962,1.505,4.622,1.546h25.6c4.713,0,8.533-3.82,8.533-8.533    S107.113,247.467,102.4,247.467z"/>
	</g>
</g>
<g>
	<g>
		<path d="M443.558,254.292c-0.087-0.455-0.233-0.897-0.434-1.315c-0.078-0.206-0.166-0.395-0.259-0.593    c-0.154-0.406-0.349-0.796-0.581-1.163c-0.341-0.429-0.683-0.854-1.025-1.279c-0.425-0.341-0.858-0.683-1.283-1.025    c-0.367-0.234-0.757-0.43-1.164-0.585c-0.198-0.093-0.388-0.177-0.594-0.256c-0.443-0.214-0.915-0.362-1.401-0.439    c-0.429-0.073-0.864-0.109-1.299-0.107c-0.111-0.004-0.205-0.064-0.318-0.064h-25.6c-4.713,0-8.533,3.82-8.533,8.533    s3.82,8.533,8.533,8.533h25.6c0.542-0.016,1.083-0.073,1.617-0.171c0.474-0.08,0.935-0.225,1.369-0.432    c0.227-0.085,0.434-0.176,0.65-0.279c0.398-0.152,0.78-0.344,1.14-0.572c0.425-0.337,0.858-0.679,1.283-1.021    c0.341-0.429,0.683-0.854,1.025-1.279c0.23-0.365,0.422-0.751,0.575-1.154c0.098-0.205,0.188-0.4,0.268-0.613    c0.2-0.415,0.346-0.855,0.432-1.308C443.792,256.579,443.792,255.417,443.558,254.292z"/>
	</g>
</g>
<g>
	<g>
		<path d="M388.75,352.538l-98.851-98.855c-0.494-7.404-3.41-14.439-8.299-20.021V153.6c0-14.139-11.462-25.6-25.6-25.6    s-25.6,11.461-25.6,25.6v80.061c-9.818,10.933-11.32,27.006-3.697,39.569l-79.136,79.136c-3.362,3.302-3.41,8.704-0.108,12.066    c3.302,3.362,8.704,3.41,12.066,0.108c0.036-0.036,0.072-0.072,0.108-0.108l79.135-79.136c4.543,2.678,9.651,4.254,14.914,4.602    l98.851,98.86c10.002,10.001,26.218,10,36.219-0.002C398.753,378.754,398.752,362.539,388.75,352.538z M247.467,153.6    c0.005-4.711,3.822-8.529,8.533-8.533c4.711,0.005,8.529,3.823,8.533,8.533v69.478c-5.574-1.615-11.492-1.615-17.067,0V153.6z     M267.53,268.308c-6.579,6.436-17.127,6.331-23.577-0.234l-0.01-0.016l-0.016-0.01c-6.446-6.59-6.33-17.157,0.26-23.603    c6.59-6.446,17.157-6.33,23.604,0.26S274.119,261.862,267.53,268.308z M376.675,376.692c-3.363,3.265-8.714,3.263-12.075-0.004    l-91.382-91.384c4.987-2.938,9.145-7.096,12.083-12.083l91.381,91.388C380.009,367.951,380.005,373.354,376.675,376.692    L376.675,376.692z"/>
	</g>
</g>
<g>
</g>
<g>
</g>
<g>
</g>
<g>
</g>
<g>
</g>
<g>
</g>
<g>
</g>
<g>
</g>
<g>
</g>
<g>
</g>
<g>
</g>
<g>
</g>
<g>
</g>
<g>
</g>
<g>
</g>
</svg>
