<?xml version="1.0" encoding="iso-8859-1"?>
<!-- Generator: Adobe Illustrator 19.0.0, SVG Export Plug-In . SVG Version: 6.00 Build 0)  -->
<svg xmlns="http://www.w3.org/2000/svg" xmlns:xlink="http://www.w3.org/1999/xlink" version="1.1" id="Layer_1" x="0px" y="0px" viewBox="0 0 512.124 512.124" style="enable-background:new 0 0 512.124 512.124;" xml:space="preserve">
<g>
	<g>
		<path d="M256.062,34.257c-80.118,0-145.067,64.949-145.067,145.067s64.949,145.067,145.067,145.067    c80.081-0.089,144.977-64.986,145.067-145.067C401.129,99.206,336.18,34.257,256.062,34.257z M256.062,307.324    c-70.66-0.079-127.921-57.34-128-128c0-70.692,57.308-128,128-128s128,57.308,128,128S326.755,307.324,256.062,307.324z"/>
	</g>
</g>
<g>
	<g>
		<path d="M256.062,136.657c-23.564,0-42.667,19.103-42.667,42.667s19.102,42.667,42.667,42.667    c23.553-0.028,42.639-19.114,42.667-42.667C298.729,155.76,279.626,136.657,256.062,136.657z M256.062,204.924    c-14.132-0.015-25.585-11.468-25.6-25.6c0-14.138,11.461-25.6,25.6-25.6s25.6,11.461,25.6,25.6S270.201,204.924,256.062,204.924z"/>
	</g>
</g>
<g>
	<g>
		<path d="M354.937,451.39c-4.883-4.869-11.512-7.582-18.408-7.533h-46.333v-52.772c10.199-3.592,17.033-13.214,17.067-24.028    v-16.08c94.844-28.277,148.807-128.086,120.53-222.93S299.706-20.76,204.862,7.517S56.055,135.603,84.332,230.447    c17.273,57.936,62.594,103.257,120.53,120.53v16.08c0.033,10.813,6.868,20.435,17.067,24.027v52.773h-46.333    c-6.85-0.058-13.439,2.619-18.308,7.438l-32.65,31.625c-4.932,4.821-6.445,12.153-3.825,18.533    c2.673,6.494,9.019,10.716,16.042,10.671h238.417c7.022,0.045,13.369-4.177,16.042-10.671c2.623-6.405,1.089-13.761-3.875-18.583    L354.937,451.39z M290.195,367.057c-0.005,4.711-3.822,8.529-8.533,8.533h-51.2c-4.711-0.005-8.529-3.822-8.533-8.533v-11.884    c11.244,2.206,22.675,3.328,34.133,3.351c11.459-0.023,22.889-1.145,34.133-3.351V367.057z M273.129,392.657v68.267h-34.133    v-68.267H273.129z M93.929,179.324c0-89.544,72.59-162.133,162.133-162.133s162.133,72.59,162.133,162.133    s-72.59,162.133-162.133,162.133C166.56,341.356,94.03,268.826,93.929,179.324z M136.554,495.128l32.7-31.671    c1.691-1.657,3.974-2.569,6.342-2.533h46.333v8.533c-0.001,4.712,3.817,8.532,8.529,8.533c0.001,0,0.003,0,0.004,0h51.2    c4.712,0.001,8.532-3.817,8.533-8.529c0-0.001,0-0.003,0-0.004v-8.533h46.333c2.414-0.027,4.736,0.921,6.442,2.629l32.3,31.504    L136.554,495.128z"/>
	</g>
</g>
<g>
	<g>
		<path d="M204.096,262.095c-0.096-0.534-0.27-1.051-0.517-1.534c-0.184-0.545-0.442-1.062-0.767-1.538l-1.025-1.279    c-2.056-1.993-4.957-2.853-7.767-2.304c-0.534,0.091-1.052,0.264-1.533,0.513c-0.543,0.186-1.059,0.444-1.533,0.767    c-0.45,0.313-0.879,0.655-1.283,1.025c-3.3,3.365-3.3,8.752,0,12.117c0.816,0.772,1.772,1.38,2.817,1.792    c0.483,0.245,1,0.418,1.533,0.513c0.565,0.098,1.136,0.155,1.708,0.171c2.259-0.031,4.423-0.915,6.059-2.475l1.025-1.279    c0.325-0.475,0.582-0.992,0.767-1.538c0.259-0.509,0.433-1.056,0.517-1.621c0.097-0.535,0.152-1.077,0.167-1.621    C204.248,263.231,204.193,262.66,204.096,262.095z"/>
	</g>
</g>
<g>
	<g>
		<path d="M179.429,236.411c-0.433-1.034-1.039-1.986-1.792-2.816c-0.425-0.341-0.85-0.683-1.367-1.025    c-0.434-0.339-0.925-0.599-1.45-0.767c-0.482-0.249-0.999-0.421-1.533-0.513c-2.811-0.571-5.722,0.292-7.767,2.304    c-0.753,0.83-1.359,1.783-1.792,2.817c-0.437,1.026-0.67,2.127-0.683,3.242c0.013,0.573,0.072,1.144,0.175,1.708    c0.09,0.534,0.262,1.051,0.508,1.533c0.188,0.544,0.445,1.061,0.767,1.538l1.025,1.279c1.636,1.558,3.8,2.442,6.059,2.475    c0.573-0.013,1.144-0.071,1.708-0.171c0.534-0.091,1.052-0.264,1.533-0.513c0.525-0.168,1.016-0.427,1.45-0.767    c0.491-0.292,0.949-0.636,1.367-1.025l1.025-1.279c0.324-0.475,0.582-0.992,0.767-1.538c0.246-0.483,0.42-1,0.517-1.533    c0.138-0.558,0.194-1.134,0.167-1.708C180.143,238.533,179.909,237.423,179.429,236.411z"/>
	</g>
</g>
<g>
	<g>
		<path d="M213.821,221.561c-0.384-0.393-0.815-0.738-1.284-1.025c-0.492-0.317-1.004-0.601-1.533-0.85    c-0.5-0.181-1.012-0.325-1.533-0.429c-1.097-0.254-2.237-0.254-3.333,0c-0.551,0.094-1.092,0.237-1.616,0.429    c-0.512,0.232-0.998,0.516-1.45,0.85c-0.497,0.244-0.935,0.594-1.283,1.025c-1.627,1.597-2.548,3.779-2.558,6.059    c0.014,0.544,0.07,1.086,0.167,1.621c0.121,0.557,0.294,1.101,0.517,1.625c0.203,0.509,0.46,0.996,0.767,1.45    c0.301,0.481,0.675,0.913,1.108,1.279c0.367,0.434,0.8,0.808,1.283,1.108c0.425,0.258,0.933,0.513,1.45,0.767    c0.508,0.171,1.025,0.341,1.617,0.513c0.536,0.1,1.08,0.157,1.625,0.171c2.28-0.01,4.462-0.931,6.059-2.558    c0.407-0.37,0.753-0.802,1.025-1.279c0.334-0.452,0.619-0.938,0.85-1.45c0.195-0.526,0.337-1.071,0.425-1.625    c0.145-0.527,0.204-1.075,0.175-1.621C216.294,225.355,215.406,223.18,213.821,221.561z"/>
	</g>
</g>
<g>
	<g>
		<path d="M346.596,112.932c-0.829-0.751-1.778-1.357-2.808-1.792c-1.556-0.682-3.287-0.861-4.95-0.513    c-0.536,0.095-1.055,0.268-1.542,0.513c-0.542,0.188-1.058,0.445-1.533,0.767c-0.446,0.318-0.875,0.66-1.283,1.025    c-0.786,0.805-1.396,1.764-1.792,2.817c-0.911,2.067-0.911,4.421,0,6.487c0.436,1.031,1.041,1.982,1.791,2.813    c0.433,0.341,0.858,0.683,1.283,1.025c0.475,0.323,0.99,0.581,1.533,0.767c0.485,0.249,1.005,0.422,1.542,0.513    c0.562,0.1,1.13,0.157,1.7,0.171c2.26-0.03,4.424-0.914,6.059-2.475c0.756-0.826,1.362-1.778,1.792-2.813    c0.442-1.026,0.674-2.129,0.683-3.246C349.041,116.731,348.157,114.567,346.596,112.932z"/>
	</g>
</g>
<g>
	<g>
		<path d="M324.246,91.599c-0.396-1.053-1.006-2.012-1.792-2.817c-2.024-1.989-4.899-2.851-7.683-2.304    c-0.566,0.082-1.115,0.255-1.625,0.513c-0.524,0.171-1.015,0.432-1.45,0.771c-0.508,0.341-0.933,0.679-1.367,1.021    c-0.75,0.832-1.356,1.784-1.792,2.817c-0.911,2.067-0.911,4.421,0,6.487c0.396,1.053,1.006,2.012,1.792,2.817    c0.421,0.384,0.879,0.726,1.367,1.021c0.435,0.339,0.926,0.6,1.45,0.771c0.51,0.258,1.059,0.43,1.625,0.508    c0.533,0.1,1.074,0.157,1.617,0.171c2.261-0.032,4.427-0.914,6.067-2.471c0.786-0.805,1.396-1.764,1.792-2.817    C325.146,96.017,325.146,93.668,324.246,91.599z"/>
	</g>
</g>
<g>
	<g>
		<path d="M312.72,129.403c-0.119-0.555-0.289-1.098-0.508-1.621c-0.208-0.507-0.464-0.993-0.767-1.45    c-0.301-0.485-0.678-0.918-1.117-1.283c-0.756-0.822-1.688-1.463-2.725-1.875c-1.559-0.674-3.286-0.852-4.95-0.513    c-0.517,0.171-1.108,0.341-1.625,0.513c-0.499,0.224-0.983,0.481-1.45,0.767c-0.445,0.345-0.871,0.715-1.275,1.108    c-0.435,0.344-0.785,0.783-1.025,1.283c-0.335,0.452-0.623,0.938-0.858,1.45c-0.191,0.526-0.333,1.069-0.425,1.621    c-0.138,0.529-0.194,1.075-0.167,1.621c-0.025,2.27,0.867,4.455,2.475,6.059c0.383,0.391,0.811,0.735,1.276,1.025    c0.466,0.314,0.95,0.599,1.45,0.854c0.53,0.182,1.073,0.324,1.625,0.425c0.558,0.141,1.134,0.199,1.708,0.171    c1.109,0.016,2.211-0.186,3.241-0.596c1.02-0.446,1.946-1.084,2.725-1.879c1.633-1.594,2.557-3.777,2.567-6.059    C312.878,130.48,312.82,129.938,312.72,129.403z"/>
	</g>
</g>
<g>
	<g>
		<path d="M340.67,231.106c-0.616-0.005-1.23,0.057-1.832,0.184c-0.537,0.091-1.057,0.264-1.542,0.513    c-0.543,0.186-1.059,0.444-1.533,0.767c-0.425,0.341-0.85,0.683-1.283,1.025c-0.75,0.832-1.356,1.784-1.792,2.817    c-0.476,1.013-0.71,2.123-0.683,3.242c0.018,2.262,0.904,4.431,2.475,6.059c0.409,0.365,0.838,0.707,1.284,1.025    c0.475,0.323,0.99,0.581,1.533,0.767c0.485,0.249,1.005,0.422,1.542,0.513c0.562,0.1,1.13,0.157,1.7,0.171    c1.122,0.03,2.235-0.204,3.25-0.683c1.031-0.434,1.981-1.04,2.808-1.792l1.025-1.279c0.325-0.475,0.582-0.992,0.767-1.538    c0.249-0.482,0.423-0.999,0.517-1.533c0.097-0.565,0.152-1.136,0.167-1.708C349.111,234.972,345.35,231.146,340.67,231.106z"/>
	</g>
</g>
<g>
	<g>
		<path d="M324.245,260.561c-0.415-1.043-1.022-1.999-1.791-2.817c-2.017-2.001-4.898-2.865-7.683-2.304    c-0.567,0.078-1.116,0.251-1.625,0.513c-0.524,0.17-1.015,0.429-1.45,0.767c-0.489,0.295-0.947,0.638-1.367,1.025    c-0.75,0.832-1.356,1.784-1.792,2.817c-0.438,1.025-0.67,2.127-0.683,3.242c0.017,0.544,0.076,1.086,0.175,1.621    c0.081,0.564,0.252,1.112,0.508,1.621c0.173,0.524,0.436,1.015,0.775,1.45c0.341,0.513,0.675,0.942,1.017,1.367    c0.433,0.341,0.858,0.683,1.367,1.025c0.435,0.338,0.926,0.597,1.45,0.767c0.51,0.258,1.059,0.431,1.625,0.513    c0.534,0.098,1.074,0.155,1.617,0.171c2.262-0.031,4.428-0.915,6.067-2.475c1.569-1.628,2.452-3.797,2.467-6.059    C324.91,262.689,324.68,261.587,324.245,260.561z"/>
	</g>
</g>
<g>
	<g>
		<path d="M307.604,219.687c-1.576-0.607-3.293-0.756-4.95-0.429c-0.551,0.104-1.094,0.247-1.625,0.429    c-0.5,0.254-0.984,0.538-1.45,0.85c-0.464,0.29-0.892,0.634-1.275,1.025c-2.385,2.47-3.12,6.101-1.883,9.304    c0.466,1.036,1.102,1.987,1.883,2.813l1.275,1.025c0.465,0.289,0.949,0.546,1.45,0.767c0.517,0.171,1.108,0.341,1.625,0.513    c0.564,0.1,1.135,0.157,1.708,0.171c1.115-0.012,2.217-0.244,3.242-0.683c1.018-0.411,1.944-1.021,2.725-1.792    c0.811-0.801,1.451-1.758,1.884-2.813C313.94,226.506,311.901,221.562,307.604,219.687z"/>
	</g>
</g>
<g>
	<g>
		<path d="M201.788,88.782c-2.051-2.001-4.956-2.863-7.767-2.304c-0.533,0.095-1.05,0.268-1.533,0.513    c-0.543,0.188-1.059,0.447-1.533,0.771c-0.433,0.341-0.858,0.679-1.283,1.021c-0.753,0.83-1.359,1.783-1.792,2.817    c-0.911,2.067-0.911,4.421,0,6.487c0.434,1.034,1.039,1.986,1.792,2.817c0.405,0.367,0.834,0.708,1.283,1.021    c0.474,0.324,0.99,0.583,1.533,0.771c0.483,0.245,1,0.417,1.533,0.508c0.564,0.1,1.135,0.157,1.708,0.171    c4.732-0.019,8.553-3.87,8.534-8.602C204.254,92.528,203.365,90.377,201.788,88.782z"/>
	</g>
</g>
<g>
	<g>
		<path d="M179.428,115.749c-0.392-1.054-1.003-2.014-1.791-2.817c-0.865-0.729-1.81-1.359-2.817-1.875    c-0.5-0.182-1.012-0.325-1.533-0.429c-2.811-0.571-5.722,0.292-7.767,2.304c-0.789,0.802-1.399,1.762-1.792,2.817    c-0.437,1.026-0.67,2.127-0.683,3.242c-0.045,4.667,3.702,8.488,8.369,8.533c0.055,0.001,0.109,0.001,0.164,0    c0.573-0.013,1.144-0.07,1.708-0.171c0.534-0.091,1.052-0.264,1.533-0.513c0.525-0.168,1.016-0.427,1.45-0.767    c0.517-0.341,0.942-0.683,1.367-1.025c0.341-0.425,0.683-0.85,1.025-1.363c0.338-0.435,0.598-0.926,0.767-1.45    c0.259-0.51,0.434-1.059,0.517-1.625c0.138-0.529,0.194-1.075,0.167-1.621C180.143,117.871,179.909,116.76,179.428,115.749z"/>
	</g>
</g>
<g>
	<g>
		<path d="M215.696,127.782c-0.474-1.006-1.107-1.929-1.875-2.733c-2.006-2.022-4.885-2.916-7.683-2.388    c-0.554,0.119-1.095,0.29-1.617,0.513c-0.509,0.203-0.995,0.46-1.45,0.767c-0.483,0.3-0.917,0.674-1.284,1.108    c-0.821,0.76-1.462,1.694-1.875,2.733c-0.438,1.025-0.67,2.127-0.683,3.242c0.014,1.143,0.246,2.273,0.683,3.329    c0.414,1.038,1.054,1.971,1.875,2.729c0.348,0.431,0.786,0.781,1.283,1.025c0.452,0.335,0.938,0.621,1.45,0.854    c0.524,0.193,1.065,0.335,1.617,0.425c0.53,0.141,1.078,0.198,1.625,0.171c2.27,0.021,4.453-0.87,6.059-2.475    c0.768-0.803,1.401-1.724,1.875-2.729c0.411-1.061,0.615-2.191,0.6-3.329C216.311,129.914,216.107,128.813,215.696,127.782z"/>
	</g>
</g>
<g>
</g>
<g>
</g>
<g>
</g>
<g>
</g>
<g>
</g>
<g>
</g>
<g>
</g>
<g>
</g>
<g>
</g>
<g>
</g>
<g>
</g>
<g>
</g>
<g>
</g>
<g>
</g>
<g>
</g>
</svg>
