<?xml version="1.0" encoding="iso-8859-1"?>
<!-- Generator: Adobe Illustrator 19.0.0, SVG Export Plug-In . SVG Version: 6.00 Build 0)  -->
<svg xmlns="http://www.w3.org/2000/svg" xmlns:xlink="http://www.w3.org/1999/xlink" version="1.1" id="Layer_1" x="0px" y="0px" viewBox="0 0 512 512" style="enable-background:new 0 0 512 512;" xml:space="preserve">
<g>
	<g>
		<path d="M460.8,64H51.2c-9.421,0.011-17.056,7.645-17.067,17.067V320c0.011,9.421,7.645,17.056,17.067,17.067h409.6    c9.421-0.011,17.056-7.645,17.067-17.067V81.067C477.856,71.645,470.221,64.011,460.8,64z M460.8,320l-409.6,0.012V81.067h409.6    V320z"/>
	</g>
</g>
<g>
	<g>
		<path d="M486.4,29.867H25.6C11.468,29.882,0.015,41.335,0,55.467V345.6c0.015,14.132,11.468,25.585,25.6,25.6h170.667v34.133    h-15.7c-9.2,0.013-17.692,4.943-22.267,12.925l-14.583,25.591c-7.006,12.28-2.73,27.914,9.549,34.919    c3.871,2.209,8.252,3.368,12.709,3.364h180.05c14.139,0.012,25.611-11.44,25.624-25.579c0.004-4.452-1.153-8.828-3.357-12.696    l-14.6-25.612c-4.575-7.976-13.063-12.901-22.258-12.913h-15.7V371.2h45.925l12.35,24.692c2.868,5.805,8.792,9.468,15.267,9.442    h66.25c6.472,0.027,12.395-3.633,15.267-9.433l12.35-24.7h3.258c14.132-0.015,25.585-11.468,25.6-25.6V55.467    C511.985,41.335,500.532,29.882,486.4,29.867z M331.433,422.4c3.076-0.019,5.921,1.63,7.433,4.308l14.6,25.609    c2.33,4.095,0.899,9.304-3.196,11.634c-1.294,0.736-2.757,1.121-4.246,1.116h-180.05c-4.71,0.016-8.541-3.79-8.556-8.5    c-0.005-1.493,0.382-2.962,1.123-4.259l14.583-25.588c1.512-2.685,4.36-4.339,7.442-4.321h15.7v17.067    c-0.001,4.712,3.817,8.532,8.529,8.533c0.001,0,0.003,0,0.004,0h102.4c4.712,0.001,8.532-3.817,8.533-8.529    c0-0.001,0-0.003,0-0.004V422.4H331.433z M213.333,430.933V371.2h85.333v42.667v17.067H213.333z M494.933,345.6    c-0.005,4.711-3.822,8.529-8.533,8.533h-8.533c-3.232,0-6.187,1.826-7.633,4.717l-14.708,29.417h-66.25l-14.708-29.417    c-1.446-2.891-4.401-4.716-7.633-4.717H25.6c-4.711-0.005-8.529-3.822-8.533-8.533V55.467c0.005-4.711,3.822-8.529,8.533-8.533    h460.8c4.711,0.005,8.529,3.822,8.533,8.533V345.6z"/>
	</g>
</g>
<g>
	<g>
		<path d="M409.425,361.046c-0.076-0.567-0.248-1.116-0.508-1.625c-0.189-0.542-0.446-1.057-0.767-1.533    c-0.341-0.429-0.683-0.854-1.025-1.279c-3.398-3.219-8.719-3.219-12.117,0c-1.561,1.634-2.445,3.799-2.475,6.058    c-0.031,1.119,0.203,2.23,0.683,3.242c0.433,1.034,1.039,1.987,1.792,2.817c0.817,0.771,1.773,1.379,2.817,1.792    c1.025,0.437,2.127,0.669,3.241,0.683c4.667,0.045,8.488-3.702,8.533-8.369c0-0.055,0-0.109,0-0.164    C409.587,362.122,409.529,361.58,409.425,361.046z"/>
	</g>
</g>
<g>
	<g>
		<path d="M443.733,354.133H435.2c-4.713,0-8.533,3.821-8.533,8.533c0,4.713,3.82,8.533,8.533,8.533h8.533    c4.713,0,8.533-3.821,8.533-8.533C452.267,357.954,448.446,354.133,443.733,354.133z"/>
	</g>
</g>
<g>
	<g>
		<path d="M337.125,234.804l-60.075-98.791c-6.574-11.626-21.328-15.721-32.953-9.147c-3.823,2.162-6.985,5.324-9.147,9.147    l-60.075,98.792c-5.457,9.017-5.636,20.273-0.467,29.458c4.241,7.965,12.493,12.978,21.517,13.07h120.149    c9.023-0.092,17.276-5.105,21.517-13.071C342.76,255.078,342.582,243.821,337.125,234.804z M322.708,255.9    c-1.246,2.559-3.79,4.234-6.633,4.367H195.925c-2.843-0.133-5.387-1.807-6.633-4.367c-2.116-3.818-2.053-8.47,0.166-12.229h0    l60.075-98.792c1.897-3.571,6.33-4.929,9.901-3.032c1.291,0.685,2.346,1.741,3.032,3.032l60.075,98.792    C324.761,247.43,324.824,252.082,322.708,255.9z"/>
	</g>
</g>
<g>
	<g>
		<path d="M256,166.4c-4.713,0-8.533,3.82-8.533,8.533v34.133c-0.001,4.712,3.817,8.532,8.529,8.533c0.002,0,0.003,0,0.004,0    c4.712,0.001,8.532-3.817,8.533-8.529c0-0.002,0-0.003,0-0.004v-34.133C264.533,170.22,260.713,166.4,256,166.4z"/>
	</g>
</g>
<g>
	<g>
		<path d="M262.059,228.608c-0.418-0.389-0.876-0.732-1.367-1.025c-0.435-0.339-0.926-0.6-1.45-0.771    c-0.51-0.258-1.059-0.43-1.625-0.508c-2.783-0.561-5.661,0.303-7.675,2.304c-1.561,1.634-2.446,3.799-2.475,6.059    c0.014,1.115,0.246,2.216,0.683,3.242c0.432,1.034,1.038,1.987,1.791,2.817c1.636,1.558,3.8,2.441,6.059,2.475    c0.542-0.016,1.083-0.073,1.617-0.171c0.566-0.082,1.115-0.255,1.625-0.513c0.524-0.171,1.015-0.432,1.45-0.771    c0.508-0.338,0.942-0.679,1.367-1.021c0.753-0.83,1.359-1.783,1.792-2.817c0.437-1.026,0.669-2.127,0.683-3.242    C264.5,232.408,263.616,230.244,262.059,228.608z"/>
	</g>
</g>
<g>
	<g>
		<path d="M99.79,100.634c-3.319-3.26-8.638-3.26-11.957,0L70.767,117.7c-3.332,3.333-3.331,8.736,0.002,12.068    c1.6,1.599,3.769,2.498,6.031,2.498c2.264,0.003,4.435-0.897,6.033-2.5L99.9,112.7C103.202,109.338,103.153,103.935,99.79,100.634    z"/>
	</g>
</g>
<g>
	<g>
		<path d="M151.025,100.633c-3.323-3.282-8.668-3.282-11.991,0l-51.2,51.2c-3.324,3.33-3.318,8.73,0,12.066    c3.33,3.332,8.732,3.333,12.064,0.003c0.001-0.001,0.002-0.002,0.003-0.003l51.2-51.2    C154.411,109.347,154.378,103.945,151.025,100.633z"/>
	</g>
</g>
<g>
</g>
<g>
</g>
<g>
</g>
<g>
</g>
<g>
</g>
<g>
</g>
<g>
</g>
<g>
</g>
<g>
</g>
<g>
</g>
<g>
</g>
<g>
</g>
<g>
</g>
<g>
</g>
<g>
</g>
</svg>
