<?xml version="1.0" encoding="iso-8859-1"?>
<!-- Generator: Adobe Illustrator 19.0.0, SVG Export Plug-In . SVG Version: 6.00 Build 0)  -->
<svg xmlns="http://www.w3.org/2000/svg" xmlns:xlink="http://www.w3.org/1999/xlink" version="1.1" id="Layer_1" x="0px" y="0px" viewBox="0 0 512 512" style="enable-background:new 0 0 512 512;" xml:space="preserve">
<g>
	<g>
		<path d="M460.8,64H51.2c-9.422,0.009-17.057,7.645-17.067,17.067V320c0.009,9.422,7.645,17.057,17.067,17.067h409.6    c9.421-0.011,17.056-7.645,17.067-17.067V81.067C477.856,71.645,470.221,64.011,460.8,64z M460.8,320l-409.6,0.012V81.067h409.6    V320z"/>
	</g>
</g>
<g>
	<g>
		<path d="M486.4,29.867H25.6C11.468,29.882,0.015,41.335,0,55.467V345.6c0.015,14.132,11.468,25.585,25.6,25.6h170.667v34.133    h-15.7c-9.199,0.013-17.69,4.943-22.263,12.925l-14.588,25.591c-7.006,12.28-2.73,27.914,9.549,34.919    c3.871,2.209,8.252,3.368,12.709,3.364h180.05c14.137,0.013,25.609-11.436,25.622-25.574c0.004-4.454-1.154-8.832-3.359-12.701    l-14.596-25.612c-4.576-7.976-13.063-12.9-22.258-12.913h-15.7V371.2h45.925l12.35,24.7c2.875,5.797,8.796,9.456,15.267,9.433    h66.25c6.472,0.027,12.395-3.633,15.267-9.433l12.35-24.7h3.258c14.132-0.015,25.585-11.468,25.6-25.6V55.467    C511.985,41.335,500.532,29.882,486.4,29.867z M331.433,422.4c3.077-0.018,5.923,1.63,7.438,4.308l14.596,25.609    c2.328,4.099,0.892,9.308-3.206,11.636c-1.291,0.733-2.751,1.117-4.236,1.113h-180.05c-4.714,0.011-8.544-3.801-8.555-8.515    c-0.004-1.488,0.382-2.951,1.118-4.243l14.588-25.588c1.512-2.685,4.361-4.339,7.442-4.321h15.7v17.067    c0,4.713,3.82,8.533,8.533,8.533h102.4c4.713,0,8.533-3.82,8.533-8.533V422.4H331.433z M213.333,430.933V371.2h85.333v42.667    v17.067H213.333z M494.933,345.6c-0.005,4.711-3.822,8.529-8.533,8.533h-8.533c-3.232,0-6.187,1.826-7.633,4.717l-14.708,29.417    h-66.25l-14.708-29.417c-1.446-2.891-4.401-4.717-7.633-4.717H25.6c-4.71-0.006-8.527-3.823-8.533-8.533V55.467    c0.006-4.71,3.823-8.527,8.533-8.533h460.8c4.711,0.005,8.529,3.822,8.533,8.533V345.6z"/>
	</g>
</g>
<g>
	<g>
		<path d="M408.917,359.421c-0.411-1.044-1.02-1.999-1.791-2.813c-2.037-1.963-4.898-2.821-7.679-2.304    c-0.566,0.078-1.115,0.25-1.625,0.508c-0.543,0.188-1.058,0.448-1.533,0.771c-0.448,0.314-0.876,0.656-1.28,1.025    c-0.773,0.814-1.383,1.769-1.796,2.813c-0.906,2.068-0.906,4.42,0,6.487c0.434,1.034,1.041,1.987,1.796,2.817    c0.425,0.341,0.85,0.683,1.279,1.021c0.475,0.323,0.991,0.582,1.533,0.771c0.51,0.258,1.059,0.431,1.625,0.512    c0.535,0.098,1.077,0.155,1.621,0.171c4.667,0.045,8.488-3.702,8.533-8.369c0-0.055,0-0.109,0-0.164    C409.587,361.55,409.355,360.448,408.917,359.421z"/>
	</g>
</g>
<g>
	<g>
		<path d="M443.733,354.133H435.2c-4.713,0-8.533,3.821-8.533,8.533c0,4.713,3.82,8.533,8.533,8.533h8.533    c4.713,0,8.533-3.821,8.533-8.533C452.267,357.954,448.446,354.133,443.733,354.133z"/>
	</g>
</g>
<g>
	<g>
		<path d="M371.2,123.733c-16.495,0-29.867,13.372-29.867,29.867c0.024,6.516,2.199,12.841,6.188,17.994l-32.462,48.66    c-3.81-1.73-7.942-2.634-12.126-2.654c-7.492,0.052-14.693,2.904-20.189,7.996l-38.58-33.032c2.14-4.132,3.271-8.711,3.302-13.364    c0-16.495-13.372-29.867-29.867-29.867c-16.495,0-29.867,13.372-29.867,29.867c0.029,4.597,1.133,9.124,3.223,13.218    l-35.198,29.351c-4.525-2.699-9.689-4.139-14.958-4.169c-16.495,0-29.867,13.372-29.867,29.867    c0,16.495,13.372,29.867,29.867,29.867c16.495,0,29.867-13.372,29.867-29.867c-0.029-4.597-1.133-9.124-3.223-13.218    l35.198-29.351c9.146,5.531,20.599,5.56,29.773,0.077l41.486,35.521c-3.945,16.025,5.848,32.214,21.873,36.159    c16.025,3.945,32.214-5.848,36.159-21.873c1.959-7.959,0.563-16.374-3.862-23.274l33.256-49.85    c3.163,1.162,6.502,1.774,9.872,1.809c16.495,0,29.867-13.372,29.867-29.867S387.695,123.733,371.2,123.733z M140.8,260.267    c-7.069,0-12.8-5.731-12.8-12.8c0-7.069,5.731-12.8,12.8-12.8c7.069,0,12.8,5.731,12.8,12.8    C153.592,254.533,147.866,260.259,140.8,260.267z M217.6,192c-7.069,0-12.8-5.731-12.8-12.8c0.008-7.066,5.734-12.792,12.8-12.8    c7.069,0,12.8,5.731,12.8,12.8C230.4,186.269,224.669,192,217.6,192z M302.933,260.267c-7.069,0-12.8-5.731-12.8-12.8    c0-7.069,5.731-12.8,12.8-12.8c3.289,0.009,6.45,1.283,8.825,3.558c2.574,2.378,4.019,5.737,3.975,9.242    C315.733,254.536,310.003,260.267,302.933,260.267z M371.2,166.4c-7.069,0-12.8-5.731-12.8-12.8    c0.008-7.066,5.734-12.792,12.8-12.8c7.069,0,12.8,5.731,12.8,12.8S378.269,166.4,371.2,166.4z"/>
	</g>
</g>
<g>
	<g>
		<path d="M99.79,100.634c-3.319-3.26-8.638-3.26-11.957,0L70.767,117.7c-3.332,3.333-3.331,8.736,0.002,12.068    c1.6,1.599,3.769,2.498,6.031,2.498c2.264,0.003,4.435-0.897,6.033-2.5L99.9,112.7C103.202,109.338,103.153,103.935,99.79,100.634    z"/>
	</g>
</g>
<g>
	<g>
		<path d="M151.025,100.633c-3.323-3.282-8.668-3.282-11.991,0l-51.2,51.2c-3.324,3.33-3.318,8.73,0,12.066    c3.33,3.332,8.732,3.333,12.064,0.003c0.001-0.001,0.002-0.002,0.003-0.003l51.2-51.2    C154.411,109.347,154.378,103.945,151.025,100.633z"/>
	</g>
</g>
<g>
</g>
<g>
</g>
<g>
</g>
<g>
</g>
<g>
</g>
<g>
</g>
<g>
</g>
<g>
</g>
<g>
</g>
<g>
</g>
<g>
</g>
<g>
</g>
<g>
</g>
<g>
</g>
<g>
</g>
</svg>
