<?xml version="1.0" encoding="iso-8859-1"?>
<!-- Generator: Adobe Illustrator 19.0.0, SVG Export Plug-In . SVG Version: 6.00 Build 0)  -->
<svg xmlns="http://www.w3.org/2000/svg" xmlns:xlink="http://www.w3.org/1999/xlink" version="1.1" id="Layer_1" x="0px" y="0px" viewBox="0 0 512 512" style="enable-background:new 0 0 512 512;" xml:space="preserve">
<g>
	<g>
		<path d="M460.8,64H51.2c-9.422,0.009-17.057,7.645-17.067,17.067V320c0.009,9.422,7.645,17.057,17.067,17.067h409.6    c9.422-0.009,17.057-7.645,17.067-17.067V81.067C477.857,71.645,470.222,64.009,460.8,64z M460.8,320l-409.6,0.012V81.067h409.6    V320z"/>
	</g>
</g>
<g>
	<g>
		<path d="M486.4,29.867H25.6C11.468,29.882,0.015,41.335,0,55.467V345.6c0.015,14.132,11.468,25.585,25.6,25.6h170.667v34.133    h-15.7c-9.199,0.013-17.69,4.943-22.263,12.925l-14.588,25.591c-7.006,12.28-2.73,27.914,9.549,34.919    c3.871,2.209,8.252,3.368,12.709,3.364h180.05c14.137,0.013,25.609-11.436,25.622-25.574c0.004-4.454-1.154-8.832-3.359-12.701    l-14.596-25.612c-4.576-7.976-13.063-12.9-22.258-12.913h-15.7V371.2h45.925l12.35,24.7c2.875,5.797,8.796,9.456,15.267,9.433    h66.25c6.471,0.022,12.392-3.636,15.267-9.433l12.35-24.7h3.258c14.132-0.015,25.585-11.468,25.6-25.6V55.467    C511.985,41.335,500.532,29.882,486.4,29.867z M331.433,422.4c3.077-0.018,5.923,1.63,7.438,4.308l14.596,25.609    c2.328,4.099,0.892,9.308-3.206,11.636c-1.291,0.733-2.751,1.117-4.236,1.113h-180.05c-4.714,0.011-8.544-3.801-8.555-8.515    c-0.004-1.488,0.382-2.951,1.118-4.243l14.588-25.588c1.512-2.685,4.361-4.339,7.442-4.321h15.7v17.067    c0,4.713,3.82,8.533,8.533,8.533h102.4c4.713,0,8.533-3.82,8.533-8.533V422.4H331.433z M213.333,430.933V371.2h85.333v42.667    v17.067H213.333z M494.933,345.6c-0.006,4.71-3.823,8.527-8.533,8.533h-8.533c-3.232-0.001-6.188,1.825-7.633,4.717    l-14.708,29.417h-66.25l-14.708-29.417c-1.446-2.891-4.401-4.717-7.633-4.717H25.6c-4.71-0.006-8.527-3.823-8.533-8.533V55.467    c0.006-4.71,3.823-8.527,8.533-8.533h460.8c4.71,0.006,8.527,3.823,8.533,8.533V345.6z"/>
	</g>
</g>
<g>
	<g>
		<path d="M407.125,356.608c-3.427-3.145-8.69-3.145-12.117,0c-3.319,3.346-3.297,8.749,0.049,12.068    c3.346,3.319,8.749,3.297,12.068-0.049C410.425,365.3,410.425,359.935,407.125,356.608z"/>
	</g>
</g>
<g>
	<g>
		<path d="M443.733,354.133H435.2c-4.713,0-8.533,3.821-8.533,8.533c0,4.713,3.82,8.533,8.533,8.533h8.533    c4.713,0,8.533-3.821,8.533-8.533C452.267,357.954,448.446,354.133,443.733,354.133z"/>
	</g>
</g>
<g>
	<g>
		<path d="M341.333,209.067h-25.991c0.243-2.806,0.391-5.646,0.391-8.533s-0.148-5.728-0.391-8.533h25.991    c4.713,0,8.533-3.821,8.533-8.533c0-4.713-3.82-8.533-8.533-8.533h-29.085c-1.533-5.631-3.629-11.094-6.255-16.306    c10.16-0.026,20.03-3.391,28.091-9.578c4.703-4.302,7.342-10.41,7.25-16.783c0-4.713-3.821-8.533-8.533-8.533    c-4.713,0-8.533,3.82-8.533,8.533c0.099,1.62-0.558,3.194-1.779,4.262c-8.585,4.756-18.495,6.557-28.204,5.126    c-17.635-21.144-49.07-23.988-70.214-6.354c-2.306,1.923-4.434,4.051-6.357,6.357c-9.709,1.456-19.626-0.348-28.201-5.129    c-1.221-1.069-1.878-2.643-1.779-4.263c0-4.713-3.82-8.533-8.533-8.533s-8.533,3.82-8.533,8.533    c-0.092,6.373,2.547,12.482,7.25,16.783c8.061,6.185,17.93,9.551,28.091,9.578c-2.626,5.212-4.722,10.675-6.255,16.306h-29.085    c-4.713,0-8.533,3.821-8.533,8.533c0,4.713,3.82,8.533,8.533,8.533h25.991c-0.243,2.806-0.391,5.646-0.391,8.533    s0.148,5.728,0.391,8.533h-25.991c-4.713,0-8.533,3.82-8.533,8.533s3.82,8.533,8.533,8.533h29.085    c1.532,5.623,3.624,11.078,6.245,16.283c-10.159,0.036-20.025,3.409-28.08,9.6c-4.703,4.302-7.342,10.41-7.25,16.783    c0,4.713,3.82,8.533,8.533,8.533s8.533-3.82,8.533-8.533c-0.099-1.62,0.558-3.194,1.779-4.263    c8.578-4.773,18.493-6.576,28.202-5.129c17.633,21.145,49.069,23.991,70.214,6.358c2.306-1.923,4.434-4.051,6.357-6.357    c9.709-1.449,19.625,0.354,28.203,5.127c1.221,1.069,1.878,2.643,1.779,4.263c0,4.713,3.821,8.533,8.533,8.533    c4.713,0,8.533-3.82,8.533-8.533c0.092-6.373-2.547-12.482-7.25-16.783c-8.055-6.191-17.921-9.564-28.08-9.6    c2.621-5.205,4.713-10.66,6.244-16.283h29.085c4.713,0,8.533-3.82,8.533-8.533S346.046,209.067,341.333,209.067z M247.467,259.063    c-19.451-5.55-34.133-29.682-34.133-58.529c0.016-2.851,0.178-5.699,0.487-8.533h33.646V259.063z M217.509,174.933    C224.374,154.788,239.024,140.8,256,140.8c16.976,0,31.626,13.988,38.491,34.133H217.509z M264.533,259.063V192h33.646    c0.309,2.834,0.471,5.682,0.487,8.533C298.667,229.38,283.984,253.512,264.533,259.063z"/>
	</g>
</g>
<g>
	<g>
		<path d="M99.79,100.634c-3.319-3.26-8.638-3.26-11.957,0L70.767,117.7c-3.332,3.333-3.331,8.736,0.002,12.068    c1.6,1.599,3.769,2.498,6.031,2.498c2.264,0.003,4.435-0.897,6.033-2.5L99.9,112.7C103.202,109.338,103.153,103.935,99.79,100.634    z"/>
	</g>
</g>
<g>
	<g>
		<path d="M151.025,100.633c-3.323-3.282-8.668-3.282-11.991,0l-51.2,51.2c-3.324,3.33-3.318,8.73,0,12.066    c3.33,3.332,8.732,3.333,12.064,0.003c0.001-0.001,0.002-0.002,0.003-0.003l51.2-51.2    C154.411,109.347,154.378,103.945,151.025,100.633z"/>
	</g>
</g>
<g>
</g>
<g>
</g>
<g>
</g>
<g>
</g>
<g>
</g>
<g>
</g>
<g>
</g>
<g>
</g>
<g>
</g>
<g>
</g>
<g>
</g>
<g>
</g>
<g>
</g>
<g>
</g>
<g>
</g>
</svg>
