<?xml version="1.0" encoding="iso-8859-1"?>
<!-- Generator: Adobe Illustrator 19.0.0, SVG Export Plug-In . SVG Version: 6.00 Build 0)  -->
<svg xmlns="http://www.w3.org/2000/svg" xmlns:xlink="http://www.w3.org/1999/xlink" version="1.1" id="Layer_1" x="0px" y="0px" viewBox="0 0 512 512" style="enable-background:new 0 0 512 512;" xml:space="preserve">
<g>
	<g>
		<path d="M460.8,64H51.2c-9.422,0.009-17.057,7.645-17.067,17.067V320c0.009,9.422,7.645,17.057,17.067,17.067h409.6    c9.422-0.009,17.057-7.645,17.067-17.067V81.067C477.857,71.645,470.222,64.009,460.8,64z M460.8,320l-409.6,0.012V81.067h409.6    V320z"/>
	</g>
</g>
<g>
	<g>
		<path d="M486.4,29.867H25.6C11.468,29.882,0.015,41.335,0,55.467V345.6c0.015,14.132,11.468,25.585,25.6,25.6h170.667v34.133    h-15.7c-9.199,0.013-17.69,4.943-22.263,12.925l-14.588,25.591c-7.006,12.28-2.73,27.914,9.549,34.919    c3.871,2.209,8.252,3.368,12.709,3.364h180.05c14.137,0.013,25.609-11.436,25.622-25.574c0.004-4.454-1.154-8.832-3.359-12.701    l-14.596-25.612c-4.576-7.976-13.063-12.9-22.258-12.913h-15.7V371.2h45.925l12.35,24.7c2.875,5.797,8.796,9.456,15.267,9.433    h66.25c6.471,0.022,12.392-3.636,15.267-9.433l12.35-24.7h3.258c14.132-0.015,25.585-11.468,25.6-25.6V55.467    C511.985,41.335,500.532,29.882,486.4,29.867z M331.433,422.4c3.077-0.018,5.923,1.63,7.438,4.308l14.596,25.609    c2.328,4.099,0.892,9.308-3.206,11.636c-1.291,0.733-2.751,1.117-4.236,1.113h-180.05c-4.714,0.011-8.544-3.801-8.555-8.515    c-0.004-1.488,0.382-2.951,1.118-4.243l14.588-25.588c1.512-2.685,4.361-4.339,7.442-4.321h15.7v17.067    c0,4.713,3.82,8.533,8.533,8.533h102.4c4.713,0,8.533-3.82,8.533-8.533V422.4H331.433z M213.333,430.933V371.2h85.333v42.667    v17.067H213.333z M494.933,345.6c-0.006,4.71-3.823,8.527-8.533,8.533h-8.533c-3.232-0.001-6.188,1.825-7.633,4.717    l-14.708,29.417h-66.25l-14.708-29.417c-1.446-2.891-4.401-4.717-7.633-4.717H25.6c-4.71-0.006-8.527-3.823-8.533-8.533V55.467    c0.006-4.71,3.823-8.527,8.533-8.533h460.8c4.71,0.006,8.527,3.823,8.533,8.533V345.6z"/>
	</g>
</g>
<g>
	<g>
		<path d="M401.116,354.084c-2.293-0.013-4.494,0.896-6.108,2.524c-0.754,0.828-1.362,1.78-1.796,2.813    c-0.906,2.068-0.906,4.42,0,6.487c0.414,1.045,1.023,2.001,1.796,2.817c3.365,3.3,8.752,3.3,12.117,0    c0.752-0.831,1.358-1.783,1.792-2.817c0.478-1.012,0.713-2.123,0.683-3.242C409.627,357.954,405.829,354.111,401.116,354.084z"/>
	</g>
</g>
<g>
	<g>
		<path d="M443.733,354.133H435.2c-4.713,0-8.533,3.821-8.533,8.533c0,4.713,3.82,8.533,8.533,8.533h8.533    c4.713,0,8.533-3.821,8.533-8.533C452.267,357.954,448.446,354.133,443.733,354.133z"/>
	</g>
</g>
<g>
	<g>
		<path d="M315.733,215.842v-49.671c-0.002-4.85-2.049-9.475-5.637-12.738c-3.458-3.14-8.078-4.68-12.729-4.242    c-14.177,1.208-27.558-6.719-33.308-19.733c-1.551-4.451-6.417-6.801-10.867-5.249c-2.459,0.857-4.392,2.79-5.249,5.249    c-5.175,12.142-17.143,19.982-30.342,19.875c-1.004,0-1.996-0.05-2.958-0.142c-4.654-0.443-9.278,1.097-12.737,4.242    c-3.589,3.263-5.636,7.887-5.638,12.737V217.6c0.011,17.167,7.403,33.502,20.292,44.842c10.941,9.608,25.01,14.899,39.571,14.883    c32.904,0.031,59.604-26.618,59.635-59.522C315.764,217.149,315.754,216.495,315.733,215.842z M298.667,215.842    c0.452,21.896-15.386,40.74-37.033,44.063c-12.225,1.674-24.571-2.08-33.796-10.275c-9.21-8.098-14.494-19.765-14.504-32.029    l-0.35-51.425c16.261,1.291,32.186-5.119,43.017-17.317c9.705,11.067,23.681,17.451,38.4,17.542    c1.426,0.012,2.851-0.065,4.267-0.229V215.842z"/>
	</g>
</g>
<g>
	<g>
		<path d="M99.79,100.634c-3.319-3.26-8.638-3.26-11.957,0L70.767,117.7c-3.332,3.333-3.331,8.736,0.002,12.068    c1.6,1.599,3.769,2.498,6.031,2.498c2.264,0.003,4.435-0.897,6.033-2.5L99.9,112.7C103.202,109.338,103.153,103.935,99.79,100.634    z"/>
	</g>
</g>
<g>
	<g>
		<path d="M151.025,100.633c-3.323-3.282-8.668-3.282-11.991,0l-51.2,51.2c-3.324,3.33-3.318,8.73,0,12.066    c3.33,3.332,8.732,3.333,12.064,0.003c0.001-0.001,0.002-0.002,0.003-0.003l51.2-51.2    C154.411,109.347,154.378,103.945,151.025,100.633z"/>
	</g>
</g>
<g>
</g>
<g>
</g>
<g>
</g>
<g>
</g>
<g>
</g>
<g>
</g>
<g>
</g>
<g>
</g>
<g>
</g>
<g>
</g>
<g>
</g>
<g>
</g>
<g>
</g>
<g>
</g>
<g>
</g>
</svg>
