<?xml version="1.0" encoding="iso-8859-1"?>
<!-- Generator: Adobe Illustrator 19.0.0, SVG Export Plug-In . SVG Version: 6.00 Build 0)  -->
<svg xmlns="http://www.w3.org/2000/svg" xmlns:xlink="http://www.w3.org/1999/xlink" version="1.1" id="Layer_1" x="0px" y="0px" viewBox="0 0 512 512" style="enable-background:new 0 0 512 512;" xml:space="preserve">
<g>
	<g>
		<path d="M460.8,64H51.2c-9.422,0.009-17.057,7.645-17.067,17.067V320c0.009,9.422,7.645,17.057,17.067,17.067h409.6    c9.422-0.009,17.057-7.645,17.067-17.067V81.067C477.857,71.645,470.222,64.009,460.8,64z M460.8,320l-409.6,0.012V81.067h409.6    V320z"/>
	</g>
</g>
<g>
	<g>
		<path d="M486.4,29.867H25.6C11.468,29.882,0.015,41.335,0,55.467V345.6c0.015,14.132,11.468,25.585,25.6,25.6h170.667v34.133    h-15.7c-9.199,0.013-17.69,4.943-22.263,12.925l-14.588,25.591c-7.006,12.28-2.73,27.914,9.549,34.919    c3.871,2.209,8.252,3.368,12.709,3.364h180.05c14.137,0.013,25.609-11.436,25.622-25.574c0.004-4.454-1.154-8.832-3.359-12.701    l-14.596-25.612c-4.576-7.976-13.063-12.9-22.258-12.913h-15.7V371.2h45.925l12.35,24.7c2.875,5.797,8.796,9.456,15.267,9.433    h66.25c6.471,0.022,12.392-3.636,15.267-9.433l12.35-24.7h3.258c14.132-0.015,25.585-11.468,25.6-25.6V55.467    C511.985,41.335,500.532,29.882,486.4,29.867z M331.433,422.4c3.077-0.018,5.923,1.63,7.438,4.308l14.596,25.609    c2.328,4.099,0.892,9.308-3.206,11.636c-1.291,0.733-2.751,1.117-4.236,1.113h-180.05c-4.714,0.011-8.544-3.801-8.555-8.515    c-0.004-1.488,0.382-2.951,1.118-4.243l14.588-25.588c1.512-2.685,4.361-4.339,7.442-4.321h15.7v17.067    c0,4.713,3.82,8.533,8.533,8.533h102.4c4.713,0,8.533-3.82,8.533-8.533V422.4H331.433z M213.333,430.933V371.2h85.333v42.667    v17.067H213.333z M494.933,345.6c-0.006,4.71-3.823,8.527-8.533,8.533h-8.533c-3.232-0.001-6.188,1.825-7.633,4.717    l-14.708,29.417h-66.25l-14.708-29.417c-1.446-2.891-4.401-4.717-7.633-4.717H25.6c-4.71-0.006-8.527-3.823-8.533-8.533V55.467    c0.006-4.71,3.823-8.527,8.533-8.533h460.8c4.71,0.006,8.527,3.823,8.533,8.533V345.6z"/>
	</g>
</g>
<g>
	<g>
		<path d="M407.125,356.608c-0.43-0.341-0.855-0.683-1.28-1.025c-0.476-0.324-0.993-0.583-1.537-0.771    c-0.484-0.246-1.002-0.417-1.538-0.508c-4.577-1.038-9.13,1.832-10.167,6.409c-0.932,4.109,1.288,8.281,5.217,9.803    c1.027,0.438,2.13,0.67,3.246,0.683c4.732-0.019,8.553-3.87,8.534-8.602C409.592,360.354,408.703,358.204,407.125,356.608z"/>
	</g>
</g>
<g>
	<g>
		<path d="M443.733,354.133H435.2c-4.713,0-8.533,3.821-8.533,8.533c0,4.713,3.82,8.533,8.533,8.533h8.533    c4.713,0,8.533-3.821,8.533-8.533C452.267,357.954,448.446,354.133,443.733,354.133z"/>
	</g>
</g>
<g>
	<g>
		<path d="M213.333,209.067H153.6v-59.733c0-4.713-3.821-8.533-8.533-8.533c-42.415,0-76.8,34.385-76.8,76.8s34.385,76.8,76.8,76.8    c42.395-0.049,76.751-34.405,76.8-76.8C221.867,212.887,218.046,209.067,213.333,209.067z M136.533,276.72    c-32.653-4.714-55.301-35.006-50.587-67.658c3.784-26.212,24.375-46.803,50.587-50.587V217.6c0,4.713,3.82,8.533,8.533,8.533    h59.125C199.478,258.786,169.186,281.434,136.533,276.72z"/>
	</g>
</g>
<g>
	<g>
		<path d="M179.2,106.667c-4.713,0-8.533,3.82-8.533,8.533v68.267c0,4.713,3.82,8.533,8.533,8.533h68.267    c4.713,0,8.533-3.821,8.533-8.533C255.951,141.072,221.595,106.716,179.2,106.667z M187.733,174.933v-50.592    c26.193,3.827,46.765,24.399,50.592,50.592H187.733z"/>
	</g>
</g>
<g>
	<g>
		<path d="M426.667,140.8H409.6c-9.422,0.009-17.057,7.645-17.067,17.067v128c0.009,9.422,7.645,17.057,17.067,17.067h17.067    c9.422-0.009,17.057-7.645,17.067-17.067v-128C443.724,148.445,436.088,140.809,426.667,140.8z M426.667,285.867H409.6v-128    h17.067V285.867z"/>
	</g>
</g>
<g>
	<g>
		<path d="M358.4,217.6h-17.067c-9.422,0.009-17.057,7.645-17.067,17.067v51.2c0.009,9.422,7.645,17.057,17.067,17.067H358.4    c9.422-0.009,17.057-7.645,17.067-17.067v-51.2C375.457,225.245,367.822,217.609,358.4,217.6z M358.4,285.867h-17.067v-51.2H358.4    V285.867z"/>
	</g>
</g>
<g>
	<g>
		<path d="M290.133,234.667h-17.067c-9.422,0.009-17.057,7.645-17.067,17.067v34.133c0.009,9.422,7.645,17.057,17.067,17.067h17.067    c9.422-0.009,17.057-7.645,17.067-17.067v-34.133C307.191,242.312,299.555,234.676,290.133,234.667z M290.133,285.867h-17.067    v-34.133h17.067V285.867z"/>
	</g>
</g>
<g>
</g>
<g>
</g>
<g>
</g>
<g>
</g>
<g>
</g>
<g>
</g>
<g>
</g>
<g>
</g>
<g>
</g>
<g>
</g>
<g>
</g>
<g>
</g>
<g>
</g>
<g>
</g>
<g>
</g>
</svg>
