<?xml version="1.0" encoding="iso-8859-1"?>
<!-- Generator: Adobe Illustrator 19.0.0, SVG Export Plug-In . SVG Version: 6.00 Build 0)  -->
<svg xmlns="http://www.w3.org/2000/svg" xmlns:xlink="http://www.w3.org/1999/xlink" version="1.1" id="Layer_1" x="0px" y="0px" viewBox="0 0 512 512" style="enable-background:new 0 0 512 512;" xml:space="preserve">
<g>
	<g>
		<path d="M486.4,29.867H25.6C11.468,29.882,0.015,41.335,0,55.467V345.6c0.015,14.132,11.468,25.585,25.6,25.6h170.667v34.133    h-15.7c-9.199,0.013-17.69,4.943-22.263,12.925l-14.588,25.591c-7.006,12.28-2.73,27.914,9.549,34.919    c3.871,2.209,8.252,3.368,12.709,3.364h180.05c14.137,0.013,25.609-11.436,25.622-25.574c0.004-4.454-1.154-8.832-3.359-12.701    l-14.596-25.612c-4.576-7.976-13.063-12.9-22.258-12.913h-15.7V371.2h45.925l12.35,24.7c2.875,5.797,8.796,9.456,15.267,9.433    h66.25c6.471,0.022,12.392-3.636,15.267-9.433l12.35-24.7h3.258c14.132-0.015,25.585-11.468,25.6-25.6V55.467    C511.985,41.335,500.532,29.882,486.4,29.867z M331.433,422.4c3.077-0.018,5.923,1.63,7.438,4.308l14.596,25.609    c2.328,4.099,0.892,9.308-3.206,11.636c-1.291,0.733-2.751,1.117-4.236,1.113h-180.05c-4.714,0.011-8.544-3.801-8.555-8.515    c-0.004-1.488,0.382-2.951,1.118-4.243l14.588-25.588c1.512-2.685,4.361-4.339,7.442-4.321h15.7v17.067    c0,4.713,3.82,8.533,8.533,8.533h102.4c4.713,0,8.533-3.82,8.533-8.533V422.4H331.433z M213.333,430.933V371.2h85.333v42.667    v17.067H213.333z M494.933,345.6c-0.006,4.71-3.823,8.527-8.533,8.533h-8.533c-3.232-0.001-6.188,1.825-7.633,4.717    l-14.708,29.417h-66.25l-14.708-29.417c-1.446-2.891-4.401-4.717-7.633-4.717H25.6c-4.71-0.006-8.527-3.823-8.533-8.533V55.467    c0.006-4.71,3.823-8.527,8.533-8.533h460.8c4.71,0.006,8.527,3.823,8.533,8.533V345.6z"/>
	</g>
</g>
<g>
	<g>
		<path d="M407.125,356.608c-0.429-0.342-0.854-0.683-1.279-1.025c-0.476-0.324-0.993-0.583-1.537-0.771    c-0.484-0.246-1.002-0.417-1.538-0.508c-4.565-0.877-8.977,2.113-9.854,6.679c-0.877,4.565,2.113,8.977,6.679,9.854    c4.565,0.877,8.977-2.113,9.854-6.679C409.977,361.412,409.106,358.582,407.125,356.608z"/>
	</g>
</g>
<g>
	<g>
		<path d="M443.733,354.133H435.2c-4.713,0-8.533,3.821-8.533,8.533c0,4.713,3.82,8.533,8.533,8.533h8.533    c4.713,0,8.533-3.821,8.533-8.533C452.267,357.954,448.446,354.133,443.733,354.133z"/>
	</g>
</g>
<g>
	<g>
		<path d="M470.589,67.126c-0.155-0.186-0.215-0.417-0.389-0.593c-1.895-1.867-4.564-2.725-7.193-2.31    c-0.73-0.123-1.467-0.197-2.207-0.223H51.2c-9.422,0.009-17.057,7.645-17.067,17.067V320c0.009,9.422,7.645,17.057,17.067,17.067    h409.6c9.422-0.009,17.057-7.645,17.067-17.067V118.063V81.067C477.859,75.511,475.143,70.308,470.589,67.126z M51.2,81.067    h33.769L51.2,114.47V81.067z M51.2,138.473l58.035-57.407h26.917L51.2,165.003V138.473z M51.2,188.993L160.433,81.067h26.921    L51.2,215.606V188.993z M51.2,239.597l160.433-158.53h26.917L51.2,266.201V239.597z M51.2,290.201L262.837,81.067h26.918    L51.2,316.869V290.201z M72.304,320.012L314.038,81.067h26.917L99.222,320.011L72.304,320.012z M123.506,320.01L365.238,81.067    h26.917L150.423,320.009L123.506,320.01z M174.707,320.009L416.438,81.067h26.917l-241.73,238.941L174.707,320.009z M460.8,320    l-30.086,0.001l30.086-29.742V320z M460.8,266.258l-54.365,53.743l-26.921,0.001l81.286-80.346V266.258z M460.8,215.654    L355.23,320.003l-26.917,0.001L460.8,189.053V215.654z M460.8,165.05L304.028,320.005l-26.916,0.001L460.8,138.452V165.05z     M460.8,114.449L252.827,320.006l-26.918,0.001L460.8,87.826V114.449z"/>
	</g>
</g>
<g>
</g>
<g>
</g>
<g>
</g>
<g>
</g>
<g>
</g>
<g>
</g>
<g>
</g>
<g>
</g>
<g>
</g>
<g>
</g>
<g>
</g>
<g>
</g>
<g>
</g>
<g>
</g>
<g>
</g>
</svg>
