<?xml version="1.0" encoding="iso-8859-1"?>
<!-- Generator: Adobe Illustrator 19.0.0, SVG Export Plug-In . SVG Version: 6.00 Build 0)  -->
<svg xmlns="http://www.w3.org/2000/svg" xmlns:xlink="http://www.w3.org/1999/xlink" version="1.1" id="Layer_1" x="0px" y="0px" viewBox="0 0 512 512" style="enable-background:new 0 0 512 512;" xml:space="preserve">
<g>
	<g>
		<path d="M469.338,64c-0.001,0-0.003,0-0.004,0H42.667c-4.712-0.001-8.532,3.817-8.533,8.529c0,0.001,0,0.003,0,0.004v256    c-0.001,4.712,3.817,8.532,8.529,8.533c0.001,0,0.003,0,0.004,0h426.667c4.712,0.001,8.532-3.817,8.533-8.529    c0-0.001,0-0.003,0-0.004v-256C477.868,67.822,474.049,64.001,469.338,64z M460.8,320H51.2V81.067h409.6V320z"/>
	</g>
</g>
<g>
	<g>
		<path d="M486.4,29.867H25.6C11.468,29.882,0.015,41.335,0,55.467V345.6c0.015,14.132,11.468,25.585,25.6,25.6h170.667v34.133    h-15.7c-9.2,0.013-17.692,4.943-22.267,12.925l-14.583,25.591c-7.006,12.28-2.73,27.914,9.549,34.919    c3.871,2.209,8.252,3.368,12.709,3.364h180.05c14.139,0.012,25.611-11.44,25.624-25.579c0.004-4.452-1.153-8.828-3.357-12.696    l-14.6-25.612c-4.575-7.976-13.063-12.901-22.258-12.913h-15.7V371.2h45.925l12.35,24.692c2.868,5.805,8.792,9.468,15.267,9.442    h66.25c6.472,0.027,12.395-3.633,15.267-9.433l12.35-24.7h3.258c14.132-0.015,25.585-11.468,25.6-25.6V55.467    C511.985,41.335,500.532,29.882,486.4,29.867z M331.433,422.4c3.076-0.019,5.921,1.63,7.433,4.308l14.6,25.609    c2.33,4.095,0.899,9.304-3.196,11.634c-1.294,0.736-2.757,1.121-4.246,1.116h-180.05c-4.71,0.016-8.541-3.79-8.556-8.5    c-0.005-1.493,0.382-2.962,1.123-4.259l14.583-25.588c1.512-2.685,4.36-4.339,7.442-4.321h15.7v17.067    c-0.001,4.712,3.817,8.532,8.529,8.533c0.001,0,0.003,0,0.004,0h102.4c4.712,0.001,8.532-3.817,8.533-8.529    c0-0.001,0-0.003,0-0.004V422.4H331.433z M213.333,430.933V371.2h85.333v42.667v17.067H213.333z M494.933,345.6    c-0.005,4.711-3.822,8.529-8.533,8.533h-8.533c-3.232,0-6.187,1.826-7.633,4.717l-14.708,29.417h-66.25l-14.708-29.417    c-1.446-2.891-4.401-4.716-7.633-4.717H25.6c-4.711-0.005-8.529-3.822-8.533-8.533V55.467c0.005-4.711,3.822-8.529,8.533-8.533    h460.8c4.711,0.005,8.529,3.822,8.533,8.533V345.6z"/>
	</g>
</g>
<g>
	<g>
		<path d="M409.425,360.958c-0.09-0.536-0.261-1.054-0.508-1.537c-0.189-0.542-0.446-1.057-0.767-1.533    c-0.341-0.429-0.683-0.854-1.025-1.279c-0.425-0.341-0.858-0.683-1.283-1.025c-0.474-0.324-0.99-0.583-1.533-0.771    c-0.51-0.258-1.059-0.43-1.625-0.508c-1.07-0.215-2.172-0.215-3.242,0c-0.563,0.079-1.11,0.25-1.617,0.508    c-0.546,0.187-1.064,0.447-1.542,0.771l-1.275,1.025c-1.574,1.625-2.461,3.796-2.475,6.059c0.014,1.115,0.246,2.216,0.683,3.242    c0.413,1.044,1.021,2,1.792,2.817c0.403,0.367,0.829,0.708,1.275,1.021c0.477,0.324,0.996,0.583,1.542,0.771    c0.508,0.257,1.054,0.431,1.617,0.513c0.536,0.098,1.08,0.155,1.625,0.171c0.542-0.016,1.083-0.073,1.617-0.171    c0.566-0.082,1.115-0.255,1.625-0.512c0.543-0.188,1.059-0.447,1.533-0.771c0.449-0.313,0.878-0.654,1.284-1.021    c0.753-0.83,1.359-1.783,1.792-2.817c0.437-1.026,0.669-2.127,0.683-3.242C409.587,362.093,409.529,361.522,409.425,360.958z"/>
	</g>
</g>
<g>
	<g>
		<path d="M443.733,354.133H435.2c-4.713,0-8.533,3.821-8.533,8.533c0,4.713,3.82,8.533,8.533,8.533h8.533    c4.713,0,8.533-3.821,8.533-8.533C452.267,357.954,448.446,354.133,443.733,354.133z"/>
	</g>
</g>
<g>
	<g>
		<path d="M99.79,100.634c-3.319-3.26-8.638-3.26-11.957,0L70.767,117.7c-3.332,3.333-3.331,8.736,0.002,12.068    c1.6,1.599,3.769,2.498,6.031,2.498c2.264,0.003,4.435-0.897,6.033-2.5L99.9,112.7C103.202,109.338,103.153,103.935,99.79,100.634    z"/>
	</g>
</g>
<g>
	<g>
		<path d="M151.025,100.633c-3.323-3.282-8.668-3.282-11.991,0l-51.2,51.2c-3.324,3.33-3.318,8.73,0,12.066    c3.33,3.332,8.732,3.333,12.064,0.003c0.001-0.001,0.002-0.002,0.003-0.003l51.2-51.2    C154.411,109.347,154.378,103.945,151.025,100.633z"/>
	</g>
</g>
<g>
</g>
<g>
</g>
<g>
</g>
<g>
</g>
<g>
</g>
<g>
</g>
<g>
</g>
<g>
</g>
<g>
</g>
<g>
</g>
<g>
</g>
<g>
</g>
<g>
</g>
<g>
</g>
<g>
</g>
</svg>
