<?xml version="1.0" encoding="iso-8859-1"?>
<!-- Generator: Adobe Illustrator 19.0.0, SVG Export Plug-In . SVG Version: 6.00 Build 0)  -->
<svg xmlns="http://www.w3.org/2000/svg" xmlns:xlink="http://www.w3.org/1999/xlink" version="1.1" id="Layer_1" x="0px" y="0px" viewBox="0 0 512 512" style="enable-background:new 0 0 512 512;" xml:space="preserve">
<g>
	<g>
		<path d="M418.133,34.133H93.867C84.445,34.144,76.811,41.779,76.8,51.2v187.733c0.011,9.421,7.646,17.056,17.067,17.067h324.267    c9.421-0.011,17.056-7.645,17.067-17.067V51.2C435.189,41.779,427.555,34.144,418.133,34.133z M418.133,238.933l-324.267,0.012    V51.2h324.267V238.933z"/>
	</g>
</g>
<g>
	<g>
		<path d="M511.829,434.44c-0.042-2.642-0.499-5.261-1.354-7.76l-51.11-142.02c6.261-4.802,9.943-12.235,9.969-20.126V25.6    c-0.015-14.132-11.468-25.585-25.6-25.6H68.267c-14.132,0.015-25.585,11.468-25.6,25.6v238.933    c0.026,7.891,3.708,15.324,9.969,20.126L1.533,426.667c-0.857,2.499-1.316,5.118-1.36,7.76C0.1,434.709,0.042,434.995,0,435.283    v42.583C0.02,496.71,15.29,511.98,34.133,512h443.733c18.843-0.02,34.113-15.29,34.133-34.133v-42.583    C511.959,434.999,511.902,434.717,511.829,434.44z M59.733,25.6c0.005-4.711,3.822-8.529,8.533-8.533h375.467    c4.711,0.005,8.529,3.822,8.533,8.533v238.933c-0.005,4.711-3.822,8.529-8.533,8.533H68.267c-4.711-0.005-8.529-3.822-8.533-8.533    V25.6z M68.808,290.133h374.383l21.498,59.733H302.658H47.313L68.808,290.133z M315.366,409.6l-119.108,0.092l13.084-42.758    h93.317L315.366,409.6z M17.592,432.454l23.579-65.521h150.021l-11.283,37.883c-1.54,5.088-0.555,10.605,2.65,14.846    c3.33,4.417,8.544,7.011,14.075,7.004h118.733c5.532,0.007,10.745-2.587,14.075-7.004c3.205-4.241,4.19-9.758,2.65-14.846    l-11.281-37.883h150.021l23.585,65.533c0.927,2.5,0.549,5.298-1.008,7.462c-1.725,2.43-4.537,3.853-7.517,3.804H315.733    c-4.712-0.001-8.532,3.817-8.533,8.529c0,0.001,0,0.003,0,0.004v8.533H204.8v-8.533c0.001-4.712-3.817-8.532-8.529-8.533    c-0.001,0-0.003,0-0.004,0H26.108c-2.979,0.049-5.791-1.375-7.517-3.804C17.032,437.76,16.657,434.957,17.592,432.454z     M494.933,477.867c-0.011,9.421-7.645,17.056-17.067,17.067H34.133c-9.421-0.011-17.056-7.645-17.067-17.067V459.02    c2.886,1.121,5.946,1.724,9.042,1.78h161.625c0.011,9.421,7.646,17.056,17.067,17.067h102.4    c9.421-0.011,17.056-7.646,17.067-17.067h161.625c3.095-0.056,6.156-0.659,9.042-1.78V477.867z"/>
	</g>
</g>
<g>
	<g>
		<path d="M328.591,179.337l-60.075-98.791c-6.574-11.626-21.328-15.721-32.953-9.147c-3.823,2.162-6.985,5.324-9.147,9.147    l-60.075,98.792c-5.457,9.017-5.636,20.273-0.467,29.458c4.241,7.965,12.493,12.978,21.517,13.07h120.149    c9.023-0.092,17.276-5.106,21.517-13.071C334.227,199.611,334.049,188.354,328.591,179.337z M314.175,200.434    c-1.246,2.559-3.79,4.234-6.634,4.366H187.392c-2.843-0.133-5.387-1.807-6.633-4.367c-2.116-3.818-2.052-8.47,0.167-12.229    L241,89.412c1.897-3.571,6.33-4.929,9.901-3.032c1.291,0.685,2.346,1.741,3.032,3.032l60.075,98.792    C316.227,191.963,316.291,196.615,314.175,200.434L314.175,200.434z"/>
	</g>
</g>
<g>
	<g>
		<path d="M247.471,110.933c-0.001,0-0.003,0-0.004,0c-4.712-0.001-8.532,3.817-8.533,8.529c0,0.001,0,0.003,0,0.004V153.6    c0,4.713,3.82,8.533,8.533,8.533S256,158.313,256,153.6v-34.133C256.001,114.755,252.183,110.935,247.471,110.933z"/>
	</g>
</g>
<g>
	<g>
		<path d="M255.317,175.955c-0.412-1.044-1.02-1.999-1.792-2.813c-3.223-3.346-8.549-3.445-11.895-0.222    c-0.885,0.852-1.572,1.888-2.014,3.034c-0.911,2.067-0.911,4.421,0,6.487c0.433,1.034,1.039,1.987,1.792,2.817    c0.817,0.771,1.773,1.379,2.817,1.792c1.025,0.437,2.126,0.67,3.241,0.683c2.259-0.035,4.421-0.918,6.059-2.475    c0.753-0.83,1.359-1.783,1.792-2.817C256.228,180.375,256.228,178.021,255.317,175.955z"/>
	</g>
</g>
<g>
	<g>
		<path d="M142.569,70.769c-0.001-0.001-0.002-0.002-0.003-0.003c-3.33-3.332-8.732-3.333-12.064-0.003    c-0.001,0.001-0.002,0.002-0.003,0.003l-17.067,17.067c-3.353,3.311-3.388,8.713-0.077,12.066    c3.311,3.353,8.713,3.388,12.066,0.077c0.026-0.026,0.052-0.051,0.077-0.077l17.067-17.067    C145.898,79.503,145.9,74.101,142.569,70.769z"/>
	</g>
</g>
<g>
	<g>
		<path d="M193.769,70.769c-0.001-0.001-0.002-0.002-0.003-0.003c-3.33-3.332-8.732-3.333-12.064-0.003    c-0.001,0.001-0.002,0.002-0.003,0.003l-51.2,51.2c-3.353,3.311-3.387,8.714-0.076,12.066s8.714,3.387,12.066,0.076    c0.025-0.025,0.051-0.05,0.076-0.076l51.2-51.2C197.098,79.503,197.1,74.101,193.769,70.769z"/>
	</g>
</g>
<g>
</g>
<g>
</g>
<g>
</g>
<g>
</g>
<g>
</g>
<g>
</g>
<g>
</g>
<g>
</g>
<g>
</g>
<g>
</g>
<g>
</g>
<g>
</g>
<g>
</g>
<g>
</g>
<g>
</g>
</svg>
