<?xml version="1.0" encoding="iso-8859-1"?>
<!-- Generator: Adobe Illustrator 19.0.0, SVG Export Plug-In . SVG Version: 6.00 Build 0)  -->
<svg xmlns="http://www.w3.org/2000/svg" xmlns:xlink="http://www.w3.org/1999/xlink" version="1.1" id="Layer_1" x="0px" y="0px" viewBox="0 0 512 512" style="enable-background:new 0 0 512 512;" xml:space="preserve">
<g>
	<g>
		<path d="M418.133,34.133H93.867C84.445,34.144,76.811,41.779,76.8,51.2v187.733c0.011,9.421,7.646,17.056,17.067,17.067h324.267    c9.421-0.011,17.056-7.645,17.067-17.067V51.2C435.189,41.779,427.555,34.144,418.133,34.133z M418.133,238.933l-324.267,0.012    V51.2h324.267V238.933z"/>
	</g>
</g>
<g>
	<g>
		<path d="M511.829,434.44c-0.042-2.642-0.499-5.261-1.354-7.76l-51.11-142.02c6.261-4.803,9.942-12.236,9.968-20.126V25.6    c-0.015-14.132-11.468-25.585-25.6-25.6H68.267c-14.132,0.015-25.585,11.468-25.6,25.6v238.933    c0.026,7.891,3.708,15.323,9.968,20.126L1.533,426.667c-0.857,2.499-1.316,5.118-1.36,7.76C0.1,434.709,0.042,434.995,0,435.283    v42.583C0.02,496.71,15.29,511.98,34.133,512h443.733c18.843-0.02,34.113-15.29,34.133-34.133v-42.583    C511.958,434.999,511.902,434.718,511.829,434.44z M59.733,25.6c0.005-4.711,3.822-8.529,8.533-8.533h375.467    c4.711,0.005,8.529,3.822,8.533,8.533v238.933c-0.005,4.711-3.822,8.529-8.533,8.533H68.267c-4.711-0.005-8.529-3.822-8.533-8.533    V25.6z M68.808,290.133h374.383l21.498,59.733H302.658H47.312L68.808,290.133z M315.366,409.6l-119.108,0.092l13.084-42.758    h93.317L315.366,409.6z M17.592,432.454l23.579-65.521h150.022l-11.284,37.883c-1.54,5.088-0.555,10.605,2.65,14.846    c3.33,4.417,8.544,7.011,14.075,7.004h118.733c5.532,0.007,10.745-2.587,14.075-7.004c3.205-4.241,4.19-9.758,2.65-14.846    l-11.281-37.883h150.021l23.585,65.533c0.927,2.5,0.549,5.298-1.008,7.462c-1.725,2.43-4.537,3.853-7.517,3.804H315.733    c-4.712-0.001-8.532,3.817-8.533,8.529c0,0.001,0,0.003,0,0.004v8.533H204.8v-8.533c0.001-4.712-3.817-8.532-8.529-8.533    c-0.001,0-0.003,0-0.004,0H26.108c-2.979,0.049-5.791-1.375-7.517-3.804C17.032,437.76,16.657,434.957,17.592,432.454z     M494.933,477.867c-0.011,9.421-7.645,17.056-17.067,17.067H34.133c-9.421-0.011-17.056-7.645-17.067-17.067V459.02    c2.885,1.121,5.946,1.724,9.042,1.78h161.625c0.011,9.421,7.646,17.056,17.067,17.067h102.4    c9.421-0.011,17.056-7.646,17.067-17.067h161.625c3.095-0.056,6.156-0.659,9.042-1.78V477.867z"/>
	</g>
</g>
<g>
	<g>
		<path d="M371.2,68.267c-16.487,0.02-29.847,13.38-29.867,29.867c0.024,6.516,2.199,12.841,6.188,17.994l-32.464,48.663    c-3.809-1.731-7.94-2.636-12.124-2.657c-7.493,0.052-14.695,2.905-20.192,7.997l-38.577-33.033    c2.14-4.132,3.271-8.711,3.302-13.364c0-16.495-13.372-29.867-29.867-29.867c-16.495,0-29.867,13.372-29.867,29.867    c0.029,4.597,1.133,9.124,3.223,13.218l-35.198,29.351c-4.525-2.7-9.689-4.139-14.958-4.169    c-16.495,0-29.867,13.372-29.867,29.867c0,16.495,13.372,29.867,29.867,29.867c16.495,0,29.867-13.372,29.867-29.867    c-0.029-4.597-1.133-9.124-3.223-13.218l35.198-29.351c9.146,5.53,20.598,5.56,29.773,0.078l41.483,35.521    c-3.947,16.026,5.846,32.217,21.872,36.164s32.217-5.846,36.164-21.872c1.961-7.961,0.564-16.378-3.862-23.28l33.257-49.851    c3.163,1.162,6.502,1.774,9.872,1.809c16.495,0,29.867-13.372,29.867-29.867C401.067,81.638,387.695,68.267,371.2,68.267z     M140.8,204.8c-7.069,0-12.8-5.731-12.8-12.8c0-7.069,5.731-12.8,12.8-12.8c7.069,0,12.8,5.731,12.8,12.8    C153.592,199.066,147.866,204.792,140.8,204.8z M217.6,136.533c-7.066-0.008-12.792-5.734-12.8-12.8c0-7.069,5.731-12.8,12.8-12.8    c7.069,0,12.8,5.731,12.8,12.8S224.669,136.533,217.6,136.533z M302.933,204.8c-7.069,0.017-12.814-5.7-12.831-12.769    c-0.017-7.069,5.7-12.814,12.769-12.831c3.311-0.008,6.497,1.267,8.887,3.558c2.576,2.377,4.021,5.737,3.975,9.242    C315.726,199.066,309.999,204.792,302.933,204.8z M371.2,110.933c-7.069,0-12.8-5.731-12.8-12.8c0-7.069,5.731-12.8,12.8-12.8    c7.069,0,12.8,5.731,12.8,12.8C383.992,105.199,378.266,110.926,371.2,110.933z"/>
	</g>
</g>
<g>
</g>
<g>
</g>
<g>
</g>
<g>
</g>
<g>
</g>
<g>
</g>
<g>
</g>
<g>
</g>
<g>
</g>
<g>
</g>
<g>
</g>
<g>
</g>
<g>
</g>
<g>
</g>
<g>
</g>
</svg>
