<?xml version="1.0" encoding="iso-8859-1"?>
<!-- Generator: Adobe Illustrator 19.0.0, SVG Export Plug-In . SVG Version: 6.00 Build 0)  -->
<svg xmlns="http://www.w3.org/2000/svg" xmlns:xlink="http://www.w3.org/1999/xlink" version="1.1" id="Layer_1" x="0px" y="0px" viewBox="0 0 512 512" style="enable-background:new 0 0 512 512;" xml:space="preserve">
<g>
	<g>
		<path d="M418.133,34.133H93.867C84.445,34.144,76.811,41.779,76.8,51.2v187.733c0.011,9.421,7.646,17.056,17.067,17.067h324.267    c9.421-0.011,17.056-7.645,17.067-17.067V51.2C435.189,41.779,427.555,34.144,418.133,34.133z M418.133,238.933l-324.267,0.012    V51.2h324.267V238.933z"/>
	</g>
</g>
<g>
	<g>
		<path d="M511.829,434.44c-0.042-2.642-0.499-5.261-1.354-7.76l-51.11-142.02c6.261-4.803,9.942-12.236,9.968-20.126V25.6    c-0.015-14.132-11.468-25.585-25.6-25.6H68.267c-14.132,0.015-25.585,11.468-25.6,25.6v238.933    c0.026,7.891,3.708,15.323,9.968,20.126L1.533,426.667c-0.857,2.499-1.316,5.118-1.36,7.76C0.1,434.709,0.042,434.995,0,435.283    v42.583C0.02,496.71,15.29,511.98,34.133,512h443.733c18.843-0.02,34.113-15.29,34.133-34.133v-42.583    C511.958,434.999,511.902,434.718,511.829,434.44z M59.733,25.6c0.005-4.711,3.822-8.529,8.533-8.533h375.467    c4.711,0.005,8.529,3.822,8.533,8.533v238.933c-0.005,4.711-3.822,8.529-8.533,8.533H68.267c-4.711-0.005-8.529-3.822-8.533-8.533    V25.6z M68.808,290.133h374.383l21.498,59.733H302.658H47.312L68.808,290.133z M315.366,409.6l-119.108,0.092l13.084-42.758    h93.317L315.366,409.6z M17.592,432.454l23.579-65.521h150.022l-11.284,37.883c-1.54,5.088-0.555,10.605,2.65,14.846    c3.33,4.417,8.544,7.011,14.075,7.004h118.733c5.532,0.007,10.745-2.587,14.075-7.004c3.205-4.241,4.19-9.758,2.65-14.846    l-11.281-37.883h150.021l23.585,65.533c0.927,2.5,0.549,5.298-1.008,7.462c-1.725,2.43-4.537,3.853-7.517,3.804H315.733    c-4.712-0.001-8.532,3.817-8.533,8.529c0,0.001,0,0.003,0,0.004v8.533H204.8v-8.533c0.001-4.712-3.817-8.532-8.529-8.533    c-0.001,0-0.003,0-0.004,0H26.108c-2.979,0.049-5.791-1.375-7.517-3.804C17.032,437.76,16.657,434.957,17.592,432.454z     M494.933,477.867c-0.011,9.421-7.645,17.056-17.067,17.067H34.133c-9.421-0.011-17.056-7.645-17.067-17.067V459.02    c2.885,1.121,5.946,1.724,9.042,1.78h161.625c0.011,9.421,7.646,17.056,17.067,17.067h102.4    c9.421-0.011,17.056-7.646,17.067-17.067h161.625c3.095-0.056,6.156-0.659,9.042-1.78V477.867z"/>
	</g>
</g>
<g>
	<g>
		<path d="M349.867,128.004c0-0.001,0-0.003,0-0.004c0.001-4.712-3.817-8.532-8.529-8.533c-0.001,0-0.003,0-0.004,0h-29.085    c-1.534-5.631-3.63-11.094-6.256-16.306c10.161-0.027,20.031-3.392,28.092-9.578c4.703-4.302,7.342-10.41,7.25-16.783    c0-4.713-3.821-8.533-8.533-8.533c-4.713,0-8.533,3.82-8.533,8.533c0.099,1.619-0.557,3.192-1.775,4.263    c-8.584,4.762-18.498,6.563-28.209,5.127c-17.632-21.143-49.065-23.989-70.208-6.357c-2.306,1.923-4.433,4.05-6.357,6.356    c-9.711,1.447-19.628-0.355-28.21-5.126c-1.218-1.07-1.874-2.644-1.775-4.263c0-4.713-3.82-8.533-8.533-8.533    s-8.533,3.82-8.533,8.533c-0.092,6.373,2.547,12.482,7.25,16.783c8.061,6.185,17.931,9.551,28.092,9.578    c-2.626,5.212-4.722,10.675-6.257,16.306h-29.085c-4.713,0-8.533,3.82-8.533,8.533s3.82,8.533,8.533,8.533h25.991    c-0.243,2.806-0.391,5.646-0.391,8.533s0.148,5.728,0.391,8.533h-25.991c-4.713,0-8.533,3.82-8.533,8.533s3.82,8.533,8.533,8.533    h29.085c1.532,5.625,3.625,11.081,6.248,16.287c-10.159,0.037-20.026,3.408-28.083,9.596c-4.703,4.302-7.342,10.41-7.25,16.783    c0,4.713,3.82,8.533,8.533,8.533s8.533-3.821,8.533-8.533c-0.099-1.619,0.557-3.192,1.775-4.263    c8.582-4.768,18.497-6.571,28.207-5.129c17.63,21.144,49.063,23.992,70.207,6.362c2.308-1.925,4.438-4.054,6.362-6.362    c9.711-1.457,19.631,0.346,28.207,5.129c1.218,1.07,1.873,2.644,1.775,4.262c0,4.713,3.821,8.533,8.533,8.533    c4.713,0,8.533-3.821,8.533-8.533c0.092-6.373-2.547-12.482-7.25-16.783c-8.058-6.187-17.924-9.558-28.083-9.596    c2.622-5.206,4.716-10.663,6.248-16.287h29.085c4.713,0,8.533-3.82,8.533-8.533s-3.82-8.533-8.533-8.533h-25.991    c0.243-2.806,0.391-5.646,0.391-8.533s-0.148-5.728-0.391-8.533h25.991C346.045,136.535,349.865,132.716,349.867,128.004z     M247.467,203.596c-19.451-5.551-34.133-29.682-34.133-58.529c0.016-2.851,0.178-5.699,0.487-8.533h33.646V203.596z     M217.509,119.467c6.866-20.145,21.515-34.133,38.491-34.133c16.976,0,31.626,13.988,38.491,34.133H217.509z M264.533,203.596    v-67.063h33.646c0.309,2.834,0.471,5.682,0.487,8.533C298.667,173.914,283.984,198.045,264.533,203.596z"/>
	</g>
</g>
<g>
</g>
<g>
</g>
<g>
</g>
<g>
</g>
<g>
</g>
<g>
</g>
<g>
</g>
<g>
</g>
<g>
</g>
<g>
</g>
<g>
</g>
<g>
</g>
<g>
</g>
<g>
</g>
<g>
</g>
</svg>
