<?xml version="1.0" encoding="iso-8859-1"?>
<!-- Generator: Adobe Illustrator 19.0.0, SVG Export Plug-In . SVG Version: 6.00 Build 0)  -->
<svg xmlns="http://www.w3.org/2000/svg" xmlns:xlink="http://www.w3.org/1999/xlink" version="1.1" id="Layer_1" x="0px" y="0px" viewBox="0 0 512 512" style="enable-background:new 0 0 512 512;" xml:space="preserve">
<g>
	<g>
		<path d="M418.133,34.133H93.867C84.445,34.144,76.811,41.779,76.8,51.2v187.733c0.011,9.421,7.646,17.056,17.067,17.067h324.267    c9.421-0.011,17.056-7.645,17.067-17.067V51.2C435.189,41.779,427.555,34.144,418.133,34.133z M418.133,238.933l-324.267,0.012    V51.2h324.267V238.933z"/>
	</g>
</g>
<g>
	<g>
		<path d="M511.829,434.44c-0.042-2.642-0.499-5.261-1.354-7.76l-51.11-142.02c6.261-4.803,9.942-12.236,9.968-20.126V25.6    c-0.015-14.132-11.468-25.585-25.6-25.6H68.267c-14.132,0.015-25.585,11.468-25.6,25.6v238.933    c0.026,7.891,3.708,15.323,9.968,20.126L1.533,426.667c-0.857,2.499-1.316,5.118-1.36,7.76C0.1,434.709,0.042,434.995,0,435.283    v42.583C0.02,496.71,15.29,511.98,34.133,512h443.733c18.843-0.02,34.113-15.29,34.133-34.133v-42.583    C511.958,434.999,511.902,434.718,511.829,434.44z M59.733,25.6c0.005-4.711,3.822-8.529,8.533-8.533h375.467    c4.711,0.005,8.529,3.822,8.533,8.533v238.933c-0.005,4.711-3.822,8.529-8.533,8.533H68.267c-4.711-0.005-8.529-3.822-8.533-8.533    V25.6z M68.808,290.133h374.383l21.498,59.733H302.658H47.312L68.808,290.133z M315.366,409.6l-119.108,0.092l13.084-42.758    h93.317L315.366,409.6z M17.592,432.454l23.579-65.521h150.022l-11.284,37.883c-1.54,5.088-0.555,10.605,2.65,14.846    c3.33,4.417,8.544,7.011,14.075,7.004h118.733c5.532,0.007,10.745-2.587,14.075-7.004c3.205-4.241,4.19-9.758,2.65-14.846    l-11.281-37.883h150.021l23.585,65.533c0.927,2.5,0.549,5.298-1.008,7.462c-1.725,2.43-4.537,3.853-7.517,3.804H315.733    c-4.712-0.001-8.532,3.817-8.533,8.529c0,0.001,0,0.003,0,0.004v8.533H204.8v-8.533c0.001-4.712-3.817-8.532-8.529-8.533    c-0.001,0-0.003,0-0.004,0H26.108c-2.979,0.049-5.791-1.375-7.517-3.804C17.032,437.76,16.657,434.957,17.592,432.454z     M494.933,477.867c-0.011,9.421-7.645,17.056-17.067,17.067H34.133c-9.421-0.011-17.056-7.645-17.067-17.067V459.02    c2.885,1.121,5.946,1.724,9.042,1.78h161.625c0.011,9.421,7.646,17.056,17.067,17.067h102.4    c9.421-0.011,17.056-7.646,17.067-17.067h161.625c3.095-0.056,6.156-0.659,9.042-1.78V477.867z"/>
	</g>
</g>
<g>
	<g>
		<path d="M315.733,160.375v-49.671c-0.004-4.849-2.049-9.472-5.633-12.738c-3.458-3.143-8.081-4.683-12.733-4.242    c-14.183,1.235-27.578-6.701-33.308-19.733c-1.551-4.451-6.417-6.801-10.867-5.249c-2.459,0.857-4.392,2.79-5.249,5.249    c-5.752,13.01-19.126,20.936-33.3,19.733c-4.655-0.446-9.282,1.094-12.742,4.242c-3.585,3.265-5.629,7.889-5.633,12.737v51.429    c0.015,33,26.779,59.74,59.779,59.725c0.026,0,0.053,0,0.079,0c32.904,0.033,59.605-26.614,59.639-59.518    C315.764,161.685,315.754,161.03,315.733,160.375z M298.667,160.375c0.45,21.898-15.392,40.743-37.042,44.062v0.004    c-23.385,3.083-44.842-13.374-47.925-36.759c-0.243-1.84-0.365-3.693-0.366-5.549l-0.35-51.425c1.508,0.15,3.05,0.225,4.617,0.225    c14.718-0.093,28.694-6.477,38.4-17.542c9.706,11.064,23.682,17.449,38.4,17.542c1.426,0.012,2.851-0.065,4.267-0.229V160.375z"/>
	</g>
</g>
<g>
	<g>
		<path d="M142.569,70.769c-0.001-0.001-0.002-0.002-0.003-0.003c-3.33-3.332-8.732-3.333-12.064-0.003    c-0.001,0.001-0.002,0.002-0.003,0.003l-17.067,17.067c-3.353,3.311-3.388,8.713-0.077,12.066    c3.311,3.353,8.713,3.388,12.066,0.077c0.026-0.026,0.052-0.051,0.077-0.077l17.067-17.067    C145.898,79.503,145.9,74.101,142.569,70.769z"/>
	</g>
</g>
<g>
	<g>
		<path d="M193.769,70.769c-0.001-0.001-0.002-0.002-0.003-0.003c-3.33-3.332-8.732-3.333-12.064-0.003    c-0.001,0.001-0.002,0.002-0.003,0.003l-51.2,51.2c-3.353,3.311-3.387,8.714-0.076,12.066s8.714,3.387,12.066,0.076    c0.025-0.025,0.051-0.05,0.076-0.076l51.2-51.2C197.098,79.503,197.1,74.101,193.769,70.769z"/>
	</g>
</g>
<g>
</g>
<g>
</g>
<g>
</g>
<g>
</g>
<g>
</g>
<g>
</g>
<g>
</g>
<g>
</g>
<g>
</g>
<g>
</g>
<g>
</g>
<g>
</g>
<g>
</g>
<g>
</g>
<g>
</g>
</svg>
