<?xml version="1.0" encoding="iso-8859-1"?>
<!-- Generator: Adobe Illustrator 19.0.0, SVG Export Plug-In . SVG Version: 6.00 Build 0)  -->
<svg xmlns="http://www.w3.org/2000/svg" xmlns:xlink="http://www.w3.org/1999/xlink" version="1.1" id="Layer_1" x="0px" y="0px" viewBox="0 0 512 512" style="enable-background:new 0 0 512 512;" xml:space="preserve">
<g>
	<g>
		<path d="M418.133,34.133H93.867C84.445,34.143,76.809,41.778,76.8,51.2v187.733c0.009,9.422,7.645,17.057,17.067,17.067h324.267    c9.421-0.011,17.056-7.645,17.067-17.067V51.2C435.189,41.779,427.555,34.144,418.133,34.133z M418.133,238.933l-324.267,0.012    V51.2h324.267V238.933z"/>
	</g>
</g>
<g>
	<g>
		<path d="M511.829,434.44c-0.042-2.642-0.499-5.261-1.354-7.76l-51.11-142.02c6.261-4.803,9.942-12.236,9.968-20.126V25.6    c-0.015-14.132-11.468-25.585-25.6-25.6H68.267c-14.132,0.015-25.585,11.468-25.6,25.6v238.933    c0.026,7.891,3.708,15.323,9.968,20.126L1.533,426.667c-0.86,2.503-1.32,5.127-1.363,7.774c-0.072,0.278-0.129,0.559-0.171,0.843    v42.583C0.022,496.709,15.291,511.978,34.133,512h443.733c18.843-0.02,34.113-15.29,34.133-34.133v-42.583    C511.958,434.999,511.902,434.718,511.829,434.44z M59.733,25.6c0.006-4.71,3.823-8.527,8.533-8.533h375.467    c4.711,0.005,8.529,3.822,8.533,8.533v238.933c-0.005,4.711-3.822,8.529-8.533,8.533H68.267c-4.71-0.006-8.527-3.823-8.533-8.533    V25.6z M68.804,290.133h374.387l21.498,59.733H302.658H47.308L68.804,290.133z M315.366,409.6l-119.108,0.092l13.084-42.758    h93.317L315.366,409.6z M17.587,432.454l23.579-65.521h150.018L179.9,404.825c-1.531,5.088-0.543,10.601,2.658,14.842    c3.333,4.414,8.545,7.006,14.076,7h118.733c5.531,0.006,10.743-2.586,14.075-7c3.202-4.243,4.19-9.759,2.658-14.85l-11.284-37.883    h150.016l23.585,65.533c0.927,2.5,0.549,5.298-1.008,7.462c-1.725,2.43-4.537,3.853-7.517,3.804H315.733    c-4.713,0-8.533,3.821-8.533,8.533v8.533H204.8v-8.533c0-4.713-3.82-8.533-8.533-8.533H26.112    c-2.982,0.05-5.796-1.375-7.521-3.808C17.03,437.759,16.654,434.956,17.587,432.454z M494.933,477.867    c-0.011,9.421-7.645,17.056-17.067,17.067H34.133c-9.422-0.009-17.057-7.645-17.067-17.067V459.02    c2.887,1.121,5.949,1.724,9.046,1.78h161.621c0.009,9.422,7.645,17.057,17.067,17.067h102.4    c9.422-0.009,17.057-7.645,17.067-17.067h161.625c3.095-0.056,6.156-0.659,9.042-1.78V477.867z"/>
	</g>
</g>
<g>
	<g>
		<path d="M187.733,68.267c-42.415,0-76.8,34.385-76.8,76.8s34.385,76.8,76.8,76.8s76.8-34.385,76.8-76.8    C264.484,102.672,230.128,68.316,187.733,68.267z M196.267,85.942c26.193,3.827,46.765,24.399,50.592,50.592h-50.592V85.942z     M187.733,204.8c-32.991-0.001-59.735-26.747-59.734-59.738c0.001-29.693,21.812-54.878,51.2-59.121v59.125    c0,4.713,3.82,8.533,8.533,8.533h59.125C242.578,182.97,217.413,204.762,187.733,204.8z"/>
	</g>
</g>
<g>
	<g>
		<path d="M392.533,68.267h-102.4c-4.713,0-8.533,3.82-8.533,8.533s3.82,8.533,8.533,8.533h102.4c4.713,0,8.533-3.82,8.533-8.533    S397.246,68.267,392.533,68.267z"/>
	</g>
</g>
<g>
	<g>
		<path d="M392.533,102.4h-102.4c-4.713,0-8.533,3.82-8.533,8.533s3.82,8.533,8.533,8.533h102.4c4.713,0,8.533-3.82,8.533-8.533    S397.246,102.4,392.533,102.4z"/>
	</g>
</g>
<g>
	<g>
		<path d="M392.533,136.533h-102.4c-4.713,0-8.533,3.82-8.533,8.533s3.82,8.533,8.533,8.533h102.4c4.713,0,8.533-3.821,8.533-8.533    S397.246,136.533,392.533,136.533z"/>
	</g>
</g>
<g>
	<g>
		<path d="M392.533,170.667h-102.4c-4.713,0-8.533,3.82-8.533,8.533s3.82,8.533,8.533,8.533h102.4c4.713,0,8.533-3.82,8.533-8.533    S397.246,170.667,392.533,170.667z"/>
	</g>
</g>
<g>
	<g>
		<path d="M392.533,204.8h-102.4c-4.713,0-8.533,3.821-8.533,8.533c0,4.713,3.82,8.533,8.533,8.533h102.4    c4.713,0,8.533-3.821,8.533-8.533C401.067,208.621,397.246,204.8,392.533,204.8z"/>
	</g>
</g>
<g>
</g>
<g>
</g>
<g>
</g>
<g>
</g>
<g>
</g>
<g>
</g>
<g>
</g>
<g>
</g>
<g>
</g>
<g>
</g>
<g>
</g>
<g>
</g>
<g>
</g>
<g>
</g>
<g>
</g>
</svg>
