<?xml version="1.0" encoding="iso-8859-1"?>
<!-- Generator: Adobe Illustrator 19.0.0, SVG Export Plug-In . SVG Version: 6.00 Build 0)  -->
<svg xmlns="http://www.w3.org/2000/svg" xmlns:xlink="http://www.w3.org/1999/xlink" version="1.1" id="Layer_1" x="0px" y="0px" viewBox="0 0 512 512" style="enable-background:new 0 0 512 512;" xml:space="preserve">
<g>
	<g>
		<path d="M418.133,34.133H93.867C84.445,34.143,76.809,41.778,76.8,51.2v187.733c0.009,9.422,7.645,17.057,17.067,17.067h324.267    c9.422-0.009,17.057-7.645,17.067-17.067V51.2C435.191,41.778,427.555,34.143,418.133,34.133z M418.133,238.933l-324.267,0.012    V51.2h324.267V238.933z"/>
	</g>
</g>
<g>
	<g>
		<path d="M511.831,434.448c-0.041-2.645-0.501-5.267-1.36-7.769l-51.106-142.02c6.261-4.802,9.942-12.235,9.969-20.126V25.6    c-0.015-14.132-11.468-25.585-25.6-25.6H68.267c-14.132,0.015-25.585,11.468-25.6,25.6v238.933    c0.026,7.891,3.708,15.323,9.968,20.126L1.533,426.667c-0.86,2.503-1.32,5.127-1.363,7.774c-0.072,0.278-0.129,0.559-0.171,0.843    v42.583C0.022,496.709,15.291,511.978,34.133,512h443.733c18.842-0.022,34.112-15.291,34.133-34.133v-42.583    C511.959,435.002,511.902,434.724,511.831,434.448z M59.733,25.6c0.006-4.71,3.823-8.527,8.533-8.533h375.467    c4.71,0.006,8.527,3.823,8.533,8.533v238.933c-0.006,4.71-3.823,8.527-8.533,8.533H68.267c-4.71-0.006-8.527-3.823-8.533-8.533    V25.6z M68.804,290.133h374.391l21.495,59.733H302.658H47.308L68.804,290.133z M315.366,409.6l-119.108,0.092l13.084-42.758    h93.317L315.366,409.6z M17.587,432.454l23.579-65.521h150.018L179.9,404.825c-1.531,5.088-0.543,10.601,2.658,14.842    c3.333,4.414,8.545,7.006,14.076,7h118.733c5.531,0.006,10.743-2.586,14.075-7c3.202-4.243,4.19-9.759,2.658-14.85l-11.284-37.883    h150.017l23.583,65.533c0.929,2.499,0.551,5.296-1.008,7.458c-1.725,2.433-4.539,3.858-7.521,3.808H315.733    c-4.713,0-8.533,3.821-8.533,8.533v8.533H204.8v-8.533c0-4.713-3.82-8.533-8.533-8.533H26.112    c-2.982,0.05-5.796-1.375-7.521-3.808C17.03,437.759,16.654,434.956,17.587,432.454z M494.933,477.867    c-0.009,9.422-7.645,17.057-17.067,17.067H34.133c-9.422-0.009-17.057-7.645-17.067-17.067V459.02    c2.887,1.121,5.949,1.724,9.046,1.78h161.621c0.009,9.422,7.645,17.057,17.067,17.067h102.4    c9.422-0.009,17.057-7.645,17.067-17.067h161.621c3.097-0.056,6.159-0.659,9.046-1.78V477.867z"/>
	</g>
</g>
<g>
	<g>
		<path d="M142.569,70.769c-0.001-0.001-0.002-0.002-0.003-0.003c-3.33-3.332-8.732-3.333-12.064-0.003    c-0.001,0.001-0.002,0.002-0.003,0.003l-17.067,17.067c-3.353,3.311-3.388,8.713-0.077,12.066    c3.311,3.353,8.713,3.388,12.066,0.077c0.026-0.026,0.052-0.051,0.077-0.077l17.067-17.067    C145.898,79.503,145.9,74.101,142.569,70.769z"/>
	</g>
</g>
<g>
	<g>
		<path d="M193.658,70.767c-3.319-3.26-8.638-3.26-11.957,0l-51.2,51.2c-3.362,3.302-3.411,8.704-0.109,12.066    c3.302,3.362,8.704,3.411,12.066,0.109c0.037-0.036,0.073-0.072,0.109-0.109l51.2-51.2    C197.068,79.471,197.02,74.069,193.658,70.767z"/>
	</g>
</g>
<g>
</g>
<g>
</g>
<g>
</g>
<g>
</g>
<g>
</g>
<g>
</g>
<g>
</g>
<g>
</g>
<g>
</g>
<g>
</g>
<g>
</g>
<g>
</g>
<g>
</g>
<g>
</g>
<g>
</g>
</svg>
