<?xml version="1.0" encoding="iso-8859-1"?>
<!-- Generator: Adobe Illustrator 19.0.0, SVG Export Plug-In . SVG Version: 6.00 Build 0)  -->
<svg xmlns="http://www.w3.org/2000/svg" xmlns:xlink="http://www.w3.org/1999/xlink" version="1.1" id="Layer_1" x="0px" y="0px" viewBox="0 0 512 512" style="enable-background:new 0 0 512 512;" xml:space="preserve">
<g>
	<g>
		<path d="M435.2,0H76.8C62.668,0.015,51.215,11.468,51.2,25.6v426.667c0.015,14.132,11.468,25.585,25.6,25.6h8.533v8.533    c0.015,14.132,11.468,25.585,25.6,25.6h34.133c14.132-0.015,25.585-11.468,25.6-25.6v-8.533h170.667v8.533    c0.015,14.132,11.468,25.585,25.6,25.6h34.133c14.132-0.015,25.585-11.468,25.6-25.6v-8.533h8.533    c14.132-0.015,25.585-11.468,25.6-25.6V25.6C460.785,11.468,449.332,0.015,435.2,0z M153.6,486.4    c-0.006,4.71-3.823,8.527-8.533,8.533h-34.133c-4.71-0.006-8.527-3.823-8.533-8.533v-8.533h51.2V486.4z M409.6,486.4    c-0.006,4.71-3.823,8.527-8.533,8.533h-34.133c-4.71-0.006-8.527-3.823-8.533-8.533v-8.533h51.2V486.4z M443.733,452.267    c-0.006,4.71-3.823,8.527-8.533,8.533H76.8c-4.71-0.006-8.527-3.823-8.533-8.533V25.6c0.006-4.71,3.823-8.527,8.533-8.533h358.4    c4.71,0.006,8.527,3.823,8.533,8.533V452.267z"/>
	</g>
</g>
<g>
	<g>
		<path d="M426.667,76.8c-0.015-14.132-11.468-25.585-25.6-25.6H110.933c-14.132,0.015-25.585,11.468-25.6,25.6v85.333    c0.02,6.319,2.394,12.404,6.658,17.067c-4.265,4.663-6.639,10.748-6.658,17.067V281.6c0.02,6.319,2.394,12.404,6.658,17.067    c-4.265,4.663-6.639,10.748-6.658,17.067v85.333c0.015,14.132,11.468,25.585,25.6,25.6h290.133    c14.132-0.015,25.585-11.468,25.6-25.6v-85.333c-0.02-6.319-2.394-12.404-6.658-17.067c4.265-4.663,6.639-10.748,6.658-17.067    v-85.333c-0.02-6.319-2.394-12.404-6.658-17.067c4.265-4.663,6.639-10.748,6.658-17.067V76.8z M409.6,401.067    c-0.006,4.71-3.823,8.527-8.533,8.533H110.933c-4.71-0.006-8.527-3.823-8.533-8.533v-85.333c0.006-4.71,3.823-8.527,8.533-8.533    h290.133c4.71,0.006,8.527,3.823,8.533,8.533V401.067z M409.6,281.6c-0.006,4.71-3.823,8.527-8.533,8.533H110.933    c-4.71-0.006-8.527-3.823-8.533-8.533v-85.333c0.006-4.71,3.823-8.527,8.533-8.533h290.133c4.71,0.006,8.527,3.823,8.533,8.533    V281.6z M409.6,162.133c-0.006,4.71-3.823,8.527-8.533,8.533H110.933c-4.71-0.006-8.527-3.823-8.533-8.533V76.8    c0.006-4.71,3.823-8.527,8.533-8.533h290.133c4.71,0.006,8.527,3.823,8.533,8.533V162.133z"/>
	</g>
</g>
<g>
	<g>
		<path d="M150.991,87.834c-3.319-3.26-8.638-3.26-11.957,0L121.967,104.9c-3.332,3.333-3.331,8.736,0.002,12.068    c1.6,1.599,3.769,2.498,6.031,2.498c2.264,0.003,4.435-0.897,6.033-2.5L151.1,99.9C154.402,96.538,154.353,91.135,150.991,87.834z    "/>
	</g>
</g>
<g>
	<g>
		<path d="M202.225,87.833c-3.323-3.282-8.668-3.282-11.991,0l-51.2,51.2c-3.332,3.331-3.333,8.732-0.003,12.064    c0.001,0.001,0.002,0.002,0.003,0.003c3.33,3.332,8.731,3.333,12.064,0.003c0.001-0.001,0.002-0.002,0.003-0.003l51.2-51.2    C205.611,96.547,205.578,91.145,202.225,87.833z"/>
	</g>
</g>
<g>
	<g>
		<path d="M256,85.333c-18.851,0-34.133,15.282-34.133,34.133c0.021,18.842,15.291,34.112,34.133,34.133    c18.851,0,34.133-15.282,34.133-34.133S274.851,85.333,256,85.333z M256,136.533c-9.426,0-17.067-7.641-17.067-17.067    c0.009-9.422,7.645-17.057,17.067-17.067c9.426,0,17.067,7.641,17.067,17.067S265.426,136.533,256,136.533z"/>
	</g>
</g>
<g>
	<g>
		<path d="M151.102,207.303c-0.001-0.001-0.002-0.002-0.003-0.003c-3.33-3.332-8.732-3.333-12.064-0.003    c-0.001,0.001-0.002,0.002-0.003,0.003l-17.067,17.067c-3.353,3.311-3.386,8.714-0.075,12.066    c3.311,3.353,8.714,3.386,12.066,0.075c0.025-0.025,0.05-0.05,0.075-0.075l17.067-17.067    C154.432,216.036,154.433,210.635,151.102,207.303z"/>
	</g>
</g>
<g>
	<g>
		<path d="M202.192,207.3c-3.319-3.26-8.639-3.26-11.958,0l-51.2,51.2c-3.362,3.302-3.41,8.704-0.108,12.066    c3.302,3.362,8.704,3.41,12.066,0.108c0.036-0.036,0.072-0.072,0.108-0.108l51.2-51.2    C205.602,216.005,205.554,210.602,202.192,207.3z"/>
	</g>
</g>
<g>
	<g>
		<path d="M256,204.8c-18.851,0-34.133,15.282-34.133,34.133s15.282,34.133,34.133,34.133c18.851,0,34.133-15.282,34.133-34.133    C290.112,220.091,274.842,204.822,256,204.8z M256,256c-9.426,0-17.067-7.641-17.067-17.067s7.641-17.067,17.067-17.067    c9.426,0,17.067,7.641,17.067,17.067C273.057,248.355,265.422,255.991,256,256z"/>
	</g>
</g>
<g>
	<g>
		<path d="M151.102,326.769c-0.001-0.001-0.002-0.002-0.003-0.003c-3.33-3.332-8.732-3.333-12.064-0.003    c-0.001,0.001-0.002,0.002-0.003,0.003l-17.067,17.067c-3.353,3.311-3.386,8.714-0.075,12.066    c3.311,3.353,8.714,3.386,12.066,0.075c0.025-0.025,0.05-0.05,0.075-0.075l17.067-17.067    C154.432,335.503,154.433,330.101,151.102,326.769z"/>
	</g>
</g>
<g>
	<g>
		<path d="M202.192,326.767c-3.319-3.26-8.639-3.26-11.958,0l-51.2,51.2c-3.362,3.302-3.41,8.704-0.108,12.066    c3.302,3.362,8.704,3.41,12.066,0.108c0.036-0.036,0.072-0.072,0.108-0.108l51.2-51.2    C205.602,335.471,205.554,330.069,202.192,326.767z"/>
	</g>
</g>
<g>
	<g>
		<path d="M256,324.267c-18.851,0-34.133,15.282-34.133,34.133s15.282,34.133,34.133,34.133c18.851,0,34.133-15.282,34.133-34.133    C290.112,339.558,274.842,324.288,256,324.267z M256,375.467c-9.426,0-17.067-7.641-17.067-17.067s7.641-17.067,17.067-17.067    c9.426,0,17.067,7.641,17.067,17.067C273.057,367.822,265.422,375.457,256,375.467z"/>
	</g>
</g>
<g>
</g>
<g>
</g>
<g>
</g>
<g>
</g>
<g>
</g>
<g>
</g>
<g>
</g>
<g>
</g>
<g>
</g>
<g>
</g>
<g>
</g>
<g>
</g>
<g>
</g>
<g>
</g>
<g>
</g>
</svg>
