<?xml version="1.0" encoding="iso-8859-1"?>
<!-- Generator: Adobe Illustrator 19.0.0, SVG Export Plug-In . SVG Version: 6.00 Build 0)  -->
<svg xmlns="http://www.w3.org/2000/svg" xmlns:xlink="http://www.w3.org/1999/xlink" version="1.1" id="Layer_1" x="0px" y="0px" viewBox="0 0 512 512" style="enable-background:new 0 0 512 512;" xml:space="preserve">
<g>
	<g>
		<path d="M435.2,0H76.8C62.668,0.015,51.215,11.468,51.2,25.6v460.8c0.015,14.132,11.468,25.585,25.6,25.6h358.4    c14.132-0.015,25.585-11.468,25.6-25.6V25.6C460.785,11.468,449.332,0.015,435.2,0z M443.733,486.4    c-0.006,4.71-3.823,8.527-8.533,8.533H76.8c-4.71-0.006-8.527-3.823-8.533-8.533V25.6c0.006-4.71,3.823-8.527,8.533-8.533h358.4    c4.71,0.006,8.527,3.823,8.533,8.533V486.4z"/>
	</g>
</g>
<g>
	<g>
		<path d="M409.6,34.133H102.4c-9.422,0.009-17.057,7.645-17.067,17.067v179.2c0.009,9.422,7.645,17.057,17.067,17.067h307.2    c9.422-0.009,17.057-7.645,17.067-17.067V51.2C426.657,41.778,419.022,34.143,409.6,34.133z M409.6,230.4l-307.2,0.012V51.2h307.2    V230.4z"/>
	</g>
</g>
<g>
	<g>
		<path d="M409.6,264.533H102.4c-9.422,0.009-17.057,7.645-17.067,17.067v179.2c0.009,9.422,7.645,17.057,17.067,17.067h307.2    c9.422-0.009,17.057-7.645,17.067-17.067V281.6C426.657,272.178,419.022,264.543,409.6,264.533z M409.6,460.8l-307.2,0.012V281.6    h307.2V460.8z"/>
	</g>
</g>
<g>
	<g>
		<path d="M281.6,68.267h-51.2c-9.422,0.009-17.057,7.645-17.067,17.067v25.6c0.009,9.422,7.645,17.057,17.067,17.067h51.2    c9.422-0.009,17.057-7.645,17.067-17.067v-25.6C298.657,75.912,291.022,68.276,281.6,68.267z M230.4,110.933v-25.6h51.2    l0.012,25.6H230.4z"/>
	</g>
</g>
<g>
	<g>
		<path d="M290.133,162.133c-4.713,0-8.533,3.82-8.533,8.533v17.067h-51.2v-17.067c0-4.713-3.82-8.533-8.533-8.533    s-8.533,3.82-8.533,8.533v19.2c-0.182,8.045,6.176,14.723,14.221,14.933h56.892c8.044-0.211,14.403-6.888,14.221-14.933v-19.2    C298.667,165.954,294.846,162.133,290.133,162.133z"/>
	</g>
</g>
<g>
	<g>
		<path d="M281.6,298.667h-51.2c-9.422,0.009-17.057,7.645-17.067,17.067v25.6c0.009,9.422,7.645,17.057,17.067,17.067h51.2    c9.422-0.009,17.057-7.645,17.067-17.067v-25.6C298.657,306.312,291.022,298.676,281.6,298.667z M230.4,341.333v-25.6h51.2    l0.012,25.6H230.4z"/>
	</g>
</g>
<g>
	<g>
		<path d="M290.133,392.533c-4.713,0-8.533,3.821-8.533,8.533v17.067h-51.2v-17.067c0-4.713-3.82-8.533-8.533-8.533    s-8.533,3.821-8.533,8.533v19.2c-0.182,8.045,6.176,14.723,14.221,14.933h56.892c8.044-0.211,14.403-6.888,14.221-14.933v-19.2    C298.667,396.354,294.846,392.533,290.133,392.533z"/>
	</g>
</g>
<g>
	<g>
		<path d="M150.991,70.767c-3.319-3.26-8.638-3.26-11.957,0l-17.067,17.067c-3.332,3.333-3.331,8.736,0.002,12.068    c1.6,1.599,3.769,2.498,6.031,2.498c2.264,0.003,4.435-0.897,6.033-2.5L151.1,82.833    C154.402,79.471,154.353,74.069,150.991,70.767z"/>
	</g>
</g>
<g>
	<g>
		<path d="M193.658,70.767c-3.319-3.26-8.638-3.26-11.958,0L121.967,130.5c-3.362,3.302-3.411,8.704-0.109,12.066    c3.302,3.362,8.704,3.411,12.066,0.109c0.037-0.036,0.073-0.072,0.109-0.109l59.733-59.733    C197.068,79.471,197.02,74.069,193.658,70.767z"/>
	</g>
</g>
<g>
	<g>
		<path d="M150.992,301.167c-3.319-3.26-8.639-3.26-11.958,0l-17.067,17.067c-3.332,3.333-3.331,8.736,0.002,12.068    c1.6,1.599,3.769,2.498,6.031,2.498c2.264,0.003,4.435-0.897,6.033-2.5l17.067-17.067    C154.402,309.871,154.354,304.469,150.992,301.167z"/>
	</g>
</g>
<g>
	<g>
		<path d="M193.658,301.167c-3.319-3.26-8.639-3.26-11.958,0L121.967,360.9c-3.362,3.302-3.41,8.704-0.108,12.066    c3.302,3.362,8.704,3.41,12.066,0.108c0.036-0.036,0.073-0.072,0.108-0.108l59.733-59.733    C197.069,309.871,197.02,304.469,193.658,301.167z"/>
	</g>
</g>
<g>
</g>
<g>
</g>
<g>
</g>
<g>
</g>
<g>
</g>
<g>
</g>
<g>
</g>
<g>
</g>
<g>
</g>
<g>
</g>
<g>
</g>
<g>
</g>
<g>
</g>
<g>
</g>
<g>
</g>
</svg>
