<svg id="Capa_1" enable-background="new 0 0 511.672 511.672" height="512" viewBox="0 0 511.672 511.672" width="512" xmlns="http://www.w3.org/2000/svg" style="fill:#fff;"><g><path d="m492.858 201.835c-5.262-3.314-11.755-3.691-17.364-1.004l-9.847 4.715v-157.692c0-10.025-8.156-18.181-18.182-18.181h-78.296v-17.006c0-6.984-5.682-12.667-12.667-12.667h-53.994c-6.984 0-12.667 5.683-12.667 12.667v17.005h-65.021v-17.005c0-6.984-5.683-12.667-12.667-12.667h-53.994c-6.984 0-12.667 5.683-12.667 12.667v17.005h-78.296c-10.025 0-18.182 8.156-18.182 18.181v159.123l-12.834-6.146c-5.611-2.687-12.103-2.311-17.365 1.004-5.263 3.315-8.405 9.008-8.405 15.228v46.129c0 6.22 3.143 11.913 8.405 15.228 2.934 1.848 6.249 2.782 9.581 2.782 2.645 0 5.302-.589 7.784-1.778l12.834-6.146v220.212c0 10.025 8.156 18.181 18.182 18.181h264.474c4.142 0 7.5-3.358 7.5-7.5s-3.358-7.5-7.5-7.5h-264.474c-1.754 0-3.182-1.427-3.182-3.181v-35.916h386.633v35.916c0 1.754-1.428 3.181-3.182 3.181h-85.796c-4.143 0-7.5 3.358-7.5 7.5s3.357 7.5 7.5 7.5h85.796c10.025 0 18.182-8.156 18.182-18.181v-218.78l9.847 4.715c2.483 1.189 5.139 1.778 7.784 1.778 3.332 0 6.647-.934 9.58-2.782 5.263-3.315 8.405-9.008 8.405-15.228v-46.129c0-6.221-3.143-11.913-8.405-15.228zm-204.377 240.74h-68.288v-19.552h68.288zm15-19.552h59.105c8.014 0 14.533-6.52 14.533-14.534v-16.11c0-8.014-6.52-14.534-14.533-14.534h-138.397c-4.143 0-7.5 3.358-7.5 7.5s3.357 7.5 7.5 7.5h137.931v15.177h-66.139-83.288-60.151v-15.177h41.648c4.143 0 7.5-3.358 7.5-7.5s-3.357-7.5-7.5-7.5h-42.114c-8.014 0-14.533 6.52-14.533 14.534v16.11c0 8.014 6.52 14.534 14.533 14.534h53.118v19.552h-87.081v-179.403h95.723v13.846c0 8.458 6.882 15.34 15.34 15.34h17.662v10.564c0 4.142 3.357 7.5 7.5 7.5s7.5-3.358 7.5-7.5v-10.564h17.662c8.458 0 15.34-6.882 15.34-15.34v-13.846h101.711v179.402h-93.068v-19.551zm50.688-324.253v18.536h-49.328v-18.536zm96.478 119.104h-39.098v-119.104h39.098zm-54.098 0h-101.711v-8.464c0-8.458-6.882-15.34-15.34-15.34h-3.322c1.251-7.072 4.784-15.586 9.896-20.569 4.31-4.202 10.315-6.706 16.674-9.357 5.199-2.168 10.576-4.409 15.554-7.771 8.258-5.576 12.869-13.11 14.639-24.068h23.563c6.984 0 12.667-5.683 12.667-12.667v-20.868h27.38zm-167.375 59.484c-.188 0-.34-.152-.34-.34v-67.608c0-.188.152-.34.34-.34h50.324c.188 0 .34.152.34.34v67.608c0 .188-.152.34-.34.34zm73.334-145.052h15.152c-1.447 6.148-4.186 9.227-7.754 11.637-3.737 2.524-8.203 4.386-12.931 6.357-7.38 3.077-15.011 6.258-21.373 12.461-8.37 8.16-13.297 20.936-14.582 31.31h-13.366c-1.285-10.374-6.212-23.15-14.583-31.31-6.362-6.202-13.993-9.384-21.373-12.46-4.728-1.971-9.193-3.833-12.931-6.357-3.568-2.41-6.307-5.488-7.754-11.637h21.14c6.984 0 12.667-5.683 12.667-12.667v-20.87h65.021v20.868c0 6.985 5.683 12.668 12.667 12.668zm-92.688-15h-49.328v-18.536h49.328zm-51.662 15h17.575c1.769 10.958 6.381 18.491 14.639 24.068 4.978 3.362 10.355 5.603 15.554 7.771 6.358 2.651 12.364 5.155 16.674 9.356 5.112 4.984 8.645 13.498 9.897 20.569h-3.323c-8.458 0-15.34 6.882-15.34 15.34v8.464h-95.723v-119.104h27.38v20.868c0 6.985 5.683 12.668 12.667 12.668zm-94.144 115.866v-15.298h149.82v15.298zm39.098-30.298h-39.098v-119.104h39.098zm-39.098 45.298h39.098v179.402h-39.098zm230.824-15v-15.298h155.809v15.298zm10.003-233.172h49.328v14.672h-49.328zm-144.35 0h49.328v14.672h-49.328zm-96.477 32.854c0-1.754 1.428-3.181 3.182-3.181h380.27c1.754 0 3.182 1.427 3.182 3.181v35.916h-386.634zm-15.124 208.853-19.188 9.189c-1.3.622-2.369.162-2.893-.167-.522-.329-1.399-1.097-1.399-2.536v-46.129c0-1.439.877-2.207 1.399-2.536.524-.329 1.593-.789 2.893-.167l19.312 9.248v33.047c-.041.018-.083.031-.124.051zm362.659 185.868v-179.403h39.098v179.402h-39.098zm74.714-179.383c0 1.44-.877 2.207-1.399 2.536s-1.592.789-2.892.167l-16.293-7.802c-.011-.005-.022-.008-.032-.013v-35.903l16.325-7.817c1.3-.621 2.369-.162 2.892.167.522.329 1.399 1.097 1.399 2.536z"/></g></svg>