<svg id="Layer_3" enable-background="new 0 0 64 64" height="512" viewBox="0 0 64 64" width="512" xmlns="http://www.w3.org/2000/svg" style="fill:#fff;"><g><path d="m62 33h-9v-17c0-.552-.447-1-1-1h-12.586l9.293-9.293c.391-.391.391-1.023 0-1.414l-3-3c-.391-.391-1.023-.391-1.414 0l-9.707 9.707h-7.586v-2h3c.553 0 1-.448 1-1v-6c0-.552-.447-1-1-1h-12c-.553 0-1 .448-1 1v6c0 .552.447 1 1 1h3v2h-3c-.553 0-1 .448-1 1v3h-1c-.553 0-1 .448-1 1v12h-13c-.553 0-1 .448-1 1v4c0 .553.447 1 1 1h13v4h-13c-.553 0-1 .447-1 1v4c0 .553.447 1 1 1h13v4h-13c-.553 0-1 .447-1 1v4c0 .553.447 1 1 1h13v8c0 .553.447 1 1 1h36c.553 0 1-.447 1-1v-1.586l9.707-9.707c.188-.187.293-.441.293-.707v-16c0-.553-.447-1-1-1zm-1 2v2h-8v-2zm-16-31.586 1.586 1.586-10 10h-.586v-2.586zm-26-.414h10v4h-10zm4 6h2v2h-2zm-4 4h15v2h-15zm32 4v6h-34v-6zm-48 15v-2h12v2zm0 10v-2h12v2zm0 10v-2h12v2zm14 9v-36h34v36zm36-3.414v-18.586h8v10.586z"/><path d="m48 27h-28c-.553 0-1 .448-1 1v30c0 .553.447 1 1 1h28c.553 0 1-.447 1-1v-30c0-.552-.447-1-1-1zm-6.414 2-2 2h-11.172l-2-2zm-18 0 3.707 3.707c.187.188.441.293.707.293h12c.266 0 .52-.105.707-.293l3.707-3.707h2.586v8h-26v-8zm-2.586 18v-8h2.586l3.707 3.707c.187.188.441.293.707.293h12c.266 0 .52-.105.707-.293l3.707-3.707h2.586v8zm20.586 2-2 2h-11.172l-2-2zm-15.172-10h15.172l-2 2h-11.172zm-5.414 18v-8h2.586l3.707 3.707c.187.188.441.293.707.293h12c.266 0 .52-.105.707-.293l3.707-3.707h2.586v8z"/></g></svg>