<?xml version="1.0" encoding="iso-8859-1"?>
<!-- Generator: Adobe Illustrator 19.0.0, SVG Export Plug-In . SVG Version: 6.00 Build 0)  -->
<svg version="1.1" id="Capa_1" xmlns="http://www.w3.org/2000/svg" xmlns:xlink="http://www.w3.org/1999/xlink" x="0px" y="0px"
	 viewBox="0 0 402.773 402.773" style="enable-background:new 0 0 402.773 402.773;" xml:space="preserve" style="fill:#fff;">
<g>
	<g>
		<path d="M377.855,41.187H97.962c-3.644,0-6.6,2.953-6.6,6.6v109.227c0,3.647,2.956,6.6,6.6,6.6h279.893c3.644,0,6.6-2.953,6.6-6.6
			V47.787C384.455,44.14,381.499,41.187,377.855,41.187z M371.258,150.414H104.563V54.386h266.694V150.414z"/>
	</g>
</g>
<g>
	<g>
		<path d="M377.855,150.414H97.962c-3.644,0-6.6,2.953-6.6,6.6V266.24c0,3.647,2.956,6.6,6.6,6.6h279.893c3.644,0,6.6-2.953,6.6-6.6
			V157.013C384.455,153.366,381.499,150.414,377.855,150.414z M371.258,259.64H104.563v-96.027h266.694V259.64z"/>
	</g>
</g>
<g>
	<g>
		<path d="M377.855,259.64H97.962c-3.644,0-6.6,2.953-6.6,6.6v109.227c0,3.647,2.956,6.6,6.6,6.6h279.893c3.644,0,6.6-2.953,6.6-6.6
			V266.24C384.455,262.593,381.499,259.64,377.855,259.64z M371.258,368.867H104.563V272.84h266.694V368.867z"/>
	</g>
</g>
<g>
	<g>
		<path d="M289.981,262.412c-1.27-1.874-3.386-3-5.653-3h-102.4c-2.266,0-4.383,1.126-5.652,3c-1.27,1.874-1.526,4.262-0.686,6.361
			l13.653,34.133c1.041,2.594,3.55,4.294,6.34,4.294h75.093c2.789,0,5.299-1.7,6.337-4.294l13.653-34.133
			C291.508,266.672,291.251,264.286,289.981,262.412z M266.053,293.547h-65.847l-8.194-20.48h82.234L266.053,293.547z"/>
	</g>
</g>
<g>
	<g>
		<path d="M366.25,150.142H94.411l-66.959-26.774c-3.505-1.42-7.474,0.299-8.873,3.806c-1.401,3.5,0.302,7.474,3.806,8.873
			l68.18,27.261c0.802,0.319,1.666,0.486,2.533,0.486H366.25c3.77,0,6.827-3.052,6.827-6.825S370.02,150.142,366.25,150.142z"/>
	</g>
</g>
<g>
	<g>
		<path d="M366.25,259.369H94.411l-66.959-26.774c-3.505-1.42-7.474,0.299-8.873,3.806c-1.401,3.5,0.302,7.473,3.806,8.873
			l68.18,27.261c0.802,0.319,1.666,0.486,2.533,0.486H366.25c3.77,0,6.827-3.052,6.827-6.825S370.02,259.369,366.25,259.369z"/>
	</g>
</g>
<g>
	<g>
		<path d="M377.859,0H215.772c-2.294,0-4.437,1.154-5.7,3.067l-27.013,40.96c-1.381,2.101-1.5,4.787-0.311,6.994
			c1.19,2.212,3.499,3.593,6.009,3.593h189.099c3.77,0,6.827-3.053,6.83-6.827V6.827C384.686,3.053,381.629,0,377.859,0z
			 M371.029,40.96H201.436l18.01-27.307h151.583V40.96z"/>
	</g>
</g>
<g>
	<g>
		<path d="M289.981,153.185c-1.27-1.874-3.386-3-5.653-3h-102.4c-2.266,0-4.383,1.126-5.652,3c-1.27,1.874-1.526,4.262-0.686,6.361
			l13.653,34.133c1.041,2.594,3.55,4.294,6.34,4.294h75.093c2.789,0,5.299-1.7,6.337-4.294l13.653-34.133
			C291.508,157.445,291.251,155.059,289.981,153.185z M266.053,184.32h-65.847l-8.194-20.48h82.234L266.053,184.32z"/>
	</g>
</g>
<g>
	<g>
		<path d="M145.749,368.64h-20.48c-3.77,0-6.827,3.053-6.827,6.827v20.48c0,3.773,3.057,6.827,6.827,6.827h20.48
			c3.77,0,6.827-3.053,6.827-6.827v-20.48C152.575,371.693,149.519,368.64,145.749,368.64z M138.922,389.12h-6.827v-6.827h6.827
			V389.12z"/>
	</g>
</g>
<g>
	<g>
		<path d="M350.549,368.64h-20.48c-3.77,0-6.827,3.053-6.827,6.827v20.48c0,3.773,3.057,6.827,6.827,6.827h20.48
			c3.77,0,6.827-3.053,6.827-6.827v-20.48C357.375,371.693,354.319,368.64,350.549,368.64z M343.722,389.12h-6.827v-6.827h6.827
			V389.12z"/>
	</g>
</g>
<g>
	<g>
		<path d="M132.095,61.44c-11.293,0-20.48,9.187-20.48,20.48c0,11.293,9.187,20.48,20.48,20.48c11.295,0,20.48-9.187,20.48-20.48
			C152.575,70.627,143.388,61.44,132.095,61.44z M132.095,88.747c-3.763,0-6.827-3.06-6.827-6.827s3.063-6.827,6.827-6.827
			c3.763,0,6.827,3.06,6.827,6.827S135.859,88.747,132.095,88.747z"/>
	</g>
</g>
<g>
	<g>
		<path d="M179.882,61.44c-11.293,0-20.48,9.187-20.48,20.48c0,11.293,9.187,20.48,20.48,20.48c11.295,0,20.48-9.187,20.48-20.48
			C200.362,70.627,191.175,61.44,179.882,61.44z M179.882,88.747c-3.763,0-6.827-3.06-6.827-6.827s3.063-6.827,6.827-6.827
			c3.763,0,6.827,3.06,6.827,6.827S183.645,88.747,179.882,88.747z"/>
	</g>
</g>
<g>
</g>
<g>
</g>
<g>
</g>
<g>
</g>
<g>
</g>
<g>
</g>
<g>
</g>
<g>
</g>
<g>
</g>
<g>
</g>
<g>
</g>
<g>
</g>
<g>
</g>
<g>
</g>
<g>
</g>
</svg>
