<?xml version="1.0" encoding="iso-8859-1"?>
<!-- Generator: Adobe Illustrator 19.0.0, SVG Export Plug-In . SVG Version: 6.00 Build 0)  -->
<svg xmlns="http://www.w3.org/2000/svg" xmlns:xlink="http://www.w3.org/1999/xlink" version="1.1" id="Layer_1" x="0px" y="0px" viewBox="0 0 512.002 512.002" style="fill:#fff; enable-background:new 0 0 512.002 512.002;" xml:space="preserve">
<g>
	<g>
		<path d="M486.401,153.6h-17.067V42.667C469.307,19.114,450.221,0.028,426.668,0H85.335C61.782,0.028,42.696,19.114,42.668,42.667    V153.6H25.601c-13.921-0.19-25.371,10.921-25.6,24.842v308.717C0.23,501.079,11.68,512.19,25.601,512h460.8    c13.921,0.19,25.371-10.921,25.6-24.842V178.442C511.773,164.521,500.323,153.41,486.401,153.6z M59.735,42.667    c0.015-14.132,11.468-25.585,25.6-25.6h341.333c14.132,0.015,25.585,11.468,25.6,25.6v81.412    c-9.358-8.457-21.52-13.141-34.133-13.145h-68.267c-24.958,0.042-46.254,18.061-50.429,42.667H59.735V42.667z M452.268,162.133    v264.533c-0.022,18.842-15.291,34.112-34.133,34.133h-68.267c-18.842-0.022-34.112-15.291-34.133-34.133V162.133    c0.022-18.842,15.291-34.112,34.133-34.133h68.267C436.977,128.022,452.246,143.291,452.268,162.133z M494.935,487.158    c-0.277,4.471-4.056,7.914-8.533,7.775h-460.8c-4.478,0.139-8.256-3.304-8.533-7.775V178.442c0.277-4.471,4.056-7.914,8.533-7.775    h273.067v256c0.031,28.264,22.936,51.169,51.2,51.2h68.267c28.264-0.031,51.169-22.936,51.2-51.2v-256h17.067    c4.478-0.139,8.256,3.304,8.533,7.775V487.158z"/>
	</g>
</g>
<g>
	<g>
		<path d="M256.001,187.733h-204.8c-9.422,0.009-17.057,7.645-17.067,17.067V256c0.009,9.422,7.645,17.057,17.067,17.067h204.8    c9.422-0.009,17.057-7.645,17.067-17.067v-51.2C273.058,195.378,265.423,187.743,256.001,187.733z M51.201,256v-51.2h204.8    l0.012,51.2H51.201z"/>
	</g>
</g>
<g>
	<g>
		<path d="M85.164,228.692c-0.095-0.535-0.268-1.053-0.513-1.537c-0.188-0.543-0.448-1.058-0.771-1.533    c-0.338-0.429-0.679-0.854-1.021-1.279c-2.453-2.425-6.125-3.133-9.304-1.796c-1.033,0.434-1.985,1.041-2.813,1.796    c-1.573,1.627-2.459,3.796-2.475,6.059c0.012,1.115,0.243,2.216,0.679,3.242c0.414,1.045,1.023,2.001,1.795,2.817    c0.83,0.752,1.781,1.358,2.813,1.792c1.014,0.479,2.126,0.712,3.246,0.683c2.259-0.034,4.422-0.918,6.059-2.475    c0.752-0.831,1.358-1.783,1.792-2.817c0.437-1.026,0.669-2.127,0.683-3.242C85.319,229.827,85.262,229.256,85.164,228.692z"/>
	</g>
</g>
<g>
	<g>
		<path d="M153.601,221.867h-42.667c-4.713,0-8.533,3.82-8.533,8.533s3.82,8.533,8.533,8.533h42.667c4.713,0,8.533-3.82,8.533-8.533    S158.314,221.867,153.601,221.867z"/>
	</g>
</g>
<g>
	<g>
		<path d="M85.335,290.133H51.201c-9.422,0.009-17.057,7.645-17.067,17.067v17.067c0.009,9.422,7.645,17.057,17.067,17.067h34.133    c9.422-0.009,17.057-7.645,17.067-17.067V307.2C102.392,297.778,94.756,290.143,85.335,290.133z M51.201,324.267V307.2h34.133    l0.013,17.067H51.201z"/>
	</g>
</g>
<g>
	<g>
		<path d="M170.668,290.133h-34.133c-9.422,0.009-17.057,7.645-17.067,17.067v17.067c0.009,9.422,7.645,17.057,17.067,17.067h34.133    c9.422-0.009,17.057-7.645,17.067-17.067V307.2C187.725,297.778,180.09,290.143,170.668,290.133z M136.535,324.267V307.2h34.133    l0.012,17.067H136.535z"/>
	</g>
</g>
<g>
	<g>
		<path d="M256.001,290.133h-34.133c-9.422,0.009-17.057,7.645-17.067,17.067v17.067c0.009,9.422,7.645,17.057,17.067,17.067h34.133    c9.422-0.009,17.057-7.645,17.067-17.067V307.2C273.058,297.778,265.423,290.143,256.001,290.133z M221.868,324.267V307.2h34.133    l0.012,17.067H221.868z"/>
	</g>
</g>
<g>
	<g>
		<path d="M85.335,358.4H51.201c-9.422,0.009-17.057,7.645-17.067,17.067v17.067c0.009,9.422,7.645,17.057,17.067,17.067h34.133    c9.422-0.009,17.057-7.645,17.067-17.067v-17.067C102.392,366.045,94.756,358.409,85.335,358.4z M51.201,392.533v-17.067h34.133    l0.013,17.067H51.201z"/>
	</g>
</g>
<g>
	<g>
		<path d="M170.668,358.4h-34.133c-9.422,0.009-17.057,7.645-17.067,17.067v17.067c0.009,9.422,7.645,17.057,17.067,17.067h34.133    c9.422-0.009,17.057-7.645,17.067-17.067v-17.067C187.725,366.045,180.09,358.409,170.668,358.4z M136.535,392.533v-17.067h34.133    l0.012,17.067H136.535z"/>
	</g>
</g>
<g>
	<g>
		<path d="M256.001,358.4h-34.133c-9.422,0.009-17.057,7.645-17.067,17.067v17.067c0.009,9.422,7.645,17.057,17.067,17.067h34.133    c9.422-0.009,17.057-7.645,17.067-17.067v-17.067C273.058,366.045,265.423,358.409,256.001,358.4z M221.868,392.533v-17.067    h34.133l0.012,17.067H221.868z"/>
	</g>
</g>
<g>
	<g>
		<path d="M85.335,426.667H51.201c-9.422,0.009-17.057,7.645-17.067,17.067V460.8c0.009,9.422,7.645,17.057,17.067,17.067h34.133    c9.422-0.009,17.057-7.645,17.067-17.067v-17.067C102.392,434.312,94.756,426.676,85.335,426.667z M51.201,460.8v-17.067h34.133    l0.013,17.067H51.201z"/>
	</g>
</g>
<g>
	<g>
		<path d="M170.668,426.667h-34.133c-9.422,0.009-17.057,7.645-17.067,17.067V460.8c0.009,9.422,7.645,17.057,17.067,17.067h34.133    c9.422-0.009,17.057-7.645,17.067-17.067v-17.067C187.725,434.312,180.09,426.676,170.668,426.667z M136.535,460.8v-17.067h34.133    l0.012,17.067H136.535z"/>
	</g>
</g>
<g>
	<g>
		<path d="M256.001,426.667h-34.133c-9.422,0.009-17.057,7.645-17.067,17.067V460.8c0.009,9.422,7.645,17.057,17.067,17.067h34.133    c9.422-0.009,17.057-7.645,17.067-17.067v-17.067C273.058,434.312,265.423,426.676,256.001,426.667z M221.868,460.8v-17.067    h34.133l0.012,17.067H221.868z"/>
	</g>
</g>
<g>
	<g>
		<path d="M426.668,34.133H85.335c-4.713,0-8.533,3.82-8.533,8.533s3.82,8.533,8.533,8.533h341.333c4.713,0,8.533-3.82,8.533-8.533    S431.381,34.133,426.668,34.133z"/>
	</g>
</g>
<g>
	<g>
		<path d="M426.668,76.8H85.335c-4.713,0-8.533,3.82-8.533,8.533s3.82,8.533,8.533,8.533h341.333c4.713,0,8.533-3.821,8.533-8.533    S431.381,76.8,426.668,76.8z"/>
	</g>
</g>
<g>
	<g>
		<path d="M273.068,119.467H85.335c-4.713,0-8.533,3.82-8.533,8.533s3.82,8.533,8.533,8.533h187.733c4.713,0,8.533-3.82,8.533-8.533    S277.781,119.467,273.068,119.467z"/>
	</g>
</g>
<g>
</g>
<g>
</g>
<g>
</g>
<g>
</g>
<g>
</g>
<g>
</g>
<g>
</g>
<g>
</g>
<g>
</g>
<g>
</g>
<g>
</g>
<g>
</g>
<g>
</g>
<g>
</g>
<g>
</g>
</svg>
