<svg id="Capa_1" enable-background="new 0 0 512 512" height="512" viewBox="0 0 512 512" width="512" xmlns="http://www.w3.org/2000/svg"><g><g><path d="m58.704 336.345c-.763-1.271-1.703-2.228-2.732-2.885 0 0-38.472 44.36-38.472 74.42 0 34.2 18.06 49.118 45.96 49.118 15.532 0 30.144-14.912 30.144-14.912 2.497-5.222 3.896-11 3.896-17.087 0-25.299-11.061-42.46-38.796-88.654z" fill="#9ec8fc"/><path d="m27.5 402.39c0-19.502 9.149-36.61 28.472-68.93-3.219-2.057-7.323-1.113-9.711 2.863-26.389 43.948-38.761 63.377-38.761 86.067 0 24.218 19.469 44.608 45.429 44.608 18.148 0 33.714-10.356 40.675-24.912-6.177 3.069-13.205 4.912-20.675 4.912-25.96 0-45.429-20.39-45.429-44.608z" fill="#62a4fb"/><path d="m27.5 75-10 217.399 80-10v-207.399z" fill="#9ec8fc"/><path d="m27.5 274.899v-199.899h-20v219.899c0 4.142 3.358 7.5 7.5 7.5h75c4.142 0 7.5-3.358 7.5-7.5v-12.5h-62.5c-4.142 0-7.5-3.358-7.5-7.5z" fill="#62a4fb"/><path d="m97.5 75v-22.5c0-4.142-3.358-7.5-7.5-7.5h-62.5l-10 21.54 10 26.757c7.151 1.634 15.748 2.283 25 2.283 24.853 0 45-4.674 45-20.58z" fill="#dce6eb"/><path d="m15 45c-4.142 0-7.5 3.358-7.5 7.5v22.5c0 9.985 7.942 15.542 20 18.297v-48.297z" fill="#b9c3cd"/><path d="m194.37 336.345c-.763-1.271-1.703-2.228-2.732-2.885 0 0-38.472 44.36-38.472 74.42 0 34.2 18.06 49.118 45.96 49.118 15.532 0 30.144-14.912 30.144-14.912 2.497-5.222 3.896-11 3.896-17.087.001-25.299-11.06-42.46-38.796-88.654z" fill="#e175a5"/><path d="m163.167 402.39c0-19.502 9.149-36.61 28.472-68.93-3.219-2.057-7.323-1.113-9.711 2.863-26.389 43.948-38.761 63.376-38.761 86.067 0 24.218 19.469 44.608 45.429 44.608 18.148 0 33.714-10.356 40.675-24.912-6.177 3.069-13.205 4.912-20.675 4.912-25.96 0-45.429-20.39-45.429-44.608z" fill="#de5791"/><path d="m163.167 225-10 67.399 80-10v-57.399z" fill="#e175a5"/><path d="m163.167 274.899v-49.899h-20v69.899c0 4.142 3.358 7.5 7.5 7.5h75c4.142 0 7.5-3.358 7.5-7.5v-12.5h-62.5c-4.142 0-7.5-3.358-7.5-7.5z" fill="#de5791"/><path d="m233.167 225v-172.5c0-4.142-3.358-7.5-7.5-7.5h-62.5l-10 171.54 10 26.757c7.151 1.634 15.748 2.283 25 2.283 24.852 0 45-4.674 45-20.58z" fill="#dce6eb"/><path d="m150.667 45c-4.142 0-7.5 3.358-7.5 7.5v172.5c0 9.985 7.942 15.542 20 18.297v-198.297z" fill="#b9c3cd"/><path d="m330.037 336.345c-.763-1.271-1.703-2.228-2.732-2.885 0 0-38.472 44.36-38.472 74.42 0 34.2 18.06 49.118 45.96 49.118 15.532 0 30.144-14.912 30.144-14.912 2.497-5.222 3.896-11 3.896-17.087 0-25.299-11.06-42.46-38.796-88.654z" fill="#fbf490"/><path d="m298.833 402.39c0-19.502 9.149-36.61 28.472-68.93-3.219-2.057-7.323-1.113-9.711 2.863-26.389 43.948-38.761 63.376-38.761 86.067 0 24.218 19.469 44.608 45.429 44.608 18.148 0 33.714-10.356 40.675-24.912-6.177 3.069-13.205 4.912-20.675 4.912-25.96 0-45.429-20.39-45.429-44.608z" fill="#f8e837"/><path d="m298.833 155-10 137.399 80-10v-127.399z" fill="#fbf490"/><path d="m298.833 274.899v-119.899h-20v139.899c0 4.142 3.358 7.5 7.5 7.5h75c4.142 0 7.5-3.358 7.5-7.5v-12.5h-62.5c-4.142 0-7.5-3.358-7.5-7.5z" fill="#f8e837"/><path d="m368.833 155v-102.5c0-4.142-3.358-7.5-7.5-7.5h-62.5l-10 101.54 10 26.757c7.151 1.634 15.748 2.283 25 2.283 24.853 0 45-4.674 45-20.58z" fill="#dce6eb"/><path d="m286.333 45c-4.142 0-7.5 3.358-7.5 7.5v102.5c0 9.985 7.942 15.542 20 18.297v-128.297z" fill="#b9c3cd"/><path d="m465.704 336.345c-.763-1.271-1.703-2.228-2.732-2.885 0 0-38.472 44.36-38.472 74.42 0 34.2 18.06 49.118 45.96 49.118 15.532 0 30.144-14.912 30.144-14.912 2.497-5.222 3.896-11 3.896-17.087 0-25.299-11.061-42.46-38.796-88.654z" fill="#4e5a61"/><path d="m434.5 402.39c0-19.502 9.149-36.61 28.472-68.93-3.219-2.057-7.323-1.113-9.711 2.863-26.389 43.948-38.761 63.377-38.761 86.067 0 24.218 19.469 44.608 45.429 44.608 18.148 0 33.714-10.356 40.675-24.912-6.177 3.069-13.205 4.912-20.675 4.912-25.96 0-45.429-20.39-45.429-44.608z" fill="#3f4a4a"/><path d="m434.5 115-10 177.399 80-10v-167.399z" fill="#4e5a61"/><path d="m434.5 274.899v-159.899h-20v179.899c0 4.142 3.358 7.5 7.5 7.5h75c4.142 0 7.5-3.358 7.5-7.5v-12.5h-62.5c-4.142 0-7.5-3.358-7.5-7.5z" fill="#3f4a4a"/><path d="m504.5 115v-62.5c0-4.142-3.358-7.5-7.5-7.5h-62.5l-10 61.54 10 26.757c7.151 1.634 15.748 2.283 25 2.283 24.853 0 45-4.674 45-20.58z" fill="#dce6eb"/><path d="m422 45c-4.142 0-7.5 3.358-7.5 7.5v62.5c0 9.985 7.942 15.542 20 18.297v-88.297z" fill="#b9c3cd"/></g><g><path d="m52.484 474.5c-28.437 0-52.484-23.521-52.484-52.11 0-23.678 12.07-43.753 36.116-83.747l3.715-6.181c2.844-4.736 7.567-7.563 12.637-7.563h.001c5.079 0 9.813 2.836 12.665 7.586l3.697 6.152c5.132 8.535 9.563 15.905 13.475 22.612 2.087 3.578.878 8.17-2.7 10.257-3.575 2.086-8.17.878-10.257-2.7-3.861-6.621-8.27-13.952-13.373-22.44l-3.5-5.825-3.504 5.83c-23.326 38.796-33.972 56.503-33.972 76.019 0 20.258 17.38 37.108 37.859 37.108 20.48 0 37.141-15.666 37.141-34.5 0-10.456-2.021-19.274-6.975-30.438-1.68-3.786.027-8.217 3.813-9.897 3.784-1.679 8.218.027 9.897 3.813 5.792 13.054 8.264 23.976 8.264 36.522 0 27.029-23.328 49.234-52.002 49.499-.17.003-.343.003-.513.003zm37.516-164.601h-75c-8.271 0-15-6.729-15-15v-242.399c0-8.271 6.729-15 15-15h75c8.271 0 15 6.729 15 15v242.399c0 8.271-6.729 15-15 15zm-75-212.931v197.931h75v-197.931c-8.14 4.531-22.653 6.112-37.5 6.112s-29.36-1.58-37.5-6.112zm0-21.968c0 11.381 23.495 13.08 37.5 13.08s37.5-1.699 37.5-13.08v-22.5h-75zm308.817 399.5c-28.438 0-52.484-23.521-52.484-52.11 0-23.678 12.07-43.753 36.116-83.747l3.715-6.181c2.844-4.736 7.567-7.563 12.637-7.563h.001c5.079 0 9.813 2.836 12.665 7.586l3.697 6.152c5.132 8.535 9.563 15.905 13.475 22.612 2.087 3.578.878 8.17-2.7 10.257-3.575 2.086-8.17.878-10.257-2.7-3.861-6.621-8.27-13.952-13.373-22.44l-3.5-5.825-3.504 5.83c-23.325 38.795-33.972 56.502-33.972 76.018 0 20.258 17.38 37.108 37.859 37.108 20.48 0 37.141-15.666 37.141-34.5 0-10.456-2.021-19.274-6.975-30.438-1.68-3.786.027-8.217 3.813-9.897 3.784-1.679 8.218.027 9.897 3.813 5.792 13.054 8.264 23.976 8.264 36.522 0 27.029-23.328 49.234-52.002 49.499-.17.004-.343.004-.513.004zm37.516-164.601h-75c-8.271 0-15-6.729-15-15v-242.399c0-8.271 6.729-15 15-15h75c8.271 0 15 6.729 15 15v242.399c0 8.271-6.729 15-15 15zm-75-132.931v117.931h75v-117.931c-8.14 4.531-22.653 6.112-37.5 6.112s-29.36-1.58-37.5-6.112zm0-21.968c0 11.381 23.495 13.08 37.5 13.08s37.5-1.699 37.5-13.08v-102.5h-75zm173.151 319.5c-28.438 0-52.484-23.521-52.484-52.11 0-23.678 12.07-43.753 36.116-83.747l3.715-6.181c2.844-4.736 7.567-7.563 12.637-7.563h.001c5.079 0 9.813 2.836 12.665 7.586l3.697 6.152c5.132 8.535 9.563 15.905 13.475 22.612 2.087 3.578.878 8.17-2.7 10.257-3.575 2.086-8.17.878-10.257-2.7-3.861-6.621-8.27-13.952-13.373-22.44l-3.5-5.825-3.504 5.83c-23.326 38.796-33.972 56.503-33.972 76.019 0 20.258 17.38 37.108 37.859 37.108 20.48 0 37.141-15.666 37.141-34.5 0-10.456-2.021-19.274-6.975-30.438-1.68-3.786.027-8.217 3.813-9.897 3.784-1.679 8.218.027 9.897 3.813 5.792 13.054 8.264 23.976 8.264 36.522 0 27.029-23.328 49.234-52.002 49.499-.17.003-.343.003-.513.003zm37.516-164.601h-75c-8.271 0-15-6.729-15-15v-242.399c0-8.271 6.729-15 15-15h75c8.271 0 15 6.729 15 15v242.399c0 8.271-6.729 15-15 15zm-75-172.931v157.931h75v-157.931c-8.14 4.531-22.653 6.112-37.5 6.112s-29.36-1.58-37.5-6.112zm0-21.968c0 11.381 23.495 13.08 37.5 13.08s37.5-1.699 37.5-13.08v-62.5h-75zm-233.849 359.5c-28.438 0-52.484-23.521-52.484-52.11 0-23.678 12.07-43.753 36.116-83.747l3.715-6.181c2.844-4.736 7.567-7.563 12.637-7.563h.001c5.079 0 9.813 2.836 12.665 7.586l3.697 6.152c5.132 8.535 9.563 15.905 13.475 22.612 2.087 3.578.878 8.17-2.7 10.257-3.575 2.086-8.17.878-10.257-2.7-3.861-6.621-8.27-13.952-13.373-22.44l-3.5-5.825-3.504 5.83c-23.325 38.795-33.972 56.502-33.972 76.018 0 20.258 17.38 37.108 37.859 37.108 20.48 0 37.141-15.666 37.141-34.5 0-10.456-2.021-19.274-6.975-30.438-1.68-3.786.027-8.217 3.813-9.897 3.784-1.679 8.218.027 9.897 3.813 5.792 13.054 8.264 23.976 8.264 36.522 0 27.029-23.328 49.234-52.002 49.499-.17.004-.343.004-.513.004zm37.516-164.601h-75c-8.271 0-15-6.729-15-15v-242.399c0-8.271 6.729-15 15-15h75c8.271 0 15 6.729 15 15v242.399c0 8.271-6.729 15-15 15zm-75-62.931v47.931h75v-47.931c-8.14 4.531-22.653 6.112-37.5 6.112s-29.36-1.58-37.5-6.112zm0-21.968c0 11.381 23.495 13.08 37.5 13.08s37.5-1.699 37.5-13.08v-172.5h-75z"/></g></g></svg>