<?xml version="1.0" encoding="iso-8859-1"?>
<!-- Generator: Adobe Illustrator 19.0.0, SVG Export Plug-In . SVG Version: 6.00 Build 0)  -->
<svg xmlns="http://www.w3.org/2000/svg" xmlns:xlink="http://www.w3.org/1999/xlink" version="1.1" id="Layer_1" x="0px" y="0px" viewBox="0 0 512 512" style="fill:#fff; enable-background:new 0 0 512 512;" xml:space="preserve">
<g>
	<g>
		<path d="M511.911,191.559c-0.041-0.844-0.209-1.677-0.498-2.471c-0.063-0.172-0.085-0.356-0.159-0.524    c-0.349-0.813-0.824-1.566-1.408-2.231l-63.175-71.075c-4.86-5.462-11.822-8.588-19.133-8.592H84.463    c-7.311,0.004-14.273,3.13-19.133,8.592L2.154,186.333c-0.584,0.665-1.059,1.418-1.408,2.231    c-0.074,0.168-0.096,0.352-0.159,0.524c-0.289,0.794-0.457,1.627-0.498,2.471C0.081,191.714,0,191.844,0,192v187.733    c0.015,14.132,11.468,25.585,25.6,25.6h460.8c14.132-0.015,25.585-11.468,25.6-25.6V192    C512,191.844,511.919,191.714,511.911,191.559z M78.088,126.592c1.62-1.819,3.939-2.859,6.375-2.859h343.075    c2.435,0,4.755,1.04,6.375,2.859l50.554,56.875H27.533L78.088,126.592z M494.933,379.733c-0.005,4.711-3.822,8.529-8.533,8.533    H25.6c-4.711-0.005-8.529-3.822-8.533-8.533V371.2h477.867V379.733z M494.933,354.133H17.067V234.667h477.867V354.133z     M494.933,217.6H17.067v-17.067h477.867V217.6z"/>
	</g>
</g>
<g>
	<g>
		<path d="M128.004,251.733c-0.001,0-0.003,0-0.004,0h-25.6c-4.712-0.001-8.532,3.817-8.533,8.529c0,0.002,0,0.003,0,0.004v8.533    h-8.533v-8.533c0.001-4.712-3.817-8.532-8.529-8.533c-0.001,0-0.003,0-0.004,0H51.2c-4.712-0.001-8.532,3.817-8.533,8.529    c0,0.002,0,0.003,0,0.004v68.267c-0.001,4.712,3.817,8.532,8.529,8.533c0.001,0,0.003,0,0.004,0H128    c4.712,0.001,8.532-3.817,8.533-8.529c0-0.001,0-0.003,0-0.004v-68.267C136.535,255.555,132.716,251.735,128.004,251.733z     M119.467,320H59.733v-51.2h8.533v8.533c-0.001,4.712,3.817,8.532,8.529,8.533c0.001,0,0.003,0,0.004,0h25.6    c4.712,0.001,8.532-3.817,8.533-8.529c0-0.001,0-0.003,0-0.004V268.8h8.533V320z"/>
	</g>
</g>
<g>
	<g>
		<path d="M238.938,251.733c-0.002,0-0.003,0-0.004,0h-25.6c-4.712-0.001-8.532,3.817-8.533,8.529c0,0.002,0,0.003,0,0.004v8.533    h-8.533v-8.533c0.001-4.712-3.817-8.532-8.529-8.533c-0.001,0-0.003,0-0.004,0h-25.6c-4.712-0.001-8.532,3.817-8.533,8.529    c0,0.002,0,0.003,0,0.004v68.267c-0.001,4.712,3.817,8.532,8.529,8.533c0.001,0,0.003,0,0.004,0h76.8    c4.712,0.001,8.532-3.817,8.533-8.529c0-0.001,0-0.003,0-0.004v-68.267C247.468,255.555,243.649,251.735,238.938,251.733z     M230.4,320h-59.733v-51.2h8.533v8.533c-0.001,4.712,3.817,8.532,8.529,8.533c0.002,0,0.003,0,0.004,0h25.6    c4.712,0.001,8.532-3.817,8.533-8.529c0-0.001,0-0.003,0-0.004V268.8h8.533V320z"/>
	</g>
</g>
<g>
	<g>
		<path d="M349.871,251.733c-0.001,0-0.003,0-0.004,0h-25.6c-4.712-0.001-8.532,3.817-8.533,8.529c0,0.002,0,0.003,0,0.004v8.533    H307.2v-8.533c0.001-4.712-3.817-8.532-8.529-8.533c-0.001,0-0.003,0-0.004,0h-25.6c-4.712-0.001-8.532,3.817-8.533,8.529    c0,0.002,0,0.003,0,0.004v68.267c-0.001,4.712,3.817,8.532,8.529,8.533c0.001,0,0.003,0,0.004,0h76.8    c4.712,0.001,8.532-3.817,8.533-8.529c0-0.001,0-0.003,0-0.004v-68.267C358.401,255.555,354.583,251.735,349.871,251.733z     M341.333,320H281.6v-51.2h8.533v8.533c-0.001,4.712,3.817,8.532,8.529,8.533c0.001,0,0.003,0,0.004,0h25.6    c4.712,0.001,8.532-3.817,8.533-8.529c0-0.001,0-0.003,0-0.004V268.8h8.533V320z"/>
	</g>
</g>
<g>
	<g>
		<path d="M460.804,251.733c-0.001,0-0.003,0-0.004,0h-25.6c-4.712-0.001-8.532,3.817-8.533,8.529c0,0.002,0,0.003,0,0.004v8.533    h-8.533v-8.533c0.001-4.712-3.817-8.532-8.529-8.533c-0.001,0-0.003,0-0.004,0H384c-4.712-0.001-8.532,3.817-8.533,8.529    c0,0.002,0,0.003,0,0.004v68.267c-0.001,4.712,3.817,8.532,8.529,8.533c0.001,0,0.003,0,0.004,0h76.8    c4.712,0.001,8.532-3.817,8.533-8.529c0-0.001,0-0.003,0-0.004v-68.267C469.335,255.555,465.516,251.735,460.804,251.733z     M452.267,320h-59.733v-51.2h8.533v8.533c-0.001,4.712,3.817,8.532,8.529,8.533c0.001,0,0.003,0,0.004,0h25.6    c4.712,0.001,8.532-3.817,8.533-8.529c0-0.001,0-0.003,0-0.004V268.8h8.533V320z"/>
	</g>
</g>
<g>
</g>
<g>
</g>
<g>
</g>
<g>
</g>
<g>
</g>
<g>
</g>
<g>
</g>
<g>
</g>
<g>
</g>
<g>
</g>
<g>
</g>
<g>
</g>
<g>
</g>
<g>
</g>
<g>
</g>
</svg>
