<?xml version="1.0" encoding="iso-8859-1"?>
<!-- Generator: Adobe Illustrator 19.0.0, SVG Export Plug-In . SVG Version: 6.00 Build 0)  -->
<svg xmlns="http://www.w3.org/2000/svg" xmlns:xlink="http://www.w3.org/1999/xlink" version="1.1" id="Layer_1" x="0px" y="0px" viewBox="0 0 512 512" style="fill:#fff; enable-background:new 0 0 512 512;" xml:space="preserve">
<g>
	<g>
		<path d="M387.335,179.53c-1.098-0.219-2.215-0.33-3.335-0.33h-16.733c-8.322,0.081-15.398,6.093-16.825,14.292l-8.775,67.7    c-1.845,9.244,4.154,18.234,13.398,20.078c1.098,0.219,2.215,0.33,3.335,0.33h16.733c8.322-0.082,15.398-6.093,16.825-14.292    l8.775-67.7C402.578,190.364,396.58,181.375,387.335,179.53z M375.133,264.533l-16.642-0.575l8.775-67.692H384L375.133,264.533z"/>
	</g>
</g>
<g>
	<g>
		<path d="M443.733,124.459c0.048-11.036-2.327-21.949-6.958-31.967C423.19,63.83,405.377,37.371,383.933,14    c-8.115-8.91-19.607-13.992-31.658-14h-192.55c-12.052,0.008-23.544,5.09-31.659,14C106.622,37.371,88.81,63.83,75.225,92.492    V92.5c-4.632,10.015-7.008,20.925-6.958,31.958V153.6c0,0.254,0.123,0.469,0.145,0.719c0.018,0.219-0.072,0.429-0.036,0.648    l56.592,349.867c0.673,4.13,4.24,7.165,8.425,7.167h245.217c4.185-0.002,7.752-3.036,8.425-7.167l56.592-349.867    c0.035-0.219-0.054-0.429-0.036-0.648c0.022-0.25,0.145-0.464,0.145-0.719V124.459z M371.342,494.933H140.658l-53.833-332.8    h338.35L371.342,494.933z M426.667,145.067H85.333v-20.608c-0.046-8.55,1.789-17.005,5.375-24.767    c12.849-27.103,29.701-52.119,49.992-74.208c4.875-5.357,11.782-8.413,19.025-8.417h192.55c7.243,0.004,14.15,3.06,19.025,8.417    c20.288,22.088,37.14,47.101,49.992,74.2c3.585,7.765,5.42,16.223,5.375,24.775V145.067z"/>
	</g>
</g>
<g>
	<g>
		<path d="M396.35,90.95l-17.067-34.133c-4.314-8.694-13.194-14.181-22.9-14.15H155.617c-9.706-0.031-18.586,5.456-22.9,14.15    L115.65,90.95c-6.325,12.643-1.204,28.02,11.439,34.345c3.558,1.78,7.482,2.706,11.461,2.705h234.9    c14.137,0.004,25.601-11.452,25.605-25.589C399.056,98.432,398.13,94.508,396.35,90.95z M380.708,106.883    c-1.535,2.536-4.294,4.075-7.258,4.05h-234.9c-4.715-0.002-8.535-3.826-8.532-8.541c0.001-1.322,0.308-2.626,0.899-3.809    l17.067-34.133c1.436-2.9,4.397-4.73,7.633-4.717h200.767c3.236-0.013,6.197,1.817,7.633,4.717l17.067,34.133    C382.435,101.221,382.293,104.378,380.708,106.883L380.708,106.883z"/>
	</g>
</g>
<g>
	<g>
		<path d="M332.8,76.8H179.2c-4.713,0-8.533,3.82-8.533,8.533s3.82,8.533,8.533,8.533h153.6c4.713,0,8.533-3.821,8.533-8.533    S337.513,76.8,332.8,76.8z"/>
	</g>
</g>
<g>
</g>
<g>
</g>
<g>
</g>
<g>
</g>
<g>
</g>
<g>
</g>
<g>
</g>
<g>
</g>
<g>
</g>
<g>
</g>
<g>
</g>
<g>
</g>
<g>
</g>
<g>
</g>
<g>
</g>
</svg>
