<svg id="Capa_1" enable-background="new 0 0 512 512" height="512" viewBox="0 0 512 512" width="512" xmlns="http://www.w3.org/2000/svg" style="fill:#fff;"><g><path d="m481.702 77.596h-451.404c-16.707 0-30.298 13.592-30.298 30.298v296.213c0 16.706 13.591 30.298 30.298 30.298h451.404c16.706 0 30.298-13.592 30.298-30.298v-296.213c0-16.706-13.592-30.298-30.298-30.298zm10.298 326.51c0 5.679-4.62 10.298-10.298 10.298h-451.404c-5.678 0-10.298-4.619-10.298-10.298v-296.212c0-5.679 4.62-10.298 10.298-10.298h451.404c5.678 0 10.298 4.619 10.298 10.298z"/><path d="m256 133.447c-5.523 0-10 4.478-10 10v225.105c0 5.522 4.477 10 10 10 5.522 0 10-4.478 10-10v-225.105c0-5.522-4.478-10-10-10z"/><path d="m196.851 123.447h-126.638c-5.523 0-10 4.478-10 10v130.723c0 5.522 4.477 10 10 10h126.638c5.523 0 10-4.478 10-10v-130.723c0-5.522-4.477-10-10-10zm-10 130.723h-106.638v-110.723h106.638z"/><path d="m461.341 123.447h-76.639c-5.522 0-10 4.478-10 10v65.361c0 5.522 4.478 10 10 10h76.639c5.522 0 10-4.478 10-10v-65.361c0-5.522-4.478-10-10-10zm-10 65.362h-56.639v-45.361h56.639z"/><path d="m196.851 302.106h-126.638c-5.523 0-10 4.478-10 10s4.477 10 10 10h126.638c5.523 0 10-4.478 10-10s-4.477-10-10-10z"/><path d="m196.851 348.553h-126.638c-5.523 0-10 4.478-10 10s4.477 10 10 10h126.638c5.523 0 10-4.478 10-10s-4.477-10-10-10z"/><path d="m461.341 302.106h-66.639c-5.522 0-10 4.478-10 10s4.478 10 10 10h66.639c5.522 0 10-4.478 10-10s-4.478-10-10-10z"/><path d="m461.341 348.553h-114.404c-5.522 0-10 4.478-10 10s4.478 10 10 10h114.404c5.522 0 10-4.478 10-10s-4.478-10-10-10z"/><path d="m380.957 247.498c0-18.76-15.262-34.021-34.021-34.021-18.76 0-34.021 15.262-34.021 34.021s15.262 34.021 34.021 34.021c18.759.001 34.021-15.261 34.021-34.021zm-48.042 0c0-7.731 6.29-14.021 14.021-14.021 7.73 0 14.021 6.29 14.021 14.021s-6.29 14.021-14.021 14.021c-7.731.001-14.021-6.29-14.021-14.021z"/></g></svg>