<?xml version="1.0" encoding="iso-8859-1"?>
<!-- Generator: Adobe Illustrator 19.0.0, SVG Export Plug-In . SVG Version: 6.00 Build 0)  -->
<svg xmlns="http://www.w3.org/2000/svg" xmlns:xlink="http://www.w3.org/1999/xlink" version="1.1" id="Layer_1" x="0px" y="0px" viewBox="0 0 512.002 512.002" style="enable-background:new 0 0 512.002 512.002;" xml:space="preserve">
<g>
	<g>
		<path d="M460.167,51.202h-72.868l56.693-35.433c3.993-2.502,5.202-7.767,2.7-11.76c-2.499-3.989-7.757-5.2-11.75-2.706    l-65.131,40.706l-21.277-30.706c-4.935-7.119-13.063-11.346-21.725-11.3h-70.175c-14.306-0.157-26.041,11.294-26.233,25.6v76.8    h-102.4c-9.421,0.012-17.054,7.646-17.067,17.067v114.517c0.005,6.123,3.286,11.775,8.6,14.817l51.133,29.218v125.776    L39.851,425.593c-8.233,1.361-14.267,8.488-14.25,16.834v18.375c0.021,6.069,3.272,11.667,8.533,14.692v10.908    c0,14.138,11.462,25.6,25.6,25.6s25.6-11.461,25.6-25.6v-8.533h93.867v8.533c0,14.138,11.461,25.6,25.6,25.6    s25.6-11.461,25.6-25.6v-8.533h17.067v8.533c0,14.138,11.461,25.6,25.6,25.6s25.6-11.461,25.6-25.6v-8.533h119.467v8.533    c0,14.138,11.461,25.6,25.6,25.6s25.6-11.461,25.6-25.6v-10.227c10.148-3.589,16.968-13.142,17.067-23.906V76.802    C486.208,62.496,474.474,51.044,460.167,51.202z M128.001,233.985V119.468h42.667V258.36L128.001,233.985z M68.267,486.402    c0,4.713-3.82,8.533-8.533,8.533s-8.533-3.82-8.533-8.533v-8.533h17.067V486.402z M213.334,486.402    c0,4.713-3.82,8.533-8.533,8.533s-8.533-3.82-8.533-8.533v-8.533h17.067V486.402z M230.401,460.802H42.667v-18.375l145.766-24.292    h41.967V460.802z M230.401,401.068h-42.667v-281.6h42.667V401.068z M281.601,486.402c0,4.713-3.821,8.533-8.533,8.533    s-8.533-3.82-8.533-8.533v-8.533h17.067V486.402z M452.267,486.402c0,4.713-3.82,8.533-8.533,8.533s-8.533-3.82-8.533-8.533    v-8.533h17.067V486.402z M469.334,452.268c-0.177,4.874-4.259,8.688-9.133,8.533H247.467v-51.2h221.867V452.268z M469.334,392.535    H247.467v-51.2h221.867V392.535z M469.334,324.268H247.467v-51.2h221.867V324.268z M469.334,256.002H247.467V119.468h93.867    v34.133c0.012,9.421,7.646,17.054,17.067,17.067h68.267c9.421-0.012,17.054-7.646,17.067-17.067v-34.133h25.6V256.002z     M426.67,110.949l0.014,42.653h-68.284v-51.2h68.267l0.003,8.52l-0.003,0.014L426.67,110.949z M469.334,102.402h-25.6    c-0.012-9.421-7.646-17.054-17.067-17.067h-68.267c-9.421,0.012-17.054,7.646-17.067,17.067h-93.867v-76.8    c0.184-4.883,4.282-8.699,9.167-8.533h70.175c3.049-0.044,5.922,1.423,7.675,3.917l24.933,35.983    c4.935,7.119,13.063,11.346,21.725,11.3h79.025c4.884-0.166,8.983,3.65,9.167,8.533V102.402z"/>
	</g>
</g>
<g>
	<g>
		<path d="M384.001,290.135h-51.2c-4.713,0-8.533,3.82-8.533,8.533s3.82,8.533,8.533,8.533h51.2c4.713,0,8.533-3.82,8.533-8.533    S388.714,290.135,384.001,290.135z"/>
	</g>
</g>
<g>
	<g>
		<path d="M384.001,358.402h-51.2c-4.713,0-8.533,3.82-8.533,8.533s3.82,8.533,8.533,8.533h51.2c4.713,0,8.533-3.82,8.533-8.533    S388.714,358.402,384.001,358.402z"/>
	</g>
</g>
<g>
	<g>
		<path d="M384.001,426.668h-51.2c-4.713,0-8.533,3.82-8.533,8.533s3.82,8.533,8.533,8.533h51.2c4.713,0,8.533-3.82,8.533-8.533    S388.714,426.668,384.001,426.668z"/>
	</g>
</g>
<g>
	<g>
		<path d="M375.467,187.735h-34.133c-9.421,0.012-17.054,7.646-17.067,17.067v17.067c0.012,9.421,7.646,17.054,17.067,17.067h34.133    c9.421-0.012,17.054-7.646,17.067-17.067v-17.067C392.522,195.381,384.888,187.747,375.467,187.735z M341.334,221.868v-17.067    h34.133l0.017,17.067H341.334z"/>
	</g>
</g>
<g>
	<g>
		<path d="M401.067,110.935h-17.067c-4.713,0-8.533,3.82-8.533,8.533s3.82,8.533,8.533,8.533h17.067c4.713,0,8.533-3.82,8.533-8.533    S405.78,110.935,401.067,110.935z"/>
	</g>
</g>
<g>
</g>
<g>
</g>
<g>
</g>
<g>
</g>
<g>
</g>
<g>
</g>
<g>
</g>
<g>
</g>
<g>
</g>
<g>
</g>
<g>
</g>
<g>
</g>
<g>
</g>
<g>
</g>
<g>
</g>
</svg>
