<?xml version="1.0" encoding="iso-8859-1"?>
<!-- Generator: Adobe Illustrator 19.0.0, SVG Export Plug-In . SVG Version: 6.00 Build 0)  -->
<svg xmlns="http://www.w3.org/2000/svg" xmlns:xlink="http://www.w3.org/1999/xlink" version="1.1" id="Layer_1" x="0px" y="0px" viewBox="0 0 512 512" style="enable-background:new 0 0 512 512;" xml:space="preserve">
<g>
	<g>
		<path d="M486.4,243.2h-42.667v-85.333c-0.015-14.132-11.468-25.585-25.6-25.6H409.6v-51.2c0-0.183-0.093-0.336-0.104-0.516    c-0.047-0.773-0.201-1.535-0.456-2.266c-0.082-0.273-0.178-0.542-0.288-0.805c-0.396-0.885-0.942-1.694-1.613-2.394l-0.05-0.064    l-59.712-59.711l-0.063-0.05c-0.7-0.671-1.511-1.218-2.396-1.615c-0.258-0.121-0.527-0.19-0.798-0.285    c-0.733-0.257-1.498-0.411-2.273-0.458c-0.179-0.011-0.331-0.104-0.514-0.104H128c-14.132,0.015-25.585,11.468-25.6,25.6v93.867    h-8.533c-14.132,0.015-25.585,11.468-25.6,25.6V243.2H25.6C11.468,243.215,0.015,254.668,0,268.8v204.8    c0.015,14.132,11.468,25.585,25.6,25.6h460.8c14.132-0.015,25.585-11.468,25.6-25.6V268.8    C511.985,254.668,500.532,243.215,486.4,243.2z M409.6,149.333h8.533c4.711,0.003,8.53,3.822,8.533,8.533V243.2H409.6V149.333z     M349.867,41.933l30.6,30.6h-30.6V41.933z M119.467,38.4c0.003-4.711,3.822-8.53,8.533-8.533h204.8v42.667    c0.012,9.421,7.646,17.054,17.067,17.067h42.667v153.6H119.467V38.4z M85.333,157.867c0.003-4.712,3.822-8.53,8.533-8.533h8.533    V243.2H85.333V157.867z M426.667,482.133H85.333v-68.267h341.333V482.133z M426.667,396.8H85.333v-17.067    c0.003-4.711,3.822-8.53,8.533-8.533h324.267c4.711,0.003,8.53,3.822,8.533,8.533V396.8z M494.933,473.6    c-0.003,4.711-3.822,8.53-8.533,8.533h-42.667v-102.4c-0.015-14.132-11.468-25.585-25.6-25.6H93.867    c-14.132,0.015-25.585,11.468-25.6,25.6v102.4H25.6c-4.711-0.003-8.53-3.822-8.533-8.533V337.067h477.867V473.6z M494.933,320    H17.067v-51.2c0.003-4.711,3.822-8.53,8.533-8.533h460.8c4.711,0.003,8.53,3.822,8.533,8.533V320z"/>
	</g>
</g>
<g>
	<g>
		<path d="M68.267,277.333h-25.6c-4.713,0-8.533,3.82-8.533,8.533s3.82,8.533,8.533,8.533h25.6c4.713,0,8.533-3.82,8.533-8.533    S72.979,277.333,68.267,277.333z"/>
	</g>
</g>
<g>
	<g>
		<path d="M238.933,277.333H102.4c-4.713,0-8.533,3.82-8.533,8.533s3.82,8.533,8.533,8.533h136.533c4.713,0,8.533-3.82,8.533-8.533    S243.646,277.333,238.933,277.333z"/>
	</g>
</g>
<g>
	<g>
		<path d="M204.8,81.067c-37.703,0-68.267,30.564-68.267,68.267c0.043,37.685,30.582,68.224,68.267,68.267    c37.703,0,68.267-30.564,68.267-68.267S242.503,81.067,204.8,81.067z M213.333,98.842c21.47,3.67,38.288,20.488,41.958,41.958    h-41.958V98.842z M196.267,199.816c-27.883-4.715-46.665-31.142-41.95-59.025c3.633-21.485,20.465-38.317,41.95-41.95v50.492    c-0.003,4.71,3.813,8.531,8.523,8.533c0.003,0,0.007,0,0.01,0h50.492C250.577,185.75,224.15,204.532,196.267,199.816z"/>
	</g>
</g>
<g>
	<g>
		<path d="M358.4,115.2h-59.733c-4.713,0-8.533,3.82-8.533,8.533c0,4.713,3.82,8.533,8.533,8.533H358.4    c4.713,0,8.533-3.82,8.533-8.533C366.933,119.02,363.113,115.2,358.4,115.2z"/>
	</g>
</g>
<g>
	<g>
		<path d="M358.4,149.333h-59.733c-4.713,0-8.533,3.82-8.533,8.533s3.82,8.533,8.533,8.533H358.4c4.713,0,8.533-3.82,8.533-8.533    S363.113,149.333,358.4,149.333z"/>
	</g>
</g>
<g>
	<g>
		<path d="M358.4,183.467h-59.733c-4.713,0-8.533,3.82-8.533,8.533s3.82,8.533,8.533,8.533H358.4c4.713,0,8.533-3.821,8.533-8.533    S363.113,183.467,358.4,183.467z"/>
	</g>
</g>
<g>
</g>
<g>
</g>
<g>
</g>
<g>
</g>
<g>
</g>
<g>
</g>
<g>
</g>
<g>
</g>
<g>
</g>
<g>
</g>
<g>
</g>
<g>
</g>
<g>
</g>
<g>
</g>
<g>
</g>
</svg>
