<?xml version="1.0" encoding="iso-8859-1"?>
<!-- Generator: Adobe Illustrator 19.0.0, SVG Export Plug-In . SVG Version: 6.00 Build 0)  -->
<svg xmlns="http://www.w3.org/2000/svg" xmlns:xlink="http://www.w3.org/1999/xlink" version="1.1" id="Layer_1" x="0px" y="0px" viewBox="0 0 512 512" style="fill:#fff; enable-background:new 0 0 512 512;" xml:space="preserve">
<g>
	<g>
		<path d="M512,29.867c-0.015-14.132-11.468-25.585-25.6-25.6H25.6C11.468,4.282,0.015,15.735,0,29.867v128    c0.02,6.319,2.394,12.404,6.658,17.067C2.394,179.596,0.02,185.681,0,192v128c0.02,6.319,2.394,12.404,6.658,17.067    C2.394,341.729,0.02,347.814,0,354.133v128c0.015,14.132,11.468,25.585,25.6,25.6h460.8c14.132-0.015,25.585-11.468,25.6-25.6    v-128c-0.02-6.319-2.394-12.404-6.658-17.067c4.265-4.663,6.639-10.748,6.658-17.067V192c-0.02-6.319-2.394-12.404-6.658-17.067    c4.265-4.663,6.639-10.748,6.658-17.067V29.867z M68.267,490.667H25.6c-4.711-0.005-8.529-3.822-8.533-8.533v-128    c0.005-4.711,3.822-8.529,8.533-8.533h42.667V490.667z M68.267,328.533H25.6c-4.711-0.005-8.529-3.822-8.533-8.533V192    c0.005-4.711,3.822-8.529,8.533-8.533h42.667V328.533z M68.267,166.4H25.6c-4.711-0.005-8.529-3.822-8.533-8.533v-128    c0.005-4.711,3.822-8.529,8.533-8.533h42.667V166.4z M426.667,490.667H85.333V345.6h341.333V490.667z M426.667,328.533H85.333    V183.467h341.333V328.533z M426.667,166.4H85.333V21.333h341.333V166.4z M494.933,482.133c-0.005,4.711-3.822,8.529-8.533,8.533    h-42.667V345.6H486.4c4.711,0.005,8.529,3.822,8.533,8.533V482.133z M494.933,320c-0.005,4.711-3.822,8.529-8.533,8.533h-42.667    V183.467H486.4c4.711,0.005,8.529,3.822,8.533,8.533V320z M494.933,157.867c-0.005,4.711-3.822,8.529-8.533,8.533h-42.667V21.333    H486.4c4.711,0.005,8.529,3.822,8.533,8.533V157.867z"/>
	</g>
</g>
<g>
	<g>
		<path d="M50.517,43.692c-0.413-1.044-1.021-2-1.792-2.817c-0.419-0.387-0.877-0.731-1.367-1.025c-0.434-0.34-0.925-0.6-1.45-0.767    c-0.509-0.259-1.056-0.433-1.621-0.517c-2.784-0.546-5.658,0.318-7.68,2.308c-0.773,0.815-1.383,1.772-1.796,2.817    c-0.906,2.066-0.906,4.417,0,6.483c0.435,1.034,1.042,1.986,1.796,2.817c0.829,0.753,1.78,1.359,2.813,1.792    c3.176,1.362,6.862,0.652,9.305-1.792c0.751-0.832,1.357-1.784,1.792-2.817C51.428,48.11,51.428,45.757,50.517,43.692z"/>
	</g>
</g>
<g>
	<g>
		<path d="M48.725,134.741c-0.406-0.366-0.834-0.708-1.279-1.025c-0.475-0.324-0.992-0.582-1.538-0.767    c-0.485-0.246-1.003-0.42-1.538-0.517c-2.811-0.571-5.721,0.295-7.763,2.308c-1.574,1.626-2.461,3.796-2.475,6.059    c0.012,1.115,0.243,2.216,0.679,3.242c0.435,1.034,1.042,1.986,1.795,2.817c0.847,0.751,1.794,1.382,2.813,1.875    c2.089,0.8,4.399,0.8,6.487,0c1.038-0.463,1.99-1.097,2.817-1.875c0.751-0.832,1.357-1.784,1.792-2.817    c0.437-1.026,0.669-2.127,0.683-3.242C51.167,138.541,50.283,136.378,48.725,134.741z"/>
	</g>
</g>
<g>
	<g>
		<path d="M477.183,43.692c-0.777-2.143-2.465-3.831-4.608-4.608c-2.077-0.858-4.41-0.858-6.487,0    c-2.141,0.78-3.828,2.467-4.608,4.608c-0.436,1.026-0.667,2.127-0.68,3.242c-0.029,1.119,0.204,2.229,0.679,3.242    c0.435,1.034,1.042,1.986,1.796,2.817c2.441,2.444,6.125,3.154,9.3,1.792c1.034-0.433,1.987-1.039,2.817-1.792    c0.751-0.832,1.357-1.784,1.792-2.817c0.478-1.012,0.712-2.123,0.683-3.242C477.853,45.819,477.621,44.717,477.183,43.692z"/>
	</g>
</g>
<g>
	<g>
		<path d="M469.383,132.217c-2.293-0.013-4.494,0.896-6.108,2.524c-1.574,1.626-2.461,3.796-2.475,6.059    c0.012,1.115,0.243,2.216,0.679,3.242c0.435,1.034,1.042,1.986,1.796,2.817c0.847,0.751,1.794,1.382,2.813,1.875    c3.201,1.248,6.837,0.516,9.305-1.875c0.751-0.832,1.357-1.784,1.792-2.817c0.437-1.026,0.669-2.127,0.683-3.242    C477.894,136.087,474.096,132.245,469.383,132.217z"/>
	</g>
</g>
<g>
	<g>
		<path d="M135.85,103.425c-0.413-1.044-1.021-2-1.791-2.817c-3.227-3.346-8.556-3.442-11.902-0.215    c-0.883,0.852-1.569,1.887-2.011,3.032c-0.436,1.026-0.667,2.127-0.68,3.242c-0.038,2.248,0.858,4.412,2.475,5.975    c3.272,3.346,8.637,3.406,11.983,0.133c0.832-0.813,1.487-1.789,1.925-2.867C136.761,107.843,136.761,105.49,135.85,103.425z"/>
	</g>
</g>
<g>
	<g>
		<path d="M161.451,120.492c-0.433-1.034-1.039-1.987-1.792-2.817c-0.802-0.789-1.762-1.399-2.817-1.792    c-3.181-1.299-6.829-0.596-9.3,1.792c-0.755,0.829-1.363,1.782-1.796,2.817c-1.788,4.363,0.299,9.35,4.662,11.138    c3.173,1.3,6.815,0.577,9.25-1.838c0.751-0.832,1.357-1.784,1.792-2.817C162.362,124.91,162.362,122.557,161.451,120.492z"/>
	</g>
</g>
<g>
	<g>
		<path d="M128.05,132.217c-2.293-0.013-4.494,0.896-6.108,2.524c-1.559,1.635-2.443,3.799-2.475,6.059    c0.012,1.115,0.243,2.216,0.679,3.242c0.435,1.034,1.042,1.986,1.796,2.817c0.826,0.778,1.776,1.412,2.813,1.875    c3.201,1.248,6.837,0.516,9.305-1.875c0.751-0.832,1.357-1.784,1.792-2.817c0.437-1.026,0.669-2.127,0.683-3.242    C136.561,136.087,132.763,132.245,128.05,132.217z"/>
	</g>
</g>
<g>
	<g>
		<path d="M187.05,103.425c-0.413-1.044-1.021-2-1.791-2.817c-2.476-2.38-6.121-3.082-9.304-1.792    c-1.033,0.433-1.984,1.039-2.813,1.792c-0.773,0.815-1.383,1.772-1.796,2.817c-0.436,1.026-0.667,2.127-0.68,3.242    c-0.038,2.248,0.858,4.412,2.475,5.975c1.616,1.599,3.786,2.515,6.059,2.558c4.699-0.033,8.501-3.834,8.533-8.533    C187.72,105.552,187.487,104.45,187.05,103.425z"/>
	</g>
</g>
<g>
	<g>
		<path d="M212.65,120.492c-0.433-1.034-1.039-1.986-1.791-2.817c-0.816-0.771-1.772-1.379-2.817-1.792    c-2.077-0.858-4.41-0.858-6.487,0c-1.044,0.412-1.998,1.02-2.813,1.792c-0.755,0.829-1.363,1.782-1.796,2.817    c-0.436,1.026-0.667,2.127-0.68,3.242c-0.029,1.119,0.204,2.229,0.679,3.242c0.435,1.034,1.042,1.986,1.795,2.817    c3.365,3.3,8.752,3.3,12.117,0c0.751-0.832,1.357-1.784,1.792-2.817c0.478-1.012,0.712-2.123,0.683-3.242    C213.32,122.619,213.087,121.517,212.65,120.492z"/>
	</g>
</g>
<g>
	<g>
		<path d="M179.25,132.217c-2.293-0.013-4.494,0.896-6.108,2.524c-1.559,1.635-2.443,3.799-2.475,6.059    c0.012,1.115,0.243,2.216,0.679,3.242c0.435,1.034,1.042,1.986,1.796,2.817c0.826,0.778,1.776,1.412,2.813,1.875    c2.089,0.8,4.399,0.8,6.487,0c1.038-0.463,1.99-1.097,2.817-1.875c1.591-1.615,2.48-3.792,2.475-6.059    C187.761,136.087,183.963,132.245,179.25,132.217z"/>
	</g>
</g>
<g>
	<g>
		<path d="M238.25,103.425c-0.413-1.044-1.021-2-1.791-2.817c-3.399-3.214-8.717-3.214-12.117,0    c-0.755,0.829-1.363,1.782-1.796,2.817c-0.906,2.066-0.906,4.417,0,6.483c0.416,1.019,1.026,1.947,1.796,2.733    c3.319,3.346,8.722,3.367,12.068,0.048c1.607-1.594,2.514-3.76,2.523-6.023C238.92,105.552,238.687,104.45,238.25,103.425z"/>
	</g>
</g>
<g>
	<g>
		<path d="M263.85,120.492c-0.433-1.034-1.039-1.986-1.792-2.817c-2.473-2.388-6.122-3.09-9.304-1.792    c-1.054,0.392-2.012,1.002-2.813,1.792c-0.773,0.815-1.383,1.772-1.796,2.817c-1.356,3.176-0.645,6.857,1.796,9.3    c3.365,3.3,8.752,3.3,12.117,0c0.751-0.832,1.357-1.784,1.792-2.817C264.761,124.91,264.761,122.557,263.85,120.492z"/>
	</g>
</g>
<g>
	<g>
		<path d="M236.459,134.741c-2.022-1.989-4.896-2.853-7.68-2.308c-0.566,0.083-1.115,0.257-1.625,0.517    c-0.543,0.185-1.059,0.443-1.533,0.767c-0.447,0.315-0.875,0.657-1.279,1.025c-1.559,1.635-2.443,3.799-2.475,6.059    c0.012,1.115,0.243,2.216,0.679,3.242c0.435,1.034,1.042,1.986,1.796,2.817c0.826,0.778,1.776,1.412,2.813,1.875    c2.089,0.8,4.399,0.8,6.487,0c1.021-0.493,1.969-1.124,2.817-1.875c0.751-0.832,1.357-1.784,1.792-2.817    c0.437-1.026,0.669-2.127,0.683-3.242C238.917,138.538,238.031,136.368,236.459,134.741z"/>
	</g>
</g>
<g>
	<g>
		<path d="M289.45,103.425c-0.433-1.034-1.039-1.986-1.791-2.817c-3.399-3.214-8.717-3.214-12.117,0    c-0.755,0.829-1.363,1.782-1.796,2.817c-0.436,1.026-0.667,2.127-0.679,3.242c-0.029,1.119,0.204,2.229,0.679,3.242    c0.416,1.019,1.026,1.947,1.796,2.733c3.319,3.346,8.722,3.368,12.068,0.049c1.607-1.594,2.515-3.761,2.524-6.024    C290.12,105.552,289.888,104.451,289.45,103.425z"/>
	</g>
</g>
<g>
	<g>
		<path d="M315.05,120.492c-0.413-1.044-1.021-2-1.791-2.817c-0.816-0.771-1.772-1.379-2.817-1.792c-2.077-0.858-4.41-0.858-6.487,0    c-2.141,0.78-3.828,2.467-4.608,4.608c-1.357,3.176-0.647,6.858,1.795,9.301c0.829,0.753,1.78,1.359,2.813,1.792    c1.014,0.477,2.126,0.71,3.246,0.683c4.665,0.048,8.485-3.694,8.533-8.358C315.745,122.734,315.513,121.571,315.05,120.492z"/>
	</g>
</g>
<g>
	<g>
		<path d="M281.65,132.217c-2.293-0.013-4.494,0.896-6.108,2.524c-1.559,1.635-2.443,3.799-2.475,6.059    c0.012,1.115,0.243,2.216,0.679,3.242c0.435,1.034,1.042,1.986,1.796,2.817c0.826,0.778,1.776,1.412,2.813,1.875    c2.089,0.8,4.399,0.8,6.487,0c1.038-0.463,1.99-1.097,2.817-1.875c0.751-0.832,1.357-1.784,1.792-2.817    c0.437-1.026,0.669-2.127,0.683-3.242C290.161,136.087,286.362,132.245,281.65,132.217z"/>
	</g>
</g>
<g>
	<g>
		<path d="M340.65,103.425c-0.433-1.034-1.039-1.986-1.791-2.817c-0.83-0.753-1.783-1.359-2.817-1.792    c-2.077-0.858-4.41-0.858-6.487,0c-2.141,0.78-3.828,2.467-4.608,4.608c-1.294,3.156-0.588,6.778,1.795,9.218    c3.255,3.346,8.607,3.419,11.952,0.164c0.055-0.054,0.11-0.109,0.164-0.164C341.3,110.234,342.012,106.573,340.65,103.425z"/>
	</g>
</g>
<g>
	<g>
		<path d="M366.25,120.491c-0.433-1.034-1.039-1.986-1.792-2.817c-0.816-0.771-1.772-1.379-2.817-1.792    c-2.077-0.858-4.41-0.858-6.487,0c-2.141,0.78-3.828,2.467-4.608,4.608c-1.836,4.292,0.156,9.26,4.449,11.096    c1.076,0.46,2.235,0.692,3.405,0.68c1.119,0.027,2.229-0.207,3.242-0.683c1.034-0.433,1.987-1.039,2.817-1.792    c0.751-0.832,1.357-1.784,1.792-2.817C367.161,124.91,367.161,122.556,366.25,120.491z"/>
	</g>
</g>
<g>
	<g>
		<path d="M338.859,134.741c-2.05-2.002-4.956-2.866-7.767-2.308c-0.535,0.096-1.053,0.27-1.538,0.517    c-0.543,0.185-1.059,0.443-1.533,0.767c-0.447,0.315-0.874,0.657-1.279,1.025c-1.559,1.635-2.443,3.799-2.475,6.059    c0.012,1.115,0.243,2.216,0.679,3.242c0.435,1.034,1.042,1.986,1.795,2.817c0.826,0.778,1.777,1.412,2.813,1.875    c2.089,0.8,4.399,0.8,6.487,0c1.021-0.493,1.969-1.124,2.817-1.875c0.751-0.832,1.357-1.784,1.792-2.817    c0.437-1.026,0.669-2.127,0.683-3.242C341.317,138.538,340.431,136.368,338.859,134.741z"/>
	</g>
</g>
<g>
	<g>
		<path d="M391.85,103.425c-0.433-1.034-1.039-1.986-1.791-2.817c-0.83-0.753-1.783-1.359-2.817-1.792    c-2.077-0.858-4.41-0.858-6.487,0c-2.141,0.78-3.828,2.467-4.608,4.608c-1.294,3.156-0.588,6.778,1.795,9.218    c3.255,3.346,8.607,3.419,11.952,0.164c0.055-0.054,0.11-0.109,0.164-0.164c0.767-0.788,1.376-1.716,1.792-2.733    c0.478-1.012,0.712-2.123,0.683-3.242C392.52,105.552,392.287,104.451,391.85,103.425z"/>
	</g>
</g>
<g>
	<g>
		<path d="M390.059,134.741c-0.407-0.366-0.834-0.708-1.279-1.025c-0.475-0.325-0.992-0.582-1.538-0.767    c-0.485-0.246-1.003-0.42-1.538-0.517c-2.81-0.558-5.714,0.305-7.763,2.308c-1.574,1.626-2.461,3.796-2.475,6.059    c0.012,1.115,0.243,2.216,0.679,3.242c0.435,1.034,1.042,1.986,1.795,2.817c2.466,2.391,6.1,3.123,9.3,1.875    c1.038-0.463,1.99-1.097,2.817-1.875c0.751-0.832,1.357-1.784,1.792-2.817c0.437-1.026,0.669-2.127,0.683-3.242    C392.5,138.541,391.616,136.378,390.059,134.741z"/>
	</g>
</g>
<g>
	<g>
		<path d="M238.933,38.4h-128c-4.713,0-8.533,3.82-8.533,8.533s3.82,8.533,8.533,8.533h128c4.713,0,8.533-3.82,8.533-8.533    S243.646,38.4,238.933,38.4z"/>
	</g>
</g>
<g>
	<g>
		<path d="M401.067,38.4h-128c-4.713,0-8.533,3.82-8.533,8.533s3.821,8.533,8.533,8.533h128c4.713,0,8.533-3.82,8.533-8.533    S405.78,38.4,401.067,38.4z"/>
	</g>
</g>
<g>
	<g>
		<path d="M50.517,205.825c-0.413-1.044-1.021-2-1.792-2.817c-3.421-3.158-8.695-3.158-12.117,0    c-0.773,0.815-1.383,1.772-1.796,2.817c-1.849,4.337,0.167,9.351,4.504,11.2c4.337,1.849,9.351-0.167,11.2-4.504    C51.429,210.382,51.429,207.964,50.517,205.825z"/>
	</g>
</g>
<g>
	<g>
		<path d="M50.517,299.692c-0.433-1.034-1.039-1.987-1.791-2.817c-3.421-3.158-8.695-3.158-12.117,0    c-0.755,0.829-1.363,1.782-1.796,2.817c-0.906,2.066-0.906,4.417,0,6.483c0.435,1.034,1.042,1.986,1.795,2.817    c3.365,3.3,8.752,3.3,12.117,0c0.751-0.832,1.357-1.784,1.792-2.817C51.428,304.11,51.428,301.757,50.517,299.692z"/>
	</g>
</g>
<g>
	<g>
		<path d="M477.183,205.825c-0.433-1.034-1.039-1.986-1.792-2.817c-3.421-3.158-8.695-3.158-12.117,0    c-0.755,0.829-1.363,1.782-1.796,2.817c-1.835,4.293,0.157,9.26,4.45,11.095c1.076,0.46,2.235,0.691,3.404,0.68    c4.667,0.045,8.488-3.702,8.533-8.369c0-0.055,0-0.109,0-0.164C477.896,207.948,477.662,206.837,477.183,205.825z"/>
	</g>
</g>
<g>
	<g>
		<path d="M477.183,299.692c-0.433-1.034-1.039-1.987-1.791-2.817c-3.421-3.158-8.695-3.158-12.117,0    c-0.755,0.829-1.363,1.782-1.796,2.817c-0.906,2.066-0.906,4.417,0,6.483c0.435,1.034,1.042,1.986,1.795,2.817    c3.365,3.3,8.752,3.3,12.117,0c0.751-0.832,1.357-1.784,1.792-2.817C478.094,304.11,478.094,301.757,477.183,299.692z"/>
	</g>
</g>
<g>
	<g>
		<path d="M134.059,262.741c-2.453-2.425-6.126-3.133-9.304-1.791c-1.054,0.392-2.012,1.002-2.813,1.792    c-1.559,1.635-2.443,3.799-2.475,6.058c0,4.713,3.82,8.533,8.533,8.533s8.533-3.821,8.533-8.533    C136.517,266.538,135.631,264.368,134.059,262.741z"/>
	</g>
</g>
<g>
	<g>
		<path d="M159.659,279.808c-0.83-0.753-1.783-1.359-2.817-1.791c-3.177-1.341-6.849-0.634-9.3,1.792    c-0.773,0.815-1.383,1.772-1.796,2.817c-1.819,4.342,0.227,9.337,4.569,11.156s9.337-0.227,11.156-4.569    c0.444-1.059,0.669-2.197,0.662-3.346C162.1,283.608,161.216,281.444,159.659,279.808z"/>
	</g>
</g>
<g>
	<g>
		<path d="M135.85,299.692c-0.433-1.034-1.039-1.987-1.791-2.817c-0.419-0.387-0.877-0.731-1.367-1.025    c-0.434-0.34-0.925-0.6-1.45-0.767c-0.485-0.246-1.003-0.42-1.538-0.517c-2.81-0.558-5.715,0.305-7.763,2.308    c-0.755,0.829-1.363,1.782-1.796,2.817c-0.906,2.066-0.906,4.417,0,6.483c0.435,1.034,1.042,1.986,1.796,2.817    c3.365,3.3,8.752,3.3,12.117,0c0.751-0.832,1.357-1.784,1.792-2.817C136.761,304.11,136.761,301.757,135.85,299.692z"/>
	</g>
</g>
<g>
	<g>
		<path d="M179.25,260.217c-2.293-0.013-4.494,0.896-6.108,2.524c-1.574,1.626-2.461,3.796-2.475,6.059    c0,4.713,3.82,8.533,8.533,8.533s8.533-3.821,8.533-8.533C187.761,264.087,183.963,260.245,179.25,260.217z"/>
	</g>
</g>
<g>
	<g>
		<path d="M212.65,282.625c-0.413-1.044-1.021-2-1.791-2.817c-0.419-0.388-0.877-0.731-1.367-1.025    c-0.434-0.34-0.925-0.6-1.45-0.767c-0.485-0.246-1.003-0.42-1.538-0.517c-1.664-0.348-3.394-0.167-4.95,0.517    c-1.033,0.433-1.984,1.039-2.813,1.792c-1.559,1.635-2.444,3.799-2.475,6.058c-0.023,2.27,0.869,4.454,2.475,6.059    c0.847,0.751,1.794,1.382,2.813,1.875c4.327,1.814,9.306-0.224,11.119-4.552C213.562,287.129,213.553,284.739,212.65,282.625z"/>
	</g>
</g>
<g>
	<g>
		<path d="M187.05,299.692c-0.433-1.034-1.039-1.987-1.791-2.817c-3.421-3.158-8.695-3.158-12.117,0    c-0.755,0.829-1.363,1.782-1.796,2.817c-0.906,2.066-0.906,4.417,0,6.483c0.435,1.034,1.042,1.986,1.795,2.817    c3.365,3.3,8.752,3.3,12.117,0c0.751-0.832,1.357-1.784,1.792-2.817C187.961,304.11,187.961,301.757,187.05,299.692z"/>
	</g>
</g>
<g>
	<g>
		<path d="M230.45,260.217c-2.293-0.013-4.494,0.896-6.108,2.524c-1.559,1.635-2.443,3.799-2.475,6.059    c0,4.713,3.82,8.533,8.533,8.533s8.533-3.821,8.533-8.533C238.961,264.087,235.163,260.245,230.45,260.217z"/>
	</g>
</g>
<g>
	<g>
		<path d="M256.05,277.284c-2.293-0.013-4.494,0.896-6.108,2.524c-1.559,1.635-2.443,3.799-2.475,6.059    c0,4.713,3.82,8.533,8.533,8.533s8.533-3.82,8.533-8.533C264.561,281.154,260.763,277.311,256.05,277.284z"/>
	</g>
</g>
<g>
	<g>
		<path d="M238.25,299.692c-0.433-1.034-1.039-1.987-1.791-2.817c-3.421-3.158-8.695-3.158-12.117,0    c-0.755,0.829-1.363,1.782-1.796,2.817c-0.906,2.066-0.906,4.417,0,6.483c0.435,1.034,1.042,1.986,1.795,2.817    c3.365,3.3,8.752,3.3,12.117,0c0.751-0.832,1.357-1.784,1.792-2.817C239.161,304.11,239.161,301.757,238.25,299.692z"/>
	</g>
</g>
<g>
	<g>
		<path d="M287.659,262.741c-2.453-2.425-6.126-3.133-9.305-1.791c-1.033,0.433-1.984,1.039-2.813,1.792    c-1.574,1.625-2.461,3.795-2.475,6.058c0,4.713,3.82,8.533,8.533,8.533s8.533-3.821,8.533-8.533    C290.1,266.541,289.216,264.378,287.659,262.741z"/>
	</g>
</g>
<g>
	<g>
		<path d="M307.25,277.284c-2.293-0.013-4.494,0.896-6.108,2.524c-1.559,1.635-2.443,3.799-2.475,6.059    c-0.023,2.27,0.869,4.454,2.475,6.059c0.847,0.751,1.794,1.382,2.813,1.875c4.353,1.797,9.338-0.276,11.135-4.629    c0.432-1.048,0.652-2.171,0.645-3.305C315.761,281.154,311.963,277.311,307.25,277.284z"/>
	</g>
</g>
<g>
	<g>
		<path d="M289.45,299.692c-0.433-1.034-1.039-1.987-1.791-2.817c-0.83-0.753-1.783-1.359-2.817-1.792    c-3.177-1.341-6.849-0.634-9.3,1.792c-0.755,0.829-1.363,1.782-1.796,2.817c-0.906,2.066-0.906,4.417,0,6.483    c0.435,1.034,1.042,1.986,1.795,2.817c3.365,3.3,8.752,3.3,12.117,0c0.751-0.832,1.357-1.784,1.792-2.817    C290.361,304.11,290.361,301.757,289.45,299.692z"/>
	</g>
</g>
<g>
	<g>
		<path d="M338.859,262.741c-2.453-2.425-6.126-3.133-9.305-1.791c-1.044,0.412-1.998,1.02-2.813,1.792    c-1.559,1.635-2.443,3.799-2.475,6.058c0,4.713,3.821,8.533,8.533,8.533c4.713,0,8.533-3.821,8.533-8.533    C341.3,266.541,340.416,264.378,338.859,262.741z"/>
	</g>
</g>
<g>
	<g>
		<path d="M358.45,277.284c-2.293-0.013-4.494,0.896-6.108,2.524c-1.559,1.635-2.443,3.799-2.475,6.059    c0,4.713,3.82,8.533,8.533,8.533s8.533-3.82,8.533-8.533C366.961,281.154,363.163,277.311,358.45,277.284z"/>
	</g>
</g>
<g>
	<g>
		<path d="M340.65,299.692c-0.433-1.034-1.039-1.987-1.791-2.817c-3.422-3.158-8.695-3.158-12.117,0    c-0.755,0.829-1.363,1.782-1.796,2.817c-0.906,2.066-0.906,4.417,0,6.483c0.435,1.034,1.042,1.986,1.795,2.817    c3.365,3.3,8.752,3.3,12.117,0c0.751-0.832,1.357-1.784,1.792-2.817C341.561,304.11,341.561,301.757,340.65,299.692z"/>
	</g>
</g>
<g>
	<g>
		<path d="M390.059,262.741c-2.453-2.425-6.126-3.133-9.304-1.791c-1.033,0.433-1.984,1.039-2.813,1.792    c-1.559,1.635-2.443,3.799-2.475,6.058c0,4.713,3.82,8.533,8.533,8.533s8.533-3.821,8.533-8.533    C392.5,266.541,391.616,264.378,390.059,262.741z"/>
	</g>
</g>
<g>
	<g>
		<path d="M391.851,299.692c-0.433-1.034-1.039-1.987-1.792-2.817c-3.421-3.158-8.695-3.158-12.117,0    c-0.755,0.829-1.363,1.782-1.796,2.817c-0.906,2.066-0.906,4.417,0,6.483c0.435,1.034,1.042,1.986,1.795,2.817    c0.847,0.751,1.794,1.382,2.813,1.875c3.201,1.248,6.837,0.516,9.305-1.875c0.751-0.832,1.357-1.784,1.792-2.817    C392.762,304.11,392.762,301.757,391.851,299.692z"/>
	</g>
</g>
<g>
	<g>
		<path d="M238.933,200.533h-128c-4.713,0-8.533,3.821-8.533,8.533c0,4.713,3.82,8.533,8.533,8.533h128    c4.713,0,8.533-3.821,8.533-8.533C247.467,204.354,243.646,200.533,238.933,200.533z"/>
	</g>
</g>
<g>
	<g>
		<path d="M401.067,200.533h-128c-4.713,0-8.533,3.821-8.533,8.533c0,4.713,3.821,8.533,8.533,8.533h128    c4.713,0,8.533-3.821,8.533-8.533C409.6,204.354,405.78,200.533,401.067,200.533z"/>
	</g>
</g>
<g>
	<g>
		<path d="M48.725,365.141c-3.422-3.159-8.696-3.159-12.117,0c-1.559,1.635-2.443,3.799-2.475,6.059    c-0.029,1.119,0.204,2.229,0.679,3.242c0.435,1.034,1.042,1.986,1.795,2.817c3.319,3.346,8.722,3.368,12.068,0.05    c1.628-1.614,2.537-3.816,2.524-6.108C51.167,368.941,50.283,366.778,48.725,365.141z"/>
	</g>
</g>
<g>
	<g>
		<path d="M48.725,459.008c-3.422-3.159-8.696-3.159-12.117,0c-1.559,1.635-2.443,3.799-2.475,6.059    c0.012,1.115,0.243,2.216,0.679,3.242c0.435,1.034,1.042,1.986,1.795,2.817c0.829,0.753,1.78,1.359,2.813,1.792    c2.066,0.911,4.421,0.911,6.487,0c1.034-0.433,1.987-1.039,2.817-1.792c0.751-0.832,1.357-1.784,1.792-2.817    c0.437-1.026,0.669-2.127,0.683-3.242C51.184,462.804,50.298,460.635,48.725,459.008z"/>
	</g>
</g>
<g>
	<g>
		<path d="M475.392,365.141c-0.407-0.366-0.834-0.708-1.279-1.025c-0.475-0.325-0.992-0.582-1.538-0.767    c-0.485-0.246-1.003-0.42-1.538-0.517c-2.81-0.558-5.714,0.305-7.763,2.308c-1.559,1.635-2.443,3.799-2.475,6.059    c0,4.713,3.82,8.533,8.533,8.533s8.533-3.82,8.533-8.533C477.833,368.941,476.95,366.778,475.392,365.141z"/>
	</g>
</g>
<g>
	<g>
		<path d="M475.392,459.008c-3.422-3.159-8.696-3.159-12.117,0c-1.559,1.635-2.443,3.799-2.475,6.059    c0.012,1.115,0.243,2.216,0.679,3.242c0.78,2.141,2.467,3.828,4.608,4.608c2.067,0.911,4.421,0.911,6.487,0    c1.034-0.433,1.987-1.039,2.817-1.792c0.751-0.832,1.357-1.784,1.792-2.817c0.437-1.025,0.669-2.126,0.683-3.241    C477.851,462.804,476.964,460.635,475.392,459.008z"/>
	</g>
</g>
<g>
	<g>
		<path d="M135.851,427.692c-0.433-1.034-1.039-1.987-1.792-2.817c-3.421-3.158-8.695-3.158-12.117,0    c-0.755,0.829-1.363,1.782-1.796,2.817c-0.906,2.066-0.906,4.417,0,6.483c0.435,1.034,1.042,1.986,1.795,2.817    c0.847,0.751,1.794,1.382,2.813,1.875c3.201,1.248,6.837,0.516,9.305-1.875c0.751-0.832,1.357-1.784,1.792-2.817    C136.762,432.11,136.762,429.757,135.851,427.692z"/>
	</g>
</g>
<g>
	<g>
		<path d="M161.45,444.759c-0.433-1.034-1.039-1.987-1.791-2.817c-0.83-0.753-1.783-1.359-2.817-1.792    c-1.556-0.684-3.286-0.865-4.95-0.517c-0.535,0.096-1.053,0.27-1.538,0.517c-0.524,0.169-1.015,0.428-1.45,0.767    c-0.513,0.341-0.938,0.683-1.363,1.025c-0.773,0.815-1.383,1.772-1.796,2.817c-1.357,3.176-0.646,6.858,1.795,9.301    c0.847,0.751,1.794,1.382,2.813,1.875c4.327,1.814,9.306-0.224,11.119-4.552C162.362,449.262,162.353,446.872,161.45,444.759z"/>
	</g>
</g>
<g>
	<g>
		<path d="M134.059,459.008c-0.83-0.753-1.783-1.359-2.817-1.791c-1.556-0.684-3.286-0.865-4.95-0.517    c-0.535,0.096-1.053,0.27-1.538,0.517c-0.543,0.185-1.059,0.443-1.533,0.767c-0.447,0.315-0.875,0.657-1.279,1.025    c-1.559,1.635-2.443,3.799-2.475,6.059c0.012,1.115,0.243,2.216,0.679,3.242c0.435,1.034,1.042,1.986,1.796,2.817    c3.365,3.3,8.752,3.3,12.117,0c0.751-0.832,1.357-1.784,1.792-2.817c0.438-1.026,0.67-2.127,0.683-3.242    C136.5,462.808,135.616,460.644,134.059,459.008z"/>
	</g>
</g>
<g>
	<g>
		<path d="M187.05,427.692c-0.433-1.034-1.039-1.987-1.791-2.817c-3.421-3.158-8.695-3.158-12.117,0    c-0.755,0.829-1.363,1.782-1.796,2.817c-0.906,2.066-0.906,4.417,0,6.483c0.435,1.034,1.042,1.986,1.795,2.817    c3.365,3.3,8.752,3.3,12.117,0c0.751-0.832,1.357-1.784,1.792-2.817C187.961,432.11,187.961,429.757,187.05,427.692z"/>
	</g>
</g>
<g>
	<g>
		<path d="M212.651,444.759c-0.413-1.044-1.021-2-1.792-2.817c-0.429-0.341-0.854-0.683-1.279-1.025    c-0.475-0.325-0.992-0.582-1.538-0.767c-0.485-0.246-1.003-0.42-1.538-0.517c-2.81-0.558-5.715,0.305-7.763,2.308    c-0.773,0.815-1.383,1.772-1.796,2.817c-1.357,3.176-0.646,6.858,1.796,9.301c0.847,0.751,1.794,1.382,2.813,1.875    c2.089,0.8,4.399,0.8,6.487,0c1.021-0.493,1.969-1.124,2.817-1.875C213.303,451.617,214.013,447.933,212.651,444.759z"/>
	</g>
</g>
<g>
	<g>
		<path d="M185.259,459.008c-2.457-2.418-6.125-3.124-9.305-1.791c-1.033,0.433-1.984,1.039-2.813,1.792    c-1.559,1.635-2.443,3.799-2.475,6.058c0.012,1.115,0.243,2.216,0.679,3.242c0.435,1.034,1.042,1.986,1.796,2.817    c3.365,3.3,8.752,3.3,12.117,0c0.751-0.832,1.357-1.784,1.792-2.817c0.478-1.012,0.713-2.123,0.683-3.242    C187.7,462.808,186.816,460.644,185.259,459.008z"/>
	</g>
</g>
<g>
	<g>
		<path d="M238.25,427.692c-0.433-1.034-1.039-1.987-1.791-2.817c-3.421-3.158-8.695-3.158-12.117,0    c-0.755,0.829-1.363,1.782-1.796,2.817c-0.906,2.066-0.906,4.417,0,6.483c0.435,1.034,1.042,1.986,1.795,2.817    c3.365,3.3,8.752,3.3,12.117,0c0.751-0.832,1.357-1.784,1.792-2.817C239.161,432.11,239.161,429.757,238.25,427.692z"/>
	</g>
</g>
<g>
	<g>
		<path d="M263.851,444.759c-0.433-1.034-1.039-1.987-1.792-2.817c-0.429-0.341-0.854-0.683-1.367-1.025    c-0.434-0.34-0.925-0.6-1.45-0.767c-0.485-0.246-1.003-0.42-1.538-0.517c-1.664-0.348-3.394-0.167-4.95,0.517    c-2.141,0.78-3.828,2.467-4.608,4.608c-1.772,4.387,0.348,9.38,4.736,11.152c2.039,0.823,4.316,0.831,6.36,0.023    c1.02-0.493,1.968-1.123,2.816-1.874c0.751-0.832,1.357-1.784,1.792-2.817C264.762,449.177,264.762,446.824,263.851,444.759z"/>
	</g>
</g>
<g>
	<g>
		<path d="M236.459,459.008c-0.407-0.366-0.834-0.708-1.279-1.025c-0.475-0.324-0.992-0.582-1.538-0.767    c-0.485-0.246-1.003-0.42-1.538-0.517c-2.81-0.558-5.714,0.305-7.763,2.308c-1.559,1.635-2.443,3.799-2.475,6.059    c0.012,1.115,0.243,2.216,0.679,3.242c0.78,2.141,2.467,3.828,4.608,4.608c2.067,0.911,4.421,0.911,6.487,0    c1.034-0.433,1.987-1.039,2.817-1.792c0.751-0.832,1.357-1.784,1.792-2.817c0.437-1.025,0.67-2.126,0.683-3.241    C238.9,462.808,238.016,460.644,236.459,459.008z"/>
	</g>
</g>
<g>
	<g>
		<path d="M289.451,427.692c-0.433-1.034-1.039-1.987-1.792-2.817c-3.421-3.158-8.695-3.158-12.117,0    c-0.755,0.829-1.363,1.782-1.796,2.817c-0.906,2.066-0.906,4.417,0,6.483c0.435,1.034,1.042,1.986,1.795,2.817    c2.466,2.391,6.1,3.123,9.3,1.875c1.021-0.493,1.969-1.124,2.817-1.875c0.751-0.832,1.357-1.784,1.792-2.817    C290.362,432.11,290.362,429.757,289.451,427.692z"/>
	</g>
</g>
<g>
	<g>
		<path d="M315.05,444.758c-0.433-1.034-1.039-1.986-1.792-2.816c-0.83-0.753-1.783-1.359-2.817-1.792    c-1.556-0.684-3.286-0.865-4.95-0.517c-0.535,0.096-1.053,0.27-1.538,0.517c-0.524,0.169-1.015,0.428-1.45,0.767    c-0.512,0.341-0.937,0.683-1.362,1.025c-0.773,0.815-1.383,1.772-1.796,2.817c-1.849,4.337,0.167,9.351,4.504,11.2    c4.337,1.849,9.351-0.167,11.2-4.504C315.962,449.315,315.962,446.897,315.05,444.758z"/>
	</g>
</g>
<g>
	<g>
		<path d="M287.659,459.008c-2.05-2.002-4.956-2.866-7.767-2.308c-0.535,0.096-1.053,0.271-1.538,0.517    c-0.543,0.185-1.059,0.443-1.533,0.767c-0.447,0.315-0.874,0.657-1.279,1.025c-1.559,1.635-2.443,3.799-2.475,6.059    c0.012,1.115,0.243,2.216,0.679,3.242c0.435,1.034,1.042,1.986,1.796,2.817c3.319,3.346,8.722,3.368,12.068,0.05    c1.628-1.614,2.537-3.816,2.524-6.108C290.1,462.808,289.216,460.644,287.659,459.008z"/>
	</g>
</g>
<g>
	<g>
		<path d="M340.651,427.692c-0.433-1.034-1.039-1.987-1.792-2.817c-3.422-3.158-8.695-3.158-12.117,0    c-0.773,0.815-1.383,1.772-1.796,2.817c-0.906,2.066-0.906,4.417,0,6.483c0.435,1.034,1.042,1.986,1.795,2.817    c2.466,2.391,6.1,3.123,9.3,1.875c1.021-0.493,1.969-1.124,2.817-1.875c0.751-0.832,1.357-1.784,1.792-2.817    C341.562,432.11,341.562,429.757,340.651,427.692z"/>
	</g>
</g>
<g>
	<g>
		<path d="M366.251,444.759c-0.413-1.044-1.021-2-1.792-2.817c-0.429-0.341-0.854-0.683-1.279-1.025    c-0.475-0.325-0.992-0.582-1.538-0.767c-0.485-0.246-1.003-0.42-1.538-0.517c-2.81-0.558-5.715,0.305-7.763,2.308    c-0.773,0.815-1.383,1.772-1.796,2.817c-0.906,2.066-0.906,4.417,0,6.483c0.435,1.034,1.042,1.987,1.796,2.817    c0.847,0.751,1.794,1.382,2.813,1.875c2.089,0.8,4.399,0.8,6.487,0c1.021-0.493,1.968-1.124,2.817-1.875    C366.903,451.617,367.613,447.933,366.251,444.759z"/>
	</g>
</g>
<g>
	<g>
		<path d="M338.859,459.008c-0.42-0.387-0.878-0.731-1.367-1.025c-0.434-0.34-0.925-0.6-1.45-0.767    c-0.509-0.259-1.056-0.433-1.621-0.517c-1.636-0.343-3.339-0.162-4.867,0.517c-1.033,0.433-1.984,1.039-2.813,1.792    c-1.559,1.635-2.443,3.799-2.475,6.058c-0.029,1.119,0.204,2.229,0.679,3.242c0.435,1.034,1.042,1.986,1.795,2.817    c3.365,3.3,8.752,3.3,12.117,0c0.751-0.832,1.357-1.784,1.792-2.817c0.478-1.012,0.712-2.123,0.683-3.242    C341.3,462.808,340.416,460.644,338.859,459.008z"/>
	</g>
</g>
<g>
	<g>
		<path d="M391.851,427.692c-0.433-1.034-1.039-1.987-1.792-2.817c-3.421-3.158-8.695-3.158-12.117,0    c-0.755,0.829-1.363,1.782-1.796,2.817c-0.906,2.066-0.906,4.417,0,6.483c0.435,1.034,1.042,1.986,1.795,2.817    c2.466,2.391,6.1,3.123,9.3,1.875c1.021-0.493,1.969-1.124,2.817-1.875c0.751-0.832,1.357-1.784,1.792-2.817    C392.762,432.11,392.762,429.757,391.851,427.692z"/>
	</g>
</g>
<g>
	<g>
		<path d="M384.05,456.484c-2.292-0.013-4.494,0.896-6.108,2.524c-1.574,1.626-2.461,3.796-2.475,6.059    c0.012,1.115,0.243,2.216,0.679,3.242c0.78,2.141,2.467,3.828,4.608,4.608c2.067,0.911,4.421,0.911,6.487,0    c1.034-0.433,1.987-1.039,2.817-1.792c0.751-0.832,1.357-1.784,1.792-2.817c0.437-1.025,0.67-2.126,0.683-3.241    C392.561,460.354,388.763,456.511,384.05,456.484z"/>
	</g>
</g>
<g>
	<g>
		<path d="M238.933,362.667h-128c-4.713,0-8.533,3.82-8.533,8.533s3.82,8.533,8.533,8.533h128c4.713,0,8.533-3.82,8.533-8.533    S243.646,362.667,238.933,362.667z"/>
	</g>
</g>
<g>
	<g>
		<path d="M401.067,362.667h-128c-4.713,0-8.533,3.82-8.533,8.533s3.821,8.533,8.533,8.533h128c4.713,0,8.533-3.82,8.533-8.533    S405.78,362.667,401.067,362.667z"/>
	</g>
</g>
<g>
</g>
<g>
</g>
<g>
</g>
<g>
</g>
<g>
</g>
<g>
</g>
<g>
</g>
<g>
</g>
<g>
</g>
<g>
</g>
<g>
</g>
<g>
</g>
<g>
</g>
<g>
</g>
<g>
</g>
</svg>
