<?xml version="1.0" encoding="iso-8859-1"?>
<!-- Generator: Adobe Illustrator 19.0.0, SVG Export Plug-In . SVG Version: 6.00 Build 0)  -->
<svg xmlns="http://www.w3.org/2000/svg" xmlns:xlink="http://www.w3.org/1999/xlink" version="1.1" id="Layer_1" x="0px" y="0px" viewBox="0 0 512.234 512.234" style="fill:#fff; enable-background:new 0 0 512.234 512.234;" xml:space="preserve">
<g>
	<g>
		<path d="M384.117,461.034h-2.618l-45.497-121.425c60.769-30.274,99.217-92.283,99.316-160.175    C435.446,80.465,355.321,0.129,256.351,0C157.382-0.129,77.047,79.997,76.917,178.966    c-0.089,68.063,38.389,130.302,99.315,160.643l-45.497,121.425h-2.618c-14.132,0.015-25.585,11.468-25.6,25.6v17.067    c-0.001,4.712,3.817,8.532,8.529,8.533c0.001,0,0.003,0,0.004,0h290.133c4.712,0.001,8.532-3.817,8.533-8.529    c0-0.001,0-0.003,0-0.004v-17.067C409.702,472.502,398.249,461.05,384.117,461.034z M281.496,19.49    c-1.133,14.016-13.414,24.46-27.43,23.327c-12.443-1.006-22.321-10.884-23.327-23.327    C247.531,16.571,264.702,16.571,281.496,19.49z M93.984,179.434c0.131-73.251,49.319-137.334,120.047-156.397    c3.047,23.244,24.359,39.616,47.603,36.57c19.066-2.499,34.07-17.504,36.57-36.57c86.418,23.287,137.597,112.22,114.31,198.638    c-23.286,86.418-112.22,137.597-198.638,114.311C143.108,316.917,93.948,252.725,93.984,179.434z M290.25,355.283v28.951    c0,18.851-15.282,34.133-34.133,34.133c-18.851,0-34.133-15.282-34.133-34.133v-28.951    C244.52,359.751,267.714,359.751,290.25,355.283z M191.867,346.523c4.289,1.655,8.609,3.237,13.049,4.565v33.147    c0,28.277,22.923,51.2,51.2,51.2s51.2-22.923,51.2-51.2v-33.147c4.44-1.327,8.76-2.909,13.049-4.565l42.909,114.511H148.959    L191.867,346.523z M392.65,495.167H119.584v-8.533c0.005-4.711,3.822-8.529,8.533-8.533h256c4.711,0.005,8.529,3.822,8.533,8.533    V495.167z"/>
	</g>
</g>
<g>
	<g>
		<path d="M256.117,85.567c-51.841,0-93.867,42.026-93.867,93.867s42.026,93.867,93.867,93.867    c51.817-0.059,93.808-42.05,93.867-93.867C349.984,127.593,307.958,85.567,256.117,85.567z M256.117,256.234    c-42.396-0.048-76.752-34.404-76.8-76.8c0-42.415,34.385-76.8,76.8-76.8s76.8,34.385,76.8,76.8S298.532,256.234,256.117,256.234z"/>
	</g>
</g>
<g>
	<g>
		<path d="M256.117,119.701c-32.99,0-59.733,26.744-59.733,59.733s26.744,59.733,59.733,59.733    c32.974-0.038,59.695-26.759,59.733-59.733C315.85,146.444,289.107,119.701,256.117,119.701z M256.117,222.101    c-23.553-0.028-42.639-19.114-42.667-42.667c0-23.564,19.102-42.667,42.667-42.667s42.667,19.103,42.667,42.667    S279.681,222.101,256.117,222.101z"/>
	</g>
</g>
<g>
</g>
<g>
</g>
<g>
</g>
<g>
</g>
<g>
</g>
<g>
</g>
<g>
</g>
<g>
</g>
<g>
</g>
<g>
</g>
<g>
</g>
<g>
</g>
<g>
</g>
<g>
</g>
<g>
</g>
</svg>
