<?xml version="1.0" encoding="iso-8859-1"?>
<!-- Generator: Adobe Illustrator 19.0.0, SVG Export Plug-In . SVG Version: 6.00 Build 0)  -->
<svg xmlns="http://www.w3.org/2000/svg" xmlns:xlink="http://www.w3.org/1999/xlink" version="1.1" id="Layer_1" x="0px" y="0px" viewBox="0 0 512 512" style="enable-background:new 0 0 512 512;" xml:space="preserve">
<g>
	<g>
		<path d="M384,140.8H256c-4.713,0-8.533,3.82-8.533,8.533s3.82,8.533,8.533,8.533h128c4.713,0,8.533-3.82,8.533-8.533    S388.713,140.8,384,140.8z"/>
	</g>
</g>
<g>
	<g>
		<path d="M384,174.933H256c-4.713,0-8.533,3.82-8.533,8.533S251.287,192,256,192h128c4.713,0,8.533-3.82,8.533-8.533    S388.713,174.933,384,174.933z"/>
	</g>
</g>
<g>
	<g>
		<path d="M375.467,226.133H358.4c-9.421,0.011-17.056,7.646-17.067,17.067v128c0.011,9.421,7.645,17.056,17.067,17.067h17.067    c9.421-0.011,17.056-7.645,17.067-17.067v-128C392.523,233.779,384.888,226.144,375.467,226.133z M375.467,371.2H358.4v-128    h17.067V371.2z"/>
	</g>
</g>
<g>
	<g>
		<path d="M443.733,157.867h-17.067c-9.421,0.012-17.054,7.646-17.067,17.067V371.2c0.012,9.421,7.646,17.054,17.067,17.067h17.067    c9.421-0.012,17.054-7.646,17.067-17.067V174.933C460.788,165.513,453.154,157.879,443.733,157.867z M443.733,371.2h-17.067    V174.933h17.067V371.2z"/>
	</g>
</g>
<g>
	<g>
		<path d="M307.2,302.933h-17.067c-9.421,0.011-17.056,7.645-17.067,17.067v51.2c0.011,9.421,7.645,17.056,17.067,17.067H307.2    c9.421-0.011,17.056-7.645,17.067-17.067V320C324.256,310.579,316.621,302.944,307.2,302.933z M307.2,371.2h-17.067V320H307.2    V371.2z"/>
	</g>
</g>
<g>
	<g>
		<path d="M238.933,320h-17.067c-9.421,0.011-17.056,7.645-17.067,17.067V371.2c0.011,9.421,7.646,17.056,17.067,17.067h17.067    c9.421-0.011,17.056-7.645,17.067-17.067v-34.133C255.989,327.645,248.355,320.011,238.933,320z M238.933,371.2h-17.067v-34.133    h17.067V371.2z"/>
	</g>
</g>
<g>
	<g>
		<path d="M486.4,98.133H341.333v-25.6C341.313,53.69,326.043,38.42,307.2,38.4h-42.667v-8.533c0-4.713-3.82-8.533-8.533-8.533    s-8.533,3.82-8.533,8.533V38.4H204.8c-18.843,0.02-34.113,15.29-34.133,34.133v25.6H25.6c-14.132,0.015-25.585,11.468-25.6,25.6    V422.4c0.015,14.132,11.468,25.585,25.6,25.6v8.533c0.015,14.132,11.468,25.585,25.6,25.6h49.325    c4.812,5.41,11.701,8.514,18.942,8.533h273.067c7.241-0.02,14.13-3.123,18.942-8.533H460.8c14.132-0.015,25.585-11.468,25.6-25.6    V448c14.132-0.015,25.585-11.468,25.6-25.6V123.733C511.985,109.601,500.532,98.149,486.4,98.133z M187.733,72.533    c0.011-9.421,7.646-17.056,17.067-17.067h102.4c9.421,0.011,17.056,7.645,17.067,17.067v25.6H187.733V72.533z M93.867,465.067    H51.2c-4.711-0.005-8.529-3.822-8.533-8.533V448h51.2V465.067z M401.067,465.067c-0.005,4.711-3.823,8.529-8.533,8.533H119.467    c-4.711-0.005-8.529-3.822-8.533-8.533V422.4h290.133V465.067z M469.333,456.533c-0.003,4.711-3.822,8.53-8.533,8.533h-42.667V448    h51.2V456.533z M494.933,422.4c-0.003,4.711-3.822,8.53-8.533,8.533h-68.267V422.4c-0.012-9.421-7.646-17.054-17.067-17.067    H110.933c-9.421,0.011-17.056,7.646-17.067,17.067v8.533H25.6c-4.711-0.005-8.529-3.822-8.533-8.533V123.733    c0.005-4.711,3.822-8.529,8.533-8.533h460.8c4.711,0.003,8.53,3.822,8.533,8.533V422.4z"/>
	</g>
</g>
<g>
	<g>
		<path d="M170.667,439.467h-34.133c-4.713,0-8.533,3.82-8.533,8.533s3.82,8.533,8.533,8.533h34.133c4.713,0,8.533-3.82,8.533-8.533    S175.38,439.467,170.667,439.467z"/>
	</g>
</g>
<g>
	<g>
		<path d="M238.933,439.467H204.8c-4.713,0-8.533,3.82-8.533,8.533s3.82,8.533,8.533,8.533h34.133c4.713,0,8.533-3.82,8.533-8.533    S243.646,439.467,238.933,439.467z"/>
	</g>
</g>
<g>
	<g>
		<path d="M307.2,439.467h-34.133c-4.713,0-8.533,3.82-8.533,8.533s3.821,8.533,8.533,8.533H307.2c4.713,0,8.533-3.82,8.533-8.533    S311.913,439.467,307.2,439.467z"/>
	</g>
</g>
<g>
	<g>
		<path d="M375.467,439.467h-34.133c-4.713,0-8.533,3.82-8.533,8.533s3.821,8.533,8.533,8.533h34.133    c4.713,0,8.533-3.82,8.533-8.533S380.18,439.467,375.467,439.467z"/>
	</g>
</g>
<g>
	<g>
		<path d="M187.738,243.2c-0.001,0-0.003,0-0.004,0H128v-59.733c0.001-4.712-3.817-8.532-8.529-8.533c-0.001,0-0.003,0-0.004,0    c-42.415,0-76.8,34.385-76.8,76.8s34.385,76.8,76.8,76.8s76.8-34.385,76.8-76.8C196.268,247.022,192.449,243.201,187.738,243.2z     M119.467,311.467c-32.991-0.001-59.735-26.747-59.734-59.738c0.001-29.693,21.812-54.878,51.2-59.121v59.125    c-0.001,4.712,3.817,8.532,8.529,8.533c0.001,0,0.003,0,0.004,0h59.125C174.312,289.636,149.147,311.429,119.467,311.467z"/>
	</g>
</g>
<g>
	<g>
		<path d="M153.6,140.8c-4.712-0.001-8.532,3.817-8.533,8.529c0,0.002,0,0.003,0,0.004V217.6c-0.001,4.712,3.817,8.532,8.529,8.533    c0.001,0,0.003,0,0.004,0h68.267c4.712,0.001,8.532-3.817,8.533-8.529c0-0.001,0-0.003,0-0.004    C230.352,175.204,195.996,140.848,153.6,140.8z M162.133,209.067v-50.592c26.195,3.824,46.768,24.397,50.592,50.592H162.133z"/>
	</g>
</g>
<g>
</g>
<g>
</g>
<g>
</g>
<g>
</g>
<g>
</g>
<g>
</g>
<g>
</g>
<g>
</g>
<g>
</g>
<g>
</g>
<g>
</g>
<g>
</g>
<g>
</g>
<g>
</g>
<g>
</g>
</svg>
