<?xml version="1.0" encoding="iso-8859-1"?>
<!-- Generator: Adobe Illustrator 19.0.0, SVG Export Plug-In . SVG Version: 6.00 Build 0)  -->
<svg xmlns="http://www.w3.org/2000/svg" xmlns:xlink="http://www.w3.org/1999/xlink" version="1.1" id="Layer_1" x="0px" y="0px" viewBox="0 0 512 512" style="enable-background:new 0 0 512 512;" xml:space="preserve">
<g>
	<g>
		<path d="M76.8,132.267H42.667c-4.713,0-8.533,3.821-8.533,8.533c0,4.713,3.82,8.533,8.533,8.533H76.8    c4.713,0,8.533-3.821,8.533-8.533C85.333,136.087,81.513,132.267,76.8,132.267z"/>
	</g>
</g>
<g>
	<g>
		<path d="M486.4,89.6h-25.6c-0.028-23.553-19.114-42.639-42.667-42.667H409.6V38.4c-0.015-14.132-11.468-25.585-25.6-25.6H128    c-14.132,0.015-25.585,11.468-25.6,25.6v8.533h-8.533C70.314,46.961,51.228,66.047,51.2,89.6H25.6    C11.468,89.615,0.015,101.068,0,115.2v145.067c0.012,9.421,7.646,17.054,17.067,17.067h17.067v163.706    c-10.199,3.592-17.033,13.214-17.067,24.028v25.6c-0.003,4.71,3.813,8.531,8.523,8.533c0.003,0,0.007,0,0.01,0h68.267    c4.71,0.003,8.531-3.813,8.533-8.523c0-0.003,0-0.007,0-0.01v-25.6c-0.033-10.813-6.868-20.435-17.067-24.028V422.4h51.2v8.533    c0.015,14.132,11.468,25.585,25.6,25.6h187.733c14.132-0.015,25.585-11.468,25.6-25.6V422.4h51.2v18.639    c-10.199,3.592-17.033,13.214-17.067,24.028v25.6c-0.003,4.71,3.813,8.531,8.523,8.533c0.003,0,0.007,0,0.01,0H486.4    c4.71,0.003,8.531-3.813,8.533-8.523c0-0.003,0-0.007,0-0.01v-25.6c-0.033-10.813-6.868-20.435-17.067-24.028V277.333h17.067    c9.421-0.012,17.054-7.646,17.067-17.067V115.2C511.985,101.068,500.532,89.615,486.4,89.6z M119.467,38.4    c0.003-4.711,3.822-8.53,8.533-8.533h256c4.711,0.003,8.53,3.822,8.533,8.533v8.533H119.467V38.4z M85.333,482.133h-51.2v-17.067    c0.003-4.711,3.822-8.53,8.533-8.533H76.8c4.712,0.003,8.53,3.822,8.533,8.533V482.133z M51.2,439.467V277.333h17.067v162.133    H51.2z M17.067,260.267V115.2c0.003-4.711,3.822-8.53,8.533-8.533h68.267c4.711,0.003,8.53,3.822,8.533,8.533l0.006,51.171    L102.4,166.4l0.006,0.029l0.01,85.227l-0.016,0.078l0.016,0.078l0.001,8.456H17.067z M136.533,405.333h-51.2v-17.067h51.2V405.333    z M136.533,371.2h-51.2v-93.867H102.4c9.421-0.012,17.054-7.646,17.067-17.067h17.067V371.2z M136.533,243.2h-17.067v-68.267    h17.067V243.2z M358.4,430.933c-0.003,4.711-3.822,8.53-8.533,8.533H162.133c-4.712-0.003-8.53-3.822-8.533-8.533v-256h204.8    V430.933z M119.467,157.867V115.2c-0.015-14.132-11.468-25.585-25.6-25.6h-25.6c0.015-14.132,11.468-25.585,25.6-25.6h324.267    c14.132,0.015,25.585,11.468,25.6,25.6h-25.6c-14.132,0.015-25.585,11.468-25.6,25.6v42.667H119.467z M392.533,260.267    c0.012,9.421,7.646,17.054,17.067,17.067h17.067V371.2h-51.2V260.267H392.533z M375.467,243.2v-68.267h17.067V243.2H375.467z     M375.467,405.333v-17.067h51.2v17.067H375.467z M477.867,482.133h-51.2v-17.067c0.003-4.711,3.822-8.53,8.533-8.533h34.133    c4.711,0.003,8.53,3.822,8.533,8.533V482.133z M443.733,439.467V277.333H460.8v162.133H443.733z M469.333,260.267H409.6V115.2    c0.003-4.711,3.822-8.53,8.533-8.533H486.4c4.711,0.003,8.53,3.822,8.533,8.533l0.017,145.067H469.333z"/>
	</g>
</g>
<g>
	<g>
		<path d="M469.333,132.267H435.2c-4.713,0-8.533,3.821-8.533,8.533c0,4.713,3.82,8.533,8.533,8.533h34.133    c4.713,0,8.533-3.821,8.533-8.533C477.867,136.087,474.046,132.267,469.333,132.267z"/>
	</g>
</g>
<g>
	<g>
		<path d="M366.933,89.6H145.067c-4.713,0-8.533,3.82-8.533,8.533s3.82,8.533,8.533,8.533h221.867c4.713,0,8.533-3.82,8.533-8.533    S371.646,89.6,366.933,89.6z"/>
	</g>
</g>
<g>
	<g>
		<path d="M332.81,226.133c-0.003,0-0.007,0-0.01,0H179.2c-4.71-0.003-8.531,3.813-8.533,8.523c0,0.003,0,0.007,0,0.01V371.2    c-0.003,4.71,3.813,8.531,8.523,8.533c0.003,0,0.007,0,0.01,0h153.6c4.71,0.003,8.531-3.813,8.533-8.523c0-0.003,0-0.007,0-0.01    V234.667C341.336,229.957,337.52,226.136,332.81,226.133z M324.267,320h-34.133c-4.713,0-8.533,3.821-8.533,8.533    s3.82,8.533,8.533,8.533h34.133v25.6H230.4v-25.6H256c4.713,0,8.533-3.82,8.533-8.533S260.713,320,256,320h-25.6v-8.533    c0-4.713-3.82-8.533-8.533-8.533s-8.533,3.82-8.533,8.533v51.2h-25.6V243.2h25.6v34.133c0,4.713,3.82,8.533,8.533,8.533    s8.533-3.82,8.533-8.533V243.2h51.971c3.659,21.441,20.455,38.237,41.896,41.896V320z M324.267,267.588    c-11.947-3.111-21.277-12.441-24.388-24.388h24.388V267.588z"/>
	</g>
</g>
<g>
</g>
<g>
</g>
<g>
</g>
<g>
</g>
<g>
</g>
<g>
</g>
<g>
</g>
<g>
</g>
<g>
</g>
<g>
</g>
<g>
</g>
<g>
</g>
<g>
</g>
<g>
</g>
<g>
</g>
</svg>
